<!DOCTYPE svg PUBLIC "-//W3C//DTD SVG 1.1//EN" "http://www.w3.org/Graphics/SVG/1.1/DTD/svg11.dtd"[]><svg xmlns="http://www.w3.org/2000/svg" version="1.1" width="160" height="160" style="shape-rendering:geometricPrecision; text-rendering:geometricPrecision; image-rendering:optimizeQuality; fill-rule:evenodd; clip-rule:evenodd" xmlns:xlink="http://www.w3.org/1999/xlink" viewBox="0 0 791 791"><g><path style="opacity:1" fill="#636262" d="M -0.5,-0.5 C 129.5,-0.5 259.5,-0.5 389.5,-0.5C 389.5,71.5 389.5,143.5 389.5,215.5C 259.5,215.5 129.5,215.5 -0.5,215.5C -0.5,143.5 -0.5,71.5 -0.5,-0.5 Z" /></g><g><path style="opacity:1" fill="#6c2090" d="M 389.5,-0.5 C 523.167,-0.5 656.833,-0.5 790.5,-0.5C 790.5,71.5 790.5,143.5 790.5,215.5C 656.833,215.5 523.167,215.5 389.5,215.5C 389.5,143.5 389.5,71.5 389.5,-0.5 Z" /></g><g><path style="opacity:1" fill="#e8e8e8" d="M -0.5,215.5 C 129.5,215.5 259.5,215.5 389.5,215.5C 523.167,215.5 656.833,215.5 790.5,215.5C 790.5,313.5 790.5,411.5 790.5,509.5C 656.833,509.5 523.167,509.5 389.5,509.5C 259.5,509.5 129.5,509.5 -0.5,509.5C -0.5,411.5 -0.5,313.5 -0.5,215.5 Z" /></g><g><path style="opacity:1" fill="#686667" d="M 79.5,275.5 C 80.5,275.5 81.5,275.5 82.5,275.5C 82.3335,286.838 82.5001,298.172 83,309.5C 88.4029,302.053 95.5695,299.553 104.5,302C 106.378,303.543 107.878,305.376 109,307.5C 109.323,319.847 109.823,332.181 110.5,344.5C 107.833,344.5 105.167,344.5 102.5,344.5C 102.667,333.162 102.5,321.828 102,310.5C 99.0189,306.304 95.1856,305.471 90.5,308C 87.7047,309.793 85.2047,311.96 83,314.5C 82.5002,324.494 82.3335,334.494 82.5,344.5C 79.8333,344.5 77.1667,344.5 74.5,344.5C 74.5,321.833 74.5,299.167 74.5,276.5C 76.4147,276.784 78.0813,276.451 79.5,275.5 Z" /></g><g><path style="opacity:1" fill="#6a6869" d="M 519.5,275.5 C 522.833,275.5 526.167,275.5 529.5,275.5C 529.382,278.688 528.549,281.688 527,284.5C 524.441,281.651 521.274,280.817 517.5,282C 515.448,282.93 513.948,284.43 513,286.5C 512.501,291.489 512.334,296.489 512.5,301.5C 516.555,301.176 520.555,301.509 524.5,302.5C 523.754,303.736 523.421,305.07 523.5,306.5C 520.167,306.5 516.833,306.5 513.5,306.5C 513.5,319.167 513.5,331.833 513.5,344.5C 510.833,344.5 508.167,344.5 505.5,344.5C 505.5,331.833 505.5,319.167 505.5,306.5C 503.076,306.808 500.743,306.474 498.5,305.5C 499.522,302.013 501.855,300.68 505.5,301.5C 504.958,289.91 509.625,281.244 519.5,275.5 Z" /></g><g><path style="opacity:1" fill="#696768" d="M 424.5,275.5 C 425.5,275.5 426.5,275.5 427.5,275.5C 427.5,298.5 427.5,321.5 427.5,344.5C 424.833,344.5 422.167,344.5 419.5,344.5C 419.5,321.833 419.5,299.167 419.5,276.5C 421.415,276.784 423.081,276.451 424.5,275.5 Z" /></g><g><path style="opacity:1" fill="#c2c2c2" d="M 63.5,286.5 C 64.8333,286.5 66.1667,286.5 67.5,286.5C 67.5,284.5 67.5,282.5 67.5,280.5C 52.1667,280.5 36.8333,280.5 21.5,280.5C 21.5,282.5 21.5,284.5 21.5,286.5C 22.8333,286.5 24.1667,286.5 25.5,286.5C 24.0813,287.451 22.4147,287.784 20.5,287.5C 20.5,284.833 20.5,282.167 20.5,279.5C 36.5,279.5 52.5,279.5 68.5,279.5C 68.5,282.167 68.5,284.833 68.5,287.5C 66.5853,287.784 64.9187,287.451 63.5,286.5 Z" /></g><g><path style="opacity:1" fill="#666465" d="M 63.5,286.5 C 58.5,286.5 53.5,286.5 48.5,286.5C 48.2737,305.85 48.607,325.183 49.5,344.5C 46.1667,344.5 42.8333,344.5 39.5,344.5C 40.4501,325.194 40.7834,305.86 40.5,286.5C 35.5,286.5 30.5,286.5 25.5,286.5C 24.1667,286.5 22.8333,286.5 21.5,286.5C 21.5,284.5 21.5,282.5 21.5,280.5C 36.8333,280.5 52.1667,280.5 67.5,280.5C 67.5,282.5 67.5,284.5 67.5,286.5C 66.1667,286.5 64.8333,286.5 63.5,286.5 Z" /></g><g><path style="opacity:1" fill="#656364" d="M 186.5,280.5 C 189.898,280.18 193.232,280.513 196.5,281.5C 195.678,302.123 195.178,322.79 195,343.5C 192.572,351.919 187.405,357.753 179.5,361C 176.294,361.89 173.294,361.557 170.5,360C 171.574,357.544 172.574,355.044 173.5,352.5C 181.511,357.724 186.011,355.391 187,345.5C 187.789,323.809 187.622,302.143 186.5,280.5 Z" /></g><g><path style="opacity:1" fill="#696768" d="M 130.5,301.5 C 145.825,299.494 153.158,306.161 152.5,321.5C 143.833,321.5 135.167,321.5 126.5,321.5C 125.04,336.215 131.374,341.715 145.5,338C 153.716,333.752 154.383,335.086 147.5,342C 138.389,347.206 129.889,346.372 122,339.5C 113.696,324.076 116.529,311.409 130.5,301.5 Z" /></g><g><path style="opacity:1" fill="#686667" d="M 217.5,301.5 C 237.575,299.409 246.409,308.409 244,328.5C 240.08,342.817 230.913,347.984 216.5,344C 206.522,337.082 203.022,327.582 206,315.5C 207.873,309.136 211.706,304.469 217.5,301.5 Z" /></g><g><path style="opacity:1" fill="#696768" d="M 317.5,300.5 C 319.199,300.34 320.866,300.506 322.5,301C 323.384,303.989 322.884,306.822 321,309.5C 314.84,306.967 310.84,308.967 309,315.5C 308.5,325.161 308.334,334.828 308.5,344.5C 305.833,344.5 303.167,344.5 300.5,344.5C 300.5,330.167 300.5,315.833 300.5,301.5C 303.167,301.5 305.833,301.5 308.5,301.5C 308.336,304.187 308.503,306.854 309,309.5C 311.362,305.973 314.196,302.973 317.5,300.5 Z" /></g><g><path style="opacity:1" fill="#676566" d="M 329.5,301.5 C 332.167,301.5 334.833,301.5 337.5,301.5C 337.336,304.187 337.503,306.854 338,309.5C 343.403,302.053 350.57,299.553 359.5,302C 361.552,302.93 363.052,304.43 364,306.5C 365.441,319.092 365.941,331.759 365.5,344.5C 362.833,344.5 360.167,344.5 357.5,344.5C 357.667,332.829 357.5,321.162 357,309.5C 355.406,307.703 353.406,306.703 351,306.5C 345.725,307.637 341.392,310.304 338,314.5C 337.37,324.516 337.537,334.516 338.5,344.5C 335.5,344.5 332.5,344.5 329.5,344.5C 330.753,330.151 330.753,315.817 329.5,301.5 Z" /></g><g><path style="opacity:1" fill="#686667" d="M 387.5,300.5 C 396.087,299.621 402.253,302.955 406,310.5C 406.333,319.833 406.667,329.167 407,338.5C 408.789,340.229 410.956,340.896 413.5,340.5C 411.703,344.893 408.37,346.393 403.5,345C 401.622,343.457 400.122,341.624 399,339.5C 391.516,346.93 383.85,347.264 376,340.5C 373.365,334.478 374.532,329.311 379.5,325C 385.595,321.135 392.262,318.968 399.5,318.5C 400.707,308.988 396.707,304.821 387.5,306C 384.328,308.006 381.662,310.506 379.5,313.5C 378.41,311.209 377.91,308.876 378,306.5C 380.843,303.837 384.009,301.837 387.5,300.5 Z" /></g><g><path style="opacity:1" fill="#686667" d="M 469.5,301.5 C 489.575,299.409 498.409,308.409 496,328.5C 493.003,341.587 484.836,347.087 471.5,345C 464.572,342.406 460.072,337.573 458,330.5C 455.273,317.989 459.106,308.322 469.5,301.5 Z" /></g><g><path style="opacity:1" fill="#676566" d="M 252.5,301.5 C 255.5,301.5 258.5,301.5 261.5,301.5C 260.024,313.525 260.191,325.525 262,337.5C 265.308,339.993 268.808,340.159 272.5,338C 275.04,335.795 277.207,333.295 279,330.5C 279.5,320.839 279.666,311.172 279.5,301.5C 282.167,301.5 284.833,301.5 287.5,301.5C 287.275,315.855 287.609,330.188 288.5,344.5C 285.833,344.5 283.167,344.5 280.5,344.5C 280.817,341.428 280.484,338.428 279.5,335.5C 276.596,339.572 272.929,342.739 268.5,345C 261.109,346.392 256.276,343.558 254,336.5C 253.77,324.801 253.27,313.134 252.5,301.5 Z" /></g><g><path style="opacity:1" fill="#e2e2e2" d="M 134.5,304.5 C 141.888,305.577 145.222,309.911 144.5,317.5C 138.5,317.5 132.5,317.5 126.5,317.5C 126.709,311.63 129.375,307.297 134.5,304.5 Z" /></g><g><path style="opacity:1" fill="#e5e5e5" d="M 221.5,304.5 C 230.101,303.933 234.934,307.933 236,316.5C 237.232,323.839 236.232,330.839 233,337.5C 228.578,342.132 223.745,342.632 218.5,339C 216.437,336.489 214.937,333.656 214,330.5C 213.333,324.833 213.333,319.167 214,313.5C 215.642,309.7 218.142,306.7 221.5,304.5 Z" /></g><g><path style="opacity:1" fill="#e5e5e5" d="M 473.5,304.5 C 482.118,303.953 486.951,307.953 488,316.5C 489.232,323.839 488.232,330.839 485,337.5C 480.578,342.132 475.745,342.632 470.5,339C 468.437,336.489 466.937,333.656 466,330.5C 465.333,324.833 465.333,319.167 466,313.5C 467.642,309.7 470.142,306.7 473.5,304.5 Z" /></g><g><path style="opacity:1" fill="#e2e2e2" d="M 395.5,322.5 C 396.833,322.5 398.167,322.5 399.5,322.5C 402.355,332.479 398.855,338.479 389,340.5C 382.96,339.685 380.96,336.352 383,330.5C 383.465,329.069 384.299,327.903 385.5,327C 388.893,325.38 392.226,323.88 395.5,322.5 Z" /></g><g><path style="opacity:1" fill="#696768" d="M 334.5,371.5 C 335.5,371.5 336.5,371.5 337.5,371.5C 337.5,394.5 337.5,417.5 337.5,440.5C 334.833,440.5 332.167,440.5 329.5,440.5C 329.5,417.833 329.5,395.167 329.5,372.5C 331.415,372.784 333.081,372.451 334.5,371.5 Z" /></g><g><path style="opacity:1" fill="#732b94" d="M 494.5,371.5 C 495.5,371.5 496.5,371.5 497.5,371.5C 497.333,382.838 497.5,394.172 498,405.5C 503.539,397.966 510.705,395.466 519.5,398C 521.378,399.543 522.878,401.376 524,403.5C 525.439,415.758 525.939,428.091 525.5,440.5C 522.5,440.5 519.5,440.5 516.5,440.5C 517.601,429.2 517.767,417.867 517,406.5C 514.019,402.304 510.186,401.471 505.5,404C 502.705,405.793 500.205,407.96 498,410.5C 497.5,420.494 497.334,430.494 497.5,440.5C 494.833,440.5 492.167,440.5 489.5,440.5C 489.5,417.833 489.5,395.167 489.5,372.5C 491.415,372.784 493.081,372.451 494.5,371.5 Z" /></g><g><path style="opacity:1" fill="#696768" d="M 633.5,371.5 C 634.5,371.5 635.5,371.5 636.5,371.5C 636.5,394.5 636.5,417.5 636.5,440.5C 633.833,440.5 631.167,440.5 628.5,440.5C 628.5,417.833 628.5,395.167 628.5,372.5C 630.415,372.784 632.081,372.451 633.5,371.5 Z" /></g><g><path style="opacity:1" fill="#cdbbd4" d="M 411.5,376.5 C 411.167,376.5 410.833,376.5 410.5,376.5C 395.167,376.5 379.833,376.5 364.5,376.5C 364.5,378.5 364.5,380.5 364.5,382.5C 365.833,382.5 367.167,382.5 368.5,382.5C 367.081,383.451 365.415,383.784 363.5,383.5C 363.5,380.833 363.5,378.167 363.5,375.5C 379.675,375.17 395.675,375.504 411.5,376.5 Z" /></g><g><path style="opacity:1" fill="#712892" d="M 53.5,403.5 C 54.8333,403.5 56.1667,403.5 57.5,403.5C 57.5,405.5 57.5,407.5 57.5,409.5C 56.1667,409.5 54.8333,409.5 53.5,409.5C 48.1667,409.5 42.8333,409.5 37.5,409.5C 37.5,419.833 37.5,430.167 37.5,440.5C 34.5,440.5 31.5,440.5 28.5,440.5C 29.8079,419.162 29.8079,397.829 28.5,376.5C 40.1667,376.5 51.8333,376.5 63.5,376.5C 63.5,378.5 63.5,380.5 63.5,382.5C 54.8333,382.5 46.1667,382.5 37.5,382.5C 37.5,389.5 37.5,396.5 37.5,403.5C 42.8333,403.5 48.1667,403.5 53.5,403.5 Z" /></g><g><path style="opacity:1" fill="#763096" d="M 73.5,376.5 C 79.0001,375.831 81.1667,378.165 80,383.5C 73.6791,388.204 71.0125,386.538 72,378.5C 72.7172,377.956 73.2172,377.289 73.5,376.5 Z" /></g><g><path style="opacity:1" fill="#6c6b6c" d="M 268.5,376.5 C 274,375.831 276.167,378.165 275,383.5C 268.679,388.204 266.012,386.538 267,378.5C 267.717,377.956 268.217,377.289 268.5,376.5 Z" /></g><g><path style="opacity:1" fill="#6f2491" d="M 410.5,376.5 C 410.5,378.5 410.5,380.5 410.5,382.5C 409.167,382.5 407.833,382.5 406.5,382.5C 401.5,382.5 396.5,382.5 391.5,382.5C 391.259,401.851 391.592,421.185 392.5,440.5C 389.167,440.5 385.833,440.5 382.5,440.5C 383.45,421.194 383.783,401.86 383.5,382.5C 378.5,382.5 373.5,382.5 368.5,382.5C 367.167,382.5 365.833,382.5 364.5,382.5C 364.5,380.5 364.5,378.5 364.5,376.5C 379.833,376.5 395.167,376.5 410.5,376.5 Z" /></g><g><path style="opacity:1" fill="#9e71b3" d="M 410.5,376.5 C 410.833,376.5 411.167,376.5 411.5,376.5C 411.5,378.833 411.5,381.167 411.5,383.5C 409.585,383.784 407.919,383.451 406.5,382.5C 407.833,382.5 409.167,382.5 410.5,382.5C 410.5,380.5 410.5,378.5 410.5,376.5 Z" /></g><g><path style="opacity:1" fill="#696768" d="M 702.5,396.5 C 710.496,397.76 718.496,397.76 726.5,396.5C 726.5,398.167 726.5,399.833 726.5,401.5C 723.813,401.336 721.146,401.503 718.5,402C 722.624,408.955 722.458,415.788 718,422.5C 712.553,426.448 706.553,427.448 700,425.5C 698.089,426.782 697.256,428.615 697.5,431C 697.559,432.436 697.892,433.769 698.5,435C 706.894,435.129 715.228,435.796 723.5,437C 731.117,443.92 731.451,451.253 724.5,459C 716.039,463.366 707.039,464.699 697.5,463C 689.259,460.017 686.926,454.517 690.5,446.5C 692.657,444.588 694.991,442.921 697.5,441.5C 692.171,439.173 690.338,435.173 692,429.5C 693.685,427.983 695.185,426.316 696.5,424.5C 686.979,412.645 688.979,403.312 702.5,396.5 Z" /></g><g><path style="opacity:1" fill="#712893" d="M 71.5,397.5 C 74.1667,397.5 76.8333,397.5 79.5,397.5C 79.5,411.833 79.5,426.167 79.5,440.5C 76.8333,440.5 74.1667,440.5 71.5,440.5C 71.5,426.167 71.5,411.833 71.5,397.5 Z" /></g><g><path style="opacity:1" fill="#702792" d="M 112.5,396.5 C 118.343,395.675 122.843,397.675 126,402.5C 127.441,415.092 127.941,427.759 127.5,440.5C 124.833,440.5 122.167,440.5 119.5,440.5C 119.667,429.162 119.5,417.828 119,406.5C 117.873,403.932 115.873,402.598 113,402.5C 107.725,403.637 103.392,406.304 100,410.5C 99.4098,420.514 99.5764,430.514 100.5,440.5C 97.5,440.5 94.5,440.5 91.5,440.5C 92.7714,426.157 92.7714,411.824 91.5,397.5C 94.1667,397.5 96.8333,397.5 99.5,397.5C 98.1893,405.799 99.856,406.966 104.5,401C 107.099,399.205 109.766,397.705 112.5,396.5 Z" /></g><g><path style="opacity:1" fill="#686667" d="M 149.5,396.5 C 158.087,395.621 164.253,398.955 168,406.5C 168.333,415.833 168.667,425.167 169,434.5C 170.789,436.229 172.956,436.896 175.5,436.5C 173.703,440.893 170.37,442.393 165.5,441C 163.622,439.457 162.122,437.624 161,435.5C 153.516,442.93 145.85,443.264 138,436.5C 135.365,430.478 136.532,425.311 141.5,421C 147.593,417.136 154.259,414.969 161.5,414.5C 162.707,404.988 158.707,400.821 149.5,402C 146.328,404.006 143.662,406.506 141.5,409.5C 140.41,407.209 139.91,404.876 140,402.5C 142.843,399.837 146.009,397.837 149.5,396.5 Z" /></g><g><path style="opacity:1" fill="#686667" d="M 238.5,397.5 C 243.179,397.334 247.845,397.501 252.5,398C 254.421,398.36 256.088,399.194 257.5,400.5C 256.692,402.925 255.692,405.258 254.5,407.5C 246.172,397.619 239.338,398.619 234,410.5C 232.603,418.231 233.603,425.564 237,432.5C 243.028,437.63 249.195,437.63 255.5,432.5C 256.848,434.611 256.515,436.445 254.5,438C 241.05,444.963 231.55,441.463 226,427.5C 222.803,414.247 226.97,404.247 238.5,397.5 Z" /></g><g><path style="opacity:1" fill="#686667" d="M 296.5,396.5 C 305.087,395.621 311.253,398.955 315,406.5C 315.333,415.833 315.667,425.167 316,434.5C 317.789,436.229 319.956,436.896 322.5,436.5C 320.33,441.281 316.663,442.614 311.5,440.5C 310.139,438.972 308.972,437.305 308,435.5C 300.516,442.93 292.85,443.264 285,436.5C 282.365,430.478 283.532,425.311 288.5,421C 294.595,417.135 301.262,414.968 308.5,414.5C 309.707,404.988 305.707,400.821 296.5,402C 293.328,404.006 290.662,406.506 288.5,409.5C 287.41,407.209 286.91,404.876 287,402.5C 289.843,399.837 293.009,397.837 296.5,396.5 Z" /></g><g><path style="opacity:1" fill="#722a94" d="M 422.5,396.5 C 436.703,396.369 443.37,403.369 442.5,417.5C 433.833,417.5 425.167,417.5 416.5,417.5C 415.04,432.215 421.374,437.715 435.5,434C 443.716,429.752 444.383,431.086 437.5,438C 428.389,443.206 419.889,442.372 412,435.5C 403.254,418.935 406.754,405.935 422.5,396.5 Z" /></g><g><path style="opacity:1" fill="#712993" d="M 461.5,397.5 C 466.179,397.334 470.845,397.501 475.5,398C 477.421,398.36 479.088,399.194 480.5,400.5C 479.499,403.172 478.499,405.839 477.5,408.5C 469.63,397.503 462.797,398.169 457,410.5C 455.603,418.231 456.603,425.564 460,432.5C 466.06,437.732 472.227,437.732 478.5,432.5C 479.848,434.611 479.515,436.445 477.5,438C 464.179,444.753 454.679,441.253 449,427.5C 445.803,414.247 449.97,404.247 461.5,397.5 Z" /></g><g><path style="opacity:1" fill="#686667" d="M 593.5,397.5 C 613.575,395.409 622.409,404.409 620,424.5C 616.08,438.817 606.913,443.984 592.5,440C 582.522,433.082 579.022,423.582 582,411.5C 583.873,405.136 587.706,400.469 593.5,397.5 Z" /></g><g><path style="opacity:1" fill="#686667" d="M 657.5,397.5 C 677.575,395.409 686.409,404.409 684,424.5C 680.08,438.817 670.913,443.984 656.5,440C 646.522,433.082 643.022,423.582 646,411.5C 647.873,405.136 651.706,400.469 657.5,397.5 Z" /></g><g><path style="opacity:1" fill="#666465" d="M 180.5,397.5 C 183.167,397.5 185.833,397.5 188.5,397.5C 188.336,400.187 188.503,402.854 189,405.5C 194.403,398.053 201.57,395.553 210.5,398C 212.552,398.93 214.052,400.43 215,402.5C 216.441,415.092 216.941,427.759 216.5,440.5C 213.833,440.5 211.167,440.5 208.5,440.5C 208.667,428.829 208.5,417.162 208,405.5C 206.406,403.703 204.406,402.703 202,402.5C 196.725,403.637 192.392,406.304 189,410.5C 188.37,420.516 188.537,430.516 189.5,440.5C 186.5,440.5 183.5,440.5 180.5,440.5C 181.753,426.151 181.753,411.817 180.5,397.5 Z" /></g><g><path style="opacity:1" fill="#686667" d="M 266.5,397.5 C 269.167,397.5 271.833,397.5 274.5,397.5C 274.5,411.833 274.5,426.167 274.5,440.5C 271.833,440.5 269.167,440.5 266.5,440.5C 266.5,426.167 266.5,411.833 266.5,397.5 Z" /></g><g><path style="opacity:1" fill="#666465" d="M 536.5,397.5 C 539.167,397.5 541.833,397.5 544.5,397.5C 544.336,400.187 544.503,402.854 545,405.5C 550.403,398.053 557.57,395.553 566.5,398C 568.552,398.93 570.052,400.43 571,402.5C 572.441,415.092 572.941,427.759 572.5,440.5C 569.833,440.5 567.167,440.5 564.5,440.5C 564.667,428.829 564.5,417.162 564,405.5C 562.406,403.703 560.406,402.703 558,402.5C 552.725,403.637 548.392,406.304 545,410.5C 544.334,420.519 544.501,430.519 545.5,440.5C 542.5,440.5 539.5,440.5 536.5,440.5C 537.753,426.151 537.753,411.817 536.5,397.5 Z" /></g><g><path style="opacity:1" fill="#686667" d="M 731.5,397.5 C 734.777,397.216 737.943,397.549 741,398.5C 744.409,409.73 748.409,420.73 753,431.5C 757.591,420.73 761.591,409.73 765,398.5C 767.466,397.223 769.966,397.223 772.5,398.5C 762.649,419.724 753.983,441.391 746.5,463.5C 743.813,463.664 741.146,463.497 738.5,463C 742.52,456.128 745.853,448.962 748.5,441.5C 743.388,426.61 737.721,411.944 731.5,397.5 Z" /></g><g><path style="opacity:1" fill="#e4e0e5" d="M 424.5,400.5 C 431.865,401.511 435.198,405.844 434.5,413.5C 428.5,413.5 422.5,413.5 416.5,413.5C 416.891,407.709 419.558,403.376 424.5,400.5 Z" /></g><g><path style="opacity:1" fill="#e5e5e5" d="M 597.5,400.5 C 606.101,399.933 610.934,403.933 612,412.5C 613.232,419.839 612.232,426.839 609,433.5C 604.578,438.132 599.745,438.632 594.5,435C 592.437,432.489 590.937,429.656 590,426.5C 589.333,420.833 589.333,415.167 590,409.5C 591.642,405.7 594.142,402.7 597.5,400.5 Z" /></g><g><path style="opacity:1" fill="#e5e5e5" d="M 661.5,400.5 C 670.101,399.933 674.934,403.933 676,412.5C 677.232,419.839 676.232,426.839 673,433.5C 668.578,438.132 663.745,438.632 658.5,435C 656.437,432.489 654.937,429.656 654,426.5C 653.333,420.833 653.333,415.167 654,409.5C 655.642,405.7 658.142,402.7 661.5,400.5 Z" /></g><g><path style="opacity:1" fill="#e6e6e6" d="M 703.5,400.5 C 708.421,400.043 711.921,402.043 714,406.5C 714.667,410.167 714.667,413.833 714,417.5C 711.565,422.224 707.731,423.724 702.5,422C 700.667,421.5 699.5,420.333 699,418.5C 698.333,414.167 698.333,409.833 699,405.5C 700.025,403.313 701.525,401.646 703.5,400.5 Z" /></g><g><path style="opacity:1" fill="#b393c3" d="M 53.5,403.5 C 54.9187,402.549 56.5853,402.216 58.5,402.5C 58.5,405.167 58.5,407.833 58.5,410.5C 56.5853,410.784 54.9187,410.451 53.5,409.5C 54.8333,409.5 56.1667,409.5 57.5,409.5C 57.5,407.5 57.5,405.5 57.5,403.5C 56.1667,403.5 54.8333,403.5 53.5,403.5 Z" /></g><g><path style="opacity:1" fill="#e2e2e2" d="M 157.5,418.5 C 158.833,418.5 160.167,418.5 161.5,418.5C 164.355,428.479 160.855,434.479 151,436.5C 144.96,435.685 142.96,432.352 145,426.5C 145.465,425.069 146.299,423.903 147.5,423C 150.893,421.38 154.226,419.88 157.5,418.5 Z" /></g><g><path style="opacity:1" fill="#e2e2e2" d="M 304.5,418.5 C 305.833,418.5 307.167,418.5 308.5,418.5C 311.355,428.479 307.855,434.479 298,436.5C 291.96,435.685 289.96,432.352 292,426.5C 292.465,425.069 293.299,423.903 294.5,423C 297.893,421.38 301.226,419.88 304.5,418.5 Z" /></g><g><path style="opacity:1" fill="#e5e5e5" d="M 700.5,441.5 C 706.593,441.139 712.593,441.639 718.5,443C 725.194,451.307 723.194,456.64 712.5,459C 707.713,459.879 703.047,459.545 698.5,458C 695.606,455.091 694.773,451.591 696,447.5C 697.332,445.34 698.832,443.34 700.5,441.5 Z" /></g><g><path style="opacity:1" fill="#d2d2d2" d="M -0.5,509.5 C 129.5,509.5 259.5,509.5 389.5,509.5C 389.5,603.167 389.5,696.833 389.5,790.5C 259.5,790.5 129.5,790.5 -0.5,790.5C -0.5,696.833 -0.5,603.167 -0.5,509.5 Z" /></g><g><path style="opacity:1" fill="#646263" d="M 389.5,509.5 C 523.167,509.5 656.833,509.5 790.5,509.5C 790.5,603.167 790.5,696.833 790.5,790.5C 656.833,790.5 523.167,790.5 389.5,790.5C 389.5,696.833 389.5,603.167 389.5,509.5 Z" /></g></svg>