<?xml version="1.0" encoding="UTF-8" standalone="no"?>
<!-- Created with Inkscape (http://www.inkscape.org/) -->

<svg
   width="160"
   height="77"
   viewBox="0 0 42.333332 20.372908"
   version="1.1"
   id="svg1"
   xmlns="http://www.w3.org/2000/svg"
   xmlns:svg="http://www.w3.org/2000/svg">
  <defs
     id="defs1" />
  <g
     id="layer1">
    <path
       style="font-weight:bold;font-size:10.9536px;line-height:1.25;font-family:'Nimbus Sans L';-inkscape-font-specification:'Nimbus Sans L Bold';letter-spacing:0px;word-spacing:0px;fill:#1164b4;fill-opacity:0.901961;stroke-width:0.256725"
       d="m 23.949001,6.1071555 c -1.117267,0 -2.037369,0.3724224 -2.716492,1.1063135 -0.711984,0.766752 -1.117268,1.8840192 -1.117268,3.077962 0,1.193942 0.405284,2.322163 1.117268,3.077961 0.690076,0.744845 1.588272,1.106314 2.727446,1.106314 1.139174,0 2.037369,-0.361469 2.727446,-1.106314 0.690077,-0.733891 1.117267,-1.894973 1.117267,-3.023193 0,-1.2487108 -0.405283,-2.3769316 -1.117267,-3.13273 -0.70103,-0.7557983 -1.577318,-1.1063135 -2.7384,-1.1063135 z m 0.01095,1.4020607 c 1.347293,0 2.201673,1.09536 2.201673,2.8260288 0,1.64304 -0.887241,2.7384 -2.201673,2.7384 -1.336339,0 -2.201674,-1.09536 -2.201674,-2.782214 0,-1.6868548 0.865335,-2.7822148 2.201674,-2.7822148 z m 6.725503,3.8666208 h 2.048323 c 1.467783,0 2.409792,-1.040592 2.409792,-2.6617248 0,-1.5992256 -0.909148,-2.4755135 -2.574096,-2.4755135 h -3.527059 v 7.9851743 h 1.64304 z m 0,-1.3692 V 7.6077986 h 1.533504 c 0.876288,0 1.281571,0.383376 1.281571,1.1939424 0,0.82152 -0.405283,1.204896 -1.281571,1.204896 z M 42.142913,8.6702978 c -0.01095,-1.6539936 -1.117267,-2.5631423 -3.13273,-2.5631423 -1.91688,0 -3.023193,0.8981951 -3.023193,2.4536063 0,1.2377568 0.624355,1.8402052 2.245488,2.1469052 l 1.117267,0.219072 c 1.09536,0.208119 1.500643,0.51482 1.500643,1.161082 0,0.66817 -0.613402,1.073453 -1.610179,1.073453 -1.117267,0 -1.741623,-0.471005 -1.796391,-1.325386 h -1.599225 c 0.09858,1.708762 1.270617,2.639818 3.307987,2.639818 2.059277,0 3.275126,-0.952963 3.275126,-2.58505 0,-1.259664 -0.635308,-1.9168798 -2.114044,-2.2016734 L 39.064951,9.4480034 c -1.172035,-0.2300256 -1.511597,-0.4600512 -1.511597,-1.040592 0,-0.602448 0.525773,-0.985824 1.380154,-0.985824 1.040592,0 1.621133,0.438144 1.675901,1.2487104 z"
       id="text238-1-0-2-7-9-76-2-3-83-7-6-9"
       aria-label="OPS" />
    <path
       style="mix-blend-mode:normal;fill:#0fa0b9;fill-opacity:1;stroke:none;stroke-width:0.16249px;stroke-linecap:butt;stroke-linejoin:miter;stroke-opacity:1"
       d="m 412.36365,132.60219 c -1.16537,-2.13265 -3.39101,1.89374 -3.33843,6.03957 0.0526,4.14584 2.38317,8.41109 3.49599,6.39787 1.11281,-2.01321 1.00782,-10.30479 -0.15756,-12.43744 z"
       id="path9913-41-8-9-4-5-4-5-5"
       transform="matrix(0.970299,0,0,0.970299,-386.48972,-124.134)" />
    <path
       style="mix-blend-mode:normal;fill:#0a8fbe;fill-opacity:1;stroke:none;stroke-width:0.191535px;stroke-linecap:butt;stroke-linejoin:miter;stroke-opacity:1"
       d="m 407.64583,130.12936 c -1.15652,-2.98588 -3.36529,2.65136 -3.3131,8.45586 0.0522,5.80451 2.3651,11.77618 3.46946,8.95749 1.10436,-2.81868 1.00017,-14.42747 -0.15636,-17.41335 z"
       id="path9913-4-5-7-1-6-4-0-6-5"
       transform="matrix(0.970299,0,0,0.970299,-386.48972,-124.134)" />
    <path
       style="fill:#1164b4;fill-opacity:0.901961;stroke:none;stroke-width:0.211657px;stroke-linecap:butt;stroke-linejoin:miter;stroke-opacity:1"
       d="m 402.54497,129.21199 c -1.32886,-3.17337 -3.86675,2.81784 -3.80678,8.98681 0.06,6.16896 2.71752,12.5156 3.98644,9.51994 1.26892,-2.99567 1.1492,-15.33339 -0.17966,-18.50675 z"
       id="path9913-0-4-6-4-2-4-6-9-2"
       transform="matrix(0.970299,0,0,0.970299,-386.48972,-124.134)" />
    <path
       style="mix-blend-mode:normal;fill:#00bebe;fill-opacity:1;stroke:none;stroke-width:0.195838px;stroke-linecap:butt;stroke-linejoin:miter;stroke-opacity:0.941176"
       d="m 415.49071,135.7961 c -0.6521,-0.92894 -1.77753,1.14937 -1.68812,3.11741 0.0894,1.96803 1.39344,3.8259 1.95615,2.78679 0.5627,-1.03912 0.38408,-4.97527 -0.26803,-5.9042 z"
       id="path11336-1-3-9-6-9-4-8-9"
       transform="matrix(0.970299,0,0,0.970299,-386.48972,-124.134)" />
  </g>
</svg>
