<svg id="Calque_1" xmlns="http://www.w3.org/2000/svg" xmlns:xlink="http://www.w3.org/1999/xlink" version="1.1" viewBox="0 0 160 160" height="160" width="160"><!-- Generator: Adobe Illustrator 29.5.1, SVG Export Plug-In . SVG Version: 2.1.0 Build 141)  --><defs><style>      .st0 {        fill: url(#Dégradé_sans_nom_9);      }      .st1 {        fill: url(#Dégradé_sans_nom_6);      }      .st2 {        fill: url(#Dégradé_sans_nom_7);      }      .st3 {        fill: url(#Dégradé_sans_nom_4);      }      .st4 {        fill: url(#Dégradé_sans_nom_5);      }      .st5 {        fill: url(#Dégradé_sans_nom_2);      }      .st6 {        fill: url(#Dégradé_sans_nom_3);      }      .st7 {        fill: url(#Dégradé_sans_nom_8);      }      .st8 {        fill: url(#Dégradé_sans_nom);      }      .st9 {        fill: url(#Dégradé_sans_nom_19);      }      .st10 {        fill: url(#Dégradé_sans_nom_18);      }      .st11 {        fill: url(#Dégradé_sans_nom_13);      }      .st12 {        fill: url(#Dégradé_sans_nom_10);      }      .st13 {        fill: url(#Dégradé_sans_nom_12);      }      .st14 {        fill: url(#Dégradé_sans_nom_15);      }      .st15 {        fill: url(#Dégradé_sans_nom_11);      }      .st16 {        fill: url(#Dégradé_sans_nom_17);      }      .st17 {        fill: url(#Dégradé_sans_nom_14);      }      .st18 {        fill: url(#Dégradé_sans_nom_16);      }      .st19 {        fill: url(#Dégradé_sans_nom_28);      }      .st20 {        fill: url(#Dégradé_sans_nom_26);      }      .st21 {        fill: url(#Dégradé_sans_nom_25);      }      .st22 {        fill: url(#Dégradé_sans_nom_23);      }      .st23 {        fill: url(#Dégradé_sans_nom_20);      }      .st24 {        fill: url(#Dégradé_sans_nom_27);      }      .st25 {        fill: url(#Dégradé_sans_nom_24);      }      .st26 {        fill: url(#Dégradé_sans_nom_22);      }      .st27 {        fill: url(#Dégradé_sans_nom_21);      }    </style><radialGradient id="Dégradé_sans_nom" data-name="Dégradé sans nom" cx="123.76" cy="85.15" fx="123.76" fy="85.15" r="26.42" gradientTransform="translate(0 159.63) scale(1 -1)" gradientUnits="userSpaceOnUse"><stop offset="0" stop-color="#1e396c" /><stop offset="1" stop-color="#069" /></radialGradient><radialGradient id="Dégradé_sans_nom_2" data-name="Dégradé sans nom 2" cx="122.75" cy="71.53" fx="122.75" fy="71.53" r="26.76" gradientTransform="translate(0 159.63) scale(1 -1)" gradientUnits="userSpaceOnUse"><stop offset="0" stop-color="#1e396c" /><stop offset="1" stop-color="#069" /></radialGradient><radialGradient id="Dégradé_sans_nom_3" data-name="Dégradé sans nom 3" cx="119.71" cy="60.61" fx="119.71" fy="60.61" r="26.59" gradientTransform="translate(0 159.63) scale(1 -1)" gradientUnits="userSpaceOnUse"><stop offset="0" stop-color="#1e396c" /><stop offset="1" stop-color="#069" /></radialGradient><radialGradient id="Dégradé_sans_nom_4" data-name="Dégradé sans nom 4" cx="114.77" cy="52.27" fx="114.77" fy="52.27" r="26" gradientTransform="translate(0 159.63) scale(1 -1)" gradientUnits="userSpaceOnUse"><stop offset="0" stop-color="#1e396c" /><stop offset="1" stop-color="#069" /></radialGradient><radialGradient id="Dégradé_sans_nom_5" data-name="Dégradé sans nom 5" cx="108.19" cy="45.48" fx="108.19" fy="45.48" r="25.49" gradientTransform="translate(0 159.63) scale(1 -1)" gradientUnits="userSpaceOnUse"><stop offset="0" stop-color="#1e396c" /><stop offset="1" stop-color="#069" /></radialGradient><radialGradient id="Dégradé_sans_nom_6" data-name="Dégradé sans nom 6" cx="100.23" cy="40.3" fx="100.23" fy="40.3" r="25.09" gradientTransform="translate(0 159.63) scale(1 -1)" gradientUnits="userSpaceOnUse"><stop offset="0" stop-color="#1e396c" /><stop offset="1" stop-color="#069" /></radialGradient><radialGradient id="Dégradé_sans_nom_7" data-name="Dégradé sans nom 7" cx="91.27" cy="37.03" fx="91.27" fy="37.03" r="24.83" gradientTransform="translate(0 159.63) scale(1 -1)" gradientUnits="userSpaceOnUse"><stop offset="0" stop-color="#1e396c" /><stop offset="1" stop-color="#069" /></radialGradient><radialGradient id="Dégradé_sans_nom_8" data-name="Dégradé sans nom 8" cx="80.31" cy="35.86" fx="80.31" fy="35.86" r="24.77" gradientTransform="translate(0 159.63) scale(1 -1)" gradientUnits="userSpaceOnUse"><stop offset="0" stop-color="#1e396c" /><stop offset="1" stop-color="#069" /></radialGradient><radialGradient id="Dégradé_sans_nom_9" data-name="Dégradé sans nom 9" cx="69.98" cy="37" fx="69.98" fy="37" r="25.08" gradientTransform="translate(0 159.63) scale(1 -1)" gradientUnits="userSpaceOnUse"><stop offset="0" stop-color="#1e396c" /><stop offset="1" stop-color="#069" /></radialGradient><radialGradient id="Dégradé_sans_nom_10" data-name="Dégradé sans nom 10" cx="60.75" cy="40.19" fx="60.75" fy="40.19" r="25.35" gradientTransform="translate(0 159.63) scale(1 -1)" gradientUnits="userSpaceOnUse"><stop offset="0" stop-color="#1e396c" /><stop offset="1" stop-color="#069" /></radialGradient><radialGradient id="Dégradé_sans_nom_11" data-name="Dégradé sans nom 11" cx="52.64" cy="44.99" fx="52.64" fy="44.99" r="25.6" gradientTransform="translate(0 159.63) scale(1 -1)" gradientUnits="userSpaceOnUse"><stop offset="0" stop-color="#1e396c" /><stop offset="1" stop-color="#069" /></radialGradient><radialGradient id="Dégradé_sans_nom_12" data-name="Dégradé sans nom 12" cx="45.81" cy="50.98" fx="45.81" fy="50.98" r="25.75" gradientTransform="translate(0 159.63) scale(1 -1)" gradientUnits="userSpaceOnUse"><stop offset="0" stop-color="#1e396c" /><stop offset="1" stop-color="#069" /></radialGradient><radialGradient id="Dégradé_sans_nom_13" data-name="Dégradé sans nom 13" cx="40.71" cy="57.49" fx="40.71" fy="57.49" r="25.81" gradientTransform="translate(0 159.63) scale(1 -1)" gradientUnits="userSpaceOnUse"><stop offset="0" stop-color="#1e396c" /><stop offset="1" stop-color="#069" /></radialGradient><radialGradient id="Dégradé_sans_nom_14" data-name="Dégradé sans nom 14" cx="37.41" cy="63.92" fx="37.41" fy="63.92" r="25.76" gradientTransform="translate(0 159.63) scale(1 -1)" gradientUnits="userSpaceOnUse"><stop offset="0" stop-color="#1e396c" /><stop offset="1" stop-color="#069" /></radialGradient><radialGradient id="Dégradé_sans_nom_15" data-name="Dégradé sans nom 15" cx="36.23" cy="74.11" fx="36.23" fy="74.11" r="26.42" gradientTransform="translate(0 159.63) scale(1 -1)" gradientUnits="userSpaceOnUse"><stop offset="0" stop-color="#1e396c" /><stop offset="1" stop-color="#069" /></radialGradient><radialGradient id="Dégradé_sans_nom_16" data-name="Dégradé sans nom 16" cx="37.26" cy="87.75" fx="37.26" fy="87.75" r="26.77" gradientTransform="translate(0 159.63) scale(1 -1)" gradientUnits="userSpaceOnUse"><stop offset="0" stop-color="#1e396c" /><stop offset="1" stop-color="#069" /></radialGradient><radialGradient id="Dégradé_sans_nom_17" data-name="Dégradé sans nom 17" cx="40.33" cy="98.67" fx="40.33" fy="98.67" r="26.59" gradientTransform="translate(0 159.63) scale(1 -1)" gradientUnits="userSpaceOnUse"><stop offset="0" stop-color="#1e396c" /><stop offset="1" stop-color="#069" /></radialGradient><radialGradient id="Dégradé_sans_nom_18" data-name="Dégradé sans nom 18" cx="45.23" cy="107.02" fx="45.23" fy="107.02" r="26.02" gradientTransform="translate(0 159.63) scale(1 -1)" gradientUnits="userSpaceOnUse"><stop offset="0" stop-color="#1e396c" /><stop offset="1" stop-color="#069" /></radialGradient><radialGradient id="Dégradé_sans_nom_19" data-name="Dégradé sans nom 19" cx="51.81" cy="113.76" fx="51.81" fy="113.76" r="25.48" gradientTransform="translate(0 159.63) scale(1 -1)" gradientUnits="userSpaceOnUse"><stop offset="0" stop-color="#1e396c" /><stop offset="1" stop-color="#069" /></radialGradient><radialGradient id="Dégradé_sans_nom_20" data-name="Dégradé sans nom 20" cx="59.75" cy="118.95" fx="59.75" fy="118.95" r="25.08" gradientTransform="translate(0 159.63) scale(1 -1)" gradientUnits="userSpaceOnUse"><stop offset="0" stop-color="#1e396c" /><stop offset="1" stop-color="#069" /></radialGradient><radialGradient id="Dégradé_sans_nom_21" data-name="Dégradé sans nom 21" cx="68.72" cy="122.23" fx="68.72" fy="122.23" r="24.8" gradientTransform="translate(0 159.63) scale(1 -1)" gradientUnits="userSpaceOnUse"><stop offset="0" stop-color="#1e396c" /><stop offset="1" stop-color="#069" /></radialGradient><radialGradient id="Dégradé_sans_nom_22" data-name="Dégradé sans nom 22" cx="79.7" cy="123.4" fx="79.7" fy="123.4" r="24.77" gradientTransform="translate(0 159.63) scale(1 -1)" gradientUnits="userSpaceOnUse"><stop offset="0" stop-color="#1e396c" /><stop offset="1" stop-color="#069" /></radialGradient><radialGradient id="Dégradé_sans_nom_23" data-name="Dégradé sans nom 23" cx="90.03" cy="122.23" fx="90.03" fy="122.23" r="25.07" gradientTransform="translate(0 159.63) scale(1 -1)" gradientUnits="userSpaceOnUse"><stop offset="0" stop-color="#1e396c" /><stop offset="1" stop-color="#069" /></radialGradient><radialGradient id="Dégradé_sans_nom_24" data-name="Dégradé sans nom 24" cx="99.24" cy="119.08" fx="99.24" fy="119.08" r="25.37" gradientTransform="translate(0 159.63) scale(1 -1)" gradientUnits="userSpaceOnUse"><stop offset="0" stop-color="#1e396c" /><stop offset="1" stop-color="#069" /></radialGradient><radialGradient id="Dégradé_sans_nom_25" data-name="Dégradé sans nom 25" cx="107.39" cy="114.29" fx="107.39" fy="114.29" r="25.58" gradientTransform="translate(0 159.63) scale(1 -1)" gradientUnits="userSpaceOnUse"><stop offset="0" stop-color="#1e396c" /><stop offset="1" stop-color="#069" /></radialGradient><radialGradient id="Dégradé_sans_nom_26" data-name="Dégradé sans nom 26" cx="114.15" cy="108.3" fx="114.15" fy="108.3" r="25.75" gradientTransform="translate(0 159.63) scale(1 -1)" gradientUnits="userSpaceOnUse"><stop offset="0" stop-color="#1e396c" /><stop offset="1" stop-color="#069" /></radialGradient><radialGradient id="Dégradé_sans_nom_27" data-name="Dégradé sans nom 27" cx="119.3" cy="101.77" fx="119.3" fy="101.77" r="25.81" gradientTransform="translate(0 159.63) scale(1 -1)" gradientUnits="userSpaceOnUse"><stop offset="0" stop-color="#1e396c" /><stop offset="1" stop-color="#069" /></radialGradient><radialGradient id="Dégradé_sans_nom_28" data-name="Dégradé sans nom 28" cx="122.63" cy="95.32" fx="122.63" fy="95.32" r="25.77" gradientTransform="translate(0 159.63) scale(1 -1)" gradientUnits="userSpaceOnUse"><stop offset="0" stop-color="#1e396c" /><stop offset="1" stop-color="#069" /></radialGradient></defs><path class="st8" d="M123.77,60.2c-19.03,0-34.52,8.88-34.53,19.79,4.07-8.4,20.12-11.94,37.56-7.84,13.06,3.06,23.51,9.6,27.91,16.61,2.29-2.65,3.57-5.62,3.57-8.77.01-10.91-15.47-19.79-34.52-19.79Z" /><path class="st5" d="M154.53,89.36c-.05-.07-.09-.15-.14-.22-4.26-6.93-14.67-13.44-27.7-16.5-4.93-1.16-9.74-1.7-14.2-1.7-11.69,0-20.9,3.77-23.19,10.2-.06.19-.12.37-.17.56-.04.14-.09.29-.11.42.05-.06.1-.11.15-.17.07-.09.15-.16.22-.25,5.82-5.89,21.5-4.91,37.18,2.78,6.67,3.27,12.54,7.34,16.97,11.73.06.06.14.12.2.2.06.06.12.12.17.19.99,1,1.91,2.02,2.73,3.05,1.56,1.92,2.75,3.81,3.57,5.61,3.25-1.9,5.33-4.4,6.02-7.33.64-2.71.04-5.56-1.57-8.34-.05-.07-.1-.15-.14-.22Z" /><path class="st6" d="M149.87,105.73c-.04-.07-.06-.15-.1-.22-.81-1.77-1.99-3.63-3.53-5.54-.86-1.06-1.81-2.12-2.85-3.16l-.19-.19-.2-.2c-4.37-4.28-10.14-8.28-16.67-11.49-8.89-4.36-17.77-6.57-24.79-6.57-5.41,0-9.7,1.31-12.05,3.95-.07.07-.14.16-.2.24-.06.09-.14.16-.2.25-.09.12-.17.25-.26.37-.1.16-.2.32-.3.49-.07.12-.14.24-.2.37-.01.02-.02.06-.04.1.07-.05.15-.1.22-.15.09-.05.17-.09.26-.14.17-.1.35-.19.52-.27.07-.04.15-.06.22-.1s.15-.06.24-.1c2.8-1.07,6.76-.92,11.6.5,6.84,2.02,14.61,6.36,21.88,12.19,1.46,1.17,2.87,2.39,4.22,3.62.09.07.17.16.25.24.09.07.17.15.25.24,3.1,2.88,5.83,5.88,8.1,8.87.06.07.11.16.17.24s.11.15.17.24c1.32,1.77,2.49,3.56,3.45,5.29.95,1.72,1.69,3.36,2.2,4.9,3.98-.75,6.92-2.49,8.27-5.23,1.16-2.37,1.02-5.28-.34-8.49-.05-.07-.09-.15-.12-.22Z" /><path class="st3" d="M141.64,120.01c-.02-.07-.05-.16-.07-.24-.5-1.47-1.21-3.06-2.14-4.73-1-1.8-2.21-3.65-3.6-5.49-.06-.09-.12-.16-.19-.25-.06-.07-.12-.16-.19-.24-2.3-2.98-5.07-5.98-8.19-8.85-.09-.07-.17-.16-.26-.24s-.17-.16-.26-.24c-1.22-1.11-2.5-2.2-3.82-3.26-7.22-5.79-14.94-10.09-21.7-12.1-2.7-.8-5.12-1.2-7.19-1.2-1.57,0-2.95.24-4.11.69-.07.04-.15.07-.24.1-.07.04-.15.06-.22.1-.24.11-.46.24-.69.37-.09.05-.17.1-.25.15-.09.06-.17.12-.26.19-.11.09-.22.17-.32.26-.14.11-.25.24-.37.36-.11.11-.22.22-.32.35-.06.09-.1.15-.15.21.04-.01.07-.02.11-.04.09-.02.19-.04.27-.06s.17-.05.26-.06c.2-.04.4-.06.61-.09.09-.01.17-.02.26-.02h.25c.42-.01.87,0,1.34.06.1.01.2.02.29.04.1.01.2.02.3.05,2.31.4,5.06,1.56,8.12,3.46,3.52,2.19,7.23,5.19,10.89,8.79l.36.36c.11.11.22.21.32.32,2.27,2.3,4.53,4.82,6.68,7.51.26.32.52.66.79.99.09.11.17.21.25.32.09.11.16.21.25.32,2.73,3.56,5.08,7.12,7.01,10.55.06.1.11.2.17.3.05.1.11.19.16.29,2.44,4.43,4.13,8.62,4.98,12.19,4.85.84,8.44.06,10.3-2.26,1.61-2.01,1.81-5.05.62-8.77,0-.06-.02-.14-.05-.2Z" /><path class="st4" d="M130.36,131.43c-.02-.09-.04-.17-.06-.26-.89-3.57-2.63-7.78-5.14-12.25-.05-.1-.11-.2-.17-.3s-.11-.2-.17-.31c-1.96-3.43-4.36-7.01-7.14-10.58-.09-.11-.17-.21-.25-.32-.09-.11-.17-.21-.25-.32-.12-.16-.25-.32-.37-.47-2.34-2.91-4.78-5.62-7.26-8.07-.11-.11-.24-.22-.35-.34-.12-.12-.25-.24-.36-.36-3.42-3.3-6.88-6.07-10.18-8.1-2.83-1.76-5.38-2.87-7.53-3.32-.11-.02-.21-.04-.32-.05-.1-.02-.21-.04-.31-.05-.49-.07-.96-.12-1.4-.12-.05,0-.1.01-.15.01-.09,0-.16.01-.25.01s-.17.01-.26.01c-.29.02-.55.07-.81.14-.09.02-.17.04-.26.06s-.17.05-.26.09c-.16.06-.32.12-.47.2-.14.06-.26.14-.39.21s-.25.15-.37.24c-.02.02-.06.04-.1.06-.11.09-.2.19-.3.29.09,0,.17.01.27.01.09,0,.17,0,.26.01s.16.02.25.04c.26.04.52.1.8.19.09.02.17.05.26.07.07.02.16.06.25.09.51.19,1.04.45,1.59.76.12.07.25.14.37.21.12.07.25.16.37.24,1.62,1.06,3.41,2.62,5.32,4.68,1.59,1.71,3.17,3.7,4.76,5.88.14.19.27.37.4.56.12.17.25.35.37.54,2.02,2.91,4.02,6.16,5.89,9.63.07.14.15.29.22.42.07.15.15.29.24.44.57,1.09,1.15,2.2,1.7,3.33,1.46,2.98,2.77,5.97,3.9,8.88.05.14.11.26.16.4.05.14.1.26.15.4,1.87,4.96,3.23,9.68,3.92,13.81.06.35.11.69.16,1.04,5.16,3,9.49,3.87,11.91,1.92,2.04-1.64,2.42-5.01,1.42-9.39-.01-.07-.04-.16-.05-.25Z" /><path class="st1" d="M116.55,139.13c-.01-.1-.02-.2-.05-.3-.02-.2-.06-.4-.09-.61-.72-4.28-2.15-9.2-4.13-14.35-.05-.14-.11-.27-.16-.41-.05-.14-.11-.27-.16-.4-1.06-2.68-2.27-5.43-3.62-8.19-.67-1.39-1.37-2.73-2.09-4.06-.07-.15-.16-.3-.24-.44-.09-.15-.16-.3-.25-.45-1.97-3.57-4.06-6.89-6.17-9.83-.14-.2-.29-.4-.42-.59-.16-.22-.32-.42-.49-.65-1.29-1.72-2.58-3.3-3.87-4.68-1.57-1.71-3.08-3.07-4.47-4.08-.15-.11-.29-.2-.44-.3-.15-.1-.29-.2-.44-.29-.66-.42-1.3-.76-1.89-1-.09-.04-.17-.07-.25-.1-.09-.04-.17-.06-.26-.09-.34-.11-.66-.19-.96-.24-.09-.01-.16-.02-.25-.04s-.17-.01-.26-.01c-.05,0-.1-.01-.15-.01-.16,0-.31.02-.46.05-.11.01-.22.02-.34.05-.14.04-.26.09-.39.14-.07.02-.15.04-.21.07-.17.09-.34.2-.5.31.14.05.29.11.42.19.07.04.15.09.22.12s.14.07.21.12c.3.19.61.44.92.71.09.07.16.15.25.24.09.07.16.16.25.24,2.97,2.98,6.29,9.52,9.18,18.09.07.21.14.41.21.62.06.2.14.41.2.61,1.11,3.41,2.15,7.13,3.07,11.05.19.8.36,1.57.54,2.36l.11.52.11.52c1.41,6.74,2.22,12.97,2.42,18.14,5.13,6.26,9.92,9.54,12.77,8.13,2.2-1.07,2.96-5.03,2.15-10.91-.01-.1-.04-.2-.05-.29Z" /><path class="st2" d="M101.12,141.86c0-.12-.01-.26-.01-.4-.26-5.28-1.1-11.6-2.53-18.26-.04-.19-.07-.36-.11-.55-.04-.19-.07-.36-.12-.55-.1-.46-.2-.91-.31-1.37-1.01-4.32-2.2-8.44-3.47-12.19-.07-.22-.15-.44-.22-.66s-.16-.45-.24-.67c-2.62-7.44-5.58-13.29-8.19-16.21-.09-.1-.17-.2-.27-.29-.09-.09-.17-.19-.26-.27-.37-.37-.75-.67-1.1-.91-.07-.05-.14-.09-.21-.14s-.15-.09-.22-.12c-.22-.11-.46-.2-.67-.25-.1-.02-.19-.04-.27-.05s-.17-.02-.25-.02c-.2.01-.31.02-.44.05-.29.06-.55.2-.79.4.17.17.36.39.54.62.06.09.11.17.17.26.05.07.1.15.15.24.4.69.77,1.56,1.12,2.58.11.34.22.69.34,1.05.47,1.56.89,3.42,1.26,5.48.09.49.17.99.25,1.49.67,4.26,1.15,9.29,1.39,14.55.01.25.02.5.02.75.01.25.02.51.04.76.07,2.17.12,4.38.12,6.58,0,4.98-.21,10-.61,14.64,3.97,11.11,8.64,18.57,11.79,17.83,2.44-.57,3.51-5.99,3.21-13.89-.06-.15-.06-.31-.07-.47Z" /><path class="st7" d="M86.08,115.84c-.01-.27-.02-.55-.04-.82-.01-.26-.02-.52-.04-.79-.6-11.25-2.2-19.48-4.01-23.04-.05-.1-.1-.19-.15-.27-.06-.1-.11-.21-.17-.31-.22-.36-.44-.65-.66-.86-.06-.06-.12-.11-.17-.16-.06-.05-.14-.1-.2-.14-.2-.12-.41-.19-.61-.19s-.41.06-.61.19c.22.25.42.55.61.9.05.09.1.16.14.26.05.09.09.2.14.3.34.75.61,1.66.82,2.72.09.42.16.89.22,1.35.17,1.27.29,2.71.32,4.28.01.61.02,1.24.01,1.87-.04,4.1-.51,8.97-1.4,14.31-.04.26-.09.52-.14.79-.04.25-.09.5-.12.74-.44,2.46-.96,5.02-1.57,7.63-1.19,5.08-2.57,9.8-4.06,13.97,1.07,12.2,3.41,19.72,5.63,19.72s4.56-7.52,5.63-19.72c.02-.21.04-.42.06-.64.01-.21.04-.44.05-.66.32-4.06.5-8.59.5-13.51-.02-2.76-.07-5.41-.19-7.92Z" /><path class="st0" d="M79.74,115.42c.05-.27.09-.54.14-.81.05-.3.09-.59.14-.87,1.49-9.92,1.49-18.21,0-22.22-.04-.11-.09-.24-.14-.35s-.09-.2-.14-.3c-.21-.46-.45-.84-.72-1.14-.06-.06-.11-.12-.17-.17-.06-.06-.12-.11-.19-.16-.25-.19-.51-.32-.79-.4-.12-.02-.25-.04-.37-.04.24.31.45.67.62,1.07.04.09.07.19.11.29s.07.19.11.29c.3.86.47,1.9.56,3.08.02.44.04.89.04,1.36,0,1.22-.1,2.57-.3,4.06-.06.46-.12.92-.21,1.4-.02.12-.05.26-.07.39-.79,4.46-2.31,9.55-4.42,14.89-.09.24-.19.46-.27.7-.09.22-.17.45-.27.69-.94,2.26-1.95,4.55-3.08,6.84-3.47,7.07-7.46,13.44-11.43,18.29-.3,7.92.77,13.36,3.21,13.94,3.13.75,7.82-6.72,11.79-17.83.06-.19.12-.36.2-.55.06-.19.14-.37.2-.57,1.35-3.91,2.61-8.24,3.67-12.79.72-3.12,1.32-6.16,1.8-9.08Z" /><path class="st12" d="M69.84,123.78c1.34-2.73,2.53-5.46,3.6-8.13.09-.22.19-.46.27-.69.1-.25.2-.5.29-.75,1.87-4.95,3.22-9.65,3.92-13.79.65-3.9.66-7.03.06-9.18-.04-.12-.06-.25-.1-.36s-.07-.21-.11-.31c-.24-.62-.54-1.15-.9-1.55-.06-.07-.12-.14-.2-.2-.07-.06-.14-.12-.21-.19-.16-.12-.32-.22-.49-.31-.07-.04-.15-.05-.22-.07.1.19.2.37.29.59.04.07.06.15.09.22s.05.16.07.24c.37,1.11.51,2.45.42,3.96-.02.4-.06.8-.11,1.22-.19,1.54-.57,3.22-1.15,5.02-.15.49-.32.99-.51,1.49-2.26,6.26-6.56,13.74-12.41,21.04-.32.4-.65.8-.97,1.2-.11.14-.24.27-.35.41s-.24.27-.35.41c-5.81,6.84-11.98,12.2-17.35,15.36-.82,5.88-.05,9.83,2.15,10.91,2.35,1.15,6.27-.99,10.78-5.86.66-.72,1.34-1.5,2-2.31.1-.11.19-.24.29-.35.1-.12.2-.24.3-.36,3.78-4.76,7.59-10.89,10.91-17.67Z" /><path class="st15" d="M43.5,138.83c5.41-3.27,11.64-8.8,17.48-15.83.11-.14.24-.29.35-.42.12-.15.24-.29.36-.44.11-.14.22-.27.35-.42,10.29-12.82,15.77-26.11,13.74-32.17-.02-.07-.05-.16-.07-.25-.02-.07-.06-.15-.1-.22-.15-.36-.34-.7-.56-1-.07-.1-.15-.2-.24-.29-.07-.09-.16-.19-.25-.26-.1-.1-.2-.2-.3-.29-.02-.02-.06-.05-.1-.06.05.12.09.24.14.36.02.07.05.16.07.25.02.09.05.16.07.25.14.55.21,1.14.24,1.75v.67c-.06,2.67-1.1,5.91-3.11,9.52-1.56,2.82-3.62,5.72-6.09,8.59-.15.17-.3.35-.46.52-.15.16-.29.32-.44.5-2.8,3.13-6.06,6.22-9.65,9.1-2.39,1.91-4.8,3.63-7.19,5.16-.12.07-.24.16-.36.24-.11.07-.24.15-.35.22-6.27,3.91-12.36,6.44-17.42,7.36-1,4.41-.61,7.79,1.42,9.43,2.42,1.95,6.77,1.07,11.91-1.92.09-.05.19-.11.27-.17.1-.05.19-.11.29-.16Z" /><path class="st13" d="M29.45,131.22c.09-.01.16-.04.25-.05,5.08-.96,11.28-3.61,17.61-7.65.12-.07.24-.15.36-.22s.25-.16.37-.25c2.19-1.42,4.38-3.01,6.56-4.76,3.92-3.15,7.43-6.53,10.38-9.95.15-.17.31-.35.45-.54.16-.2.32-.4.49-.6,2.06-2.51,3.82-5.05,5.18-7.49,1.82-3.28,2.82-6.23,3.01-8.72.01-.14.02-.27.02-.41v-.35c0-.77-.07-1.5-.25-2.17-.02-.09-.05-.17-.07-.26-.02-.07-.04-.16-.07-.24-.1-.31-.24-.6-.39-.87-.06-.12-.12-.25-.2-.36-.07-.12-.16-.24-.25-.36-.05-.06-.09-.14-.14-.2.01.05.02.11.04.16.01.1.04.19.05.29.01.09.01.19.02.27.05.41.07.82.06,1.26,0,.09,0,.17-.01.26,0,.09-.01.19-.02.27-.22,3.16-1.9,6.77-4.95,10.54-3.47,4.3-8.4,8.43-14.25,11.96-.14.09-.27.16-.42.25-.14.09-.27.16-.42.25-1.61.95-3.27,1.85-5,2.68-4.43,2.17-8.85,3.81-13.06,4.91-.11.02-.22.05-.32.09-.1.02-.21.05-.31.07-4.03,1.01-7.85,1.51-11.25,1.51-1.66,0-3.23-.12-4.67-.36-1.15,3.63-1.01,6.71.64,8.77,1.92,2.4,5.62,3.07,10.3,2.27.12.02.2.01.27,0Z" /><path class="st11" d="M18.2,119.72c.07.01.16.02.24.04,4.41.72,10,.29,16.11-1.29.11-.02.21-.05.32-.09.11-.02.22-.06.34-.09,4.03-1.1,8.27-2.68,12.5-4.76,1.97-.96,3.87-2.01,5.68-3.1.14-.09.29-.17.42-.26.15-.09.29-.19.44-.27,5.46-3.4,10.08-7.32,13.36-11.39,2.91-3.61,4.53-7.03,4.82-10.04.01-.1.01-.2.02-.29,0-.09.01-.19.02-.27.02-.54-.01-1.06-.07-1.57-.01-.09-.04-.17-.05-.26s-.04-.19-.05-.27c-.04-.19-.09-.37-.14-.56-.02-.07-.04-.14-.06-.21-.05-.16-.11-.31-.17-.47-.05-.12-.1-.25-.16-.37v.57c-.01.2-.04.4-.05.59-.01.12-.01.24-.04.36-.01.09-.02.17-.05.25-.01.07-.02.16-.04.24-.15.81-.37,1.64-.7,2.46-.05.12-.11.26-.16.39-.06.14-.11.27-.17.41-1.2,2.56-3.25,5.13-6.11,7.58-1.22,1.05-2.57,2.06-4.02,3.01-.2.12-.39.26-.59.39-.17.11-.36.22-.55.34-4.81,2.97-10.63,5.36-16.93,6.92-.14.04-.26.06-.4.1-.11.02-.24.06-.35.09-4.92,1.15-9.77,1.72-14.32,1.72-1.05,0-2.07-.04-3.08-.1-.1,0-.19-.01-.29-.02-.09,0-.19-.01-.27-.02-2.57-.19-5.03-.55-7.31-1.12-2.4-.61-4.5-1.42-6.29-2.4-1.36,3.21-1.5,6.12-.34,8.49,1.35,2.75,4.31,4.48,8.3,5.23.04.06.11.06.19.07Z" /><path class="st17" d="M10.02,105.38c.07.04.14.07.21.12,1.76.96,3.83,1.77,6.21,2.37,2.34.6,4.87.97,7.53,1.15.1,0,.19.01.29.01s.2.01.3.01c5.29.27,11.08-.26,16.92-1.64.2-.05.39-.1.57-.15.14-.04.26-.06.4-.1s.26-.06.4-.1c6.48-1.66,12.4-4.21,17.21-7.37.2-.14.4-.26.6-.4.22-.15.44-.31.66-.46.99-.7,1.91-1.41,2.78-2.16,2.5-2.15,4.36-4.38,5.57-6.61.09-.16.17-.34.26-.5.07-.15.14-.3.21-.44.45-.99.76-1.97.95-2.95.01-.09.02-.16.05-.25.01-.09.04-.16.05-.25.01-.06.01-.12.01-.19.04-.36.06-.72.06-1.07v-.59c-.01-.22-.04-.44-.06-.66-.02-.19-.05-.37-.09-.56-.02-.11-.04-.21-.06-.32-.01.06-.02.12-.04.19-.02.11-.05.21-.07.32-.06.25-.14.5-.21.75-.02.07-.05.16-.07.24-.02.09-.05.16-.07.25-.2.57-.45,1.14-.74,1.7-.02.04-.04.09-.06.12l-.07.15c-.05.09-.11.17-.16.27-3.08,5.47-10.08,9.92-19.06,12.24-.16.04-.32.09-.49.12s-.31.07-.47.11c-4.1.97-8.58,1.52-13.29,1.52-1.17,0-2.34-.04-3.48-.1-.11-.01-.22-.01-.35-.02-.11-.01-.22-.01-.34-.02-3.95-.27-7.69-.92-11.13-1.9-1.51-.42-2.95-.91-4.33-1.45-.09-.04-.16-.07-.25-.1-.09-.04-.17-.07-.25-.1-4.46-1.82-8.15-4.23-10.75-7.03-1.61,2.78-2.21,5.64-1.57,8.34.34,1.46,1.04,2.82,2.04,4.05,1.01,1.24,2.35,2.34,3.98,3.3.06.05.14.1.21.14Z" /><path class="st14" d="M5.45,88.95c.06.06.11.12.17.2,2.58,2.83,6.32,5.27,10.86,7.09.09.04.17.07.26.1.09.04.16.06.25.1,1.56.6,3.22,1.14,4.95,1.59,3.3.86,6.87,1.45,10.63,1.67.11.01.24.01.35.02.12.01.24.01.36.01.97.05,1.96.07,2.96.07,4.97,0,9.7-.61,13.97-1.7.16-.04.34-.09.5-.12.16-.04.32-.09.49-.12,8.25-2.29,14.69-6.41,17.7-11.43.05-.1.11-.19.16-.29.01-.02.02-.05.05-.07.04-.07.09-.14.12-.21.35-.65.65-1.31.87-2,.02-.07.05-.15.07-.24s.05-.16.07-.25c.1-.35.19-.7.26-1.05.02-.1.05-.2.06-.3.02-.1.02-.21.04-.32.02-.19.06-.37.07-.57.02-.2.02-.4.04-.6.01-.17.02-.35.02-.52-.04.09-.09.17-.14.26-.05.1-.1.2-.15.29-.12.21-.25.42-.39.64-.05.07-.09.14-.14.21s-.1.14-.15.2c-.32.45-.69.89-1.09,1.31-.07.07-.15.15-.22.22l-.21.21c-2.27,2.17-5.59,3.86-9.82,4.93-3.33.85-7.04,1.27-10.95,1.27-.14,0-.27,0-.4-.01-.16,0-.32,0-.49-.01-.16,0-.32,0-.49-.01-4.17-.1-8.54-.67-12.95-1.7-1.14-.26-2.26-.56-3.36-.87-.11-.04-.22-.06-.34-.1s-.22-.07-.34-.1c-5.44-1.64-10.33-3.88-14.35-6.47-.07-.05-.15-.1-.22-.15s-.14-.1-.21-.14c-4.02-2.66-7.16-5.66-9.09-8.77-2.29,2.65-3.57,5.62-3.57,8.77s1.29,6.12,3.57,8.77c.06.06.11.12.17.19Z" /><path class="st18" d="M5.49,70.64c.05.07.09.15.14.22,1.92,3.12,5.09,6.17,9.2,8.84.07.05.14.1.21.14.07.05.15.1.24.15,4.07,2.58,9,4.81,14.51,6.42.11.04.22.06.34.1s.22.06.35.1c.94.26,1.89.51,2.85.74,4.66,1.1,9.29,1.66,13.67,1.7h1.01c3.7-.04,7.21-.45,10.35-1.25,3.96-1.01,7.11-2.56,9.3-4.53.07-.07.15-.15.22-.22s.16-.15.24-.22c.49-.49.92-1,1.3-1.52.05-.06.1-.14.15-.2s.09-.14.12-.21c.19-.29.36-.59.51-.9.05-.09.1-.19.14-.27.05-.1.1-.2.14-.3.07-.19.15-.37.22-.56.06-.19.12-.37.17-.57.04-.14.09-.27.11-.41-.05.06-.1.11-.15.17-.07.07-.15.16-.22.24-.17.17-.35.34-.54.5-.06.05-.14.11-.2.16-.06.05-.12.1-.2.15-.42.32-.87.62-1.37.9-.09.05-.16.09-.25.14s-.17.09-.26.14c-2.46,1.21-5.68,1.81-9.39,1.81s-7.99-.61-12.48-1.84c-.16-.04-.31-.09-.47-.12-.15-.04-.3-.07-.46-.12-3.76-1.09-7.65-2.58-11.56-4.5-1.25-.61-2.47-1.26-3.67-1.94-.1-.06-.2-.11-.3-.17-.1-.06-.2-.11-.3-.17-4.91-2.81-9.24-6.04-12.69-9.45-.06-.06-.14-.12-.2-.2-.06-.06-.12-.12-.17-.19-.99-1-1.91-2.02-2.73-3.05-1.56-1.92-2.75-3.81-3.57-5.61-3.25,1.9-5.33,4.4-6.02,7.33-.64,2.71-.04,5.56,1.57,8.35.04.1.09.17.14.25Z" /><path class="st16" d="M10.13,54.27c.04.07.06.15.1.22.81,1.77,1.99,3.63,3.53,5.54.86,1.06,1.81,2.12,2.85,3.16.06.06.12.12.19.17l.2.2c3.5,3.43,7.88,6.67,12.85,9.47.1.06.21.11.31.17s.21.11.31.17c1.05.57,2.11,1.14,3.21,1.67,4.16,2.04,8.3,3.6,12.26,4.7.15.04.31.09.46.12.17.05.34.09.51.12,8.3,2.14,15.68,2.16,20.35,0,.1-.05.2-.09.29-.14.09-.04.17-.09.26-.14.59-.31,1.12-.65,1.61-1.02.06-.05.14-.1.2-.15s.12-.11.19-.17c.25-.22.49-.46.71-.71.07-.07.14-.15.21-.24s.14-.17.2-.26c.09-.12.17-.24.26-.36.1-.16.2-.32.3-.49.06-.12.15-.24.2-.36.01-.02.02-.06.04-.1-.07.05-.15.09-.22.14-.09.05-.17.11-.26.16-.17.1-.35.17-.52.26-.07.04-.15.07-.22.1-.07.04-.15.07-.24.1-.47.19-1,.32-1.54.44-.1.02-.2.05-.3.06-.1.01-.2.04-.3.05-.66.1-1.37.16-2.12.16-2.12,0-4.6-.4-7.33-1.21-3.7-1.1-7.67-2.86-11.68-5.18-.14-.09-.29-.16-.42-.24-.14-.07-.27-.16-.41-.25-3.13-1.86-6.29-4.06-9.37-6.52-1.47-1.19-2.87-2.4-4.21-3.62-.09-.07-.16-.16-.25-.24-.09-.07-.16-.15-.25-.24-3.13-2.92-5.86-5.93-8.09-8.88-.06-.07-.11-.16-.17-.24-.06-.09-.12-.16-.19-.25-2.66-3.58-4.58-7.06-5.63-10.18-4,.75-6.96,2.49-8.3,5.23-1.16,2.37-1.02,5.28.34,8.49.01.1.05.17.09.25Z" /><path class="st10" d="M18.36,40.01c.02.07.05.16.07.24,1.06,3.11,3.02,6.61,5.74,10.21.06.09.12.16.19.25.06.07.12.16.19.24,2.26,2.93,5.02,5.94,8.19,8.85.09.07.17.16.26.24.09.07.17.16.26.24,1.22,1.1,2.49,2.19,3.82,3.26,3.28,2.63,6.67,4.96,10.03,6.89.15.09.3.17.45.26.14.07.29.16.42.25,3.72,2.09,7.38,3.68,10.8,4.7,3.46,1.02,6.44,1.39,8.85,1.1.1-.01.21-.02.31-.04.11-.01.22-.02.34-.05.65-.11,1.25-.29,1.81-.5.07-.04.16-.06.24-.1.07-.04.16-.06.22-.1.24-.11.46-.24.67-.37.09-.05.16-.11.25-.17s.17-.11.26-.17c.11-.09.22-.19.32-.27.12-.11.25-.22.37-.35.11-.11.22-.24.32-.36.06-.07.1-.15.15-.21-.04.01-.07.01-.1.02-.09.02-.19.04-.27.06-.09.02-.17.04-.26.06-.2.04-.41.07-.62.09-.09.01-.17.01-.26.01s-.16.01-.25.01c-.07,0-.15.01-.22.01-.36,0-.74-.02-1.11-.07-.1-.01-.2-.04-.3-.05-.1-.01-.2-.02-.31-.05-2.31-.4-5.05-1.55-8.12-3.45-3.52-2.19-7.23-5.19-10.89-8.79l-.36-.36c-.11-.11-.22-.21-.32-.32-2.27-2.3-4.53-4.82-6.69-7.51-.26-.32-.52-.66-.79-.99-.09-.11-.17-.21-.25-.32-.09-.11-.16-.21-.25-.32-2.73-3.56-5.08-7.12-7.01-10.55-.06-.1-.11-.2-.17-.3-.05-.1-.11-.19-.16-.29-2.44-4.43-4.13-8.62-4.98-12.19-1.24-.21-2.41-.34-3.5-.34-3.02,0-5.39.84-6.81,2.6-1.66,2.06-1.79,5.14-.64,8.77.04.1.06.17.09.25Z" /><path class="st9" d="M29.65,28.57c.02.09.04.17.06.26.87,3.57,2.63,7.78,5.14,12.26.05.1.11.2.16.29.06.1.11.2.17.31,1.96,3.43,4.36,7.01,7.14,10.58.09.11.17.21.25.32.09.11.17.21.25.32.12.16.25.32.37.47,2.34,2.91,4.78,5.62,7.26,8.07.11.11.22.22.35.34.12.12.25.24.36.36,3.42,3.3,6.88,6.07,10.18,8.1,2.83,1.76,5.38,2.86,7.52,3.32.11.02.22.05.34.06.1.02.2.04.31.05.55.09,1.06.12,1.55.11h.25c.09,0,.17-.01.26-.02.27-.02.55-.06.8-.12.09-.02.17-.04.26-.06.09-.02.17-.06.26-.09.16-.06.32-.12.47-.19.12-.06.26-.12.39-.2.14-.07.25-.17.37-.26.04-.02.06-.04.1-.06.11-.09.2-.19.3-.27-.09,0-.17-.01-.27-.01-.09,0-.17-.01-.25-.01-.09-.01-.16-.02-.25-.04-.26-.04-.52-.1-.8-.19-.09-.02-.17-.05-.26-.09-.09-.02-.16-.05-.25-.09-.51-.19-1.04-.45-1.59-.76-.12-.07-.25-.15-.37-.22-.12-.07-.24-.15-.36-.22-1.62-1.06-3.42-2.63-5.32-4.7-1.59-1.71-3.17-3.7-4.76-5.88-.14-.19-.27-.37-.4-.56-.12-.17-.25-.35-.37-.54-2.02-2.91-4.02-6.16-5.89-9.63-.07-.14-.15-.29-.22-.42-.07-.15-.15-.29-.24-.44-.57-1.09-1.15-2.2-1.7-3.33-1.46-2.98-2.76-5.97-3.9-8.87-.05-.14-.11-.27-.16-.4s-.09-.25-.14-.37c-1.87-4.96-3.23-9.69-3.93-13.84-.06-.35-.11-.69-.16-1.04-5.16-3-9.49-3.87-11.91-1.92-2.04,1.64-2.42,5.02-1.42,9.42.01.05.02.12.05.2Z" /><path class="st23" d="M43.45,20.88c.01.1.02.2.05.3.02.2.06.4.09.61.72,4.28,2.15,9.2,4.13,14.36.05.14.11.26.16.4s.11.27.16.41c1.06,2.68,2.26,5.43,3.61,8.18.67,1.39,1.37,2.73,2.09,4.05.07.15.16.3.24.44.09.15.16.3.25.45,1.97,3.57,4.06,6.89,6.17,9.83.14.2.29.4.42.59.16.22.32.42.49.65,1.29,1.72,2.58,3.3,3.87,4.68,1.57,1.71,3.08,3.07,4.47,4.08.15.11.29.21.44.31.15.1.29.2.44.29.66.42,1.3.75,1.89,1,.09.04.17.07.25.1.09.04.17.06.26.09.34.11.66.2.96.24.09.01.16.01.25.02.09.01.17.02.26.02.2.01.41,0,.6-.02.12-.01.24-.04.35-.07.12-.04.25-.07.37-.12.07-.02.15-.05.22-.09.17-.09.34-.19.49-.31-.14-.05-.27-.11-.42-.17-.07-.04-.15-.09-.22-.12s-.14-.07-.21-.12c-.3-.19-.61-.42-.92-.7-.09-.07-.16-.15-.25-.24-.09-.07-.16-.15-.25-.24-2.97-2.98-6.29-9.53-9.18-18.11-.07-.2-.14-.41-.21-.62-.06-.2-.14-.41-.2-.61-1.11-3.41-2.15-7.12-3.06-11.05-.19-.79-.36-1.57-.52-2.36l-.11-.52-.11-.52c-1.36-6.53-2.2-12.76-2.41-18.09-.67-.82-1.35-1.6-2.02-2.32-3.71-4.01-7.02-6.17-9.38-6.17-.51,0-.97.1-1.4.3-2.2,1.07-2.96,5.03-2.15,10.91.04.11.05.21.06.3Z" /><path class="st27" d="M58.86,18.11c0,.14.01.27.01.42.26,5.41,1.15,11.7,2.57,18.27.04.17.07.36.11.54.04.19.09.36.12.55.1.46.21.92.31,1.37,1.01,4.32,2.2,8.44,3.47,12.19.07.21.15.44.22.65.07.24.16.46.24.69,2.62,7.44,5.58,13.3,8.19,16.22.09.1.17.19.26.29.09.09.17.19.26.27.37.37.75.66,1.1.9.07.05.14.09.21.14s.15.09.22.12c.22.11.45.2.66.25.1.02.2.04.29.05.1.01.21.02.31.02.12,0,.25-.01.37-.05.29-.06.55-.2.79-.4-.19-.17-.36-.39-.54-.64-.05-.07-.11-.16-.16-.25-.06-.09-.11-.19-.17-.29-.39-.67-.76-1.54-1.11-2.55-.11-.34-.22-.69-.34-1.05-.47-1.56-.89-3.42-1.26-5.48-.09-.49-.17-.99-.25-1.49-.67-4.26-1.14-9.28-1.39-14.51-.01-.26-.02-.52-.04-.77-.01-.25-.02-.49-.02-.74-.09-2.19-.12-4.41-.12-6.61,0-5,.21-10.04.62-14.67-1.24-3.48-2.57-6.66-3.93-9.35-2.75-5.43-5.42-8.47-7.43-8.47-.15,0-.29.01-.42.05-2.04.47-3.23,4.5-3.28,11.04-.01.92.01,1.89.05,2.87.05.11.06.26.06.4Z" /><path class="st26" d="M73.93,44.22c.01.25.02.51.04.76.01.27.02.54.04.81.59,11.19,2.19,19.38,3.98,22.96.06.12.12.22.17.34.06.1.11.2.17.3.22.36.45.65.67.87.06.06.12.11.17.16.06.05.14.1.2.14.2.12.41.19.61.19s.41-.06.61-.19c-.22-.25-.42-.55-.61-.9-.05-.09-.1-.16-.14-.26-.05-.09-.09-.2-.14-.3-.34-.77-.62-1.71-.84-2.81-.07-.4-.15-.82-.21-1.27-.17-1.27-.29-2.7-.32-4.27-.01-.54-.02-1.09-.01-1.66.02-4.13.49-9.09,1.4-14.54.04-.26.09-.52.14-.79.04-.25.09-.5.12-.74.44-2.46.96-5.02,1.57-7.63,1.16-4.96,2.55-9.69,4.06-13.96-1.07-12.21-3.41-19.74-5.63-19.74s-4.56,7.53-5.63,19.74c-.01.2-.04.41-.05.61-.01.2-.04.41-.05.61-.32,4.07-.51,8.62-.51,13.55,0,2.82.06,5.48.17,8Z" /><path class="st22" d="M80.26,44.58c-.05.27-.09.54-.14.81-.05.3-.09.59-.14.87-1.49,9.92-1.49,18.21,0,22.22.04.11.09.24.14.35s.09.2.14.3c.21.46.45.84.72,1.14.06.06.11.12.17.17.06.06.12.11.19.16.25.19.51.32.79.4.12.02.25.04.37.05-.24-.31-.45-.66-.62-1.07-.04-.09-.07-.19-.11-.29s-.07-.19-.11-.29c-.3-.85-.49-1.86-.56-3-.02-.4-.05-.8-.05-1.22-.01-1.36.1-2.9.34-4.56.07-.56.17-1.14.27-1.72.77-4.28,2.26-9.32,4.42-14.72.09-.22.19-.46.27-.69s.17-.45.27-.66c.92-2.22,1.95-4.5,3.07-6.81,3.6-7.34,7.59-13.65,11.43-18.34.3-7.89-.77-13.32-3.21-13.89-.14-.04-.27-.05-.42-.05-2,0-4.67,3.03-7.43,8.47-1.37,2.71-2.7,5.87-3.93,9.35-.06.19-.12.37-.2.55-.06.19-.14.37-.2.57-1.36,3.96-2.61,8.3-3.67,12.84-.71,3.1-1.31,6.13-1.8,9.05Z" /><path class="st25" d="M90.17,36.23c-1.35,2.75-2.55,5.46-3.6,8.09-.1.24-.19.47-.27.71-.1.25-.2.5-.29.74-3.8,9.97-5.29,18.59-4.01,23.04.04.11.07.22.11.34s.07.21.11.32c.24.6.54,1.11.91,1.51.06.07.14.14.21.2s.15.14.22.19c.16.11.32.22.5.31.06.04.14.05.21.07-.1-.17-.2-.36-.27-.56-.04-.07-.06-.15-.1-.22-.02-.07-.05-.16-.09-.24-.37-1.07-.52-2.35-.46-3.83.01-.36.05-.74.09-1.12.19-1.64.6-3.47,1.26-5.49.09-.26.16-.51.26-.79.07-.21.15-.42.24-.64,2.37-6.46,6.74-13.85,12.39-20.88.32-.4.65-.8.97-1.2.11-.14.24-.27.35-.42.11-.14.24-.27.35-.41,5.81-6.84,11.96-12.2,17.35-15.36.82-5.88.05-9.84-2.15-10.91-.44-.21-.92-.32-1.45-.32-2.88,0-6.98,3.16-11.33,8.45-.1.11-.19.24-.29.35-.1.12-.2.24-.3.36-3.68,4.66-7.52,10.75-10.94,17.72Z" /><path class="st21" d="M116.52,21.18c-5.41,3.27-11.64,8.8-17.48,15.83-.11.14-.24.29-.35.42-.12.15-.24.29-.36.44-.11.14-.22.29-.35.42-5.79,7.22-10.25,14.81-12.54,21.37-1.62,4.65-2.01,8.34-1.2,10.8.02.09.05.16.09.24.02.07.06.16.1.24.16.36.34.7.56,1.01.07.1.15.19.22.27.09.1.16.19.26.27.1.1.19.19.3.27.02.02.06.05.1.06-.05-.11-.09-.24-.12-.36-.02-.09-.05-.16-.07-.25-.02-.07-.05-.15-.06-.24-.14-.55-.22-1.14-.25-1.76v-.69c.06-2.67,1.1-5.91,3.11-9.52,1.56-2.82,3.62-5.72,6.08-8.59.15-.17.31-.36.46-.54.15-.16.29-.34.44-.5,2.8-3.13,6.06-6.22,9.64-9.1,2.36-1.9,4.78-3.63,7.21-5.18.12-.07.24-.15.36-.22.11-.07.24-.15.35-.22,4.78-3,9.57-5.26,13.97-6.56,1.21-.36,2.36-.64,3.46-.84.99-4.38.6-7.75-1.44-9.39-.87-.7-2.01-1.04-3.33-1.04-2.34,0-5.29,1.05-8.59,2.96-.09.05-.19.11-.27.16-.1.1-.2.15-.29.21Z" /><path class="st20" d="M130.54,28.81c-.09.01-.16.04-.25.05-1.01.19-2.07.44-3.2.77-4.53,1.34-9.48,3.71-14.41,6.86-.12.07-.24.15-.36.22-.12.07-.25.16-.37.25-2.2,1.44-4.41,3.03-6.56,4.76-3.92,3.15-7.43,6.52-10.38,9.94-.15.17-.31.36-.46.54-.17.2-.34.4-.5.6-2.06,2.51-3.82,5.03-5.18,7.49-1.82,3.28-2.82,6.24-3.01,8.72-.01.14-.02.27-.02.41v.36c0,.79.09,1.51.26,2.19.02.07.04.15.06.22.02.09.05.16.07.25.1.3.24.6.39.87.06.12.12.25.2.36.07.12.16.25.25.36.05.06.09.12.14.19-.01-.06-.02-.11-.04-.17-.01-.1-.04-.19-.05-.29-.01-.09-.01-.19-.02-.27-.05-.4-.07-.82-.06-1.24,0-.09,0-.19.01-.27,0-.07.01-.16.01-.24.21-3.17,1.89-6.79,4.95-10.59,3.47-4.3,8.4-8.43,14.25-11.96.14-.09.27-.16.41-.25s.29-.16.42-.25c1.61-.95,3.27-1.85,5-2.68,4.43-2.17,8.85-3.81,13.06-4.91.11-.02.22-.05.32-.09.1-.02.21-.05.31-.07,6.01-1.5,11.53-1.89,15.92-1.15,1.19-3.72.99-6.76-.62-8.77-1.39-1.72-3.71-2.58-6.78-2.58-1.09,0-2.26.11-3.52.32-.07.01-.15.02-.24.05Z" /><path class="st24" d="M141.8,40.27c-.09-.01-.16-.02-.25-.04-1.37-.22-2.87-.34-4.46-.34-3.5,0-7.44.55-11.64,1.64-.11.02-.21.06-.32.09s-.22.06-.34.09c-4.03,1.1-8.25,2.67-12.49,4.75-1.97.96-3.86,2-5.67,3.1-.15.09-.29.17-.44.26-.15.09-.29.19-.44.27-5.46,3.4-10.08,7.32-13.36,11.39-2.92,3.62-4.55,7.07-4.82,10.08-.01.09-.01.16-.02.25,0,.1-.01.2-.02.29-.02.54.01,1.06.07,1.56.01.09.04.17.05.26s.04.17.05.26c.05.26.12.52.21.79.05.16.11.32.17.47.05.12.1.25.16.37v-.56c.01-.32.04-.65.09-.97.01-.09.02-.16.04-.25.01-.07.02-.16.04-.24.14-.8.37-1.61.69-2.42.05-.14.12-.29.19-.42.05-.11.1-.24.15-.35,1.19-2.58,3.26-5.17,6.13-7.65,1.24-1.06,2.58-2.07,4.03-3.02.19-.12.37-.25.56-.37.2-.12.4-.24.59-.36,4.81-2.96,10.6-5.33,16.9-6.89.14-.04.26-.06.4-.1.11-.02.24-.06.35-.09,6.03-1.41,11.98-1.95,17.4-1.62.1,0,.2.01.3.01.1.01.2.01.3.01,2.56.19,5.01.56,7.27,1.15,2.4.61,4.5,1.42,6.29,2.4,1.36-3.21,1.5-6.12.34-8.49-1.35-2.73-4.28-4.47-8.27-5.22-.05-.02-.14-.04-.22-.06Z" /><path class="st19" d="M149.98,54.62c-.07-.04-.14-.07-.21-.12-1.76-.96-3.83-1.77-6.21-2.37-2.34-.6-4.86-.96-7.52-1.14-.1-.01-.2-.02-.3-.02s-.2-.01-.3-.01c-.89-.05-1.8-.07-2.71-.07-4.53,0-9.35.57-14.21,1.71-.2.05-.39.1-.57.15-.14.04-.26.06-.4.1s-.26.06-.4.1c-6.46,1.66-12.36,4.18-17.15,7.33-.22.15-.44.29-.66.44-.21.15-.42.3-.62.45-.99.7-1.94,1.42-2.81,2.19-2.53,2.17-4.41,4.43-5.61,6.69-.07.14-.15.27-.21.41-.07.16-.16.32-.22.49-.44.97-.75,1.95-.92,2.91-.01.09-.02.16-.05.25-.01.09-.04.16-.05.25-.06.44-.09.86-.09,1.29v.57c.01.22.04.44.06.65.02.19.05.37.09.56.02.11.04.21.06.32.01-.06.02-.12.04-.19.02-.11.05-.22.07-.32.06-.25.14-.51.21-.76.02-.07.05-.15.07-.24.02-.07.05-.16.07-.24.2-.57.46-1.15.75-1.71.05-.09.09-.19.14-.27s.11-.17.16-.27c3.08-5.47,10.08-9.92,19.04-12.24.16-.04.32-.09.49-.12s.31-.07.47-.11c4.1-.97,8.58-1.52,13.29-1.52,1.17,0,2.35.04,3.5.1.11.01.22.01.35.02.11.01.22.01.35.02,5.67.39,10.94,1.57,15.45,3.35.09.04.16.07.25.1.09.04.17.07.25.1,4.46,1.82,8.15,4.23,10.75,7.03,1.61-2.78,2.21-5.64,1.57-8.35-.69-2.93-2.77-5.44-6.02-7.33-.09-.06-.17-.11-.25-.15Z" /></svg>