<!DOCTYPE svg PUBLIC "-//W3C//DTD SVG 1.1//EN" "http://www.w3.org/Graphics/SVG/1.1/DTD/svg11.dtd"[]><svg xmlns="http://www.w3.org/2000/svg" version="1.1" width="160" height="153" style="shape-rendering:geometricPrecision; text-rendering:geometricPrecision; image-rendering:optimizeQuality; fill-rule:evenodd; clip-rule:evenodd" xmlns:xlink="http://www.w3.org/1999/xlink" viewBox="0 0 758 728"><g><path style="opacity:1" fill="#fcf7f6" d="M -0.5,-0.5 C 252.167,-0.5 504.833,-0.5 757.5,-0.5C 757.5,32.1667 757.5,64.8333 757.5,97.5C 743.972,43.3058 709.638,11.6391 654.5,2.5C 471,1.33379 287.334,1.16712 103.5,2C 97.8594,2.90602 92.5261,4.40602 87.5,6.5C 47.0458,18.7861 20.2125,45.1194 7,85.5C 5.45221,91.4539 4.11888,97.4539 3,103.5C 2.33333,275.5 2.33333,447.5 3,619.5C 12.3909,678.224 46.2242,713.39 104.5,725C 287.833,725.667 471.167,725.667 654.5,725C 711.347,714.984 745.68,681.818 757.5,625.5C 757.5,659.5 757.5,693.5 757.5,727.5C 504.833,727.5 252.167,727.5 -0.5,727.5C -0.5,484.833 -0.5,242.167 -0.5,-0.5 Z" /></g><g><path style="opacity:1" fill="#d45041" d="M 654.5,2.5 C 471.833,2.33333 289.166,2.5 106.5,3C 104.22,3.23263 102.22,4.06596 100.5,5.5C 102.019,8.06434 103.519,8.06434 105,5.5C 105.374,6.41623 105.874,7.24956 106.5,8C 101.19,9.53266 96.357,11.366 92,13.5C 89.0596,13.2858 86.2262,12.7858 83.5,12C 84.3279,11.0853 85.3279,10.4186 86.5,10C 86.1667,9.66667 85.8333,9.33333 85.5,9C 86.8333,8.33333 88.1667,7.66667 89.5,7C 88.9056,6.53566 88.2389,6.36899 87.5,6.5C 92.5261,4.40602 97.8594,2.90602 103.5,2C 287.334,1.16712 471,1.33379 654.5,2.5 Z" /></g><g><path style="opacity:1" fill="#d14739" d="M 654.5,2.5 C 709.638,11.6391 743.972,43.3058 757.5,97.5C 757.5,273.5 757.5,449.5 757.5,625.5C 745.68,681.818 711.347,714.984 654.5,725C 471.167,725.667 287.833,725.667 104.5,725C 46.2242,713.39 12.3909,678.224 3,619.5C 2.33333,447.5 2.33333,275.5 3,103.5C 4.11888,97.4539 5.45221,91.4539 7,85.5C 20.2125,45.1194 47.0458,18.7861 87.5,6.5C 88.2389,6.36899 88.9056,6.53566 89.5,7C 88.1667,7.66667 86.8333,8.33333 85.5,9C 85.8333,9.33333 86.1667,9.66667 86.5,10C 85.3279,10.4186 84.3279,11.0853 83.5,12C 86.2262,12.7858 89.0596,13.2858 92,13.5C 96.357,11.366 101.19,9.53266 106.5,8C 105.874,7.24956 105.374,6.41623 105,5.5C 103.519,8.06434 102.019,8.06434 100.5,5.5C 102.22,4.06596 104.22,3.23263 106.5,3C 289.166,2.5 471.833,2.33333 654.5,2.5 Z" /></g><g><path style="opacity:1" fill="#fdfbfb" d="M 342.5,270.5 C 340.527,269.837 338.361,269.504 336,269.5C 332.523,269.328 329.356,269.994 326.5,271.5C 317.128,275.577 314.961,282.244 320,291.5C 323.752,294.629 327.919,297.129 332.5,299C 347.905,302.802 362.905,307.802 377.5,314C 386.806,320.123 392.473,328.623 394.5,339.5C 394.787,348.772 393.454,357.772 390.5,366.5C 382.137,378.698 370.47,385.865 355.5,388C 329.648,391.83 305.648,386.83 283.5,373C 282.196,372.196 281.529,371.029 281.5,369.5C 284.343,361.444 287.843,353.778 292,346.5C 303.704,354.403 316.537,359.57 330.5,362C 338.232,362.856 345.898,362.523 353.5,361C 362.455,356.802 364.622,350.302 360,341.5C 358.442,339.641 356.609,338.141 354.5,337C 338.786,332.155 323.119,327.155 307.5,322C 295.738,316.975 288.905,308.142 287,295.5C 284.484,265.335 298.317,248.168 328.5,244C 350.739,241.86 371.406,246.527 390.5,258C 387.064,266.145 383.731,274.312 380.5,282.5C 371.721,278.517 362.721,275.017 353.5,272C 349.886,271.064 346.22,270.564 342.5,270.5 Z" /></g><g><path style="opacity:1" fill="#fcfbfa" d="M 636.5,279.5 C 632.579,276.742 628.245,274.742 623.5,273.5C 616.505,271.381 609.338,270.047 602,269.5C 594.638,269.182 588.638,271.849 584,277.5C 581.384,287.939 585.217,294.606 595.5,297.5C 603.136,300.746 611.136,303.079 619.5,304.5C 628.006,307.289 636.34,310.789 644.5,315C 658.802,326.249 663.302,340.749 658,358.5C 652.92,373.91 642.42,383.41 626.5,387C 598.03,392.973 571.864,387.806 548,371.5C 547.333,370.167 547.333,368.833 548,367.5C 550.562,360.047 553.895,353.047 558,346.5C 572.369,356.734 588.369,362.401 606,363.5C 613.609,363.742 620.276,361.409 626,356.5C 630.302,348.975 628.802,342.808 621.5,338C 618.583,336.472 615.583,335.139 612.5,334C 600.079,330.584 587.746,326.917 575.5,323C 559.577,316.836 551.577,305.169 551.5,288C 552.268,266.554 562.935,252.554 583.5,246C 607.979,241.116 631.312,244.449 653.5,256C 654.574,256.739 655.241,257.739 655.5,259C 652.186,267.283 648.686,275.45 645,283.5C 642.341,281.754 639.508,280.42 636.5,279.5 Z" /></g><g><path style="opacity:1" fill="#fdfcfb" d="M 145.5,245.5 C 158.127,272.754 171.294,299.754 185,326.5C 198.192,299.92 211.192,273.253 224,246.5C 235.753,245.512 247.586,245.179 259.5,245.5C 259.5,292.5 259.5,339.5 259.5,386.5C 249.833,386.5 240.167,386.5 230.5,386.5C 230.667,355.165 230.5,323.832 230,292.5C 227.962,295.243 226.462,298.243 225.5,301.5C 214.608,322.952 203.941,344.619 193.5,366.5C 187.863,367.663 182.196,367.83 176.5,367C 164.964,343.427 153.297,319.927 141.5,296.5C 141.013,295.527 140.513,294.527 140,293.5C 139.5,324.498 139.333,355.498 139.5,386.5C 130.167,386.5 120.833,386.5 111.5,386.5C 111.5,339.5 111.5,292.5 111.5,245.5C 122.833,245.5 134.167,245.5 145.5,245.5 Z" /></g><g><path style="opacity:1" fill="#fdfbfb" d="M 485.5,389.5 C 444.78,389.125 419.446,369.125 409.5,329.5C 404.558,298.465 414.558,273.632 439.5,255C 461.47,241.999 484.47,239.999 508.5,249C 519.799,254.288 528.465,262.288 534.5,273C 528.237,279.429 521.237,284.929 513.5,289.5C 503.037,274.608 488.704,268.441 470.5,271C 454.596,275.905 444.429,286.405 440,302.5C 435.817,325.308 442.984,343.474 461.5,357C 482.862,365.492 500.195,360.325 513.5,341.5C 521.258,346.423 528.591,351.923 535.5,358C 523.57,376.111 506.903,386.611 485.5,389.5 Z" /></g><g><path style="opacity:1" fill="#e68879" d="M 342.5,270.5 C 337.13,270.392 331.797,270.725 326.5,271.5C 329.356,269.994 332.523,269.328 336,269.5C 338.361,269.504 340.527,269.837 342.5,270.5 Z" /></g><g><path style="opacity:1" fill="#d24638" d="M 623.5,273.5 C 624.6,277.004 623.434,279.671 620,281.5C 619.517,282.448 619.351,283.448 619.5,284.5C 616.612,284.22 615.112,285.553 615,288.5C 613.676,289.88 612.343,290.214 611,289.5C 606.396,291.105 603.062,294.105 601,298.5C 599.301,297.594 597.467,297.261 595.5,297.5C 585.217,294.606 581.384,287.939 584,277.5C 588.638,271.849 594.638,269.182 602,269.5C 609.338,270.047 616.505,271.381 623.5,273.5 Z" /></g><g><path style="opacity:1" fill="#d34f3d" d="M 623.5,273.5 C 628.245,274.742 632.579,276.742 636.5,279.5C 635.028,283.104 632.361,285.604 628.5,287C 629.167,287.667 629.833,288.333 630.5,289C 628.671,289.273 627.171,290.107 626,291.5C 625.667,290.833 625.333,290.167 625,289.5C 623.577,291.345 622.41,293.345 621.5,295.5C 620.914,295.291 620.414,294.957 620,294.5C 618.002,297.33 616.835,300.164 616.5,303C 617.737,303.232 618.737,303.732 619.5,304.5C 611.136,303.079 603.136,300.746 595.5,297.5C 597.467,297.261 599.301,297.594 601,298.5C 603.062,294.105 606.396,291.105 611,289.5C 612.343,290.214 613.676,289.88 615,288.5C 615.112,285.553 616.612,284.22 619.5,284.5C 619.351,283.448 619.517,282.448 620,281.5C 623.434,279.671 624.6,277.004 623.5,273.5 Z" /></g><g><path style="opacity:1" fill="#dc7569" d="M 141.5,296.5 C 140.833,326.833 140.167,357.167 139.5,387.5C 139.5,387.167 139.5,386.833 139.5,386.5C 139.333,355.498 139.5,324.498 140,293.5C 140.513,294.527 141.013,295.527 141.5,296.5 Z" /></g><g><path style="opacity:1" fill="#dd7264" d="M 259.5,386.5 C 249.681,387.494 239.681,387.827 229.5,387.5C 229.667,358.831 229.5,330.165 229,301.5C 227.607,304.125 226.441,304.125 225.5,301.5C 226.462,298.243 227.962,295.243 230,292.5C 230.5,323.832 230.667,355.165 230.5,386.5C 240.167,386.5 249.833,386.5 259.5,386.5 Z" /></g><g><path style="opacity:1" fill="#e39488" d="M 145.5,245.5 C 134.167,245.5 122.833,245.5 111.5,245.5C 111.5,292.5 111.5,339.5 111.5,386.5C 120.833,386.5 130.167,386.5 139.5,386.5C 139.5,386.833 139.5,387.167 139.5,387.5C 129.833,387.5 120.167,387.5 110.5,387.5C 110.5,339.833 110.5,292.167 110.5,244.5C 122.345,244.172 134.012,244.505 145.5,245.5 Z" /></g><g><path style="opacity:1" fill="#d35847" d="M 134.5,423.5 C 131.753,423.187 129.086,423.52 126.5,424.5C 123.907,430.023 121.073,435.357 118,440.5C 115.548,435.932 113.382,431.265 111.5,426.5C 113.467,426.739 115.301,426.406 117,425.5C 117.667,426.167 118.333,426.833 119,427.5C 120.269,426.095 120.769,424.429 120.5,422.5C 122.367,422.045 124.2,421.378 126,420.5C 128.055,422.026 130.889,423.026 134.5,423.5 Z" /></g><g><path style="opacity:1" fill="#d65d4d" d="M 191.5,422.5 C 189.5,422.5 187.5,422.5 185.5,422.5C 185.5,430.833 185.5,439.167 185.5,447.5C 184.833,439.657 184.167,431.657 183.5,423.5C 180.972,424.498 180.972,425.331 183.5,426C 180.07,426.322 178.07,428.155 177.5,431.5C 176.833,431.5 176.167,431.5 175.5,431.5C 175.5,429.167 175.5,426.833 175.5,424.5C 173.5,424.5 171.5,424.5 169.5,424.5C 169.167,424.5 168.833,424.5 168.5,424.5C 172.034,423.207 175.701,423.207 179.5,424.5C 180.54,422.625 182.04,421.292 184,420.5C 186.669,421.016 189.169,421.683 191.5,422.5 Z" /></g><g><path style="opacity:1" fill="#f6edeb" d="M 336.5,423.5 C 336.727,425.933 335.727,427.599 333.5,428.5C 330,428.505 328.5,426.838 329,423.5C 331.494,420.914 333.994,420.914 336.5,423.5 Z" /></g><g><path style="opacity:1" fill="#f9f2f1" d="M 440.5,430.5 C 439.833,430.833 439.167,431.167 438.5,431.5C 434.695,429.691 430.695,429.191 426.5,430C 425.167,431.667 425.167,433.333 426.5,435C 430.032,436.632 433.699,437.799 437.5,438.5C 442.7,441.963 443.867,446.63 441,452.5C 439.681,454.487 437.848,455.654 435.5,456C 431.113,456.706 426.78,456.54 422.5,455.5C 415.999,454.183 414.999,451.183 419.5,446.5C 423.69,449.547 428.356,450.714 433.5,450C 436.167,448.333 436.167,446.667 433.5,445C 428.603,443.593 424.103,441.427 420,438.5C 416.714,429.078 420.047,423.745 430,422.5C 433.698,422.763 437.198,423.763 440.5,425.5C 441.434,427.095 441.434,428.761 440.5,430.5 Z" /></g><g><path style="opacity:1" fill="#f9f5f3" d="M 109.5,423.5 C 109.932,424.71 110.599,425.71 111.5,426.5C 113.382,431.265 115.548,435.932 118,440.5C 121.073,435.357 123.907,430.023 126.5,424.5C 129.086,423.52 131.753,423.187 134.5,423.5C 135.487,428.305 135.821,433.305 135.5,438.5C 135.5,444.5 135.5,450.5 135.5,456.5C 133.5,456.5 131.5,456.5 129.5,456.5C 129.83,449.468 129.497,442.468 128.5,435.5C 127.893,435.624 127.56,435.957 127.5,436.5C 125.618,441.265 123.452,445.932 121,450.5C 119.301,451.406 117.467,451.739 115.5,451.5C 114.054,446.608 112.054,441.941 109.5,437.5C 109.217,436.711 108.717,436.044 108,435.5C 107.5,442.158 107.334,448.825 107.5,455.5C 105.833,455.5 104.167,455.5 102.5,455.5C 102.5,444.833 102.5,434.167 102.5,423.5C 104.833,423.5 107.167,423.5 109.5,423.5 Z" /></g><g><path style="opacity:1" fill="#f9f3f1" d="M 449.5,424.5 C 451.5,424.5 453.5,424.5 455.5,424.5C 455.5,426.833 455.5,429.167 455.5,431.5C 457.167,431.5 458.833,431.5 460.5,431.5C 460.5,433.167 460.5,434.833 460.5,436.5C 458.833,436.5 457.167,436.5 455.5,436.5C 455.5,441.167 455.5,445.833 455.5,450.5C 457.621,450.325 459.621,450.659 461.5,451.5C 462.244,454.95 460.91,456.616 457.5,456.5C 455.208,456.756 453.041,456.423 451,455.5C 449.755,449.61 449.088,443.61 449,437.5C 447.989,436.663 446.822,436.33 445.5,436.5C 445.5,435.167 445.5,433.833 445.5,432.5C 446.833,432.5 448.167,432.5 449.5,432.5C 449.5,429.833 449.5,427.167 449.5,424.5 Z" /></g><g><path style="opacity:1" fill="#f9f8f6" d="M 540.5,424.5 C 542.5,424.5 544.5,424.5 546.5,424.5C 546.5,426.833 546.5,429.167 546.5,431.5C 547.919,432.451 549.585,432.784 551.5,432.5C 551.5,433.833 551.5,435.167 551.5,436.5C 549.585,436.216 547.919,436.549 546.5,437.5C 546.183,441.702 546.517,445.702 547.5,449.5C 549.19,450.103 550.69,451.103 552,452.5C 552.658,454.108 552.158,455.275 550.5,456C 545.543,457.683 542.21,456.183 540.5,451.5C 540.5,446.5 540.5,441.5 540.5,436.5C 539.167,436.5 537.833,436.5 536.5,436.5C 536.5,435.167 536.5,433.833 536.5,432.5C 537.833,432.5 539.167,432.5 540.5,432.5C 540.5,429.833 540.5,427.167 540.5,424.5 Z" /></g><g><path style="opacity:1" fill="#e7b6af" d="M 168.5,424.5 C 168.833,424.5 169.167,424.5 169.5,424.5C 169.5,427.167 169.5,429.833 169.5,432.5C 168.5,432.5 167.5,432.5 166.5,432.5C 166.365,434.554 167.032,436.221 168.5,437.5C 167.5,437.5 166.5,437.5 165.5,437.5C 165.5,435.5 165.5,433.5 165.5,431.5C 166.5,431.5 167.5,431.5 168.5,431.5C 168.5,429.167 168.5,426.833 168.5,424.5 Z" /></g><g><path style="opacity:1" fill="#e6a096" d="M 449.5,424.5 C 449.5,427.167 449.5,429.833 449.5,432.5C 448.167,432.5 446.833,432.5 445.5,432.5C 446.209,431.596 447.209,431.263 448.5,431.5C 448.198,428.941 448.532,426.607 449.5,424.5 Z" /></g><g><path style="opacity:1" fill="#eccbc2" d="M 109.5,423.5 C 107.167,423.5 104.833,423.5 102.5,423.5C 102.5,434.167 102.5,444.833 102.5,455.5C 104.167,455.5 105.833,455.5 107.5,455.5C 107.5,455.833 107.5,456.167 107.5,456.5C 105.5,456.5 103.5,456.5 101.5,456.5C 101.5,445.167 101.5,433.833 101.5,422.5C 104.385,422.194 107.052,422.527 109.5,423.5 Z" /></g><g><path style="opacity:1" fill="#e5aaa3" d="M 312.5,424.5 C 312.5,427.167 312.5,429.833 312.5,432.5C 311.5,432.5 310.5,432.5 309.5,432.5C 309.5,433.833 309.5,435.167 309.5,436.5C 310.791,436.263 311.791,436.596 312.5,437.5C 311.167,437.5 309.833,437.5 308.5,437.5C 308.5,435.5 308.5,433.5 308.5,431.5C 309.5,431.5 310.5,431.5 311.5,431.5C 311.198,428.941 311.532,426.607 312.5,424.5 Z" /></g><g><path style="opacity:1" fill="#e5a397" d="M 540.5,424.5 C 540.5,427.167 540.5,429.833 540.5,432.5C 539.167,432.5 537.833,432.5 536.5,432.5C 537.209,431.596 538.209,431.263 539.5,431.5C 539.198,428.941 539.532,426.607 540.5,424.5 Z" /></g><g><path style="opacity:1" fill="#f9f7f5" d="M 191.5,422.5 C 191.334,426.846 191.501,431.179 192,435.5C 197.076,430.244 202.076,430.244 207,435.5C 207.5,442.492 207.666,449.492 207.5,456.5C 205.5,456.5 203.5,456.5 201.5,456.5C 201.666,450.824 201.499,445.157 201,439.5C 197.706,436.689 194.706,437.022 192,440.5C 191.501,445.823 191.334,451.156 191.5,456.5C 189.5,456.5 187.5,456.5 185.5,456.5C 185.5,453.5 185.5,450.5 185.5,447.5C 185.5,439.167 185.5,430.833 185.5,422.5C 187.5,422.5 189.5,422.5 191.5,422.5 Z" /></g><g><path style="opacity:1" fill="#e0887d" d="M 318.5,431.5 C 320.5,431.5 322.5,431.5 324.5,431.5C 324.784,433.415 324.451,435.081 323.5,436.5C 323.5,435.167 323.5,433.833 323.5,432.5C 321.585,432.784 319.919,432.451 318.5,431.5 Z" /></g><g><path style="opacity:1" fill="#faf5f2" d="M 335.5,431.5 C 335.5,439.833 335.5,448.167 335.5,456.5C 333.5,456.5 331.5,456.5 329.5,456.5C 329.5,448.167 329.5,439.833 329.5,431.5C 331.5,431.5 333.5,431.5 335.5,431.5 Z" /></g><g><path style="opacity:1" fill="#fbf9f9" d="M 563.5,448.5 C 564.312,449.993 565.645,450.66 567.5,450.5C 569.942,450.714 571.608,449.714 572.5,447.5C 573.487,442.695 573.821,437.695 573.5,432.5C 575.167,432.5 576.833,432.5 578.5,432.5C 578.177,438.69 578.51,444.69 579.5,450.5C 580.341,452.379 580.675,454.379 580.5,456.5C 578.167,456.5 575.833,456.5 573.5,456.5C 573.719,455.325 573.386,454.325 572.5,453.5C 568.95,456.28 564.95,457.114 560.5,456C 558.859,454.871 557.859,453.371 557.5,451.5C 557.5,445.167 557.5,438.833 557.5,432.5C 559.167,432.5 560.833,432.5 562.5,432.5C 562.179,438.026 562.512,443.36 563.5,448.5 Z" /></g><g><path style="opacity:1" fill="#faf7f5" d="M 592.5,440.5 C 591.513,445.305 591.179,450.305 591.5,455.5C 589.833,455.5 588.167,455.5 586.5,455.5C 586.5,447.833 586.5,440.167 586.5,432.5C 588.167,432.5 589.833,432.5 591.5,432.5C 592.222,432.918 592.722,433.584 593,434.5C 594.509,432.081 596.675,431.081 599.5,431.5C 599.5,433.5 599.5,435.5 599.5,437.5C 596.519,437.182 594.185,438.182 592.5,440.5 Z" /></g><g><path style="opacity:1" fill="#f9f3f1" d="M 630.5,453.5 C 630.628,451.91 631.295,450.577 632.5,449.5C 635.95,451.224 639.617,451.891 643.5,451.5C 643.67,450.178 643.337,449.011 642.5,448C 633.745,447.12 630.411,442.62 632.5,434.5C 638.046,430.659 643.713,430.659 649.5,434.5C 648.754,435.736 648.421,437.07 648.5,438.5C 644.998,437.083 641.331,436.416 637.5,436.5C 637.238,437.978 637.571,439.311 638.5,440.5C 642.461,441.231 645.961,442.897 649,445.5C 650.718,453.286 647.551,456.953 639.5,456.5C 635.948,456.864 632.948,455.864 630.5,453.5 Z" /></g><g><path style="opacity:1" fill="#e4aea7" d="M 175.5,431.5 C 176.167,431.5 176.833,431.5 177.5,431.5C 178.5,431.5 179.5,431.5 180.5,431.5C 180.5,433.5 180.5,435.5 180.5,437.5C 178.833,437.5 177.167,437.5 175.5,437.5C 176.568,436.566 177.901,436.232 179.5,436.5C 179.5,435.167 179.5,433.833 179.5,432.5C 177.901,432.768 176.568,432.434 175.5,431.5 Z" /></g><g><path style="opacity:1" fill="#faf7f6" d="M 490.5,447.5 C 490.685,449.89 492.018,450.89 494.5,450.5C 497.377,450.619 499.044,449.286 499.5,446.5C 500.486,442.03 500.819,437.363 500.5,432.5C 502.167,432.5 503.833,432.5 505.5,432.5C 505.178,438.358 505.511,444.025 506.5,449.5C 507.369,451.717 507.702,454.05 507.5,456.5C 505.167,456.5 502.833,456.5 500.5,456.5C 500.649,455.448 500.483,454.448 500,453.5C 496.239,456.243 492.072,457.076 487.5,456C 485.393,454.736 484.393,452.903 484.5,450.5C 484.5,444.5 484.5,438.5 484.5,432.5C 486.167,432.5 487.833,432.5 489.5,432.5C 489.179,437.695 489.513,442.695 490.5,447.5 Z" /></g><g><path style="opacity:1" fill="#e6a59c" d="M 546.5,431.5 C 548.5,431.5 550.5,431.5 552.5,431.5C 552.5,433.5 552.5,435.5 552.5,437.5C 550.5,437.5 548.5,437.5 546.5,437.5C 547.919,436.549 549.585,436.216 551.5,436.5C 551.5,435.167 551.5,433.833 551.5,432.5C 549.585,432.784 547.919,432.451 546.5,431.5 Z" /></g><g><path style="opacity:1" fill="#e5a59c" d="M 579.5,450.5 C 578.51,444.69 578.177,438.69 578.5,432.5C 576.833,432.5 575.167,432.5 573.5,432.5C 573.821,437.695 573.487,442.695 572.5,447.5C 572.5,443.167 572.5,438.833 572.5,434.5C 572.5,433.5 572.5,432.5 572.5,431.5C 574.833,431.5 577.167,431.5 579.5,431.5C 579.5,437.833 579.5,444.167 579.5,450.5 Z" /></g><g><path style="opacity:1" fill="#f8f4f2" d="M 256.5,431.5 C 259.195,431.933 261.362,433.266 263,435.5C 267.133,431.1 271.8,430.433 277,433.5C 277.791,434.745 278.291,436.078 278.5,437.5C 278.5,443.833 278.5,450.167 278.5,456.5C 276.5,456.5 274.5,456.5 272.5,456.5C 272.822,450.642 272.489,444.975 271.5,439.5C 268.852,436.738 266.519,437.071 264.5,440.5C 263.833,445.833 263.167,451.167 262.5,456.5C 260.833,456.5 259.167,456.5 257.5,456.5C 257.666,450.824 257.499,445.157 257,439.5C 255.192,437.604 253.025,437.104 250.5,438C 249.177,438.816 248.511,439.983 248.5,441.5C 247.514,445.97 247.181,450.637 247.5,455.5C 245.833,455.5 244.167,455.5 242.5,455.5C 242.5,447.833 242.5,440.167 242.5,432.5C 244.167,432.5 245.833,432.5 247.5,432.5C 247.345,435.853 248.012,436.186 249.5,433.5C 251.588,432.061 253.921,431.394 256.5,431.5 Z" /></g><g><path style="opacity:1" fill="#e7b2a9" d="M 506.5,449.5 C 505.511,444.025 505.178,438.358 505.5,432.5C 503.833,432.5 502.167,432.5 500.5,432.5C 500.819,437.363 500.486,442.03 499.5,446.5C 499.5,441.5 499.5,436.5 499.5,431.5C 501.833,431.5 504.167,431.5 506.5,431.5C 506.5,437.5 506.5,443.5 506.5,449.5 Z" /></g><g><path style="opacity:1" fill="#f9f5f3" d="M 144.5,456.5 C 139.214,451.665 139.214,446.831 144.5,442C 148.152,441.501 151.818,441.335 155.5,441.5C 155.703,439.61 155.037,438.11 153.5,437C 150.084,436.107 146.917,436.607 144,438.5C 143.617,437.944 143.117,437.611 142.5,437.5C 141.697,436.577 141.53,435.577 142,434.5C 148.947,429.976 155.28,430.642 161,436.5C 161.39,443.184 161.89,449.85 162.5,456.5C 159.756,456.752 157.256,456.085 155,454.5C 151.698,456.139 148.198,456.806 144.5,456.5 Z" /></g><g><path style="opacity:1" fill="#eccac0" d="M 323.5,436.5 C 322.081,437.451 320.415,437.784 318.5,437.5C 318.5,441.5 318.5,445.5 318.5,449.5C 317.515,445.366 317.182,441.032 317.5,436.5C 319.5,436.5 321.5,436.5 323.5,436.5 Z" /></g><g><path style="opacity:1" fill="#d75543" d="M 533.5,437.5 C 535.5,437.5 537.5,437.5 539.5,437.5C 539.5,439.5 539.5,441.5 539.5,443.5C 535.743,443.874 533.41,445.874 532.5,449.5C 530.628,448.205 528.962,448.372 527.5,450C 521.648,452.04 518.315,450.04 517.5,444C 518.315,437.96 521.648,435.96 527.5,438C 529.489,439.554 531.489,439.387 533.5,437.5 Z" /></g><g><path style="opacity:1" fill="#f9f5f2" d="M 623.5,434.5 C 626.925,437.729 628.258,441.729 627.5,446.5C 621.463,446.171 615.463,446.504 609.5,447.5C 612.776,452.046 616.776,452.713 621.5,449.5C 623.073,449.752 624.406,450.418 625.5,451.5C 621.568,456.123 616.568,457.623 610.5,456C 602.97,451.743 600.803,445.576 604,437.5C 609.627,430.734 616.127,429.734 623.5,434.5 Z" /></g><g><path style="opacity:1" fill="#d54337" d="M 620.5,440.5 C 616.833,441.833 613.167,441.833 609.5,440.5C 610.378,437.713 612.378,436.38 615.5,436.5C 618.377,436.381 620.044,437.714 620.5,440.5 Z" /></g><g><path style="opacity:1" fill="#d65646" d="M 144.5,456.5 C 143.244,458.344 141.577,459.677 139.5,460.5C 138.353,460.182 137.519,459.516 137,458.5C 133.441,461.325 130.274,460.825 127.5,457C 127.728,456.601 128.062,456.435 128.5,456.5C 128.833,456.5 129.167,456.5 129.5,456.5C 131.5,456.5 133.5,456.5 135.5,456.5C 135.5,450.5 135.5,444.5 135.5,438.5C 138.199,438.191 140.532,437.858 142.5,437.5C 143.117,437.611 143.617,437.944 144,438.5C 146.917,436.607 150.084,436.107 153.5,437C 155.037,438.11 155.703,439.61 155.5,441.5C 151.818,441.335 148.152,441.501 144.5,442C 139.214,446.831 139.214,451.665 144.5,456.5 Z" /></g><g><path style="opacity:1" fill="#df8372" d="M 536.5,432.5 C 536.5,433.833 536.5,435.167 536.5,436.5C 537.833,436.5 539.167,436.5 540.5,436.5C 540.5,441.5 540.5,446.5 540.5,451.5C 539.527,449.052 539.194,446.385 539.5,443.5C 539.5,441.5 539.5,439.5 539.5,437.5C 537.5,437.5 535.5,437.5 533.5,437.5C 533.5,436.833 533.5,436.167 533.5,435.5C 534.9,434.9 535.9,433.9 536.5,432.5 Z" /></g><g><path style="opacity:1" fill="#f9f9f7" d="M 312.5,424.5 C 314.5,424.5 316.5,424.5 318.5,424.5C 318.5,426.833 318.5,429.167 318.5,431.5C 319.919,432.451 321.585,432.784 323.5,432.5C 323.5,433.833 323.5,435.167 323.5,436.5C 321.5,436.5 319.5,436.5 317.5,436.5C 317.182,441.032 317.515,445.366 318.5,449.5C 320.379,450.341 322.379,450.675 324.5,450.5C 324.859,452.766 324.192,454.599 322.5,456C 318.726,457.183 315.559,456.349 313,453.5C 312.501,448.177 312.334,442.844 312.5,437.5C 311.791,436.596 310.791,436.263 309.5,436.5C 309.5,435.167 309.5,433.833 309.5,432.5C 310.5,432.5 311.5,432.5 312.5,432.5C 312.5,429.833 312.5,427.167 312.5,424.5 Z" /></g><g><path style="opacity:1" fill="#e8b4aa" d="M 473.5,434.5 C 473.44,435.043 473.107,435.376 472.5,435.5C 471.614,434.675 471.281,433.675 471.5,432.5C 469.833,432.5 468.167,432.5 466.5,432.5C 466.5,440.167 466.5,447.833 466.5,455.5C 468.167,455.5 469.833,455.5 471.5,455.5C 471.181,450.637 471.514,445.97 472.5,441.5C 472.5,446.5 472.5,451.5 472.5,456.5C 470.167,456.5 467.833,456.5 465.5,456.5C 465.5,449.833 465.5,443.167 465.5,436.5C 465.5,434.833 465.5,433.167 465.5,431.5C 467.833,431.5 470.167,431.5 472.5,431.5C 472.263,432.791 472.596,433.791 473.5,434.5 Z" /></g><g><path style="opacity:1" fill="#e4aba4" d="M 609.5,440.5 C 613.167,441.833 616.833,441.833 620.5,440.5C 621.043,440.56 621.376,440.893 621.5,441.5C 617.167,442.833 612.833,442.833 608.5,441.5C 608.624,440.893 608.957,440.56 609.5,440.5 Z" /></g><g><path style="opacity:1" fill="#eabdb2" d="M 490.5,447.5 C 489.513,442.695 489.179,437.695 489.5,432.5C 487.833,432.5 486.167,432.5 484.5,432.5C 484.5,438.5 484.5,444.5 484.5,450.5C 483.51,444.355 483.177,438.022 483.5,431.5C 485.833,431.5 488.167,431.5 490.5,431.5C 490.5,436.833 490.5,442.167 490.5,447.5 Z" /></g><g><path style="opacity:1" fill="#eabeb5" d="M 561.5,431.5 C 563.344,433.279 564.01,435.612 563.5,438.5C 563.5,441.833 563.5,445.167 563.5,448.5C 562.512,443.36 562.179,438.026 562.5,432.5C 560.833,432.5 559.167,432.5 557.5,432.5C 557.5,438.833 557.5,445.167 557.5,451.5C 557.167,451.5 556.833,451.5 556.5,451.5C 556.5,447.833 556.5,444.167 556.5,440.5C 556.5,437.5 556.5,434.5 556.5,431.5C 558.167,431.5 559.833,431.5 561.5,431.5 Z" /></g><g><path style="opacity:1" fill="#f8eeec" d="M 169.5,424.5 C 171.5,424.5 173.5,424.5 175.5,424.5C 175.5,426.833 175.5,429.167 175.5,431.5C 176.568,432.434 177.901,432.768 179.5,432.5C 179.5,433.833 179.5,435.167 179.5,436.5C 177.901,436.232 176.568,436.566 175.5,437.5C 175.5,441.833 175.5,446.167 175.5,450.5C 180.667,449.492 182.334,451.325 180.5,456C 176.683,457.023 173.183,456.523 170,454.5C 168.596,448.956 168.096,443.29 168.5,437.5C 167.032,436.221 166.365,434.554 166.5,432.5C 167.5,432.5 168.5,432.5 169.5,432.5C 169.5,429.833 169.5,427.167 169.5,424.5 Z" /></g><g><path style="opacity:1" fill="#e7b1a6" d="M 249.5,433.5 C 248.012,436.186 247.345,435.853 247.5,432.5C 245.833,432.5 244.167,432.5 242.5,432.5C 242.5,440.167 242.5,447.833 242.5,455.5C 244.167,455.5 245.833,455.5 247.5,455.5C 247.181,450.637 247.514,445.97 248.5,441.5C 248.5,446.5 248.5,451.5 248.5,456.5C 246.167,456.5 243.833,456.5 241.5,456.5C 241.5,453.833 241.5,451.167 241.5,448.5C 241.5,442.833 241.5,437.167 241.5,431.5C 244.533,431.132 247.2,431.798 249.5,433.5 Z" /></g><g><path style="opacity:1" fill="#f7f0ee" d="M 305.5,455.5 C 303.735,456.461 301.735,456.795 299.5,456.5C 299.719,455.325 299.386,454.325 298.5,453.5C 296.971,454.763 295.305,455.763 293.5,456.5C 288.139,457.324 284.473,455.324 282.5,450.5C 282.253,447.495 283.253,444.995 285.5,443C 289.7,441.633 294.033,441.133 298.5,441.5C 298.703,439.61 298.037,438.11 296.5,437C 293.084,436.107 289.917,436.607 287,438.5C 283.602,435.142 284.436,432.975 289.5,432C 295.422,430.345 300.255,431.845 304,436.5C 304.346,442.857 304.846,449.19 305.5,455.5 Z" /></g><g><path style="opacity:1" fill="#f9f8f6" d="M 477.5,438.5 C 475.067,438.273 473.401,439.273 472.5,441.5C 471.514,445.97 471.181,450.637 471.5,455.5C 469.833,455.5 468.167,455.5 466.5,455.5C 466.5,447.833 466.5,440.167 466.5,432.5C 468.167,432.5 469.833,432.5 471.5,432.5C 471.281,433.675 471.614,434.675 472.5,435.5C 473.107,435.376 473.44,435.043 473.5,434.5C 475.03,432.654 477.03,431.654 479.5,431.5C 479.815,434.211 479.148,436.544 477.5,438.5 Z" /></g><g><path style="opacity:1" fill="#d54a3b" d="M 147.5,445.5 C 150.167,445.5 152.833,445.5 155.5,445.5C 155.076,451.803 152.243,453.469 147,450.5C 146.36,448.735 146.527,447.068 147.5,445.5 Z" /></g><g><path style="opacity:1" fill="#f9f2ef" d="M 533.5,435.5 C 533.5,436.167 533.5,436.833 533.5,437.5C 531.489,439.387 529.489,439.554 527.5,438C 521.648,435.96 518.315,437.96 517.5,444C 518.315,450.04 521.648,452.04 527.5,450C 528.962,448.372 530.628,448.205 532.5,449.5C 533.091,450.151 533.757,450.818 534.5,451.5C 532.33,454.012 529.663,455.679 526.5,456.5C 515.398,456.229 510.565,450.562 512,439.5C 517.708,430.473 524.874,429.14 533.5,435.5 Z" /></g><g><path style="opacity:1" fill="#d55646" d="M 572.5,434.5 C 572.5,438.833 572.5,443.167 572.5,447.5C 571.608,449.714 569.942,450.714 567.5,450.5C 565.645,450.66 564.312,449.993 563.5,448.5C 563.5,445.167 563.5,441.833 563.5,438.5C 565.92,438.292 568.253,438.626 570.5,439.5C 571.17,437.709 571.837,436.042 572.5,434.5 Z" /></g><g><path style="opacity:1" fill="#d75b4a" d="M 632.5,434.5 C 630.411,442.62 633.745,447.12 642.5,448C 643.337,449.011 643.67,450.178 643.5,451.5C 639.617,451.891 635.95,451.224 632.5,449.5C 631.295,450.577 630.628,451.91 630.5,453.5C 629.778,453.082 629.278,452.416 629,451.5C 628.667,452.167 628.333,452.833 628,453.5C 627.581,452.328 626.915,451.328 626,450.5C 625.601,450.728 625.435,451.062 625.5,451.5C 624.406,450.418 623.073,449.752 621.5,449.5C 616.776,452.713 612.776,452.046 609.5,447.5C 615.463,446.504 621.463,446.171 627.5,446.5C 628.258,441.729 626.925,437.729 623.5,434.5C 625.719,432.394 628.385,431.394 631.5,431.5C 631.263,432.791 631.596,433.791 632.5,434.5 Z" /></g><g><path style="opacity:1" fill="#e8c0b9" d="M 127.5,436.5 C 127.56,435.957 127.893,435.624 128.5,435.5C 129.497,442.468 129.83,449.468 129.5,456.5C 129.167,456.5 128.833,456.5 128.5,456.5C 128.824,449.646 128.491,442.979 127.5,436.5 Z" /></g><g><path style="opacity:1" fill="#f8f2f1" d="M 232.5,433.5 C 236.108,437.055 237.774,441.388 237.5,446.5C 231.5,446.5 225.5,446.5 219.5,446.5C 219.137,448.911 220.137,450.411 222.5,451C 225.606,451.844 228.439,451.344 231,449.5C 232.635,449.878 234.135,450.544 235.5,451.5C 231.535,456.122 226.535,457.622 220.5,456C 216.57,454.27 213.903,451.436 212.5,447.5C 212.882,433.779 219.549,429.112 232.5,433.5 Z" /></g><g><path style="opacity:1" fill="#e49a93" d="M 219.5,439.5 C 220.871,440.787 222.705,441.453 225,441.5C 227.295,441.453 229.129,440.787 230.5,439.5C 231.404,440.209 231.737,441.209 231.5,442.5C 227.167,442.5 222.833,442.5 218.5,442.5C 218.263,441.209 218.596,440.209 219.5,439.5 Z" /></g><g><path style="opacity:1" fill="#da4236" d="M 230.5,439.5 C 229.129,440.787 227.295,441.453 225,441.5C 222.705,441.453 220.871,440.787 219.5,439.5C 220.392,437.286 222.058,436.286 224.5,436.5C 227.102,436.467 229.102,437.467 230.5,439.5 Z" /></g><g><path style="opacity:1" fill="#d45240" d="M 440.5,430.5 C 441.267,431.172 441.934,432.005 442.5,433C 441.833,435 441.167,437 440.5,439C 441.635,439.749 442.635,439.583 443.5,438.5C 444.05,436.343 444.717,434.343 445.5,432.5C 445.5,433.833 445.5,435.167 445.5,436.5C 446.822,436.33 447.989,436.663 449,437.5C 449.088,443.61 449.755,449.61 451,455.5C 453.041,456.423 455.208,456.756 457.5,456.5C 455.502,457.148 453.502,457.981 451.5,459C 452.883,460.271 453.883,461.771 454.5,463.5C 453.761,463.631 453.094,463.464 452.5,463C 451.521,460.863 450.188,459.029 448.5,457.5C 445.972,458.498 445.972,459.331 448.5,460C 448.043,460.414 447.709,460.914 447.5,461.5C 453.185,465.525 458.851,469.525 464.5,473.5C 464.167,474.167 463.833,474.833 463.5,475.5C 462.926,477.788 461.926,479.955 460.5,482C 462.192,483.401 462.859,485.234 462.5,487.5C 460.57,487.771 459.236,488.771 458.5,490.5C 457.16,487.16 454.827,484.827 451.5,483.5C 451.938,483.565 452.272,483.399 452.5,483C 451.113,480.896 449.779,478.23 448.5,475C 447.556,473.523 446.223,472.523 444.5,472C 445.517,470.951 445.684,469.784 445,468.5C 443.5,467.333 442,466.167 440.5,465C 441.167,464.667 441.833,464.333 442.5,464C 438.304,463.259 433.971,462.759 429.5,462.5C 426.677,463.139 424.177,464.473 422,466.5C 421.535,465.069 420.701,463.903 419.5,463C 420.367,460.494 421.367,457.994 422.5,455.5C 426.78,456.54 431.113,456.706 435.5,456C 437.848,455.654 439.681,454.487 441,452.5C 443.867,446.63 442.7,441.963 437.5,438.5C 440.624,436.487 440.957,434.154 438.5,431.5C 439.167,431.167 439.833,430.833 440.5,430.5 Z" /></g><g><path style="opacity:1" fill="#e5b2a9" d="M 591.5,432.5 C 589.833,432.5 588.167,432.5 586.5,432.5C 586.5,440.167 586.5,447.833 586.5,455.5C 588.167,455.5 589.833,455.5 591.5,455.5C 591.179,450.305 591.513,445.305 592.5,440.5C 592.5,442.167 592.5,443.833 592.5,445.5C 592.5,449.167 592.5,452.833 592.5,456.5C 590.167,456.5 587.833,456.5 585.5,456.5C 585.5,451.167 585.5,445.833 585.5,440.5C 585.5,437.5 585.5,434.5 585.5,431.5C 587.735,431.205 589.735,431.539 591.5,432.5 Z" /></g><g><path style="opacity:1" fill="#d94b3b" d="M 290.5,445.5 C 293.167,445.5 295.833,445.5 298.5,445.5C 298.076,451.803 295.243,453.469 290,450.5C 289.36,448.735 289.527,447.068 290.5,445.5 Z" /></g><g><path style="opacity:1" fill="#e39f95" d="M 109.5,437.5 C 108.833,443.833 108.167,450.167 107.5,456.5C 107.5,456.167 107.5,455.833 107.5,455.5C 107.334,448.825 107.5,442.158 108,435.5C 108.717,436.044 109.217,436.711 109.5,437.5 Z" /></g><g><path style="opacity:1" fill="#d24738" d="M 409.5,329.5 C 419.446,369.125 444.78,389.125 485.5,389.5C 484.315,390.417 482.482,391.417 480,392.5C 477.186,391.314 476.353,392.147 477.5,395C 476.234,395.309 475.067,395.809 474,396.5C 473.667,395.833 473.333,395.167 473,394.5C 471.823,396.176 470.323,397.509 468.5,398.5C 468.808,399.308 469.308,399.975 470,400.5C 471.716,400.589 473.549,400.256 475.5,399.5C 476.506,399.938 476.506,400.604 475.5,401.5C 471.782,401.887 468.782,403.553 466.5,406.5C 464.568,405.855 463.401,404.521 463,402.5C 462.586,402.957 462.086,403.291 461.5,403.5C 462.741,404.64 462.741,406.473 461.5,409C 460.5,409.667 459.5,409.667 458.5,409C 457.349,406.881 455.849,405.047 454,403.5C 452.807,404.978 452.307,406.312 452.5,407.5C 451.692,405.577 451.192,403.577 451,401.5C 448.853,402.113 446.686,402.779 444.5,403.5C 444.846,404.696 445.346,404.696 446,403.5C 446.916,408.454 445.916,408.787 443,404.5C 440.069,407.386 436.569,409.386 432.5,410.5C 431.018,412.71 431.518,414.376 434,415.5C 435.768,415.96 438.101,415.96 441,415.5C 441.689,416.357 442.522,417.023 443.5,417.5C 445.846,414.669 448.346,415.003 451,418.5C 452.073,417.72 453.24,417.887 454.5,419C 455.051,420.398 455.384,421.732 455.5,423C 453.292,423.191 451.292,423.691 449.5,424.5C 448.532,426.607 448.198,428.941 448.5,431.5C 447.209,431.263 446.209,431.596 445.5,432.5C 444.717,434.343 444.05,436.343 443.5,438.5C 442.635,439.583 441.635,439.749 440.5,439C 441.167,437 441.833,435 442.5,433C 441.934,432.005 441.267,431.172 440.5,430.5C 441.434,428.761 441.434,427.095 440.5,425.5C 437.198,423.763 433.698,422.763 430,422.5C 420.047,423.745 416.714,429.078 420,438.5C 424.103,441.427 428.603,443.593 433.5,445C 436.167,446.667 436.167,448.333 433.5,450C 428.356,450.714 423.69,449.547 419.5,446.5C 414.999,451.183 415.999,454.183 422.5,455.5C 421.367,457.994 420.367,460.494 419.5,463C 420.701,463.903 421.535,465.069 422,466.5C 424.177,464.473 426.677,463.139 429.5,462.5C 433.971,462.759 438.304,463.259 442.5,464C 441.833,464.333 441.167,464.667 440.5,465C 442,466.167 443.5,467.333 445,468.5C 445.684,469.784 445.517,470.951 444.5,472C 446.223,472.523 447.556,473.523 448.5,475C 449.779,478.23 451.113,480.896 452.5,483C 452.272,483.399 451.938,483.565 451.5,483.5C 445.99,482.927 441.323,484.593 437.5,488.5C 436.448,488.351 435.448,488.517 434.5,489C 435.451,489.718 435.617,490.551 435,491.5C 433.196,489.581 431.196,489.248 429,490.5C 426.114,488.775 422.948,488.108 419.5,488.5C 414.972,488.159 413.639,485.992 415.5,482C 420.293,481.349 424.96,481.849 429.5,483.5C 431.652,479.73 430.652,477.23 426.5,476C 422.167,475.333 417.833,475.333 413.5,476C 407.831,478.815 405.998,483.315 408,489.5C 411.998,493.507 416.831,496.007 422.5,497C 425.552,501.48 424.219,503.313 418.5,502.5C 414.901,502.779 411.734,501.779 409,499.5C 405.963,501.813 405.796,504.313 408.5,507C 411.353,508.43 414.353,509.263 417.5,509.5C 419.684,510.266 422.018,510.933 424.5,511.5C 425.167,511.167 425.833,510.833 426.5,510.5C 427.724,511.766 429.057,512.933 430.5,514C 428.751,515.292 426.918,516.458 425,517.5C 424.389,515.25 423.056,513.583 421,512.5C 417.643,513.742 417.81,514.576 421.5,515C 419.667,515.5 418.5,516.667 418,518.5C 417.506,516.866 417.34,515.199 417.5,513.5C 414.894,514.136 412.394,514.136 410,513.5C 409.667,514.167 409.333,514.833 409,515.5C 408.612,514.572 407.945,513.905 407,513.5C 404.865,514.127 402.698,514.627 400.5,515C 401.333,515.833 402.167,516.667 403,517.5C 404.183,516.269 405.349,516.269 406.5,517.5C 404.009,518.541 404.009,519.374 406.5,520C 405.167,520.667 405.167,521.333 406.5,522C 405.256,522.456 404.423,521.956 404,520.5C 403.02,522.059 402.187,523.726 401.5,525.5C 400.614,524.675 400.281,523.675 400.5,522.5C 398.61,522.297 397.11,522.963 396,524.5C 395.333,523.833 394.667,523.167 394,522.5C 391.173,523.673 388.34,524.506 385.5,525C 384.353,522.915 385.02,521.415 387.5,520.5C 386.257,516.454 387.257,512.954 390.5,510C 388.655,508.435 386.655,507.269 384.5,506.5C 384.5,501.833 384.5,497.167 384.5,492.5C 386.479,490.832 388.812,490.166 391.5,490.5C 391.5,488.167 391.5,485.833 391.5,483.5C 388.383,483.642 385.883,484.976 384,487.5C 383.517,486.552 383.351,485.552 383.5,484.5C 381.393,483.532 379.059,483.198 376.5,483.5C 376.5,489.833 376.5,496.167 376.5,502.5C 376.278,499.88 374.945,497.547 372.5,495.5C 370.619,486.376 364.952,482.376 355.5,483.5C 352.713,481.28 350.38,478.614 348.5,475.5C 347.534,473.604 347.201,471.604 347.5,469.5C 343.493,467.936 339.659,468.269 336,470.5C 334.672,468.331 333.006,467.998 331,469.5C 329.699,468.902 328.865,467.902 328.5,466.5C 329.908,465.757 331.241,464.923 332.5,464C 332.5,463 332.5,462 332.5,461C 334.5,459.667 336.5,458.333 338.5,457C 336.981,448.472 335.981,439.972 335.5,431.5C 335.611,430.883 335.944,430.383 336.5,430C 335.263,429.768 334.263,429.268 333.5,428.5C 335.727,427.599 336.727,425.933 336.5,423.5C 337.42,422.933 337.754,423.599 337.5,425.5C 339.722,425.178 341.556,425.845 343,427.5C 344.974,427.353 346.974,427.019 349,426.5C 352.518,427.655 355.018,429.322 356.5,431.5C 341.184,432.465 337.017,439.798 344,453.5C 349.9,457.476 355.733,457.476 361.5,453.5C 361.369,454.376 361.702,455.043 362.5,455.5C 364.195,454.826 365.862,454.159 367.5,453.5C 368.058,454.79 369.058,455.623 370.5,456C 374.262,456.927 377.762,456.427 381,454.5C 383.595,456.146 386.428,456.813 389.5,456.5C 387.798,450.041 387.131,443.375 387.5,436.5C 388.817,433.453 389.817,430.619 390.5,428C 388.598,427.801 387.098,426.967 386,425.5C 384.402,427.509 382.402,427.509 380,425.5C 379.517,426.448 379.351,427.448 379.5,428.5C 378.325,428.719 377.325,428.386 376.5,427.5C 377.917,427.141 379.25,425.975 380.5,424C 378.749,422.451 377.083,421.618 375.5,421.5C 377.507,420.092 379.507,418.592 381.5,417C 380.327,413.89 380.827,413.723 383,416.5C 383.692,415.975 384.192,415.308 384.5,414.5C 383.088,413.194 381.421,412.36 379.5,412C 380.28,410.927 380.113,409.76 379,408.5C 378.444,410.595 377.944,410.762 377.5,409C 378.506,407.662 379.506,406.329 380.5,405C 377.693,403.603 377.193,401.769 379,399.5C 380.258,402.055 382.091,402.722 384.5,401.5C 383.91,400.201 382.91,399.368 381.5,399C 382.308,398.692 382.975,398.192 383.5,397.5C 379.222,394.769 379.556,392.769 384.5,391.5C 384.109,392.718 384.776,393.552 386.5,394C 386.167,394.333 385.833,394.667 385.5,395C 387.101,395.273 388.601,395.773 390,396.5C 390.359,393.456 391.026,393.122 392,395.5C 392.333,394.5 392.667,393.5 393,392.5C 393.914,393.654 394.747,393.487 395.5,392C 395.167,391.667 394.833,391.333 394.5,391C 395.448,390.517 396.448,390.351 397.5,390.5C 396.394,385.83 396.561,381.164 398,376.5C 398.494,378.134 398.66,379.801 398.5,381.5C 399.675,381.719 400.675,381.386 401.5,380.5C 400.359,379.575 400.359,378.741 401.5,378C 399.167,376.757 398.5,375.091 399.5,373C 398.552,372.517 397.552,372.351 396.5,372.5C 395.545,369.545 393.545,367.545 390.5,366.5C 393.454,357.772 394.787,348.772 394.5,339.5C 399.717,336.12 404.217,331.787 408,326.5C 408.232,327.737 408.732,328.737 409.5,329.5 Z" /></g><g><path style="opacity:1" fill="#e7bbb4" d="M 399.5,422.5 C 399.833,422.5 400.167,422.5 400.5,422.5C 400.5,433.833 400.5,445.167 400.5,456.5C 398.5,456.5 396.5,456.5 394.5,456.5C 394.5,456.167 394.5,455.833 394.5,455.5C 396.167,455.5 397.833,455.5 399.5,455.5C 399.5,444.5 399.5,433.5 399.5,422.5 Z" /></g><g><path style="opacity:1" fill="#f9f4f2" d="M 356.5,431.5 C 358.355,432.69 360.188,434.023 362,435.5C 362.483,436.448 362.649,437.448 362.5,438.5C 361.07,438.421 359.736,438.754 358.5,439.5C 352.271,435.681 348.271,437.181 346.5,444C 348.271,450.819 352.271,452.319 358.5,448.5C 360.167,449.333 361.833,450.167 363.5,451C 362.619,451.708 361.953,452.542 361.5,453.5C 355.733,457.476 349.9,457.476 344,453.5C 337.017,439.798 341.184,432.465 356.5,431.5 Z" /></g><g><path style="opacity:1" fill="#f8f2f0" d="M 387.5,436.5 C 387.131,443.375 387.798,450.041 389.5,456.5C 386.428,456.813 383.595,456.146 381,454.5C 377.762,456.427 374.262,456.927 370.5,456C 369.058,455.623 368.058,454.79 367.5,453.5C 365.905,449.769 366.238,446.269 368.5,443C 372.7,441.633 377.033,441.133 381.5,441.5C 381.703,439.61 381.037,438.11 379.5,437C 375.958,436.149 372.625,436.649 369.5,438.5C 367.73,437.18 367.397,435.68 368.5,434C 375.518,430.168 381.851,431.002 387.5,436.5 Z" /></g><g><path style="opacity:1" fill="#d85744" d="M 373.5,445.5 C 376.167,445.5 378.833,445.5 381.5,445.5C 381.217,451.263 378.384,452.93 373,450.5C 372.36,448.735 372.527,447.068 373.5,445.5 Z" /></g><g><path style="opacity:1" fill="#fafafa" d="M 399.5,422.5 C 399.5,433.5 399.5,444.5 399.5,455.5C 397.833,455.5 396.167,455.5 394.5,455.5C 394.5,444.5 394.5,433.5 394.5,422.5C 396.167,422.5 397.833,422.5 399.5,422.5 Z" /></g><g><path style="opacity:1" fill="#e09184" d="M 400.5,422.5 C 400.167,422.5 399.833,422.5 399.5,422.5C 397.833,422.5 396.167,422.5 394.5,422.5C 394.5,433.5 394.5,444.5 394.5,455.5C 394.5,455.833 394.5,456.167 394.5,456.5C 393.505,445.012 393.172,433.345 393.5,421.5C 396.059,421.198 398.393,421.532 400.5,422.5 Z" /></g><g><path style="opacity:1" fill="#d53c30" d="M 438.5,431.5 C 440.957,434.154 440.624,436.487 437.5,438.5C 433.699,437.799 430.032,436.632 426.5,435C 425.167,433.333 425.167,431.667 426.5,430C 430.695,429.191 434.695,429.691 438.5,431.5 Z" /></g><g><path style="opacity:1" fill="#d23f33" d="M 465.5,436.5 C 465.5,443.167 465.5,449.833 465.5,456.5C 467.833,456.5 470.167,456.5 472.5,456.5C 472.5,451.5 472.5,446.5 472.5,441.5C 473.401,439.273 475.067,438.273 477.5,438.5C 482.923,437.819 483.923,439.986 480.5,445C 478.336,445.37 476.336,446.204 474.5,447.5C 472.324,455.482 475.158,460.815 483,463.5C 483.333,463.167 483.667,462.833 484,462.5C 485.188,463.563 485.688,464.897 485.5,466.5C 481.205,466.279 480.538,467.612 483.5,470.5C 482.833,470.833 482.167,471.167 481.5,471.5C 478.857,469.87 476.191,468.203 473.5,466.5C 471.523,469.013 468.856,470.346 465.5,470.5C 461.822,468.15 458.156,465.817 454.5,463.5C 453.883,461.771 452.883,460.271 451.5,459C 453.502,457.981 455.502,457.148 457.5,456.5C 460.91,456.616 462.244,454.95 461.5,451.5C 461.179,449.952 460.179,449.285 458.5,449.5C 457.241,443.299 459.575,438.966 465.5,436.5 Z" /></g><g><path style="opacity:1" fill="#d13b30" d="M 585.5,440.5 C 585.5,445.833 585.5,451.167 585.5,456.5C 587.833,456.5 590.167,456.5 592.5,456.5C 592.5,452.833 592.5,449.167 592.5,445.5C 594.812,446.478 596.478,448.145 597.5,450.5C 596.081,452.958 595.081,455.625 594.5,458.5C 592.249,459.695 589.915,460.695 587.5,461.5C 585.284,459.569 582.951,457.902 580.5,456.5C 580.675,454.379 580.341,452.379 579.5,450.5C 579.5,444.167 579.5,437.833 579.5,431.5C 577.167,431.5 574.833,431.5 572.5,431.5C 572.5,432.5 572.5,433.5 572.5,434.5C 571.837,436.042 571.17,437.709 570.5,439.5C 568.253,438.626 565.92,438.292 563.5,438.5C 564.01,435.612 563.344,433.279 561.5,431.5C 562.32,429.188 563.153,426.854 564,424.5C 564.333,424.833 564.667,425.167 565,425.5C 568.072,424.118 571.072,423.451 574,423.5C 575.763,424.944 577.763,425.944 580,426.5C 580.333,430.167 580.667,433.833 581,437.5C 582.129,439.141 583.629,440.141 585.5,440.5 Z" /></g><g><path style="opacity:1" fill="#d34c3c" d="M 256.5,431.5 C 253.921,431.394 251.588,432.061 249.5,433.5C 247.2,431.798 244.533,431.132 241.5,431.5C 241.5,437.167 241.5,442.833 241.5,448.5C 240.167,448.5 238.833,448.5 237.5,448.5C 237.274,451.249 237.607,453.916 238.5,456.5C 237.926,458.059 237.26,459.559 236.5,461C 238.154,462.827 238.988,464.66 239,466.5C 239.333,466.167 239.667,465.833 240,465.5C 242.888,469.638 246.888,471.638 252,471.5C 255.154,470.825 258.321,470.492 261.5,470.5C 261.854,468.459 261.854,466.626 261.5,465C 262.167,464.333 262.833,463.667 263.5,463C 263.457,460.861 263.123,458.694 262.5,456.5C 263.167,451.167 263.833,445.833 264.5,440.5C 264.5,442.5 264.5,444.5 264.5,446.5C 266.807,446.014 268.973,446.014 271,446.5C 271.497,444.19 271.663,441.857 271.5,439.5C 272.489,444.975 272.822,450.642 272.5,456.5C 274.5,456.5 276.5,456.5 278.5,456.5C 278.5,450.167 278.5,443.833 278.5,437.5C 279.326,441.982 279.826,446.649 280,451.5C 280.951,451.116 281.784,450.783 282.5,450.5C 284.473,455.324 288.139,457.324 293.5,456.5C 292.081,457.451 290.415,457.784 288.5,457.5C 288.446,461.806 288.446,465.806 288.5,469.5C 287.758,470.287 286.925,470.953 286,471.5C 284,471.5 282,471.5 280,471.5C 279.707,474.954 278.374,475.288 276,472.5C 273.5,473 271,473.5 268.5,474C 265.905,475.346 265.238,477.18 266.5,479.5C 265.749,481.996 264.749,484.33 263.5,486.5C 258.453,482.335 253.62,482.668 249,487.5C 245.52,483.599 241.353,482.599 236.5,484.5C 236.389,483.883 236.056,483.383 235.5,483C 236.574,482.261 237.241,481.261 237.5,480C 236.527,479.651 235.694,478.818 235,477.5C 232.667,478.167 230.333,478.833 228,479.5C 226.853,478.542 225.853,478.875 225,480.5C 222.02,480.415 219.02,480.081 216,479.5C 214.333,480.733 212.833,482.067 211.5,483.5C 211.167,483.5 210.833,483.5 210.5,483.5C 210.082,482.778 209.416,482.278 208.5,482C 211.106,480.73 213.439,479.063 215.5,477C 219.674,477.044 223.841,476.211 228,474.5C 235.806,476.349 236.64,474.016 230.5,467.5C 228.794,467.101 227.294,467.101 226,467.5C 226.685,463.689 225.518,463.022 222.5,465.5C 220.702,463.668 218.868,463.335 217,464.5C 215.279,460.534 213.612,460.534 212,464.5C 210.404,461.065 210.571,457.898 212.5,455C 211.276,452.61 210.776,450.11 211,447.5C 211.779,450.097 212.279,450.097 212.5,447.5C 213.903,451.436 216.57,454.27 220.5,456C 226.535,457.622 231.535,456.122 235.5,451.5C 234.135,450.544 232.635,449.878 231,449.5C 228.439,451.344 225.606,451.844 222.5,451C 220.137,450.411 219.137,448.911 219.5,446.5C 225.5,446.5 231.5,446.5 237.5,446.5C 237.774,441.388 236.108,437.055 232.5,433.5C 235.089,432.352 236.755,430.352 237.5,427.5C 240.752,425.958 243.919,424.291 247,422.5C 249.384,423.719 251.717,423.719 254,422.5C 255.067,423.943 256.234,425.276 257.5,426.5C 257.611,428.109 257.278,429.775 256.5,431.5 Z" /></g><g><path style="opacity:1" fill="#d34136" d="M 262.5,456.5 C 263.123,458.694 263.457,460.861 263.5,463C 262.833,463.667 262.167,464.333 261.5,465C 261.854,466.626 261.854,468.459 261.5,470.5C 258.321,470.492 255.154,470.825 252,471.5C 246.888,471.638 242.888,469.638 240,465.5C 239.667,465.833 239.333,466.167 239,466.5C 238.988,464.66 238.154,462.827 236.5,461C 237.26,459.559 237.926,458.059 238.5,456.5C 237.607,453.916 237.274,451.249 237.5,448.5C 238.833,448.5 240.167,448.5 241.5,448.5C 241.5,451.167 241.5,453.833 241.5,456.5C 243.833,456.5 246.167,456.5 248.5,456.5C 248.5,451.5 248.5,446.5 248.5,441.5C 248.511,439.983 249.177,438.816 250.5,438C 253.025,437.104 255.192,437.604 257,439.5C 257.499,445.157 257.666,450.824 257.5,456.5C 259.167,456.5 260.833,456.5 262.5,456.5 Z" /></g><g><path style="opacity:1" fill="#d63e32" d="M 271.5,439.5 C 271.663,441.857 271.497,444.19 271,446.5C 268.973,446.014 266.807,446.014 264.5,446.5C 264.5,444.5 264.5,442.5 264.5,440.5C 266.519,437.071 268.852,436.738 271.5,439.5 Z" /></g><g><path style="opacity:1" fill="#d24234" d="M 291.5,484.5 C 290.833,484.5 290.167,484.5 289.5,484.5C 285.261,482.705 281.595,483.371 278.5,486.5C 277.596,485.791 277.263,484.791 277.5,483.5C 275.167,483.5 272.833,483.5 270.5,483.5C 270.5,490.5 270.5,497.5 270.5,504.5C 268.833,504.5 267.167,504.5 265.5,504.5C 265.821,498.974 265.488,493.64 264.5,488.5C 264.167,487.833 263.833,487.167 263.5,486.5C 264.749,484.33 265.749,481.996 266.5,479.5C 265.238,477.18 265.905,475.346 268.5,474C 271,473.5 273.5,473 276,472.5C 278.374,475.288 279.707,474.954 280,471.5C 282,471.5 284,471.5 286,471.5C 286.925,470.953 287.758,470.287 288.5,469.5C 288.446,465.806 288.446,461.806 288.5,457.5C 290.415,457.784 292.081,457.451 293.5,456.5C 295.305,455.763 296.971,454.763 298.5,453.5C 299.386,454.325 299.719,455.325 299.5,456.5C 301.735,456.795 303.735,456.461 305.5,455.5C 306.161,454.282 306.828,452.949 307.5,451.5C 308.5,452 309.5,452.5 310.5,453C 309.976,456.382 309.976,459.549 310.5,462.5C 308.199,465.809 308.365,469.143 311,472.5C 312.399,473.227 313.899,473.727 315.5,474C 313.99,474.85 312.49,475.683 311,476.5C 305.991,475.645 301.158,475.645 296.5,476.5C 295.121,479.298 293.454,481.964 291.5,484.5 Z" /></g><g><path style="opacity:1" fill="#d34436" d="M 556.5,440.5 C 556.5,444.167 556.5,447.833 556.5,451.5C 557.006,455.986 555.672,459.819 552.5,463C 547.752,464.082 543.085,465.415 538.5,467C 537.205,469.464 535.205,470.964 532.5,471.5C 529.271,471.886 526.104,471.219 523,469.5C 522.687,472.386 521.52,475.219 519.5,478C 521.125,478.853 521.458,479.853 520.5,481C 521.328,481.915 522.328,482.581 523.5,483C 523.272,483.399 522.938,483.565 522.5,483.5C 518.567,482.857 515.234,483.857 512.5,486.5C 511.596,485.791 511.263,484.791 511.5,483.5C 509.167,483.5 506.833,483.5 504.5,483.5C 504.5,487.833 504.5,492.167 504.5,496.5C 503.167,497.833 501.833,497.833 500.5,496.5C 499.911,490.164 496.578,485.997 490.5,484C 487.445,483.366 484.445,483.532 481.5,484.5C 479.883,483.962 478.216,483.629 476.5,483.5C 475.536,479.404 476.87,476.071 480.5,473.5C 481.962,475.1 483.462,476.767 485,478.5C 487.672,474.299 488.839,474.633 488.5,479.5C 492.703,480.298 495.37,478.631 496.5,474.5C 496.291,473.914 495.957,473.414 495.5,473C 496.672,472.581 497.672,471.915 498.5,471C 499.784,470.316 500.951,470.483 502,471.5C 502.354,469.193 503.354,468.859 505,470.5C 509.318,469.424 513.485,467.924 517.5,466C 519.782,463.603 521.116,460.769 521.5,457.5C 523.415,457.784 525.081,457.451 526.5,456.5C 529.663,455.679 532.33,454.012 534.5,451.5C 533.757,450.818 533.091,450.151 532.5,449.5C 533.41,445.874 535.743,443.874 539.5,443.5C 539.194,446.385 539.527,449.052 540.5,451.5C 542.21,456.183 545.543,457.683 550.5,456C 552.158,455.275 552.658,454.108 552,452.5C 550.69,451.103 549.19,450.103 547.5,449.5C 546.088,441.744 549.088,438.744 556.5,440.5 Z" /></g><g><path style="opacity:1" fill="#d55d4c" d="M 130.5,484.5 C 128.5,484.5 126.5,484.5 124.5,484.5C 124.5,492.5 124.5,500.5 124.5,508.5C 123.508,500.684 123.174,492.684 123.5,484.5C 121.784,484.371 120.117,484.038 118.5,483.5C 115.941,483.198 113.607,483.532 111.5,484.5C 111.5,492.5 111.5,500.5 111.5,508.5C 113.5,508.5 115.5,508.5 117.5,508.5C 115.708,509.309 113.708,509.809 111.5,510C 112.833,510.333 114.167,510.667 115.5,511C 115,511.5 114.5,512 114,512.5C 111.807,512.852 109.64,512.352 107.5,511C 108.025,510.308 108.692,509.808 109.5,509.5C 110.497,502.532 110.83,495.532 110.5,488.5C 109.127,488.657 107.793,488.49 106.5,488C 106.579,485.695 106.746,483.195 107,480.5C 107.805,477.165 108.972,473.999 110.5,471C 114.297,470.41 117.964,470.91 121.5,472.5C 123.464,476.091 125.131,479.758 126.5,483.5C 128.099,483.232 129.432,483.566 130.5,484.5 Z" /></g><g><path style="opacity:1" fill="#f9efed" d="M 111.5,474.5 C 118.19,473.331 119.857,475.497 116.5,481C 111.262,481.594 109.595,479.427 111.5,474.5 Z" /></g><g><path style="opacity:1" fill="#f9edeb" d="M 464.5,473.5 C 468.833,473.167 470.833,475.167 470.5,479.5C 465.461,482.986 463.127,481.653 463.5,475.5C 463.833,474.833 464.167,474.167 464.5,473.5 Z" /></g><g><path style="opacity:1" fill="#d33a2f" d="M 236.5,484.5 C 235.5,484.833 234.833,485.5 234.5,486.5C 233.596,485.791 233.263,484.791 233.5,483.5C 231.265,483.205 229.265,483.539 227.5,484.5C 226.514,488.97 226.181,493.637 226.5,498.5C 225.5,498.5 224.5,498.5 223.5,498.5C 223.737,497.209 223.404,496.209 222.5,495.5C 221.293,489.291 217.626,485.291 211.5,483.5C 212.833,482.067 214.333,480.733 216,479.5C 219.02,480.081 222.02,480.415 225,480.5C 225.853,478.875 226.853,478.542 228,479.5C 230.333,478.833 232.667,478.167 235,477.5C 235.694,478.818 236.527,479.651 237.5,480C 237.241,481.261 236.574,482.261 235.5,483C 236.056,483.383 236.389,483.883 236.5,484.5 Z" /></g><g><path style="opacity:1" fill="#d45444" d="M 316.5,491.5 C 316.5,494.167 316.5,496.833 316.5,499.5C 315.892,501.99 314.225,503.324 311.5,503.5C 309.583,503.246 308.249,502.246 307.5,500.5C 307.5,494.833 307.5,489.167 307.5,483.5C 305.167,483.5 302.833,483.5 300.5,483.5C 300.5,489.167 300.5,494.833 300.5,500.5C 298.205,501.475 296.205,502.808 294.5,504.5C 298.342,496.322 296.675,489.655 289.5,484.5C 290.167,484.5 290.833,484.5 291.5,484.5C 292.496,484.414 293.329,484.748 294,485.5C 297.453,479.699 302.619,478.365 309.5,481.5C 309.906,486.351 312.239,489.684 316.5,491.5 Z" /></g><g><path style="opacity:1" fill="#d96656" d="M 463.5,475.5 C 463.127,481.653 465.461,482.986 470.5,479.5C 471.141,480.482 471.807,481.482 472.5,482.5C 472.043,483.298 471.376,483.631 470.5,483.5C 467.941,483.198 465.607,483.532 463.5,484.5C 463.5,492.5 463.5,500.5 463.5,508.5C 462.509,501.687 462.175,494.687 462.5,487.5C 462.859,485.234 462.192,483.401 460.5,482C 461.926,479.955 462.926,477.788 463.5,475.5 Z" /></g><g><path style="opacity:1" fill="#f8f3f2" d="M 163.5,495.5 C 163.323,491.766 163.656,488.099 164.5,484.5C 172.052,474.519 181.219,472.852 192,479.5C 194.274,482.931 193.274,484.931 189,485.5C 184.736,481.415 179.903,480.581 174.5,483C 169.768,488.035 169.268,493.535 173,499.5C 176.338,502.318 180.171,503.151 184.5,502C 187.717,497.419 190.717,497.419 193.5,502C 189.052,508.043 183.052,510.376 175.5,509C 169.55,506.218 165.55,501.718 163.5,495.5 Z" /></g><g><path style="opacity:1" fill="#f8f2f0" d="M 210.5,483.5 C 210.833,483.5 211.167,483.5 211.5,483.5C 217.626,485.291 221.293,489.291 222.5,495.5C 222.074,502.386 218.741,507.053 212.5,509.5C 200.338,509.505 195.171,503.505 197,491.5C 199.896,486.135 204.396,483.468 210.5,483.5 Z" /></g><g><path style="opacity:1" fill="#f8f4f3" d="M 263.5,486.5 C 263.833,487.167 264.167,487.833 264.5,488.5C 264.5,495.167 264.5,501.833 264.5,508.5C 262.5,508.5 260.5,508.5 258.5,508.5C 258.666,502.824 258.499,497.157 258,491.5C 255.936,490.409 253.769,490.242 251.5,491C 250.177,491.816 249.511,492.983 249.5,494.5C 248.514,498.97 248.181,503.637 248.5,508.5C 246.833,508.5 245.167,508.5 243.5,508.5C 243.821,502.974 243.488,497.64 242.5,492.5C 239.783,489.855 236.95,489.855 234,492.5C 233.501,497.823 233.334,503.156 233.5,508.5C 231.5,508.5 229.5,508.5 227.5,508.5C 227.5,500.5 227.5,492.5 227.5,484.5C 229.167,484.5 230.833,484.5 232.5,484.5C 232.281,485.675 232.614,486.675 233.5,487.5C 234.107,487.376 234.44,487.043 234.5,486.5C 234.833,485.5 235.5,484.833 236.5,484.5C 241.353,482.599 245.52,483.599 249,487.5C 253.62,482.668 258.453,482.335 263.5,486.5 Z" /></g><g><path style="opacity:1" fill="#faf5f4" d="M 384.5,492.5 C 383.511,497.975 383.178,503.642 383.5,509.5C 381.265,509.795 379.265,509.461 377.5,508.5C 377.5,500.5 377.5,492.5 377.5,484.5C 379.5,484.5 381.5,484.5 383.5,484.5C 383.351,485.552 383.517,486.552 384,487.5C 385.883,484.976 388.383,483.642 391.5,483.5C 391.5,485.833 391.5,488.167 391.5,490.5C 388.812,490.166 386.479,490.832 384.5,492.5 Z" /></g><g><path style="opacity:1" fill="#fcfdfc" d="M 464.5,484.5 C 466.167,484.5 467.833,484.5 469.5,484.5C 469.5,492.5 469.5,500.5 469.5,508.5C 467.833,508.5 466.167,508.5 464.5,508.5C 464.5,500.5 464.5,492.5 464.5,484.5 Z" /></g><g><path style="opacity:1" fill="#e5a29e" d="M 227.5,484.5 C 229.265,483.539 231.265,483.205 233.5,483.5C 233.263,484.791 233.596,485.791 234.5,486.5C 234.44,487.043 234.107,487.376 233.5,487.5C 232.614,486.675 232.281,485.675 232.5,484.5C 230.833,484.5 229.167,484.5 227.5,484.5 Z" /></g><g><path style="opacity:1" fill="#f9f5f4" d="M 289.5,484.5 C 296.675,489.655 298.342,496.322 294.5,504.5C 290.242,509.676 285.242,510.676 279.5,507.5C 279.217,506.711 278.717,506.044 278,505.5C 277.501,509.821 277.334,514.154 277.5,518.5C 275.5,518.5 273.5,518.5 271.5,518.5C 271.5,507.167 271.5,495.833 271.5,484.5C 273.167,484.5 274.833,484.5 276.5,484.5C 276.281,485.675 276.614,486.675 277.5,487.5C 278.107,487.376 278.44,487.043 278.5,486.5C 281.595,483.371 285.261,482.705 289.5,484.5 Z" /></g><g><path style="opacity:1" fill="#f7f1f0" d="M 500.5,496.5 C 494.553,498.141 488.22,499.141 481.5,499.5C 482.04,500.748 482.707,501.915 483.5,503C 487.118,503.966 490.451,503.466 493.5,501.5C 497.554,502.406 498.22,504.24 495.5,507C 484.186,512.01 477.186,508.51 474.5,496.5C 475.198,491.486 477.532,487.486 481.5,484.5C 484.445,483.532 487.445,483.366 490.5,484C 496.578,485.997 499.911,490.164 500.5,496.5 Z" /></g><g><path style="opacity:1" fill="#fafbf9" d="M 522.5,483.5 C 524.883,484.885 526.55,486.885 527.5,489.5C 527.5,495.833 527.5,502.167 527.5,508.5C 525.5,508.5 523.5,508.5 521.5,508.5C 521.822,502.642 521.489,496.975 520.5,491.5C 516.757,488.518 513.757,489.185 511.5,493.5C 510.513,498.305 510.179,503.305 510.5,508.5C 508.833,508.5 507.167,508.5 505.5,508.5C 505.5,500.5 505.5,492.5 505.5,484.5C 507.167,484.5 508.833,484.5 510.5,484.5C 510.281,485.675 510.614,486.675 511.5,487.5C 512.107,487.376 512.44,487.043 512.5,486.5C 515.234,483.857 518.567,482.857 522.5,483.5 Z" /></g><g><path style="opacity:1" fill="#e1968c" d="M 278.5,486.5 C 278.44,487.043 278.107,487.376 277.5,487.5C 276.614,486.675 276.281,485.675 276.5,484.5C 274.833,484.5 273.167,484.5 271.5,484.5C 271.5,495.833 271.5,507.167 271.5,518.5C 270.514,514.03 270.181,509.363 270.5,504.5C 270.5,497.5 270.5,490.5 270.5,483.5C 272.833,483.5 275.167,483.5 277.5,483.5C 277.263,484.791 277.596,485.791 278.5,486.5 Z" /></g><g><path style="opacity:1" fill="#db8377" d="M 323.5,484.5 C 321.5,484.5 319.5,484.5 317.5,484.5C 317.821,489.695 317.487,494.695 316.5,499.5C 316.5,496.833 316.5,494.167 316.5,491.5C 316.5,488.833 316.5,486.167 316.5,483.5C 319.059,483.198 321.393,483.532 323.5,484.5 Z" /></g><g><path style="opacity:1" fill="#f8f3f2" d="M 583.5,498.5 C 577.463,498.171 571.463,498.504 565.5,499.5C 568.383,505.142 572.05,505.809 576.5,501.5C 581.098,501.861 582.098,503.694 579.5,507C 565.574,512.124 558.741,507.291 559,492.5C 563.269,483.614 569.769,481.448 578.5,486C 582.795,489.093 584.462,493.26 583.5,498.5 Z" /></g><g><path style="opacity:1" fill="#f9f6f5" d="M 307.5,500.5 C 308.249,502.246 309.583,503.246 311.5,503.5C 314.225,503.324 315.892,501.99 316.5,499.5C 317.487,494.695 317.821,489.695 317.5,484.5C 319.5,484.5 321.5,484.5 323.5,484.5C 323.427,492.854 323.76,501.188 324.5,509.5C 322.473,509.662 320.473,509.495 318.5,509C 317.809,507.933 317.309,506.766 317,505.5C 312.821,509.753 308.154,510.419 303,507.5C 302.209,506.255 301.709,504.922 301.5,503.5C 301.5,497.167 301.5,490.833 301.5,484.5C 303.167,484.5 304.833,484.5 306.5,484.5C 306.179,490.026 306.512,495.36 307.5,500.5 Z" /></g><g><path style="opacity:1" fill="#f9f1f0" d="M 451.5,483.5 C 454.827,484.827 457.16,487.16 458.5,490.5C 456.516,490.383 454.85,491.05 453.5,492.5C 449.96,488.554 446.46,488.554 443,492.5C 441.362,502.203 445.028,505.203 454,501.5C 455.635,501.878 457.135,502.544 458.5,503.5C 455.047,508.224 450.38,510.224 444.5,509.5C 435.647,504.773 433.314,497.773 437.5,488.5C 441.323,484.593 445.99,482.927 451.5,483.5 Z" /></g><g><path style="opacity:1" fill="#d85949" d="M 419.5,488.5 C 422.948,488.108 426.114,488.775 429,490.5C 431.196,489.248 433.196,489.581 435,491.5C 435.617,490.551 435.451,489.718 434.5,489C 435.448,488.517 436.448,488.351 437.5,488.5C 433.314,497.773 435.647,504.773 444.5,509.5C 437.586,510.014 430.586,510.014 423.5,509.5C 430.707,507.088 433.207,502.088 431,494.5C 427.426,491.822 423.593,489.822 419.5,488.5 Z" /></g><g><path style="opacity:1" fill="#f8f5f4" d="M 355.5,483.5 C 364.952,482.376 370.619,486.376 372.5,495.5C 372.5,496.5 372.5,497.5 372.5,498.5C 366.132,498.17 359.798,498.504 353.5,499.5C 353.624,500.107 353.957,500.44 354.5,500.5C 355.632,502.799 357.465,504.132 360,504.5C 362.679,503.72 365.179,502.887 367.5,502C 369.007,502.837 369.507,504.004 369,505.5C 367.5,507.469 365.667,508.802 363.5,509.5C 351.338,509.505 346.171,503.505 348,491.5C 350.028,488.308 352.528,485.641 355.5,483.5 Z" /></g><g><path style="opacity:1" fill="#d95b4e" d="M 568.5,488.5 C 572.866,487.847 575.866,489.514 577.5,493.5C 573.555,494.491 569.555,494.824 565.5,494.5C 565.615,492.053 566.615,490.053 568.5,488.5 Z" /></g><g><path style="opacity:1" fill="#f8f5f4" d="M 111.5,484.5 C 113.5,484.5 115.5,484.5 117.5,484.5C 117.5,492.5 117.5,500.5 117.5,508.5C 115.5,508.5 113.5,508.5 111.5,508.5C 111.5,500.5 111.5,492.5 111.5,484.5 Z" /></g><g><path style="opacity:1" fill="#dc5e4d" d="M 357.5,488.5 C 362.206,487.881 364.873,489.881 365.5,494.5C 361.445,494.824 357.445,494.491 353.5,493.5C 354.508,491.501 355.841,489.834 357.5,488.5 Z" /></g><g><path style="opacity:1" fill="#f9f2f1" d="M 419.5,488.5 C 423.593,489.822 427.426,491.822 431,494.5C 433.207,502.088 430.707,507.088 423.5,509.5C 421.5,509.5 419.5,509.5 417.5,509.5C 414.353,509.263 411.353,508.43 408.5,507C 405.796,504.313 405.963,501.813 409,499.5C 411.734,501.779 414.901,502.779 418.5,502.5C 424.219,503.313 425.552,501.48 422.5,497C 416.831,496.007 411.998,493.507 408,489.5C 405.998,483.315 407.831,478.815 413.5,476C 417.833,475.333 422.167,475.333 426.5,476C 430.652,477.23 431.652,479.73 429.5,483.5C 424.96,481.849 420.293,481.349 415.5,482C 413.639,485.992 414.972,488.159 419.5,488.5 Z" /></g><g><path style="opacity:1" fill="#f7f7f7" d="M 146.5,488.5 C 146.5,495.167 146.5,501.833 146.5,508.5C 144.5,508.5 142.5,508.5 140.5,508.5C 140.822,502.642 140.489,496.975 139.5,491.5C 138.551,490.848 137.385,490.514 136,490.5C 133.992,490.307 132.492,490.974 131.5,492.5C 130.512,497.64 130.179,502.974 130.5,508.5C 128.5,508.5 126.5,508.5 124.5,508.5C 124.5,500.5 124.5,492.5 124.5,484.5C 126.5,484.5 128.5,484.5 130.5,484.5C 130.351,485.552 130.517,486.552 131,487.5C 136.679,481.864 141.845,482.198 146.5,488.5 Z" /></g><g><path style="opacity:1" fill="#d45142" d="M 206.5,489.5 C 213.771,489.036 216.604,492.369 215,499.5C 211.181,504.769 207.181,504.769 203,499.5C 202.333,497.5 202.333,495.5 203,493.5C 204.376,492.295 205.542,490.962 206.5,489.5 Z" /></g><g><path style="opacity:1" fill="#d44b3d" d="M 280.5,489.5 C 289.889,490.592 291.889,495.092 286.5,503C 278.91,503.729 276.077,500.229 278,492.5C 279.045,491.627 279.878,490.627 280.5,489.5 Z" /></g><g><path style="opacity:1" fill="#dc594a" d="M 484.5,488.5 C 489.494,487.813 492.494,489.813 493.5,494.5C 489.5,494.5 485.5,494.5 481.5,494.5C 481.615,492.053 482.615,490.053 484.5,488.5 Z" /></g><g><path style="opacity:1" fill="#d34336" d="M 139.5,491.5 C 139.666,496.511 139.499,501.511 139,506.5C 138.667,506.167 138.333,505.833 138,505.5C 136.088,506.692 134.088,507.692 132,508.5C 131.501,503.177 131.334,497.844 131.5,492.5C 132.492,490.974 133.992,490.307 136,490.5C 137.385,490.514 138.551,490.848 139.5,491.5 Z" /></g><g><path style="opacity:1" fill="#df7e72" d="M 383.5,484.5 C 381.5,484.5 379.5,484.5 377.5,484.5C 377.5,492.5 377.5,500.5 377.5,508.5C 376.539,506.735 376.205,504.735 376.5,502.5C 376.5,496.167 376.5,489.833 376.5,483.5C 379.059,483.198 381.393,483.532 383.5,484.5 Z" /></g><g><path style="opacity:1" fill="#e08a7c" d="M 463.5,484.5 C 465.607,483.532 467.941,483.198 470.5,483.5C 470.826,492.017 470.493,500.35 469.5,508.5C 469.5,500.5 469.5,492.5 469.5,484.5C 467.833,484.5 466.167,484.5 464.5,484.5C 464.167,484.5 463.833,484.5 463.5,484.5 Z" /></g><g><path style="opacity:1" fill="#eac0b8" d="M 307.5,500.5 C 306.512,495.36 306.179,490.026 306.5,484.5C 304.833,484.5 303.167,484.5 301.5,484.5C 301.5,490.833 301.5,497.167 301.5,503.5C 300.596,502.791 300.263,501.791 300.5,500.5C 300.5,494.833 300.5,489.167 300.5,483.5C 302.833,483.5 305.167,483.5 307.5,483.5C 307.5,489.167 307.5,494.833 307.5,500.5 Z" /></g><g><path style="opacity:1" fill="#e49488" d="M 372.5,498.5 C 366.5,499.167 360.5,499.833 354.5,500.5C 353.957,500.44 353.624,500.107 353.5,499.5C 359.798,498.504 366.132,498.17 372.5,498.5 Z" /></g><g><path style="opacity:1" fill="#dd786a" d="M 111.5,484.5 C 113.607,483.532 115.941,483.198 118.5,483.5C 118.826,492.017 118.493,500.35 117.5,508.5C 117.5,500.5 117.5,492.5 117.5,484.5C 115.5,484.5 113.5,484.5 111.5,484.5 Z" /></g><g><path style="opacity:1" fill="#f6edea" d="M 541.5,483.5 C 547.38,482.776 552.047,484.776 555.5,489.5C 553.999,490.752 552.332,491.752 550.5,492.5C 546.96,488.554 543.46,488.554 540,492.5C 538.321,502.002 541.821,505.002 550.5,501.5C 552.33,501.776 553.997,502.443 555.5,503.5C 550.589,509.895 544.589,511.061 537.5,507C 529.872,497.55 531.206,489.717 541.5,483.5 Z" /></g><g><path style="opacity:1" fill="#dc7566" d="M 583.5,498.5 C 580.023,499.323 576.356,499.823 572.5,500C 573.901,500.41 575.234,500.91 576.5,501.5C 572.05,505.809 568.383,505.142 565.5,499.5C 571.463,498.504 577.463,498.171 583.5,498.5 Z" /></g><g><path style="opacity:1" fill="#de7b6f" d="M 527.5,489.5 C 528.491,495.979 528.824,502.646 528.5,509.5C 525.833,509.5 523.167,509.5 520.5,509.5C 520.5,503.5 520.5,497.5 520.5,491.5C 521.489,496.975 521.822,502.642 521.5,508.5C 523.5,508.5 525.5,508.5 527.5,508.5C 527.5,502.167 527.5,495.833 527.5,489.5 Z" /></g><g><path style="opacity:1" fill="#e7bcb2" d="M 242.5,492.5 C 243.488,497.64 243.821,502.974 243.5,508.5C 245.167,508.5 246.833,508.5 248.5,508.5C 248.181,503.637 248.514,498.97 249.5,494.5C 249.5,499.5 249.5,504.5 249.5,509.5C 247.167,509.5 244.833,509.5 242.5,509.5C 242.5,506.833 242.5,504.167 242.5,501.5C 242.5,498.5 242.5,495.5 242.5,492.5 Z" /></g><g><path style="opacity:1" fill="#f5ecea" d="M 331.5,476.5 C 333.833,476.5 336.167,476.5 338.5,476.5C 338.5,478.833 338.5,481.167 338.5,483.5C 340.167,483.5 341.833,483.5 343.5,483.5C 343.5,485.5 343.5,487.5 343.5,489.5C 341.833,489.5 340.167,489.5 338.5,489.5C 338.5,493.833 338.5,498.167 338.5,502.5C 343.5,501.5 345.5,503.5 344.5,508.5C 339.498,510.643 335.331,509.643 332,505.5C 331.501,500.177 331.334,494.844 331.5,489.5C 330.5,489.5 329.5,489.5 328.5,489.5C 328.5,487.833 328.5,486.167 328.5,484.5C 329.5,484.5 330.5,484.5 331.5,484.5C 331.5,481.833 331.5,479.167 331.5,476.5 Z" /></g><g><path style="opacity:1" fill="#eed3c8" d="M 463.5,484.5 C 463.833,484.5 464.167,484.5 464.5,484.5C 464.5,492.5 464.5,500.5 464.5,508.5C 466.167,508.5 467.833,508.5 469.5,508.5C 467.5,509.833 465.5,509.833 463.5,508.5C 463.5,500.5 463.5,492.5 463.5,484.5 Z" /></g><g><path style="opacity:1" fill="#e2a79d" d="M 227.5,484.5 C 227.5,492.5 227.5,500.5 227.5,508.5C 229.5,508.5 231.5,508.5 233.5,508.5C 231.393,509.468 229.059,509.802 226.5,509.5C 226.5,505.833 226.5,502.167 226.5,498.5C 226.181,493.637 226.514,488.97 227.5,484.5 Z" /></g><g><path style="opacity:1" fill="#d45544" d="M 164.5,484.5 C 163.656,488.099 163.323,491.766 163.5,495.5C 157.864,500.841 152.531,506.674 147.5,513C 145.044,514.619 142.544,515.119 140,514.5C 139.085,515.328 138.419,516.328 138,517.5C 136.312,515.955 134.312,514.955 132,514.5C 131.781,515.938 131.281,517.271 130.5,518.5C 129.3,517.469 127.966,516.635 126.5,516C 128.918,514.249 130.251,512.249 130.5,510C 128.292,509.809 126.292,509.309 124.5,508.5C 126.5,508.5 128.5,508.5 130.5,508.5C 130.179,502.974 130.512,497.64 131.5,492.5C 131.334,497.844 131.501,503.177 132,508.5C 134.088,507.692 136.088,506.692 138,505.5C 138.333,505.833 138.667,506.167 139,506.5C 139.499,501.511 139.666,496.511 139.5,491.5C 140.489,496.975 140.822,502.642 140.5,508.5C 142.5,508.5 144.5,508.5 146.5,508.5C 146.5,501.833 146.5,495.167 146.5,488.5C 147.319,491.305 147.819,494.305 148,497.5C 151.075,497.632 153.742,496.299 156,493.5C 156.771,490.141 157.605,486.808 158.5,483.5C 160.617,482.531 162.617,482.864 164.5,484.5 Z" /></g><g><path style="opacity:1" fill="#d45443" d="M 242.5,492.5 C 242.5,495.5 242.5,498.5 242.5,501.5C 240.834,500.334 239.167,500.334 237.5,501.5C 236.605,504.808 235.771,508.141 235,511.5C 233.061,513.443 230.728,514.443 228,514.5C 223.166,512.151 217.999,510.484 212.5,509.5C 218.741,507.053 222.074,502.386 222.5,495.5C 223.404,496.209 223.737,497.209 223.5,498.5C 224.5,498.5 225.5,498.5 226.5,498.5C 226.5,502.167 226.5,505.833 226.5,509.5C 229.059,509.802 231.393,509.468 233.5,508.5C 233.334,503.156 233.501,497.823 234,492.5C 236.95,489.855 239.783,489.855 242.5,492.5 Z" /></g><g><path style="opacity:1" fill="#e8b4aa" d="M 512.5,486.5 C 512.44,487.043 512.107,487.376 511.5,487.5C 510.614,486.675 510.281,485.675 510.5,484.5C 508.833,484.5 507.167,484.5 505.5,484.5C 505.5,492.5 505.5,500.5 505.5,508.5C 507.167,508.5 508.833,508.5 510.5,508.5C 510.179,503.305 510.513,498.305 511.5,493.5C 511.5,498.833 511.5,504.167 511.5,509.5C 509.167,509.5 506.833,509.5 504.5,509.5C 504.5,505.167 504.5,500.833 504.5,496.5C 504.5,492.167 504.5,487.833 504.5,483.5C 506.833,483.5 509.167,483.5 511.5,483.5C 511.263,484.791 511.596,485.791 512.5,486.5 Z" /></g><g><path style="opacity:1" fill="#d55545" d="M 384.5,492.5 C 384.5,497.167 384.5,501.833 384.5,506.5C 384.297,508.39 384.963,509.89 386.5,511C 385.54,512.419 384.707,513.919 384,515.5C 382.221,514.521 380.555,514.854 379,516.5C 378.692,515.692 378.192,515.025 377.5,514.5C 376.167,515.167 374.833,515.833 373.5,516.5C 373.906,514.626 373.072,512.96 371,511.5C 369.612,512.554 368.112,512.72 366.5,512C 365.922,510.583 364.922,509.75 363.5,509.5C 365.667,508.802 367.5,507.469 369,505.5C 369.507,504.004 369.007,502.837 367.5,502C 365.179,502.887 362.679,503.72 360,504.5C 357.465,504.132 355.632,502.799 354.5,500.5C 360.5,499.833 366.5,499.167 372.5,498.5C 372.5,497.5 372.5,496.5 372.5,495.5C 374.945,497.547 376.278,499.88 376.5,502.5C 376.205,504.735 376.539,506.735 377.5,508.5C 379.265,509.461 381.265,509.795 383.5,509.5C 383.178,503.642 383.511,497.975 384.5,492.5 Z" /></g><g><path style="opacity:1" fill="#e39184" d="M 279.5,507.5 C 278.833,511.167 278.167,514.833 277.5,518.5C 277.334,514.154 277.501,509.821 278,505.5C 278.717,506.044 279.217,506.711 279.5,507.5 Z" /></g></svg>