<svg xmlns="http://www.w3.org/2000/svg" xmlns:xlink="http://www.w3.org/1999/xlink" width="160" height="89" viewBox="0 0 287 160" version="1.1"><defs><linearGradient id="linear0" gradientUnits="userSpaceOnUse" x1="3289" y1="-62.099998" x2="3289" y2="-6.4" gradientTransform="matrix(1.014528,0,0,-1.012852,-3271.817512,48.279304)"><stop offset="0" style="stop-color:rgb(100%,100%,100%);stop-opacity:1;" /><stop offset="1" style="stop-color:rgb(100%,100%,100%);stop-opacity:0;" /></linearGradient><linearGradient id="linear1" gradientUnits="userSpaceOnUse" x1="8964" y1="-696.599976" x2="8964.900391" y2="-665.200012" gradientTransform="matrix(-1.014528,0.000000000000000124,0.000000000000000124,1.012852,9084.861678,811.110689)"><stop offset="0" style="stop-color:rgb(100%,100%,100%);stop-opacity:1;" /><stop offset="1" style="stop-color:rgb(100%,100%,100%);stop-opacity:0;" /></linearGradient><linearGradient id="linear2" gradientUnits="userSpaceOnUse" x1="6164.299805" y1="-62.099998" x2="6164.299805" y2="-6.4" gradientTransform="matrix(-1.014528,0.000000000000000124,-0.000000000000000124,-1.012852,6458.186089,48.279304)"><stop offset="0" style="stop-color:rgb(100%,100%,100%);stop-opacity:1;" /><stop offset="1" style="stop-color:rgb(100%,100%,100%);stop-opacity:0;" /></linearGradient><linearGradient id="linear3" gradientUnits="userSpaceOnUse" x1="6088.700195" y1="-696.599976" x2="6089.600098" y2="-665.200012" gradientTransform="matrix(1.014528,0,0,1.012852,-5898.492801,811.110689)"><stop offset="0" style="stop-color:rgb(100%,100%,100%);stop-opacity:1;" /><stop offset="1" style="stop-color:rgb(100%,100%,100%);stop-opacity:0;" /></linearGradient></defs><g id="surface1"><path style=" stroke:none;fill-rule:nonzero;fill:rgb(95.686275%,73.725492%,1.960784%);fill-opacity:1;" d="M 143.515625 34.191406 C 142.625 35.601562 141.761719 37.046875 140.996094 38.550781 C 140.164062 40.113281 139.394531 41.710938 138.6875 43.335938 C 137.980469 44.964844 137.304688 46.652344 136.722656 48.339844 C 136.136719 50.058594 135.582031 51.777344 135.089844 53.589844 C 134.601562 55.398438 134.199219 57.179688 133.832031 59.050781 C 133.460938 60.894531 133.15625 62.796875 132.910156 64.699219 C 132.664062 66.632812 132.480469 68.566406 132.355469 70.5625 C 132.234375 72.558594 132.171875 74.550781 132.171875 76.609375 C 132.171875 78.972656 132.261719 81.304688 132.386719 83.605469 C 132.539062 85.910156 132.753906 88.148438 133.0625 90.359375 C 133.371094 92.570312 133.738281 94.746094 134.199219 96.867188 C 134.660156 99.015625 135.183594 101.101562 135.796875 103.15625 C 136.414062 105.214844 137.089844 107.207031 137.828125 109.203125 C 138.566406 111.199219 139.394531 113.101562 140.316406 114.972656 C 141.210938 116.878906 142.195312 118.71875 143.238281 120.5 C 143.332031 120.652344 143.421875 120.804688 143.515625 120.960938 C 143.609375 120.804688 143.699219 120.652344 143.792969 120.5 C 144.835938 118.6875 145.820312 116.847656 146.710938 114.972656 C 147.605469 113.070312 148.433594 111.167969 149.203125 109.203125 C 149.972656 107.238281 150.648438 105.214844 151.230469 103.15625 C 151.816406 101.101562 152.371094 99.015625 152.832031 96.867188 C 153.292969 94.71875 153.660156 92.570312 153.96875 90.359375 C 154.277344 88.148438 154.492188 85.910156 154.644531 83.605469 C 154.796875 81.304688 154.859375 79.003906 154.859375 76.609375 C 154.859375 74.550781 154.796875 72.558594 154.675781 70.5625 C 154.550781 68.566406 154.367188 66.632812 154.121094 64.699219 C 153.875 62.765625 153.570312 60.894531 153.199219 59.050781 C 152.832031 57.210938 152.429688 55.371094 151.9375 53.589844 C 151.445312 51.808594 150.925781 50.058594 150.308594 48.339844 C 149.695312 46.621094 149.050781 44.964844 148.34375 43.335938 C 147.636719 41.710938 146.867188 40.113281 146.035156 38.550781 C 145.238281 37.046875 144.40625 35.601562 143.515625 34.191406 Z M 210.75 0 L 286.871094 0 L 286.871094 121.605469 L 208.722656 121.605469 L 207.953125 121.511719 C 194.117188 119.609375 167.957031 108.28125 167.957031 79.125 C 167.957031 49.96875 191.964844 38.703125 204.632812 36.738281 L 205.492188 36.617188 L 253.515625 36.617188 L 253.515625 91.25 L 230.828125 91.25 L 230.828125 59.265625 L 207.492188 59.265625 C 205.953125 59.636719 202.144531 60.710938 198.515625 63.226562 C 193.136719 66.941406 190.613281 72.003906 190.613281 79.15625 C 190.613281 86.308594 193.472656 91.066406 199.621094 94.839844 C 204.078125 97.570312 208.785156 98.675781 210.445312 99.042969 L 264.121094 99.042969 L 264.121094 22.652344 L 210.660156 22.652344 C 201.683594 22.652344 193.136719 24.339844 185.355469 27.683594 C 165.066406 36.339844 154.765625 52.820312 154.765625 76.640625 C 154.765625 100.457031 165.28125 119.886719 186.003906 130.964844 C 193.71875 135.078125 202.542969 137.257812 211.519531 137.257812 L 230.796875 137.257812 L 230.796875 128.203125 L 253.484375 128.203125 L 253.484375 159.90625 L 211.519531 159.90625 C 198.824219 159.90625 186.277344 156.808594 175.304688 150.945312 C 163.40625 144.59375 153.722656 136.121094 146.496094 125.808594 C 136.9375 112.121094 132.078125 95.578125 132.078125 76.640625 C 132.078125 43.859375 147.820312 19.058594 176.441406 6.875 C 187.171875 2.300781 198.699219 0 210.75 0 Z M 76.25 0 L 0.128906 0 L 0.128906 121.605469 L 78.246094 121.605469 L 79.015625 121.511719 C 92.851562 119.609375 119.011719 108.28125 119.011719 79.125 C 119.011719 49.96875 95.003906 38.703125 82.335938 36.738281 L 81.476562 36.617188 L 33.453125 36.617188 L 33.453125 91.25 L 56.144531 91.25 L 56.144531 59.265625 L 79.476562 59.265625 C 81.015625 59.636719 84.828125 60.710938 88.453125 63.226562 C 93.835938 66.941406 96.355469 72.003906 96.355469 79.15625 C 96.355469 86.308594 93.496094 91.066406 87.347656 94.839844 C 82.890625 97.570312 78.1875 98.675781 76.527344 99.042969 L 22.816406 99.042969 L 22.816406 22.652344 L 76.28125 22.652344 C 85.257812 22.652344 93.804688 24.339844 101.613281 27.683594 C 121.902344 36.339844 132.203125 52.820312 132.203125 76.640625 C 132.203125 100.457031 121.6875 119.886719 100.964844 130.964844 C 93.25 135.078125 84.425781 137.257812 75.449219 137.257812 L 56.171875 137.257812 L 56.171875 128.203125 L 33.484375 128.203125 L 33.484375 159.90625 L 75.449219 159.90625 C 88.148438 159.90625 100.691406 156.808594 111.664062 150.945312 C 123.5625 144.59375 133.246094 136.121094 140.472656 125.808594 C 150.03125 112.121094 154.890625 95.578125 154.890625 76.640625 C 154.890625 43.859375 139.148438 19.058594 110.527344 6.875 C 99.828125 2.300781 88.332031 0 76.25 0 Z M 76.25 0 " /><path style=" stroke:none;fill-rule:nonzero;fill:url(#linear0);" d="M 33.453125 36.648438 L 56.144531 36.648438 L 56.144531 91.21875 L 33.453125 91.21875 Z M 33.453125 36.648438 " /><path style=" stroke:none;fill-rule:nonzero;fill:url(#linear1);" d="M 33.453125 128.171875 L 33.453125 159.96875 L 56.113281 159.96875 L 56.113281 128.171875 Z M 33.453125 128.171875 " /><path style=" stroke:none;fill-rule:nonzero;fill:url(#linear2);" d="M 230.886719 36.648438 L 253.578125 36.648438 L 253.578125 91.21875 L 230.886719 91.21875 Z M 230.886719 36.648438 " /><path style=" stroke:none;fill-rule:nonzero;fill:url(#linear3);" d="M 230.886719 159.96875 L 230.886719 128.171875 L 253.546875 128.171875 L 253.546875 159.96875 Z M 230.886719 159.96875 " /></g></svg>