<svg id="Calque_2" data-name="Calque 2" xmlns="http://www.w3.org/2000/svg" viewBox="0 0 250 43.38" height="32" width="184" ><defs><style>      .cls-1 {        fill: #3a5faa;      }      .cls-2 {        fill: #1c3a67;      }      .cls-3 {        fill: #6fb2e2;      }    </style></defs><g id="Calque_des_informations_sur_les_nuances" data-name="Calque des informations sur les nuances"><g><g><circle class="cls-3" cx="35.36" cy="9.32" r="2.19" /><circle class="cls-3" cx="35.36" cy="15.5" r="2.19" /><circle class="cls-3" cx="35.36" cy="21.67" r="2.19" /><circle class="cls-3" cx="35.36" cy="27.85" r="2.19" /><circle class="cls-3" cx="35.36" cy="34.03" r="2.19" /><circle class="cls-3" cx="35.36" cy="40.21" r="2.19" /><circle class="cls-3" cx="29.56" cy="3.14" r="2.19" /><circle class="cls-3" cx="35.36" cy="3.14" r="2.19" /><circle class="cls-3" cx="29.56" cy="9.32" r="2.19" /><circle class="cls-3" cx="29.56" cy="15.5" r="2.19" /><circle class="cls-3" cx="29.56" cy="21.67" r="2.19" /><circle class="cls-2" cx="29.56" cy="27.85" r="2.19" /><circle class="cls-3" cx="29.56" cy="34.03" r="2.19" /><circle class="cls-3" cx="29.56" cy="40.21" r="2.19" /><circle class="cls-3" cx="23.75" cy="3.14" r="2.19" /><circle class="cls-2" cx="23.75" cy="15.5" r="2.19" /><circle class="cls-3" cx="23.75" cy="21.67" r="2.19" /><circle class="cls-3" cx="23.75" cy="27.85" r="2.19" /><circle class="cls-3" cx="23.75" cy="34.03" r="2.19" /><circle class="cls-2" cx="23.75" cy="40.21" r="2.19" /><circle class="cls-2" cx="17.94" cy="3.14" r="2.19" /><circle class="cls-3" cx="17.94" cy="9.32" r="2.19" /><circle class="cls-3" cx="17.94" cy="27.85" r="2.19" /><circle class="cls-3" cx="17.94" cy="34.03" r="2.19" /><circle class="cls-3" cx="17.94" cy="40.21" r="2.19" /><circle class="cls-3" cx="12.14" cy="3.14" r="2.19" /><circle class="cls-3" cx="12.14" cy="15.5" r="2.19" /><circle class="cls-2" cx="12.14" cy="34.03" r="2.19" /></g><path class="cls-1" d="M66.65,38.94v3.77h-24.99V1.07h24.59v3.77h-20.24v14.5h18.5v3.77h-18.5v15.83s20.64,0,20.64,0Z" /><path class="cls-1" d="M76.54,1.4l15.85,35.5c.59,1.17,1.3,1.71,2.29,1.71.12,0,.25,0,.38-.02,1.15-.14,2.02-1.17,2.02-2.41l.25-23.29c.04-6.15,4.47-11.19,10.52-11.99.08,0,.15,0,.23,0,.98,0,1.77.81,1.77,1.81v.3c0,.91-.67,1.66-1.59,1.79-4.07.58-7.03,4.01-7.03,8.15l-.25,23.27c0,3.48-2.83,6.31-6.31,6.31-2.58,0-4.87-1.53-5.85-3.9l-12.68-29.93v33.8h-3.9V1.4" /><g><path class="cls-1" d="M132.6,42.5h-4.29V4.75h-13.98V.87h32.24v3.89h-13.98v37.75h0Z" /><path class="cls-1" d="M156.78,42.5h-4.35V.87h4.35v41.64h0Z" /><path class="cls-1" d="M184.15,43.38c-2.9,0-5.59-.55-8.06-1.65-2.47-1.1-4.63-2.64-6.47-4.61s-3.27-4.28-4.29-6.93c-1.02-2.65-1.54-5.5-1.54-8.55s.51-5.89,1.54-8.52c1.02-2.63,2.45-4.92,4.29-6.87s3.99-3.48,6.47-4.58c2.47-1.1,5.16-1.65,8.06-1.65,3.29,0,6.32.69,9.1,2.06,2.78,1.37,5.11,3.3,6.99,5.8,1.87,2.49,3.08,5.4,3.62,8.73h-4.58c-.43-2.47-1.35-4.67-2.78-6.58s-3.2-3.41-5.31-4.49-4.46-1.62-7.05-1.62c-2.32,0-4.45.45-6.38,1.33-1.93.89-3.61,2.13-5.04,3.71-1.43,1.59-2.53,3.46-3.31,5.62-.77,2.17-1.16,4.52-1.16,7.07s.39,4.97,1.16,7.13c.77,2.17,1.87,4.05,3.31,5.65,1.43,1.6,3.11,2.85,5.04,3.74,1.93.89,4.06,1.33,6.38,1.33,2.59,0,4.95-.55,7.07-1.65,2.13-1.1,3.89-2.62,5.31-4.55,1.41-1.93,2.33-4.12,2.75-6.55h4.58c-.54,3.29-1.74,6.19-3.6,8.7s-4.19,4.46-6.99,5.86c-2.8,1.39-5.85,2.09-9.13,2.09l.02-.02Z" /><path class="cls-1" d="M240.05,30.96c0,2.2-.58,4.22-1.74,6.06s-2.86,3.3-5.1,4.41c-2.24,1.1-4.99,1.65-8.23,1.65s-6.02-.56-8.32-1.68-4.08-2.68-5.33-4.67c-1.26-1.99-1.96-4.3-2.12-6.93h4.41c.23,2.94,1.28,5.3,3.13,7.07,1.86,1.78,4.58,2.67,8.18,2.67,1.97,0,3.76-.32,5.36-.96s2.87-1.57,3.8-2.78,1.39-2.64,1.39-4.26c0-2.16-.66-3.8-1.97-4.9s-3.44-1.96-6.38-2.58l-5.28-1.04c-1.39-.27-2.75-.66-4.09-1.16-1.33-.5-2.54-1.17-3.62-2s-1.95-1.87-2.61-3.13-.99-2.79-.99-4.61c0-2.24.6-4.25,1.8-6.03s2.86-3.19,4.99-4.23,4.58-1.57,7.36-1.57,5.2.54,7.36,1.62c2.16,1.08,3.92,2.59,5.28,4.52,1.35,1.93,2.09,4.23,2.2,6.9h-4.47c-.08-1.86-.57-3.5-1.48-4.93-.91-1.43-2.11-2.55-3.6-3.36-1.49-.81-3.24-1.22-5.25-1.22-2.13,0-3.91.39-5.36,1.16s-2.55,1.76-3.31,2.96c-.75,1.2-1.13,2.51-1.13,3.94,0,1.62.42,2.92,1.25,3.88.83.97,1.91,1.71,3.25,2.23,1.33.52,2.77.94,4.32,1.25l5.28,1.1c3.52.73,6.23,1.9,8.15,3.51,1.91,1.61,2.87,3.97,2.87,7.1h0Z" /></g></g></g></svg>