<!DOCTYPE svg PUBLIC "-//W3C//DTD SVG 1.1//EN" "http://www.w3.org/Graphics/SVG/1.1/DTD/svg11.dtd"[]><svg xmlns="http://www.w3.org/2000/svg" version="1.1" width="159" height="105" style="shape-rendering:geometricPrecision; text-rendering:geometricPrecision; image-rendering:optimizeQuality; fill-rule:evenodd; clip-rule:evenodd" xmlns:xlink="http://www.w3.org/1999/xlink" viewBox="0 0 852 561"><g><path style="opacity:1" fill="#fefefe" d="M -0.5,-0.5 C 283.5,-0.5 567.5,-0.5 851.5,-0.5C 851.5,186.5 851.5,373.5 851.5,560.5C 567.5,560.5 283.5,560.5 -0.5,560.5C -0.5,373.5 -0.5,186.5 -0.5,-0.5 Z" /></g><g><path style="opacity:1" fill="#8285bc" d="M 484.5,158.5 C 435.418,153.514 391.752,166.347 353.5,197C 346.261,203.736 339.594,210.902 333.5,218.5C 289.598,191.46 242.265,183.293 191.5,194C 176.019,197.369 161.353,202.869 147.5,210.5C 141.385,150.941 159.385,100.108 201.5,58C 239.4,26.5965 283.067,13.2632 332.5,18C 402.254,24.1018 450.087,59.6018 476,124.5C 480.091,135.532 482.925,146.865 484.5,158.5 Z" /></g><g><path style="opacity:1" fill="#4f99cd" d="M 484.5,158.5 C 493.293,213.33 480.793,262.663 447,306.5C 434.059,320.628 419.559,332.628 403.5,342.5C 403.167,342.5 402.833,342.5 402.5,342.5C 398.505,295.008 378.505,255.841 342.5,225C 339.778,222.642 336.778,220.809 333.5,219.5C 333.5,219.167 333.5,218.833 333.5,218.5C 339.594,210.902 346.261,203.736 353.5,197C 391.752,166.347 435.418,153.514 484.5,158.5 Z" /></g><g><path style="opacity:1" fill="#7dcdec" d="M 484.5,158.5 C 557.009,166.477 605.176,204.81 629,273.5C 644.699,329.582 637.699,382.582 608,432.5C 577.684,475.254 536.184,498.754 483.5,503C 455.831,505 428.831,501.667 402.5,493C 390.049,487.94 378.049,482.107 366.5,475.5C 366.5,475.167 366.5,474.833 366.5,474.5C 372.244,468.575 377.077,461.908 381,454.5C 399.968,419.494 407.468,382.161 403.5,342.5C 419.559,332.628 434.059,320.628 447,306.5C 480.793,262.663 493.293,213.33 484.5,158.5 Z" /></g><g><path style="opacity:1" fill="#4a6ca7" d="M 333.5,218.5 C 333.5,218.833 333.5,219.167 333.5,219.5C 311.998,246.553 299.832,277.553 297,312.5C 296.02,327.894 296.52,343.227 298.5,358.5C 298.36,360.03 297.693,361.03 296.5,361.5C 218.911,352.087 170.411,309.42 151,233.5C 149.184,225.934 148.017,218.268 147.5,210.5C 161.353,202.869 176.019,197.369 191.5,194C 242.265,183.293 289.598,191.46 333.5,218.5 Z" /></g><g><path style="opacity:1" fill="#79b9c9" d="M 147.5,210.5 C 148.017,218.268 149.184,225.934 151,233.5C 170.411,309.42 218.911,352.087 296.5,361.5C 297.209,362.404 298.209,362.737 299.5,362.5C 306.543,409.295 328.876,446.629 366.5,474.5C 366.5,474.833 366.5,475.167 366.5,475.5C 340.655,507.269 307.321,526.435 266.5,533C 224.026,539.93 183.693,533.597 145.5,514C 96.3019,482.812 69.1353,437.978 64,379.5C 58.9995,320.144 77.8328,269.977 120.5,229C 128.834,221.835 137.834,215.668 147.5,210.5 Z" /></g><g><path style="opacity:1" fill="#3a8ec4" d="M 333.5,219.5 C 336.778,220.809 339.778,222.642 342.5,225C 378.505,255.841 398.505,295.008 402.5,342.5C 370.078,358.517 335.745,365.184 299.5,362.5C 298.209,362.737 297.209,362.404 296.5,361.5C 297.693,361.03 298.36,360.03 298.5,358.5C 296.52,343.227 296.02,327.894 297,312.5C 299.832,277.553 311.998,246.553 333.5,219.5 Z" /></g><g><path style="opacity:1" fill="#4ab0d5" d="M 402.5,342.5 C 402.833,342.5 403.167,342.5 403.5,342.5C 407.468,382.161 399.968,419.494 381,454.5C 377.077,461.908 372.244,468.575 366.5,474.5C 328.876,446.629 306.543,409.295 299.5,362.5C 335.745,365.184 370.078,358.517 402.5,342.5 Z" /></g></svg>