<svg id="Calque_1" data-name="Calque 1" xmlns="http://www.w3.org/2000/svg" viewBox="0 0 326.56 166.31" height="110" width="216"><defs><style>      .cls-1, .cls-2, .cls-3, .cls-4 {        fill: #e95022;      }      .cls-1, .cls-5 {        stroke-width: 0px;      }      .cls-2 {        stroke: #1e1e1c;      }      .cls-2, .cls-6, .cls-7, .cls-8, .cls-3, .cls-4, .cls-9 {        stroke-miterlimit: 10;      }      .cls-6, .cls-7, .cls-8 {        fill: none;      }      .cls-6, .cls-8, .cls-3 {        stroke-width: .25px;      }      .cls-6, .cls-4, .cls-9 {        stroke: #fff;      }      .cls-7 {        stroke: #e95022;        stroke-width: .5px;      }      .cls-5 {        fill: #1d1d1b;      }      .cls-8, .cls-3 {        stroke: #010101;      }      .cls-9 {        fill: #fff;      }    </style></defs><circle class="cls-2" cx="59.27" cy="119.33" r="46.48" /><rect class="cls-1" x="10.51" y=".84" width="17.08" height="159.87" /><circle class="cls-9" cx="46.98" cy="46.98" r="46.48" /><path class="cls-4" d="M64.06,68.16c16.47,9.97,21.81,31.28,11.93,47.6s-31.24,21.46-47.71,11.49" /><path class="cls-3" d="M43.26,108.59c-16.07-10.6-20.51-32.22-9.91-48.29s32.22-20.51,48.29-9.91" /><circle class="cls-7" cx="53.14" cy="44.63" r="44.13" /><path class="cls-8" d="M22.34,73.77c-5.97-18.3,4.04-37.98,22.34-43.95,18.3-5.97,37.98,4.04,43.95,22.34" /><path class="cls-6" d="M48.35,66.83c14.26,9.36,18.23,28.52,8.87,42.78-9.36,14.26-28.52,18.23-42.78,8.87" /><g><path class="cls-5" d="M112.92,39.23h1.34l7.7,11.35,7.7-11.35h1.34v19.18h-1.43v-16.66l-7.59,11.04h-.11l-7.59-11.04v16.66h-1.37v-19.18Z" /><path class="cls-5" d="M136.15,52.99v-8.55h1.34v8.3c0,2.88,1.62,4.77,4.44,4.77s4.85-2.08,4.85-4.99v-8.08h1.34v13.98h-1.34v-2.6c-.93,1.64-2.49,2.93-5.04,2.93-3.53,0-5.59-2.41-5.59-5.75Z" /><path class="cls-5" d="M153.42,38.41h1.34v20.01h-1.34v-20.01Z" /><path class="cls-5" d="M160.8,54.83v-9.15h-2.03v-1.23h2.03v-4.47h1.34v4.47h4.91v1.23h-4.91v9.02c0,2,1.18,2.71,2.79,2.71.69,0,1.26-.14,2.06-.49v1.26c-.71.33-1.4.49-2.27.49-2.16,0-3.92-1.18-3.92-3.84Z" /><path class="cls-5" d="M171.05,38.96h1.67v1.84h-1.67v-1.84ZM171.22,44.44h1.34v13.98h-1.34v-13.98Z" /><path class="cls-5" d="M176.95,51.48v-.05c0-4.55,3.43-7.32,6.8-7.32,2.8,0,4.6,1.59,5.75,3.34v-9.04h1.34v20.01h-1.34v-3.12c-1.2,1.84-2.99,3.45-5.75,3.45-3.37,0-6.8-2.71-6.8-7.26ZM189.58,51.46v-.05c0-3.59-2.79-6-5.7-6s-5.48,2.22-5.48,5.97v.06c0,3.67,2.55,6.03,5.48,6.03s5.7-2.44,5.7-6Z" /><path class="cls-5" d="M195.98,38.96h1.67v1.84h-1.67v-1.84ZM196.14,44.44h1.34v13.98h-1.34v-13.98Z" /><path class="cls-5" d="M201.57,56.66l.79-1.07c1.53,1.18,3.23,1.84,5.02,1.84,1.89,0,3.37-1.04,3.37-2.66v-.05c0-1.64-1.75-2.25-3.7-2.79-2.27-.66-4.8-1.34-4.8-3.84v-.05c0-2.25,1.89-3.86,4.6-3.86,1.67,0,3.56.6,4.96,1.53l-.71,1.12c-1.29-.85-2.82-1.4-4.3-1.4-1.92,0-3.18,1.04-3.18,2.44v.06c0,1.56,1.89,2.14,3.89,2.71,2.25.63,4.6,1.45,4.6,3.92v.05c0,2.49-2.14,4.08-4.82,4.08-2.03,0-4.25-.82-5.73-2.03Z" /><path class="cls-5" d="M215.44,51.48v-.05c0-3.92,3.12-7.32,7.12-7.32,2.63,0,4.28,1.21,5.59,2.58l-.96.99c-1.21-1.23-2.58-2.3-4.66-2.3-3.18,0-5.65,2.66-5.65,6v.06c0,3.37,2.55,6.06,5.76,6.06,1.97,0,3.51-1.01,4.69-2.33l.93.82c-1.42,1.62-3.12,2.77-5.7,2.77-4.03,0-7.12-3.34-7.12-7.26Z" /><path class="cls-5" d="M232.09,38.96h1.67v1.84h-1.67v-1.84ZM232.25,44.44h1.34v13.98h-1.34v-13.98Z" /><path class="cls-5" d="M238.89,44.44h1.34v3.12c1.21-1.84,2.99-3.45,5.75-3.45,3.37,0,6.8,2.71,6.8,7.26v.06c0,4.55-3.43,7.32-6.8,7.32-2.79,0-4.6-1.59-5.75-3.34v7.4h-1.34v-18.36ZM251.33,51.48v-.05c0-3.67-2.55-6.03-5.48-6.03s-5.7,2.44-5.7,6v.05c0,3.59,2.8,6,5.7,6s5.48-2.22,5.48-5.97Z" /><path class="cls-5" d="M257.17,38.41h1.34v20.01h-1.34v-20.01Z" /><path class="cls-5" d="M263.84,38.96h1.67v1.84h-1.67v-1.84ZM264,44.44h1.34v13.98h-1.34v-13.98Z" /><path class="cls-5" d="M270.64,44.44h1.34v2.6c.93-1.64,2.49-2.93,5.04-2.93,3.54,0,5.59,2.41,5.59,5.75v8.55h-1.34v-8.3c0-2.88-1.62-4.77-4.44-4.77s-4.85,2.08-4.85,4.99v8.08h-1.34v-13.98Z" /><path class="cls-5" d="M286.29,54.36v-.05c0-2.91,2.49-4.55,6.11-4.55,1.95,0,3.29.25,4.63.6v-.6c0-2.82-1.73-4.28-4.6-4.28-1.7,0-3.1.47-4.38,1.12l-.49-1.18c1.53-.71,3.04-1.2,4.96-1.2s3.4.52,4.41,1.53c.93.93,1.42,2.22,1.42,3.95v8.71h-1.32v-2.33c-.96,1.34-2.69,2.66-5.34,2.66s-5.4-1.48-5.4-4.38ZM297.06,53.18v-1.59c-1.18-.3-2.74-.63-4.74-.63-2.96,0-4.6,1.32-4.6,3.26v.05c0,2.03,1.92,3.21,4.06,3.21,2.85,0,5.29-1.75,5.29-4.3Z" /><path class="cls-5" d="M303.18,44.44h1.34v3.97c1.1-2.49,3.43-4.3,6.19-4.19v1.48h-.14c-3.23,0-6.06,2.44-6.06,6.99v5.73h-1.34v-13.98Z" /><path class="cls-5" d="M325.09,44.44h1.48l-6.06,14.47c-1.23,2.93-2.66,3.97-4.66,3.97-1.07,0-1.84-.19-2.77-.6l.47-1.18c.74.36,1.34.52,2.38.52,1.45,0,2.41-.85,3.45-3.29l-6.71-13.89h1.56l5.81,12.5,5.04-12.5Z" /></g><g><path class="cls-5" d="M112.47,72.98h7.8c2.13,0,3.86.62,4.91,1.67.78.78,1.21,1.78,1.21,2.97v.05c0,2.56-1.67,3.86-3.21,4.48,2.27.59,4.26,1.89,4.26,4.51v.05c0,3.16-2.7,5.16-6.77,5.16h-8.21v-18.9ZM124.97,77.76c0-2.08-1.7-3.48-4.72-3.48h-6.37v7.42h6.24c2.83,0,4.86-1.38,4.86-3.89v-.05ZM120.27,82.99h-6.4v7.59h6.86c3.24,0,5.29-1.48,5.29-3.86v-.05c0-2.32-2.02-3.67-5.75-3.67Z" /><path class="cls-5" d="M131.7,72.71h1.65v1.81h-1.65v-1.81ZM131.86,78.11h1.32v13.77h-1.32v-13.77Z" /><path class="cls-5" d="M137.45,85.05v-.05c0-3.86,3-7.21,7.1-7.21s7.05,3.29,7.05,7.15v.05c0,3.86-3,7.21-7.1,7.21s-7.05-3.29-7.05-7.15ZM150.16,85.05v-.05c0-3.32-2.48-5.97-5.67-5.97s-5.61,2.67-5.61,5.91v.05c0,3.32,2.48,5.97,5.67,5.97s5.61-2.67,5.61-5.91Z" /><path class="cls-5" d="M155.67,78.11h1.32v2.46c.89-1.43,2.13-2.78,4.59-2.78s3.89,1.38,4.64,2.97c.89-1.54,2.38-2.97,4.97-2.97,3.27,0,5.29,2.29,5.29,5.75v8.34h-1.32v-8.18c0-2.97-1.54-4.7-4.08-4.7-2.32,0-4.35,1.78-4.35,4.86v8.02h-1.32v-8.26c0-2.86-1.57-4.62-4.02-4.62s-4.4,2.16-4.4,4.94v7.94h-1.32v-13.77Z" /><path class="cls-5" d="M180.4,85.02v-.05c0-4,2.81-7.18,6.53-7.18s6.32,3.13,6.32,7.21c0,.24,0,.32-.03.54h-11.42c.24,3.43,2.7,5.43,5.4,5.43,2.13,0,3.59-.94,4.72-2.16l.92.81c-1.4,1.51-3.05,2.59-5.7,2.59-3.62,0-6.75-2.89-6.75-7.18ZM191.82,84.34c-.19-2.78-1.78-5.34-4.94-5.34-2.73,0-4.83,2.29-5.07,5.34h10.01Z" /><path class="cls-5" d="M196.17,85.05v-.05c0-3.86,3.08-7.21,7.02-7.21,2.59,0,4.21,1.19,5.51,2.54l-.94.97c-1.19-1.21-2.54-2.27-4.59-2.27-3.13,0-5.56,2.62-5.56,5.91v.05c0,3.32,2.51,5.97,5.67,5.97,1.94,0,3.46-1,4.62-2.29l.92.81c-1.4,1.59-3.08,2.73-5.62,2.73-3.97,0-7.02-3.29-7.02-7.15Z" /><path class="cls-5" d="M212.53,72.17h1.32v8.5c.92-1.62,2.46-2.89,4.97-2.89,3.48,0,5.51,2.38,5.51,5.67v8.42h-1.32v-8.18c0-2.83-1.59-4.7-4.37-4.7s-4.78,2.05-4.78,4.91v7.96h-1.32v-19.7Z" /><path class="cls-5" d="M227.95,87.88v-.05c0-2.86,2.46-4.48,6.02-4.48,1.92,0,3.24.24,4.56.59v-.59c0-2.78-1.7-4.21-4.54-4.21-1.67,0-3.05.46-4.32,1.11l-.49-1.16c1.51-.7,3-1.19,4.89-1.19s3.35.51,4.35,1.51c.92.92,1.4,2.19,1.4,3.89v8.58h-1.29v-2.29c-.95,1.32-2.65,2.62-5.26,2.62s-5.32-1.46-5.32-4.32ZM238.56,86.72v-1.57c-1.16-.3-2.7-.62-4.67-.62-2.92,0-4.53,1.3-4.53,3.21v.05c0,2,1.89,3.16,4,3.16,2.81,0,5.21-1.73,5.21-4.24Z" /><path class="cls-5" d="M244.58,78.11h1.32v2.56c.92-1.62,2.46-2.89,4.97-2.89,3.48,0,5.51,2.38,5.51,5.67v8.42h-1.32v-8.18c0-2.83-1.59-4.7-4.37-4.7s-4.78,2.05-4.78,4.91v7.96h-1.32v-13.77Z" /><path class="cls-5" d="M261.16,72.71h1.65v1.81h-1.65v-1.81ZM261.32,78.11h1.32v13.77h-1.32v-13.77Z" /><path class="cls-5" d="M266.91,85.05v-.05c0-3.86,3.08-7.21,7.02-7.21,2.59,0,4.21,1.19,5.51,2.54l-.95.97c-1.19-1.21-2.54-2.27-4.59-2.27-3.13,0-5.56,2.62-5.56,5.91v.05c0,3.32,2.51,5.97,5.67,5.97,1.94,0,3.46-1,4.62-2.29l.92.81c-1.4,1.59-3.08,2.73-5.61,2.73-3.97,0-7.02-3.29-7.02-7.15Z" /><path class="cls-5" d="M282.09,90.15l.78-1.05c1.51,1.16,3.19,1.81,4.94,1.81,1.86,0,3.32-1.03,3.32-2.62v-.05c0-1.62-1.73-2.21-3.64-2.75-2.24-.65-4.72-1.32-4.72-3.78v-.05c0-2.21,1.86-3.81,4.53-3.81,1.65,0,3.51.59,4.89,1.51l-.7,1.11c-1.27-.84-2.78-1.38-4.24-1.38-1.89,0-3.13,1.03-3.13,2.4v.05c0,1.54,1.86,2.11,3.83,2.67,2.21.62,4.53,1.43,4.53,3.86v.05c0,2.46-2.11,4.02-4.75,4.02-2,0-4.18-.81-5.64-2Z" /><path class="cls-5" d="M110.66,121.01l1.16-.73c1.16,1.97,2.43,3,4.64,3s4.1-1.75,4.1-5.05v-12.85h1.4v12.74c0,2.19-.67,3.86-1.73,4.91-1,1-2.35,1.51-3.86,1.51-2.81,0-4.56-1.46-5.72-3.54Z" /><path class="cls-5" d="M126.05,117.45v-.05c0-3.86,3-7.21,7.1-7.21s7.05,3.29,7.05,7.15v.05c0,3.86-3,7.21-7.1,7.21s-7.05-3.29-7.05-7.15ZM138.77,117.45v-.05c0-3.32-2.48-5.97-5.67-5.97s-5.61,2.67-5.61,5.91v.05c0,3.32,2.48,5.97,5.67,5.97s5.61-2.67,5.61-5.91Z" /><path class="cls-5" d="M144.01,118.93v-8.42h1.32v8.18c0,2.83,1.59,4.7,4.37,4.7s4.78-2.05,4.78-4.91v-7.96h1.32v13.77h-1.32v-2.56c-.92,1.62-2.46,2.89-4.97,2.89-3.48,0-5.51-2.38-5.51-5.67Z" /><path class="cls-5" d="M160.83,110.51h1.32v3.91c1.08-2.46,3.37-4.24,6.1-4.13v1.46h-.14c-3.19,0-5.97,2.4-5.97,6.88v5.64h-1.32v-13.77Z" /><path class="cls-5" d="M171.63,110.51h1.32v2.56c.92-1.62,2.46-2.89,4.97-2.89,3.48,0,5.51,2.38,5.51,5.67v8.42h-1.32v-8.18c0-2.83-1.59-4.7-4.37-4.7s-4.78,2.05-4.78,4.91v7.96h-1.32v-13.77Z" /><path class="cls-5" d="M187.05,120.28v-.05c0-2.86,2.46-4.48,6.02-4.48,1.92,0,3.24.24,4.56.59v-.59c0-2.78-1.7-4.21-4.54-4.21-1.67,0-3.05.46-4.32,1.11l-.49-1.16c1.51-.7,3-1.19,4.89-1.19s3.35.51,4.35,1.51c.92.92,1.4,2.19,1.4,3.89v8.58h-1.3v-2.29c-.94,1.32-2.65,2.62-5.26,2.62s-5.32-1.46-5.32-4.32ZM197.65,119.12v-1.57c-1.16-.3-2.7-.62-4.67-.62-2.92,0-4.53,1.3-4.53,3.21v.05c0,2,1.89,3.16,4,3.16,2.81,0,5.21-1.73,5.21-4.24Z" /><path class="cls-5" d="M203.87,104.57h1.32v19.7h-1.32v-19.7Z" /></g></svg>