<svg id="Calque_1" data-name="Calque 1" xmlns="http://www.w3.org/2000/svg" viewBox="0 0 160 160" height="190" width="190" ><defs><style>      .cls-1 {        fill: #e3d9c7;      }      .cls-2 {        fill: #343541;        fill-rule: evenodd;      }      .cls-3 {        fill: #d5861c;      }      .cls-4 {        fill: #c55416;      }      .cls-5 {        fill: #73493a;      }      .cls-6 {        fill: #e3bd00;      }    </style></defs><rect class="cls-1" x="-6.47" y="-3.22" width="169.7" height="168.48" rx="3.17" ry="3.17" /><g><path class="cls-5" d="M17.51,118.94c.63,1.55.8,1.73,1.65,1.84v.43h-3.74v-.43c.85-.09,1.12-.2,1.12-.44,0-.12-.11-.48-.27-.89l-.59-1.48h-3.61l-.53,1.36c-.2.51-.28.77-.28.93,0,.31.27.43,1.16.52v.43h-3.2v-.43c.93-.09,1.11-.29,1.83-1.99l2.43-5.68c.21-.51.23-.57.32-.79h.97l2.75,6.61ZM12.27,117.43h3.2l-1.61-3.93-1.59,3.93Z" /><path class="cls-5" d="M21.77,116.23c.51-.97,1.11-1.43,1.93-1.43.73,0,1.24.41,1.24,1.01,0,.49-.35.85-.81.85-.39,0-.69-.28-.69-.65,0-.17.05-.31.2-.48.07-.07.09-.11.09-.15,0-.08-.12-.15-.24-.15-.4,0-.87.35-1.19.88-.33.56-.48,1.2-.48,2.12v1.2c-.01,1.08.08,1.24.89,1.33l.41.04v.39h-3.69v-.39l.33-.03c.81-.13.91-.27.89-1.35v-2.64c0-1.11-.11-1.28-.91-1.4l-.43-.04v-.37l2.44-.13v1.37Z" /><path class="cls-5" d="M31.34,120.14c-.85.89-1.53,1.2-2.6,1.2-1.89,0-3.09-1.27-3.09-3.25s1.2-3.23,3.25-3.23c1.44,0,2.48.64,2.48,1.53,0,.45-.33.77-.81.77-.43,0-.73-.28-.73-.67,0-.24.04-.32.32-.59.04-.04.05-.08.05-.12,0-.29-.56-.53-1.23-.53s-1.15.21-1.44.63c-.36.51-.56,1.29-.56,2.17,0,1.72.77,2.67,2.16,2.67.75,0,1.27-.24,1.91-.88l.29.29Z" /><path class="cls-5" d="M34.33,116.03c.6-.85,1.21-1.17,2.25-1.17.91,0,1.6.31,2.01.89.29.41.4.83.4,1.6v2.09c-.01,1.08.07,1.21.89,1.35l.32.03v.39h-3.59v-.39l.32-.03c.81-.13.89-.27.89-1.35v-1.77c0-1.55-.48-2.19-1.63-2.19-.68,0-1.28.29-1.59.79-.19.29-.29.83-.29,1.39v1.79c-.01,1.08.07,1.21.88,1.35l.32.03v.39h-3.59v-.39l.32-.03c.83-.13.91-.27.91-1.35v-5.54c.01-.92-.21-1.16-1.16-1.19h-.29v-.39l2.61-.32v4.03Z" /><path class="cls-5" d="M46.96,119.99c-.4.45-.6.64-.89.83-.52.33-1.17.52-1.85.52-1.88,0-3.09-1.28-3.09-3.27s1.2-3.21,3.11-3.21c1.11,0,2.03.44,2.49,1.21.29.47.43,1,.45,1.95h-4.73c0,.95.11,1.45.4,1.89.36.53.96.81,1.73.81.88,0,1.35-.21,2.09-1l.29.27ZM45.9,117.58c-.12-1.68-.59-2.32-1.71-2.32-.68,0-1.16.29-1.43.85-.16.35-.24.75-.31,1.47h3.44ZM43.32,113.95l2.16-2.19c.2-.21.36-.31.52-.31.21,0,.41.21.41.44,0,.2-.08.32-.32.49l-2.6,1.76-.17-.2Z" /><path class="cls-5" d="M54.07,115.63c.59.51.93,1.43.93,2.47s-.35,1.95-.93,2.47c-.53.48-1.44.77-2.4.77-2.17,0-3.36-1.16-3.36-3.29,0-.97.36-1.92.93-2.41.56-.49,1.45-.77,2.41-.77s1.87.28,2.41.77ZM49.65,118.06c0,1.95.67,2.88,2.04,2.88s1.99-.97,1.99-2.84-.68-2.84-2.03-2.84-2,.97-2,2.8Z" /><path class="cls-5" d="M58.38,119.44c-.01,1.09.07,1.21.89,1.35l.32.03v.39h-3.6v-.39l.32-.03c.83-.13.91-.27.91-1.35v-5.37c.01-1.09-.17-1.31-1.16-1.36h-.29v-.4l2.61-.31v7.44Z" /><path class="cls-5" d="M66.33,115.63c.59.51.93,1.43.93,2.47s-.35,1.95-.93,2.47c-.53.48-1.44.77-2.4.77-2.17,0-3.36-1.16-3.36-3.29,0-.97.36-1.92.93-2.41.56-.49,1.45-.77,2.41-.77s1.87.28,2.41.77ZM61.9,118.06c0,1.95.67,2.88,2.04,2.88s1.99-.97,1.99-2.84-.68-2.84-2.03-2.84-2,.97-2,2.8Z" /><path class="cls-5" d="M68.68,117.03c0-.65.27-1.27.69-1.63.45-.37,1.08-.55,2.01-.55,1.13,0,1.76.16,2.28.6.05-.48.12-.76.27-1,.19-.32.53-.52.91-.52.45,0,.79.32.79.75,0,.39-.28.68-.64.68-.27,0-.48-.17-.51-.4-.01-.11-.04-.15-.09-.15-.09,0-.19.08-.27.21-.08.15-.2.51-.2.59,0,.07.04.2.11.39.11.27.16.61.16.96,0,.93-.41,1.57-1.21,1.89-.51.21-.73.24-2.23.29-.6.03-.89.21-.89.56s.29.49,1.15.53c1.65.07,1.99.11,2.41.21.76.2,1.21.81,1.21,1.61,0,1.31-1.31,2.16-3.31,2.16-1.77,0-3-.73-3-1.79,0-.59.39-1.01,1.23-1.36-.61-.23-.85-.51-.85-1,0-.61.44-1.01,1.28-1.16-.81-.29-1.29-1-1.29-1.89ZM69.28,122.26c0,.83,1.04,1.53,2.25,1.53s2-.55,2-1.39c0-.41-.2-.73-.52-.85-.29-.11-.47-.13-1.57-.19-.68-.04-.87-.05-1.36-.13-.59.39-.8.65-.8,1.03ZM69.9,117c0,1.11.53,1.68,1.56,1.68s1.56-.57,1.56-1.67-.55-1.72-1.56-1.72-1.56.61-1.56,1.71Z" /><path class="cls-5" d="M78.28,119.44c-.01,1.08.08,1.21.89,1.35l.32.03v.39h-3.6v-.39l.33-.03c.81-.13.91-.27.89-1.35v-2.59c0-1.17-.11-1.33-.91-1.45l-.43-.04v-.39l2.49-.13v4.6ZM78.48,112.83c0,.43-.36.77-.81.77s-.79-.35-.79-.79c0-.41.36-.76.8-.76s.8.35.8.77Z" /><path class="cls-5" d="M86.36,119.99c-.4.45-.6.64-.89.83-.52.33-1.17.52-1.85.52-1.88,0-3.09-1.28-3.09-3.27s1.2-3.21,3.11-3.21c1.11,0,2.03.44,2.49,1.21.29.47.43,1,.45,1.95h-4.73c0,.95.11,1.45.4,1.89.36.53.96.81,1.73.81.88,0,1.35-.21,2.09-1l.29.27ZM85.29,117.58c-.12-1.68-.59-2.32-1.71-2.32-.68,0-1.16.29-1.43.85-.16.35-.24.75-.31,1.47h3.44Z" /><path class="cls-5" d="M92.04,116.88h-.39c-.17-.64-.25-.83-.45-1.07-.35-.39-.77-.59-1.28-.59-.69,0-1.13.37-1.13.95s.4.92,1.55,1.33c1,.36,1.16.43,1.44.61.37.25.57.71.57,1.27,0,1.23-.83,1.95-2.21,1.95-.45,0-.88-.07-1.43-.23-.35-.09-.4-.11-.49-.11-.11,0-.17.05-.25.2h-.23l-.03-2.24h.39c.13.65.24.95.49,1.25.35.45.87.72,1.4.72.77,0,1.31-.45,1.31-1.12,0-.35-.13-.61-.41-.8q-.25-.17-1.17-.51c-1.39-.49-1.87-.96-1.87-1.84,0-1.17.76-1.81,2.15-1.81.53,0,.93.07,1.4.25.08.03.15.04.2.04.08,0,.15-.05.2-.16h.23l.03,1.89Z" /><path class="cls-5" d="M93.95,122.79c.8-.25,1.32-.89,1.29-1.55-.21.07-.35.09-.48.09-.45,0-.8-.35-.8-.79,0-.48.4-.85.91-.85.63,0,1.03.48,1.03,1.23,0,1-.65,1.77-1.83,2.17l-.12-.31Z" /><path class="cls-5" d="M106.9,115.34h-.52c-.12-.99-.27-1.45-.59-1.88-.39-.53-1.03-.83-1.75-.83-1.01,0-1.71.6-1.71,1.49,0,.52.24.99.69,1.31.41.29.72.44,1.68.76,1.04.35,1.36.48,1.72.71.61.39.97,1.09.97,1.88s-.35,1.52-.95,2c-.49.4-1.23.63-2.07.63-.96,0-1.39-.08-2.57-.52-.07-.03-.13-.04-.17-.04-.12,0-.27.11-.48.36h-.29l-.03-3.11.52-.03c.21.8.35,1.12.6,1.57.49.84,1.25,1.25,2.31,1.25,1.16,0,1.91-.64,1.91-1.63,0-.47-.19-.85-.52-1.11q-.37-.27-1.8-.83c-1.03-.4-1.47-.61-1.91-.96-.56-.43-.84-1.03-.84-1.79,0-1.51,1.05-2.47,2.72-2.47.63,0,1.13.11,2.08.45.08.04.15.05.2.05.12,0,.27-.09.47-.31h.29l.03,3.01Z" /><path class="cls-5" d="M114.48,115.63c.59.51.93,1.43.93,2.47s-.35,1.95-.93,2.47c-.53.48-1.44.77-2.4.77-2.17,0-3.36-1.16-3.36-3.29,0-.97.36-1.92.93-2.41.56-.49,1.45-.77,2.41-.77s1.87.28,2.41.77ZM110.05,118.06c0,1.95.67,2.88,2.04,2.88s1.99-.97,1.99-2.84-.68-2.84-2.03-2.84-2,.97-2,2.8Z" /><path class="cls-5" d="M122.32,120.14c-.85.89-1.53,1.2-2.6,1.2-1.89,0-3.09-1.27-3.09-3.25s1.2-3.23,3.25-3.23c1.44,0,2.48.64,2.48,1.53,0,.45-.33.77-.81.77-.43,0-.73-.28-.73-.67,0-.24.04-.32.32-.59.04-.04.05-.08.05-.12,0-.29-.56-.53-1.23-.53s-1.15.21-1.44.63c-.36.51-.56,1.29-.56,2.17,0,1.72.77,2.67,2.16,2.67.75,0,1.27-.24,1.91-.88l.29.29Z" /><path class="cls-5" d="M125.55,119.44c-.01,1.08.08,1.21.89,1.35l.32.03v.39h-3.6v-.39l.33-.03c.81-.13.91-.27.89-1.35v-2.59c0-1.17-.11-1.33-.91-1.45l-.43-.04v-.39l2.49-.13v4.6ZM125.75,112.83c0,.43-.36.77-.81.77s-.79-.35-.79-.79c0-.41.36-.76.8-.76s.8.35.8.77Z" /><path class="cls-5" d="M133.63,119.99c-.4.45-.6.64-.89.83-.52.33-1.17.52-1.85.52-1.88,0-3.09-1.28-3.09-3.27s1.2-3.21,3.11-3.21c1.11,0,2.03.44,2.49,1.21.29.47.43,1,.45,1.95h-4.73c0,.95.11,1.45.4,1.89.36.53.96.81,1.73.81.88,0,1.35-.21,2.09-1l.29.27ZM132.56,117.58c-.12-1.68-.59-2.32-1.71-2.32-.68,0-1.16.29-1.43.85-.16.35-.24.75-.31,1.47h3.44ZM129.99,113.95l2.16-2.19c.2-.21.36-.31.52-.31.21,0,.41.21.41.44,0,.2-.08.32-.32.49l-2.6,1.76-.17-.2Z" /><path class="cls-5" d="M138.78,115.42h-1.85v4.01c0,.8.32,1.19,1,1.19.24,0,.49-.07.95-.24l.15.32c-.77.45-1.32.64-1.91.64-.91,0-1.33-.47-1.33-1.45v-4.47h-1.51v-.44h1.51v-1.36l.87-.87h.28v2.23h1.85v.44Z" /><path class="cls-5" d="M145.41,119.99c-.4.45-.6.64-.89.83-.52.33-1.17.52-1.85.52-1.88,0-3.09-1.28-3.09-3.27s1.2-3.21,3.11-3.21c1.11,0,2.03.44,2.49,1.21.29.47.43,1,.45,1.95h-4.73c0,.95.11,1.45.4,1.89.36.53.96.81,1.73.81.88,0,1.35-.21,2.09-1l.29.27ZM144.34,117.58c-.12-1.68-.59-2.32-1.71-2.32-.68,0-1.16.29-1.43.85-.16.35-.24.75-.31,1.47h3.44ZM141.77,113.95l2.16-2.19c.2-.21.36-.31.52-.31.21,0,.41.21.41.44,0,.2-.08.32-.32.49l-2.6,1.76-.17-.2Z" /><path class="cls-5" d="M151.25,116.88h-.39c-.17-.64-.25-.83-.45-1.07-.35-.39-.77-.59-1.28-.59-.69,0-1.13.37-1.13.95s.4.92,1.55,1.33c1,.36,1.16.43,1.44.61.37.25.57.71.57,1.27,0,1.23-.83,1.95-2.21,1.95-.45,0-.88-.07-1.43-.23-.35-.09-.4-.11-.49-.11-.11,0-.17.05-.25.2h-.23l-.03-2.24h.39c.13.65.24.95.49,1.25.35.45.87.72,1.4.72.77,0,1.31-.45,1.31-1.12,0-.35-.13-.61-.41-.8q-.25-.17-1.17-.51c-1.39-.49-1.87-.96-1.87-1.84,0-1.17.76-1.81,2.15-1.81.53,0,.93.07,1.4.25.08.03.15.04.2.04.08,0,.15-.05.2-.16h.23l.03,1.89Z" /><path class="cls-5" d="M23.08,132.24c.51-.97,1.11-1.43,1.93-1.43.73,0,1.24.41,1.24,1.01,0,.49-.35.85-.81.85-.39,0-.69-.28-.69-.65,0-.17.05-.31.2-.48.07-.07.09-.11.09-.15,0-.08-.12-.15-.24-.15-.4,0-.87.35-1.19.88-.33.56-.48,1.2-.48,2.12v1.2c-.01,1.08.08,1.24.89,1.33l.41.04v.39h-3.69v-.39l.33-.03c.81-.13.91-.27.89-1.35v-2.64c0-1.11-.11-1.28-.91-1.4l-.43-.04v-.37l2.44-.13v1.37Z" /><path class="cls-5" d="M32.8,135.99c-.4.45-.6.64-.89.83-.52.33-1.17.52-1.85.52-1.88,0-3.09-1.28-3.09-3.27s1.2-3.21,3.11-3.21c1.11,0,2.03.44,2.49,1.21.29.47.43,1,.45,1.95h-4.73c0,.95.11,1.45.4,1.89.36.53.96.81,1.73.81.88,0,1.35-.21,2.09-1l.29.27ZM31.73,133.58c-.12-1.68-.59-2.32-1.71-2.32-.68,0-1.16.29-1.43.85-.16.35-.24.75-.31,1.47h3.44ZM29.16,129.95l2.16-2.19c.2-.21.36-.31.52-.31.21,0,.41.21.41.44,0,.2-.08.32-.32.49l-2.6,1.76-.17-.2Z" /><path class="cls-5" d="M38.64,132.89h-.39c-.17-.64-.25-.83-.45-1.07-.35-.39-.77-.59-1.28-.59-.69,0-1.13.37-1.13.95s.4.92,1.55,1.33c1,.36,1.16.43,1.44.61.37.25.57.71.57,1.27,0,1.23-.83,1.95-2.21,1.95-.45,0-.88-.07-1.43-.23-.35-.09-.4-.11-.49-.11-.11,0-.17.05-.25.2h-.23l-.03-2.24h.39c.13.65.24.95.49,1.25.35.45.87.72,1.4.72.77,0,1.31-.45,1.31-1.12,0-.35-.13-.61-.41-.8q-.25-.17-1.17-.51c-1.39-.49-1.87-.96-1.87-1.84,0-1.17.76-1.81,2.15-1.81.53,0,.93.07,1.4.25.08.03.15.04.2.04.08,0,.15-.05.2-.16h.23l.03,1.89Z" /><path class="cls-5" d="M46.09,135.99c-.4.45-.6.64-.89.83-.52.33-1.17.52-1.85.52-1.88,0-3.09-1.28-3.09-3.27s1.2-3.21,3.11-3.21c1.11,0,2.03.44,2.49,1.21.29.47.43,1,.45,1.95h-4.73c0,.95.11,1.45.4,1.89.36.53.96.81,1.73.81.88,0,1.35-.21,2.09-1l.29.27ZM45.03,133.58c-.12-1.68-.59-2.32-1.71-2.32-.68,0-1.16.29-1.43.85-.16.35-.24.75-.31,1.47h3.44Z" /><path class="cls-5" d="M53.91,136.5c-.6.59-1,.8-1.48.8-.28,0-.59-.16-.76-.4-.12-.17-.17-.32-.27-.69-.72.8-1.35,1.13-2.17,1.13-1.11,0-1.81-.71-1.81-1.8,0-.75.32-1.25.99-1.56.24-.11.53-.19,1.08-.29l.68-.12,1.25-.23c-.03-.93-.05-1.2-.21-1.51-.19-.39-.63-.59-1.24-.59-.49,0-1.01.21-1.01.41t.16.2c.11.11.17.28.17.45,0,.43-.32.73-.76.73s-.75-.32-.75-.77c0-.88.96-1.43,2.45-1.43,1.01,0,1.68.27,2.04.81.25.36.32.71.32,1.52v2.19c0,.92.12,1.23.51,1.23.2,0,.28-.04.65-.31l.16.21ZM51.43,133.75c-.99.17-1.57.31-1.93.44-.57.2-.84.59-.84,1.2,0,.72.48,1.21,1.2,1.21.53,0,1.07-.29,1.35-.72.15-.24.23-.64.23-1.09v-1.04Z" /><path class="cls-5" d="M60.29,136.17c-.72.81-1.47,1.17-2.44,1.17-1.55,0-2.29-.84-2.29-2.59v-1.91c0-1.16-.11-1.32-.91-1.44l-.43-.04v-.39l2.49-.13v3.65c0,1.47.55,2.19,1.68,2.19.72,0,1.32-.35,1.57-.91.16-.35.23-.69.23-1.28v-1.65c0-1.16-.11-1.32-.91-1.44l-.43-.04v-.39l2.49-.13v4.6c-.01,1.08.08,1.21.89,1.35l.32.03v.39h-2.28v-1.04Z" /><path class="cls-5" d="M70.49,131.37c-.8.09-.85.13-1.53.85l-1.37,1.43,1.76,2.36c.43.56.73.75,1.33.81v.39h-3.29v-.39c.6-.08.8-.17.8-.39,0-.11-.08-.25-.27-.49l-1.09-1.45-1.19,1.41c-.21.25-.35.49-.35.6,0,.16.25.25.88.32v.39h-2.77v-.39c.75-.11.89-.19,1.39-.73l1.8-1.95-1.57-2.04c-.41-.57-.63-.71-1.25-.73v-.39h3.11v.39c-.48.05-.64.13-.64.33q0,.11.2.4l.91,1.21,1.01-1.24c.12-.13.17-.25.17-.36,0-.21-.08-.25-.79-.35v-.39h2.76v.39Z" /><path class="cls-5" d="M76.91,132.06c.73-.87,1.37-1.2,2.35-1.2,1.05,0,1.61.33,2.12,1.25.55-.88,1.25-1.25,2.33-1.25.99,0,1.71.37,2.08,1.09.2.36.29.88.29,1.6v1.89c-.01,1.08.08,1.21.89,1.35l.32.03v.39h-3.59v-.39l.32-.03c.81-.13.91-.27.89-1.35v-1.72c0-.79-.09-1.24-.32-1.57-.28-.44-.71-.67-1.27-.67-.65,0-1.24.29-1.55.79-.2.32-.25.67-.25,1.45v1.72c-.01,1.08.08,1.21.89,1.35l.32.03v.39h-3.59v-.39l.32-.03c.81-.13.91-.27.89-1.35v-1.57c0-.93-.08-1.39-.28-1.69-.27-.41-.77-.67-1.32-.67-1.05,0-1.79.8-1.79,1.93v2c-.01,1.08.08,1.21.89,1.35l.32.03v.39h-3.6v-.39l.33-.03c.81-.13.91-.27.89-1.35v-2.6c0-1.15-.11-1.31-.91-1.44l-.43-.04v-.37l2.41-.13v1.2Z" /><path class="cls-5" d="M94.8,136.5c-.6.59-1,.8-1.48.8-.28,0-.59-.16-.76-.4-.12-.17-.17-.32-.27-.69-.72.8-1.35,1.13-2.17,1.13-1.11,0-1.81-.71-1.81-1.8,0-.75.32-1.25.99-1.56.24-.11.53-.19,1.08-.29l.68-.12,1.25-.23c-.03-.93-.05-1.2-.21-1.51-.19-.39-.63-.59-1.24-.59-.49,0-1.01.21-1.01.41t.16.2c.11.11.17.28.17.45,0,.43-.32.73-.76.73s-.75-.32-.75-.77c0-.88.96-1.43,2.45-1.43,1.01,0,1.68.27,2.04.81.25.36.32.71.32,1.52v2.19c0,.92.12,1.23.51,1.23.2,0,.28-.04.65-.31l.16.21ZM92.32,133.75c-.99.17-1.57.31-1.93.44-.57.2-.84.59-.84,1.2,0,.72.48,1.21,1.2,1.21.53,0,1.07-.29,1.35-.72.15-.24.23-.64.23-1.09v-1.04Z" /><path class="cls-5" d="M99.18,131.42h-1.85v4.01c0,.8.32,1.19,1,1.19.24,0,.49-.07.95-.24l.15.32c-.77.45-1.32.64-1.91.64-.91,0-1.33-.47-1.33-1.45v-4.47h-1.51v-.44h1.51v-1.36l.87-.87h.28v2.23h1.85v.44Z" /><path class="cls-5" d="M105.81,135.99c-.4.45-.6.64-.89.83-.52.33-1.17.52-1.85.52-1.88,0-3.09-1.28-3.09-3.27s1.2-3.21,3.11-3.21c1.11,0,2.03.44,2.49,1.21.29.47.43,1,.45,1.95h-4.73c0,.95.11,1.45.4,1.89.36.53.96.81,1.73.81.88,0,1.35-.21,2.09-1l.29.27ZM104.74,133.58c-.12-1.68-.59-2.32-1.71-2.32-.68,0-1.16.29-1.43.85-.16.35-.24.75-.31,1.47h3.44ZM102.17,129.95l2.16-2.19c.2-.21.36-.31.52-.31.21,0,.41.21.41.44,0,.2-.08.32-.32.49l-2.6,1.76-.17-.2Z" /><path class="cls-5" d="M109.42,132.24c.51-.97,1.11-1.43,1.93-1.43.73,0,1.24.41,1.24,1.01,0,.49-.35.85-.81.85-.39,0-.69-.28-.69-.65,0-.17.05-.31.2-.48.07-.07.09-.11.09-.15,0-.08-.12-.15-.24-.15-.4,0-.87.35-1.19.88-.33.56-.48,1.2-.48,2.12v1.2c-.01,1.08.08,1.24.89,1.33l.41.04v.39h-3.69v-.39l.33-.03c.81-.13.91-.27.89-1.35v-2.64c0-1.11-.11-1.28-.91-1.4l-.43-.04v-.37l2.44-.13v1.37Z" /><path class="cls-5" d="M115.88,135.45c-.01,1.08.08,1.21.89,1.35l.32.03v.39h-3.6v-.39l.33-.03c.81-.13.91-.27.89-1.35v-2.59c0-1.17-.11-1.33-.91-1.45l-.43-.04v-.39l2.49-.13v4.6ZM116.08,128.84c0,.43-.36.77-.81.77s-.79-.35-.79-.79c0-.41.36-.76.8-.76s.8.35.8.77Z" /><path class="cls-5" d="M124.72,136.5c-.6.59-1,.8-1.48.8-.28,0-.59-.16-.76-.4-.12-.17-.17-.32-.27-.69-.72.8-1.35,1.13-2.17,1.13-1.11,0-1.81-.71-1.81-1.8,0-.75.32-1.25.99-1.56.24-.11.53-.19,1.08-.29l.68-.12,1.25-.23c-.03-.93-.05-1.2-.21-1.51-.19-.39-.63-.59-1.24-.59-.49,0-1.01.21-1.01.41t.16.2c.11.11.17.28.17.45,0,.43-.32.73-.76.73s-.75-.32-.75-.77c0-.88.96-1.43,2.45-1.43,1.01,0,1.68.27,2.04.81.25.36.32.71.32,1.52v2.19c0,.92.12,1.23.51,1.23.2,0,.28-.04.65-.31l.16.21ZM122.24,133.75c-.99.17-1.57.31-1.93.44-.57.2-.84.59-.84,1.2,0,.72.48,1.21,1.2,1.21.53,0,1.07-.29,1.35-.72.15-.24.23-.64.23-1.09v-1.04Z" /><path class="cls-5" d="M131.1,136.17c-.72.81-1.47,1.17-2.44,1.17-1.55,0-2.29-.84-2.29-2.59v-1.91c0-1.16-.11-1.32-.91-1.44l-.43-.04v-.39l2.49-.13v3.65c0,1.47.55,2.19,1.68,2.19.72,0,1.32-.35,1.57-.91.16-.35.23-.69.23-1.28v-1.65c0-1.16-.11-1.32-.91-1.44l-.43-.04v-.39l2.49-.13v4.6c-.01,1.08.08,1.21.89,1.35l.32.03v.39h-2.28v-1.04Z" /><path class="cls-5" d="M141.3,131.37c-.8.09-.85.13-1.53.85l-1.37,1.43,1.76,2.36c.43.56.73.75,1.33.81v.39h-3.29v-.39c.6-.08.8-.17.8-.39,0-.11-.08-.25-.27-.49l-1.09-1.45-1.19,1.41c-.21.25-.35.49-.35.6,0,.16.25.25.88.32v.39h-2.77v-.39c.75-.11.89-.19,1.39-.73l1.8-1.95-1.57-2.04c-.41-.57-.63-.71-1.25-.73v-.39h3.11v.39c-.48.05-.64.13-.64.33q0,.11.2.4l.91,1.21,1.01-1.24c.12-.13.17-.25.17-.36,0-.21-.08-.25-.79-.35v-.39h2.76v.39Z" /></g><g><path class="cls-4" d="M40.38,96.45c1.65,4.34,2.03,4.8,4.47,5.21v1.37h-13.9v-1.37c2.44-.37,3.14-.74,3.14-1.78,0-.5-.25-1.49-.62-2.61l-1.45-3.97h-9.76l-1.32,3.68c-.37,1.12-.62,2.07-.62,2.65,0,1.12.99,1.69,3.35,2.03v1.37h-10.17v-1.37c2.81-.45,3.89-1.82,6.16-7.53l6.41-16.01c.33-.87.54-1.45.91-2.69h5.58l7.82,21.01ZM22.93,91.53h8.52l-4.13-11.87-4.38,11.87Z" /><path class="cls-4" d="M67.26,84.42l-1.73.08c-.58-2.94-1.08-4.26-2.11-5.54-1.28-1.61-3.31-2.56-5.5-2.56-2.61,0-4.43,1.57-4.43,3.85,0,1.41.75,2.77,1.99,3.64,1.24.87,2.15,1.28,5.25,2.4,3.06,1.08,4.34,1.65,5.58,2.69,1.61,1.32,2.52,3.35,2.52,5.71,0,3.14-1.61,6.04-4.1,7.4-1.82.99-4.26,1.53-7.11,1.53-2.11,0-3.76-.29-6.04-1.03-.79-.25-1.24-.37-1.53-.37-.49,0-.83.25-1.57,1.08h-1.03l-.12-10.42,1.78-.08c.66,2.52,1.08,3.64,1.94,5.13,1.57,2.61,4.05,4.09,6.95,4.09s5.05-1.74,5.05-4.34c0-1.32-.58-2.48-1.65-3.18q-1.08-.75-5.54-2.48c-5.54-2.15-7.94-4.84-7.94-8.97,0-5.13,3.51-8.19,9.39-8.19,1.94,0,3.76.33,6.53,1.16.33.12.62.17.87.17.46,0,.87-.29,1.41-.95h1.08l.08,9.22Z" /><path class="cls-4" d="M102.61,102.82c-1.82.5-2.94.66-4.38.66-2.89,0-4.8-.91-6.08-2.81-.74-1.16-.95-1.69-2.23-6.74-.79-3.18-1.78-4.09-4.55-4.18h-2.03v7.86c-.04,2.98.25,3.43,2.56,3.89l1.08.17v1.37h-14.23v-1.37l1.08-.17c2.36-.45,2.65-.91,2.61-3.89v-16.71c.04-2.98-.25-3.43-2.61-3.93l-1.08-.12v-1.41h17.29c3.02,0,5.04.41,6.53,1.36,1.86,1.16,2.81,2.85,2.81,5.05,0,2.32-1.16,4.3-3.14,5.5-1.28.79-2.61,1.16-5.17,1.53,4.92.79,6.04,2.15,7.86,9.68.66,2.36,1.2,3.06,2.56,3.06.33,0,.54,0,.95-.08l.17,1.28ZM85.45,88.1c4.51,0,6.87-1.99,6.87-5.79,0-2.19-.91-3.8-2.56-4.59-.91-.45-2.15-.62-4.38-.62-.62,0-1.08,0-2.03.04v10.96h2.11Z" /><path class="cls-4" d="M117.58,75.44c2.77,6.99,3.52,9.14,7.4,20.68l4.47-11.91,1.62-4.05c.74-2.15,1.28-3.72,1.65-4.71h11v1.36l-1.11.17c-2.32.46-2.61.91-2.57,3.89v16.75c-.04,2.98.25,3.43,2.57,3.89l1.11.17v1.37h-14.14v-1.37l1.08-.17c2.36-.45,2.65-.91,2.61-3.89v-18.69l-4.92,14.47-1.74,4.55c-.33.95-.62,1.86-.95,2.77-.08.25-.46,1.24-.83,2.32h-4.8c-.66-1.82-1.12-3.14-1.37-3.8-.46-1.32-.91-2.69-1.37-4.05-.29-.95-1.03-2.85-2.07-5.58l-4.09-10.71.37,18.03c.04,3.39.91,4.38,3.97,4.76v1.37h-10.26v-1.37c3.56-.33,4.09-1.2,4.18-6.99l.25-13.65.04-.29c.08-1.12-.16-2.36-.54-2.81-.58-.62-1.32-.83-3.68-1.08v-1.41h12.12Z" /></g><g><circle class="cls-4" cx="80.11" cy="40.43" r="26.87" /><circle class="cls-3" cx="80.11" cy="40.43" r="18.49" /><circle class="cls-6" cx="80.11" cy="40.43" r="10.13" /><path class="cls-2" d="M80.11,47.26c.16,0,.82.01,1.47-.07.6-.07,1.18-.21,1.28-.48.06-.77-.91-.91-.92-.91-.08-.01-.14-.09-.13-.17,0-.06.05-.1.1-.12.08-.03,2.14-.75,2.76-3.19.53-2.05.29-3.37.19-3.96-.03-.15-.04-.25-.04-.32,0-.03,0-.05.02-.07.28-.6.32-1.21.18-1.7-.08-.27-.21-.5-.39-.67-.17-.16-.39-.27-.65-.29-.36-.03-.79.1-1.28.46-.07.05-.16.03-.21-.03-.03-.04-.03-.08-.03-.12l.11-.58c.01-.07.08-.12.15-.12.04,0,.28-.02.37-.15.07-.1.09-.19.11-.25.02-.09.04-.14.12-.18h0s.08-.08.12-.18c.02-.05.03-.12,0-.18-.03-.07-.51-.16-1.13-.24-.74-.09-1.64-.14-2.2-.1,0,0-.01,0-.02,0-.56-.04-1.46,0-2.2.1-.61.08-1.1.17-1.13.24-.02.06-.02.13,0,.18.04.11.11.17.12.18.08.04.09.1.12.18.02.06.04.15.11.25.09.14.37.15.37.15.07,0,.13.06.14.12h0s.11.58.11.58c.02.08-.04.16-.12.18-.04,0-.08,0-.12-.03-.49-.35-.92-.48-1.28-.46-.26.02-.48.13-.65.29-.18.17-.31.4-.39.67-.14.49-.09,1.11.19,1.71,0,.02.01.04.01.06h0c0,.07-.02.18-.04.32-.11.59-.34,1.91.19,3.96.64,2.48,2.76,3.19,2.76,3.19.08.03.12.11.09.19-.02.06-.07.09-.12.1-.05,0-.97.16-.91.91.1.27.68.41,1.28.48.65.08,1.31.07,1.47.07h0ZM81.62,47.49c-.66.08-1.34.07-1.51.07-.17,0-.85.01-1.51-.07-.71-.09-1.41-.28-1.53-.71h0s0-.02,0-.03c-.06-.66.39-.98.75-1.13-.68-.34-2.07-1.26-2.57-3.23-.54-2.12-.3-3.47-.19-4.09.02-.11.03-.19.04-.24-.3-.66-.35-1.34-.19-1.88.09-.32.25-.6.47-.81.22-.21.5-.34.83-.37.35-.03.74.06,1.18.31l-.02-.13c-.14-.03-.37-.09-.49-.28-.09-.14-.12-.26-.14-.33,0,0,0,0,0,0h.01c-.06-.05-.19-.18-.25-.34-.04-.11-.06-.25,0-.39.07-.19.66-.34,1.37-.44.75-.1,1.67-.14,2.25-.11.58-.04,1.5,0,2.25.11.72.09,1.3.24,1.37.44.05.14.04.27,0,.39-.05.15-.17.27-.23.32,0,0-.01.01-.02.02h.01s0,0,0,0c-.02.08-.05.19-.14.33-.12.18-.35.25-.49.28l-.02.13c.43-.25.83-.34,1.18-.31.33.03.61.16.83.37.22.21.38.49.47.81.16.55.11,1.23-.19,1.88,0,.05.02.14.04.24.11.61.35,1.97-.19,4.09-.5,1.96-1.89,2.88-2.57,3.23.36.15.81.47.76,1.12,0,.01,0,.03,0,.04-.13.43-.82.62-1.53.71h0ZM83.46,34.59s.01,0,.02-.01h.01s-.07.03-.04.01h0ZM76.76,34.59s-.02,0-.03,0h.01s.02,0,.02,0h0ZM76.03,37.4c-.11-.33-.32-1.12.03-1.39,0,0,.02-.01.03-.02.22-.15.51-.11.77-.02,0,0,0,0,.01,0,.26.1.47.24.52.3h0c.03.06.04.19.03.3-.37.07-.69.31-.99.54-.14.11-.28.21-.41.29h0ZM76.62,37.36c-.21.16-.41.31-.62.4h0s0,0,0,0c-.08.03-.16,0-.2-.08,0,0-.56-1.4.07-1.89.02-.01.03-.02.04-.03.32-.22.71-.17,1.04-.05,0,0,0,0,.01,0,.31.11.57.3.65.39,0,0,0,0,.01.01h0c.12.19.08.62.08.62h0c0,.07-.06.13-.14.14-.34.02-.66.27-.96.5h0ZM84.22,37.75c-.21-.09-.41-.24-.62-.4-.3-.23-.62-.47-.96-.5-.07,0-.13-.06-.14-.14h0s-.04-.43.08-.61c0,0,0-.01,0-.01,0,0,0-.01.01-.02.08-.09.34-.27.65-.39.34-.12.74-.17,1.06.04.01,0,.03.02.04.03.63.49.07,1.89.07,1.89-.03.08-.12.11-.2.08h0s0,0,0,0h0ZM83.79,37.12c-.3-.23-.62-.47-.99-.54,0-.1,0-.24.03-.29,0,0,0,0,0,0h0c.05-.07.26-.21.52-.3.26-.1.56-.14.78.01.01,0,.02.01.03.02.35.28.14,1.06.03,1.39-.13-.08-.27-.18-.41-.29h0ZM82.83,36.28s0,0,0,0h0Z" /></g></svg>