<!DOCTYPE svg PUBLIC "-//W3C//DTD SVG 1.1//EN" "http://www.w3.org/Graphics/SVG/1.1/DTD/svg11.dtd"[]><svg xmlns="http://www.w3.org/2000/svg" version="1.1" width="159" height="154" style="shape-rendering:geometricPrecision; text-rendering:geometricPrecision; image-rendering:optimizeQuality; fill-rule:evenodd; clip-rule:evenodd" xmlns:xlink="http://www.w3.org/1999/xlink" viewBox="0 0 621 598"><g><path style="opacity:1" fill="#f2d647" d="M 269.5,96.5 C 269.5,95.8333 269.167,95.5 268.5,95.5C 264.748,84.4979 268.081,76.3312 278.5,71C 296.643,68.8071 304.143,76.6405 301,94.5C 294.504,105.109 285.67,107.609 274.5,102C 272.627,100.296 270.96,98.4628 269.5,96.5 Z" /></g><g><path style="opacity:0.824" fill="#a5a5a5" d="M 304.5,86.5 C 365.138,98.1606 425.804,109.827 486.5,121.5C 487.167,120.167 487.833,118.833 488.5,117.5C 490.853,119.523 493.186,121.523 495.5,123.5C 495.567,124.959 495.234,126.292 494.5,127.5C 491.854,128.487 489.188,129.487 486.5,130.5C 485.928,128.922 485.594,127.422 485.5,126C 424.802,114.56 364.135,103.06 303.5,91.5C 303.216,89.5853 303.549,87.9187 304.5,86.5 Z" /></g><g><path style="opacity:0.824" fill="#a4a4a4" d="M 266.5,94.5 C 267.167,94.8333 267.833,95.1667 268.5,95.5C 269.167,95.5 269.5,95.8333 269.5,96.5C 268.508,96.3284 267.842,96.6618 267.5,97.5C 266.277,100.274 264.777,102.941 263,105.5C 262.167,104.5 261.333,103.5 260.5,102.5C 212.15,127.196 163.817,151.862 115.5,176.5C 115.167,176.5 114.833,176.5 114.5,176.5C 112.992,174.819 111.992,172.819 111.5,170.5C 112.738,171.412 114.072,171.579 115.5,171C 163.324,146.589 210.99,121.922 258.5,97C 257.663,95.9887 257.33,94.8221 257.5,93.5C 260.482,93.9629 263.482,94.2962 266.5,94.5 Z" /></g><g><path style="opacity:0.622" fill="#110f05" d="M 304.5,86.5 C 303.549,87.9187 303.216,89.5853 303.5,91.5C 301.857,98.6483 297.523,103.482 290.5,106C 280.907,107.973 273.24,105.14 267.5,97.5C 267.842,96.6618 268.508,96.3284 269.5,96.5C 270.96,98.4628 272.627,100.296 274.5,102C 285.67,107.609 294.504,105.109 301,94.5C 304.143,76.6405 296.643,68.8071 278.5,71C 268.081,76.3312 264.748,84.4979 268.5,95.5C 267.833,95.1667 267.167,94.8333 266.5,94.5C 263.605,75.8924 271.605,67.3924 290.5,69C 298.725,72.0517 303.392,77.885 304.5,86.5 Z" /></g><g><path style="opacity:0.943" fill="#13060b" d="M 521.5,159.5 C 520.609,158.89 519.609,158.557 518.5,158.5C 508.629,156.625 501.295,151.292 496.5,142.5C 496.784,140.585 496.451,138.919 495.5,137.5C 494.676,134.236 494.342,130.902 494.5,127.5C 495.234,126.292 495.567,124.959 495.5,123.5C 501.697,105.836 514.03,99.0031 532.5,103C 548.752,109.329 555.252,121.162 552,138.5C 546.623,152.366 536.457,159.366 521.5,159.5 Z" /></g><g><path style="opacity:1" fill="#d63f7c" d="M 516.5,103.5 C 540.281,101.782 551.781,112.782 551,136.5C 545.481,153.183 533.981,160.016 516.5,157C 500.561,150.965 494.061,139.465 497,122.5C 500.773,113.225 507.273,106.891 516.5,103.5 Z" /></g><g><path style="opacity:0.827" fill="#a5a5a5" d="M 495.5,137.5 C 496.451,138.919 496.784,140.585 496.5,142.5C 471.149,153.898 445.816,165.398 420.5,177C 422.014,178.439 422.347,179.939 421.5,181.5C 418.553,180.577 415.553,179.911 412.5,179.5C 411.89,178.609 411.557,177.609 411.5,176.5C 412.912,174.02 414.578,171.687 416.5,169.5C 417.799,170.09 418.632,171.09 419,172.5C 444.327,160.419 469.827,148.752 495.5,137.5 Z" /></g><g><path style="opacity:0.478" fill="#0f1b25" d="M 96.5,158.5 C 92.3555,157.756 88.1889,157.09 84,156.5C 80.8329,156.901 77.6663,157.234 74.5,157.5C 77.3823,156.087 80.5489,155.421 84,155.5C 88.5556,155.439 92.7222,156.439 96.5,158.5 Z" /></g><g><path style="opacity:1" fill="#49aced" d="M 96.5,158.5 C 102.053,161.71 107.053,165.71 111.5,170.5C 111.992,172.819 112.992,174.819 114.5,176.5C 117.604,186.898 116.604,196.898 111.5,206.5C 109.738,207.262 108.738,208.596 108.5,210.5C 108.167,211.5 107.5,212.167 106.5,212.5C 87.0171,225.254 70.0171,222.588 55.5,204.5C 54.6618,204.158 54.3284,203.492 54.5,202.5C 48.5997,184.195 53.5997,169.862 69.5,159.5C 71.5529,159.598 73.2196,158.931 74.5,157.5C 77.6663,157.234 80.8329,156.901 84,156.5C 88.1889,157.09 92.3555,157.756 96.5,158.5 Z" /></g><g><path style="opacity:0.729" fill="#132736" d="M 74.5,157.5 C 73.2196,158.931 71.5529,159.598 69.5,159.5C 70.7804,158.069 72.4471,157.402 74.5,157.5 Z" /></g><g><path style="opacity:0.825" fill="#a5a4a4" d="M 518.5,158.5 C 519.609,158.557 520.609,158.89 521.5,159.5C 522.42,162.508 523.754,165.341 525.5,168C 523.866,168.494 522.199,168.66 520.5,168.5C 517.418,194.825 514.418,221.158 511.5,247.5C 509.708,247.634 508.042,247.301 506.5,246.5C 506.5,246.167 506.5,245.833 506.5,245.5C 509.305,219.559 512.638,193.725 516.5,168C 515.062,167.781 513.729,167.281 512.5,166.5C 514.14,163.532 516.14,160.865 518.5,158.5 Z" /></g><g><path style="opacity:0.804" fill="#132837" d="M 96.5,158.5 C 103.275,160.274 108.275,164.274 111.5,170.5C 107.053,165.71 102.053,161.71 96.5,158.5 Z" /></g><g><path style="opacity:0.745" fill="#162c3b" d="M 69.5,159.5 C 53.5997,169.862 48.5997,184.195 54.5,202.5C 47.9695,187.653 50.6362,174.486 62.5,163C 64.5766,161.295 66.91,160.128 69.5,159.5 Z" /></g><g><path style="opacity:0.804" fill="#a5a5a5" d="M 358.5,188.5 C 358.5,190.167 358.5,191.833 358.5,193.5C 281.166,193.69 203.833,194.023 126.5,194.5C 126.66,196.199 126.494,197.866 126,199.5C 123.358,197.432 120.525,195.765 117.5,194.5C 117.5,193.167 117.5,191.833 117.5,190.5C 120.1,189.081 122.6,187.415 125,185.5C 125.309,186.766 125.809,187.933 126.5,189C 203.834,189.319 281.167,189.153 358.5,188.5 Z" /></g><g><path style="opacity:0.741" fill="#182c3b" d="M 114.5,176.5 C 114.833,176.5 115.167,176.5 115.5,176.5C 116.984,181.033 117.65,185.7 117.5,190.5C 117.5,191.833 117.5,193.167 117.5,194.5C 116.391,198.719 114.725,202.719 112.5,206.5C 112.167,206.5 111.833,206.5 111.5,206.5C 116.604,196.898 117.604,186.898 114.5,176.5 Z" /></g><g><path style="opacity:0.825" fill="#a5a5a5" d="M 361.5,204.5 C 361.833,204.5 362.167,204.5 362.5,204.5C 362.5,205.5 362.5,206.5 362.5,207.5C 361.067,209.519 359.733,211.686 358.5,214C 356.887,214.089 355.72,213.255 355,211.5C 319.885,229.641 284.718,247.641 249.5,265.5C 248.559,263.95 247.893,262.284 247.5,260.5C 282.14,242.846 316.807,225.18 351.5,207.5C 352.59,206.609 352.59,205.609 351.5,204.5C 354.815,203.447 358.148,203.447 361.5,204.5 Z" /></g><g><path style="opacity:0.822" fill="#a4a4a5" d="M 111.5,206.5 C 111.833,206.5 112.167,206.5 112.5,206.5C 138.39,223.031 164.223,239.698 190,256.5C 190.833,255.5 191.667,254.5 192.5,253.5C 194.024,256.074 195.358,258.741 196.5,261.5C 196.737,262.791 196.404,263.791 195.5,264.5C 192.603,264.319 189.77,264.652 187,265.5C 186.5,265.167 186,264.833 185.5,264.5C 187.27,263.18 187.603,261.68 186.5,260C 160.613,243.229 134.613,226.729 108.5,210.5C 108.738,208.596 109.738,207.262 111.5,206.5 Z" /></g><g><path style="opacity:0.822" fill="#a5a5a5" d="M 407.5,212.5 C 410.102,213.661 412.769,214.828 415.5,216C 414.5,217 413.5,218 412.5,219C 423.743,233.488 434.743,248.154 445.5,263C 456.814,262.639 468.147,262.139 479.5,261.5C 479.238,260.022 479.571,258.689 480.5,257.5C 482.833,258.833 485.167,260.167 487.5,261.5C 488.172,260.051 488.839,258.718 489.5,257.5C 489.5,259.833 489.5,262.167 489.5,264.5C 488.833,264.5 488.5,264.833 488.5,265.5C 485.943,267.032 483.443,268.699 481,270.5C 480.51,269.207 480.343,267.873 480.5,266.5C 470.137,266.687 459.804,267.354 449.5,268.5C 471.367,298.925 493.7,328.925 516.5,358.5C 515.415,360.587 513.749,361.92 511.5,362.5C 488.974,331.304 466.308,300.137 443.5,269C 379.417,271.727 315.417,275.227 251.5,279.5C 251.5,277.833 251.5,276.167 251.5,274.5C 312.988,270.815 374.488,267.149 436,263.5C 436.833,263.167 437.667,262.833 438.5,262.5C 429,249.5 419.5,236.5 410,223.5C 408.192,223.112 406.525,223.112 405,223.5C 404.502,220.518 404.335,217.518 404.5,214.5C 404.973,213.094 405.973,212.427 407.5,212.5 Z" /></g><g><path style="opacity:0.737" fill="#0e141a" d="M 411.5,176.5 C 411.557,177.609 411.89,178.609 412.5,179.5C 417.589,191.51 415.923,202.51 407.5,212.5C 405.973,212.427 404.973,213.094 404.5,214.5C 388.528,223.771 374.528,221.438 362.5,207.5C 362.5,206.5 362.5,205.5 362.5,204.5C 362.167,204.5 361.833,204.5 361.5,204.5C 359.726,201.074 358.726,197.407 358.5,193.5C 358.5,191.833 358.5,190.167 358.5,188.5C 364.272,167.777 377.605,160.277 398.5,166C 403.915,168.257 408.249,171.757 411.5,176.5 Z" /></g><g><path style="opacity:1" fill="#49aced" d="M 362.5,204.5 C 356.013,182.121 364.18,169.121 387,165.5C 398.558,165.78 406.891,171.113 412,181.5C 417.031,203.286 408.531,215.619 386.5,218.5C 376.052,217.945 368.052,213.279 362.5,204.5 Z" /></g><g><path style="opacity:0.322" fill="#11212d" d="M 55.5,204.5 C 70.0171,222.588 87.0171,225.254 106.5,212.5C 103.374,216.238 99.374,218.738 94.5,220C 79.5583,223.975 67.0583,220.142 57,208.5C 56.2086,207.255 55.7086,205.922 55.5,204.5 Z" /></g><g><path style="opacity:0.804" fill="#290e19" d="M 506.5,245.5 C 506.5,245.833 506.5,246.167 506.5,246.5C 503.031,246.547 499.698,247.213 496.5,248.5C 499.251,246.025 502.584,245.025 506.5,245.5 Z" /></g><g><path style="opacity:1" fill="#d23e7a" d="M 506.5,246.5 C 508.042,247.301 509.708,247.634 511.5,247.5C 512.492,247.328 513.158,247.662 513.5,248.5C 514.833,250.5 516.5,252.167 518.5,253.5C 518.717,256.435 519.383,259.269 520.5,262C 519.836,265.815 518.503,269.315 516.5,272.5C 516.5,273.167 516.167,273.5 515.5,273.5C 513.973,273.427 512.973,274.094 512.5,275.5C 508.215,276.295 503.881,276.628 499.5,276.5C 498.508,276.672 497.842,276.338 497.5,275.5C 497.027,274.094 496.027,273.427 494.5,273.5C 493.167,273.5 492.5,272.833 492.5,271.5C 491.736,268.982 490.736,266.649 489.5,264.5C 489.5,262.167 489.5,259.833 489.5,257.5C 491.42,254.238 493.754,251.238 496.5,248.5C 499.698,247.213 503.031,246.547 506.5,246.5 Z" /></g><g><path style="opacity:0.024" fill="#1e0a11" d="M 513.5,248.5 C 516.167,249.167 517.833,250.833 518.5,253.5C 516.5,252.167 514.833,250.5 513.5,248.5 Z" /></g><g><path style="opacity:0.827" fill="#2a0f19" d="M 496.5,248.5 C 493.754,251.238 491.42,254.238 489.5,257.5C 489.979,253.025 492.312,250.025 496.5,248.5 Z" /></g><g><path style="opacity:0.918" fill="#3c1523" d="M 488.5,265.5 C 488.5,264.833 488.833,264.5 489.5,264.5C 490.736,266.649 491.736,268.982 492.5,271.5C 490.658,269.81 489.325,267.81 488.5,265.5 Z" /></g><g><path style="opacity:0.494" fill="#2e111c" d="M 518.5,253.5 C 521.751,258.119 522.251,263.119 520,268.5C 519.34,270.324 518.173,271.657 516.5,272.5C 518.503,269.315 519.836,265.815 520.5,262C 519.383,259.269 518.717,256.435 518.5,253.5 Z" /></g><g><path style="opacity:0.784" fill="#3a1322" d="M 494.5,273.5 C 496.027,273.427 497.027,274.094 497.5,275.5C 495.973,275.573 494.973,274.906 494.5,273.5 Z" /></g><g><path style="opacity:0.149" fill="#260e16" d="M 515.5,273.5 C 515.027,274.906 514.027,275.573 512.5,275.5C 512.973,274.094 513.973,273.427 515.5,273.5 Z" /></g><g><path style="opacity:0.83" fill="#3d1323" d="M 512.5,275.5 C 510.366,277.033 507.866,277.7 505,277.5C 502.967,277.494 501.134,277.161 499.5,276.5C 503.881,276.628 508.215,276.295 512.5,275.5 Z" /></g><g><path style="opacity:0.83" fill="#a5a5a5" d="M 198.5,292.5 C 198.833,292.5 199.167,292.5 199.5,292.5C 199.733,294.062 200.4,295.395 201.5,296.5C 172.653,322.176 143.32,347.343 113.5,372C 112.253,373.458 112.253,374.958 113.5,376.5C 110.572,377.484 107.572,377.817 104.5,377.5C 103.833,377.5 103.167,377.5 102.5,377.5C 102.5,376.833 102.5,376.167 102.5,375.5C 103.561,372.489 104.727,369.489 106,366.5C 107,367.5 108,368.5 109,369.5C 138.812,343.697 168.645,318.031 198.5,292.5 Z" /></g><g><path style="opacity:0.286" fill="#13080c" d="M 247.5,260.5 C 247.893,262.284 248.559,263.95 249.5,265.5C 250.928,268.303 251.595,271.303 251.5,274.5C 251.5,276.167 251.5,277.833 251.5,279.5C 248.293,295.284 238.626,303.95 222.5,305.5C 221.081,304.549 219.415,304.216 217.5,304.5C 211.336,303.418 206.003,300.751 201.5,296.5C 200.4,295.395 199.733,294.062 199.5,292.5C 199.167,292.5 198.833,292.5 198.5,292.5C 193.131,283.751 192.131,274.418 195.5,264.5C 196.404,263.791 196.737,262.791 196.5,261.5C 207.289,247.3 220.956,243.8 237.5,251C 241.361,253.696 244.694,256.863 247.5,260.5 Z" /></g><g><path style="opacity:1" fill="#d53f7b" d="M 199.5,292.5 C 190.077,273.69 194.744,259.523 213.5,250C 231.615,246.306 243.782,253.14 250,270.5C 251.467,287.07 244.3,297.904 228.5,303C 221.479,304.194 214.813,303.194 208.5,300C 205.335,297.665 202.335,295.165 199.5,292.5 Z" /></g><g><path style="opacity:0.825" fill="#a5a5a5" d="M 217.5,304.5 C 219.415,304.216 221.081,304.549 222.5,305.5C 221.802,325.826 221.468,346.159 221.5,366.5C 248.521,362.902 275.521,359.068 302.5,355C 303.859,353.796 304.859,352.296 305.5,350.5C 308.193,351.847 310.86,353.18 313.5,354.5C 314.833,355.5 314.833,356.5 313.5,357.5C 311.203,359.294 309.037,361.294 307,363.5C 305.812,362.437 305.312,361.103 305.5,359.5C 277.541,363.78 249.541,367.78 221.5,371.5C 221.022,400.871 220.355,430.205 219.5,459.5C 221.078,460.298 222.744,460.798 224.5,461C 222.613,463.95 220.613,466.784 218.5,469.5C 217.391,469.443 216.391,469.11 215.5,468.5C 214.194,466.184 212.861,463.85 211.5,461.5C 212.689,460.571 214.022,460.238 215.5,460.5C 215.796,431.151 215.796,401.818 215.5,372.5C 180.214,378.112 144.881,383.446 109.5,388.5C 108.833,387.5 108.167,386.5 107.5,385.5C 107.5,384.833 107.5,384.167 107.5,383.5C 143.578,378.632 179.578,373.298 215.5,367.5C 216.7,346.516 217.366,325.516 217.5,304.5 Z" /></g><g><path style="opacity:0.474" fill="#100e05" d="M 341.5,367.5 C 340.5,367.5 339.5,367.5 338.5,367.5C 337.833,368.167 337.167,368.833 336.5,369.5C 331.964,369.85 327.631,369.183 323.5,367.5C 322.791,366.596 321.791,366.263 320.5,366.5C 317.754,363.762 315.42,360.762 313.5,357.5C 314.833,356.5 314.833,355.5 313.5,354.5C 311.734,343.537 316.067,336.037 326.5,332C 347.433,330.931 354.933,340.431 349,360.5C 347.285,363.717 344.785,366.05 341.5,367.5 Z" /></g><g><path style="opacity:1" fill="#f2d647" d="M 338.5,367.5 C 321.884,369.307 314.051,361.973 315,345.5C 320.932,332.967 330.099,329.8 342.5,336C 353.954,348.111 352.621,358.611 338.5,367.5 Z" /></g><g><path style="opacity:0.808" fill="#091015" d="M 509.5,399.5 C 509.5,398.833 509.5,398.167 509.5,397.5C 509.167,397.5 508.833,397.5 508.5,397.5C 502.386,385.211 503.386,373.544 511.5,362.5C 513.749,361.92 515.415,360.587 516.5,358.5C 532.523,350.737 546.023,353.737 557,367.5C 565.284,385.982 560.451,399.815 542.5,409C 529.328,412.795 518.328,409.629 509.5,399.5 Z" /></g><g><path style="opacity:1" fill="#49abec" d="M 509.5,397.5 C 502.095,382.821 504.762,370.321 517.5,360C 530.412,352.975 542.245,354.475 553,364.5C 562.862,378.993 561.362,392.159 548.5,404C 541.075,408.237 533.075,409.57 524.5,408C 518.535,405.867 513.535,402.367 509.5,397.5 Z" /></g><g><path style="opacity:0.823" fill="#a5a5a5" d="M 320.5,366.5 C 321.791,366.263 322.791,366.596 323.5,367.5C 323.816,370.978 323.316,374.312 322,377.5C 320.333,374.833 318.667,374.833 317,377.5C 290.574,411.38 264.407,445.38 238.5,479.5C 237.833,479.5 237.167,479.5 236.5,479.5C 235.5,479.167 234.833,478.5 234.5,477.5C 234.5,476.833 234.5,476.167 234.5,475.5C 260.785,441.376 287.285,407.376 314,373.5C 314.333,371.953 313.833,370.62 312.5,369.5C 315.026,368.103 317.692,367.103 320.5,366.5 Z" /></g><g><path style="opacity:0.826" fill="#a5a5a5" d="M 338.5,367.5 C 339.5,367.5 340.5,367.5 341.5,367.5C 352.593,390.687 363.426,414.02 374,437.5C 375.113,438.711 376.28,438.711 377.5,437.5C 378.509,440.473 378.509,443.473 377.5,446.5C 377.5,447.167 377.5,447.833 377.5,448.5C 377.167,448.5 376.833,448.5 376.5,448.5C 375.833,448.5 375.167,448.5 374.5,448.5C 372.058,446.774 369.391,445.274 366.5,444C 367.551,442.615 368.884,441.615 370.5,441C 358.991,417.152 347.657,393.318 336.5,369.5C 337.167,368.833 337.833,368.167 338.5,367.5 Z" /></g><g><path style="opacity:1" fill="#f2d647" d="M 102.5,377.5 C 104.181,380.203 105.847,382.869 107.5,385.5C 108.165,402.335 100.165,409.501 83.5,407C 73.9515,402.4 70.4515,394.9 73,384.5C 80.4123,371.748 90.2456,369.415 102.5,377.5 Z" /></g><g><path style="opacity:0.686" fill="#110e05" d="M 102.5,375.5 C 102.5,376.167 102.5,376.833 102.5,377.5C 90.2456,369.415 80.4123,371.748 73,384.5C 70.4515,394.9 73.9515,402.4 83.5,407C 100.165,409.501 108.165,402.335 107.5,385.5C 108.167,386.5 108.833,387.5 109.5,388.5C 107.634,405.606 98.3007,412.106 81.5,408C 72.5044,403.171 69.0044,395.671 71,385.5C 75.2241,374.133 83.3908,369.633 95.5,372C 98.1392,372.653 100.473,373.82 102.5,375.5 Z" /></g><g><path style="opacity:0.561" fill="#120f05" d="M 102.5,377.5 C 103.167,377.5 103.833,377.5 104.5,377.5C 106.025,379.216 107.025,381.216 107.5,383.5C 107.5,384.167 107.5,384.833 107.5,385.5C 105.847,382.869 104.181,380.203 102.5,377.5 Z" /></g><g><path style="opacity:0.825" fill="#a5a5a5" d="M 508.5,397.5 C 508.833,397.5 509.167,397.5 509.5,397.5C 509.5,398.167 509.5,398.833 509.5,399.5C 508.705,402.423 507.372,405.09 505.5,407.5C 504.452,406.617 503.285,405.95 502,405.5C 469.075,423.378 436.242,441.378 403.5,459.5C 403.167,459.5 402.833,459.5 402.5,459.5C 402.371,457.784 402.038,456.117 401.5,454.5C 434.593,436.59 467.593,418.424 500.5,400C 499.833,399 499.167,398 498.5,397C 501.868,396.457 505.201,396.624 508.5,397.5 Z" /></g><g><path style="opacity:0.434" fill="#161308" d="M 401.5,454.5 C 402.038,456.117 402.371,457.784 402.5,459.5C 397.228,449.07 388.895,445.404 377.5,448.5C 377.5,447.833 377.5,447.167 377.5,446.5C 387.378,443.792 395.378,446.459 401.5,454.5 Z" /></g><g><path style="opacity:1" fill="#f3d748" d="M 402.5,459.5 C 402.878,476.962 394.545,484.129 377.5,481C 367.208,474.441 364.708,465.607 370,454.5C 372.063,452.266 374.229,450.266 376.5,448.5C 376.833,448.5 377.167,448.5 377.5,448.5C 388.895,445.404 397.228,449.07 402.5,459.5 Z" /></g><g><path style="opacity:0.823" fill="#a5a5a5" d="M 365.5,469.5 C 365.5,470.167 365.833,470.5 366.5,470.5C 367.11,471.391 367.443,472.391 367.5,473.5C 365.186,475.477 362.853,477.477 360.5,479.5C 359.719,478.271 359.219,476.938 359,475.5C 321.582,483.15 284.082,490.484 246.5,497.5C 245.833,496.5 245.167,495.5 244.5,494.5C 244.5,494.167 244.5,493.833 244.5,493.5C 244.5,493.167 244.5,492.833 244.5,492.5C 282.578,485.551 320.578,478.218 358.5,470.5C 357.572,469.232 357.405,467.899 358,466.5C 360.45,467.642 362.95,468.642 365.5,469.5 Z" /></g><g><path style="opacity:1" fill="#d63f7b" d="M 234.5,477.5 C 234.833,478.5 235.5,479.167 236.5,479.5C 239.702,483.908 242.368,488.575 244.5,493.5C 244.5,493.833 244.5,494.167 244.5,494.5C 245.737,517.259 235.07,529.925 212.5,532.5C 191.021,529.561 180.854,517.228 182,495.5C 188.244,476.268 201.41,468.102 221.5,471C 226.139,472.653 230.472,474.819 234.5,477.5 Z" /></g><g><path style="opacity:0.647" fill="#13060b" d="M 215.5,468.5 C 216.391,469.11 217.391,469.443 218.5,469.5C 224.366,470.121 229.699,472.121 234.5,475.5C 234.5,476.167 234.5,476.833 234.5,477.5C 230.472,474.819 226.139,472.653 221.5,471C 201.41,468.102 188.244,476.268 182,495.5C 180.854,517.228 191.021,529.561 212.5,532.5C 235.07,529.925 245.737,517.259 244.5,494.5C 245.167,495.5 245.833,496.5 246.5,497.5C 246.759,516.051 238.092,527.884 220.5,533C 200.369,535.841 187.202,527.674 181,508.5C 178.754,483.331 190.254,469.998 215.5,468.5 Z" /></g><g><path style="opacity:0.624" fill="#120f06" d="M 374.5,448.5 C 375.167,448.5 375.833,448.5 376.5,448.5C 374.229,450.266 372.063,452.266 370,454.5C 364.708,465.607 367.208,474.441 377.5,481C 394.545,484.129 402.878,476.962 402.5,459.5C 402.833,459.5 403.167,459.5 403.5,459.5C 405.463,470.408 401.463,478.241 391.5,483C 380.939,485.767 372.939,482.6 367.5,473.5C 367.443,472.391 367.11,471.391 366.5,470.5C 365.833,470.5 365.5,470.167 365.5,469.5C 364.053,460.486 367.053,453.486 374.5,448.5 Z" /></g><g><path style="opacity:0.182" fill="#0e0307" d="M 236.5,479.5 C 237.167,479.5 237.833,479.5 238.5,479.5C 241.838,483.179 243.838,487.512 244.5,492.5C 244.5,492.833 244.5,493.167 244.5,493.5C 242.368,488.575 239.702,483.908 236.5,479.5 Z" /></g></svg>