<svg xmlns="http://www.w3.org/2000/svg" version="1.1" viewBox="0 0 4000 4000" height="100" width="100"><defs><style>      .cls-1 {        fill: #231f20;      }    </style></defs><!-- Generator: Adobe Illustrator 28.6.0, SVG Export Plug-In . SVG Version: 1.2.0 Build 709)  --><g><g id="Layer_1"><g><path class="cls-1" d="M2636.32,1443.2c269.66,0,488.26,218.6,488.26,488.26s-218.6,488.26-488.26,488.26v399.48c490.29,0,887.74-397.46,887.74-887.74s-397.46-887.74-887.74-887.74v399.48Z" /><path class="cls-1" d="M2636.32,2100.13c93.15,0,168.67-75.52,168.67-168.67s-75.52-168.67-168.67-168.67v337.34Z" /></g><g><path class="cls-1" d="M271.23,1548.38h147.29v1339.45c0,157.58-19.65,275.33-58.91,353.29-39.3,77.92-101.89,116.92-187.79,116.92-9.84,0-19.04-.44-27.62-1.27-8.6-.87-17.81-2.14-27.62-3.81v-172.83c34.35,0,61.68-7.23,81.93-21.6,20.25-14.42,35.9-36.85,46.95-67.35,11.05-30.5,18.09-69.06,21.17-115.64,3.05-46.62,4.6-101.27,4.6-163.94v-1263.2ZM239.93,1162.05c0-38.96,9.49-72.44,28.54-100.4,19.01-27.96,43.27-41.94,72.72-41.94s54.6,13.98,75.49,41.94c20.86,27.96,31.3,61.44,31.3,100.4s-10.44,71.17-31.3,96.58c-20.89,25.42-46.03,38.12-75.49,38.12s-53.71-12.71-72.72-38.12c-19.04-25.42-28.54-57.58-28.54-96.58Z" /><path class="cls-1" d="M1329.86,2366.79c0-71.17-15.36-129.19-46.03-174.1-30.69-44.88-69.04-84.71-115.07-119.46-46.03-34.71-96.05-67.35-150.05-97.85-54.03-30.5-104.02-67.35-150.05-110.56-46.03-43.21-84.4-96.58-115.07-160.12-30.69-63.54-46.03-144.44-46.03-242.73,0-138.92,34.98-249.08,104.94-330.41,69.96-81.33,169.38-122,298.26-122,74.85,0,142.97,7.62,204.36,22.87,61.36,15.25,109.23,34.75,143.61,58.46l-46.03,188.08c-28.25-19.22-69.67-37.61-124.27-55.08-54.63-17.47-116.3-26.25-185.03-26.25-81.01,0-141.76,25.02-182.27,74.98-40.5,50-60.76,108.89-60.76,176.65s15.33,121.17,46.03,165.21c30.67,44.08,69.04,83.48,115.07,118.19,46.03,34.75,96.02,69.06,150.05,102.94,54,33.91,104.02,73.31,150.05,118.19,46.03,44.92,84.37,98.73,115.07,161.4,30.67,62.71,46.03,140.66,46.03,233.83,0,76.25-9.84,144.87-29.46,205.87-19.65,61-48.5,113.54-86.53,157.58-38.06,44.08-84.09,77.96-138.08,101.67-54.03,23.71-115.39,35.58-184.11,35.58-92.05,0-168.17-9.77-228.3-29.23-60.15-19.46-106.78-41.06-139.92-64.81l51.55-188.08c28.22,21.44,69.96,42.49,125.19,63.1,55.23,20.65,117.2,30.94,185.95,30.94,40.5,0,78.53-5.48,114.15-16.52,35.59-11,66.28-28.79,92.05-53.37,25.78-24.54,46.31-55.48,61.68-92.77,15.33-37.25,23.01-81.33,23.01-132.17Z" /><path class="cls-1" d="M1725.67,1040.05h701.46v188.08h-548.64v582.04h502.62v188.08h-502.62v632.87h557.85v188.08h-710.66v-1779.15Z" /><path class="cls-1" d="M3730.61,1040.05h152.81v1779.15h-152.81v-1779.15Z" /></g></g></g></svg>