<svg id="Calque_2" data-name="Calque 2" xmlns="http://www.w3.org/2000/svg" viewBox="0 0 1982.7 889.36" height="71" width="160"><defs><style>      .cls-1 {        fill: #b95435;      }      .cls-2 {        fill: #9f3c29;      }      .cls-3 {        fill: #f28d4f;      }      .cls-4 {        fill: #711517;      }      .cls-5 {        fill: #d46f41;      }    </style></defs><g id="Calque_1-2" data-name="Calque 1"><g><g><path class="cls-4" d="M509.61,478.82c-.39-1.35-1.55-2.42-3.49-3.2-2.33-1.55-5.73-2.81-10.19-3.79-4.47-.96-10-1.46-16.6-1.46-11.65,0-22.24,2.04-31.75,6.12-9.52,4.08-18.06,10.69-25.63,19.8-7.57,9.13-14.85,20.88-21.84,35.24h-10.49v-48.93c0-1.55-.29-2.72-.87-3.5-.58-.78-1.27-1.46-2.04-2.04-.78-.58-1.95-.88-3.49-.88h-58.25v304.65c0,1.16.09,2.14.29,2.91.19.79.58,1.46,1.16,2.04.58.58,1.26.98,2.04,1.16.77.21,1.75.29,2.91.29h58.25v-202.99c6.57-8.66,12.99-16.21,19.22-22.44,9.32-9.32,18.93-16.31,28.83-20.97,9.9-4.66,21.06-6.99,33.49-6.99,6.21,0,11.74.39,16.6,1.17,4.85.78,9.22,1.75,13.1,2.91h9.32v-54.17c0-1.94-.2-3.59-.58-4.95Z" /><path class="cls-4" d="M593.49,780.85v-248.73h-48.35c-1.95,0-3.49-.58-4.66-1.75-1.17-1.16-1.75-2.72-1.75-4.66v-49.51h110.09c1.55,0,2.71.29,3.49.88.77.58,1.46,1.36,2.04,2.33.58.98.87,2.04.87,3.21v304.64h-55.34c-1.56,0-3.01-.58-4.37-1.75-1.37-1.17-2.04-2.72-2.04-4.66Z" /><path class="cls-4" d="M1096.17,514.65c-3.89-10.09-9.23-18.44-16.02-25.05-6.8-6.6-14.66-11.55-23.59-14.85-8.93-3.3-18.26-4.95-27.96-4.95-11.65,0-22.34,1.95-32.04,5.82-9.71,3.89-18.55,9.61-26.51,17.19-7.96,7.57-15.63,17.38-23.01,29.41h-11.6c-.75-3.03-1.61-5.96-2.67-8.73-3.7-9.7-8.94-17.77-15.73-24.18-6.8-6.41-14.76-11.26-23.88-14.56-9.13-3.3-19.32-4.95-30.58-4.95s-21.17,2.04-30.87,6.12c-9.71,4.08-18.84,10.1-27.38,18.06-8.55,7.96-16.51,17.39-23.88,28.25h-10.35c-1.37-5.7-2.59-10.78-3.63-15.14-1.95-8.16-4.47-18.44-7.57-30.88h-49.51v304.65c0,1.16.09,2.14.29,2.91.19.79.58,1.46,1.16,2.04.58.58,1.26.98,2.04,1.16.77.21,1.75.29,2.91.29h58.25v-205.66c5.82-8.7,11.65-16.32,17.47-22.67,8.54-9.32,17.18-16.41,25.92-21.26,8.74-4.86,17.18-7.28,25.34-7.28,6.99,0,12.71,1.26,17.18,3.79,4.46,2.53,7.76,6.61,9.9,12.23,2.13,5.64,3.2,12.73,3.2,21.26v213.19c0,1.56.29,2.72.87,3.49.58.79,1.36,1.46,2.33,2.04.96.58,2.04.88,3.2.88h58.83v-208.04c4.9-7.82,9.93-14.75,15.15-20.59,8.16-9.12,16.5-16.11,25.05-20.97,8.54-4.86,17.08-7.28,25.63-7.28,11.65,0,20.1,3.11,25.34,9.32,5.24,6.22,7.86,16.12,7.86,29.71v211.45c0,1.56.29,2.72.88,3.49.58.79,1.35,1.46,2.33,2.04.96.58,2.04.88,3.2.88h58.25v-237.08c0-13.59-1.95-25.43-5.82-35.53Z" /><path class="cls-4" d="M1413.63,733.08h-5.82c-3.5,0-6.51-.38-9.03-1.17-2.53-.77-4.76-1.93-6.7-3.49-1.56-1.94-2.82-4.46-3.79-7.57-.98-3.1-1.46-6.99-1.46-11.65v-124.66c0-20.58-2.53-38.05-7.57-52.42-5.05-14.36-12.81-26.11-23.3-35.24-10.49-9.12-23.88-15.82-40.19-20.1-16.31-4.27-35.73-6.41-58.25-6.41-15.53,0-30.58,1.17-45.14,3.5-14.57,2.33-26.9,5.05-36.99,8.15-10.1,3.11-16.31,5.82-18.64,8.16-.39.39-.78.98-1.16,1.75-.39.78-.58,1.95-.58,3.5v48.35h9.9c10.09-3.5,20.1-6.41,30-8.73,9.9-2.33,20-4.08,30.29-5.24,10.29-1.17,21.06-1.75,32.33-1.75,17.08,0,30.48,1.66,40.19,4.95,9.7,3.3,16.69,8.93,20.97,16.89,4.27,7.96,6.41,18.93,6.41,32.91v25.05h-100.78c-13.98,0-26.6,1.95-37.86,5.82-11.27,3.89-20.88,9.42-28.84,16.6-7.96,7.19-14.08,15.83-18.35,25.92-4.27,10.1-6.41,21.55-6.41,34.37v19.23c0,17.09,3.59,31.85,10.78,44.27,7.18,12.44,17.38,22.05,30.58,28.84,13.2,6.79,28.93,10.19,47.18,10.19,15.14,0,28.93-2.14,41.36-6.41,12.42-4.27,23.39-10.57,32.91-18.93,9.51-8.35,17.19-18.35,23.01-30h8.24c.79,3.78,1.78,7.41,3.12,10.78,3.29,8.35,7.95,15.44,13.98,21.26,6.02,5.82,13.01,10.19,20.97,13.11,7.95,2.91,16.98,4.37,27.09,4.37h24.46c1.94,0,3.5-.58,4.66-1.75,1.16-1.17,1.75-2.72,1.75-4.66v-47.76h-9.32ZM1302.37,717.35c-10.88,7.38-21.85,12.63-32.91,15.73-11.07,3.11-22.82,4.66-35.24,4.66-13.21,0-23.11-3-29.71-9.03-6.61-6.01-9.9-14.65-9.9-25.92v-18.64c0-5.43.88-10.19,2.62-14.27,1.75-4.07,3.98-7.66,6.7-10.77,3.49-3.5,7.66-6.02,12.52-7.57,4.86-1.55,10.78-2.33,17.77-2.33h90.87v49.24c-7.75,7.53-15.34,13.9-22.72,18.91Z" /><path class="cls-4" d="M280.77,733.08h-5.82c-3.5,0-6.51-.38-9.03-1.17-2.53-.77-4.76-1.93-6.7-3.49-1.56-1.94-2.82-4.46-3.79-7.57-.98-3.1-1.46-6.99-1.46-11.65v-124.66c0-20.58-2.53-38.05-7.57-52.42-5.05-14.36-12.81-26.11-23.3-35.24-10.49-9.12-23.88-15.82-40.19-20.1-16.31-4.27-35.73-6.41-58.25-6.41-15.53,0-30.58,1.17-45.14,3.5-14.57,2.33-26.9,5.05-36.99,8.15-10.1,3.11-16.31,5.82-18.64,8.16-.39.39-.78.98-1.16,1.75-.39.78-.58,1.95-.58,3.5v48.35h9.9c10.09-3.5,20.1-6.41,30-8.73,9.9-2.33,20-4.08,30.29-5.24,10.29-1.17,21.06-1.75,32.33-1.75,17.08,0,30.48,1.66,40.19,4.95,9.7,3.3,16.69,8.93,20.97,16.89,4.27,7.96,6.41,18.93,6.41,32.91v25.05h-100.78c-13.98,0-26.6,1.95-37.86,5.82-11.27,3.89-20.88,9.42-28.84,16.6-7.96,7.19-14.08,15.83-18.35,25.92-4.27,10.1-6.41,21.55-6.41,34.37v19.23c0,17.09,3.59,31.85,10.78,44.27,7.18,12.44,17.38,22.05,30.58,28.84,13.2,6.79,28.93,10.19,47.18,10.19,15.14,0,28.93-2.14,41.36-6.41,12.42-4.27,23.39-10.57,32.91-18.93,9.51-8.35,17.19-18.35,23.01-30h8.24c.79,3.78,1.78,7.41,3.12,10.78,3.29,8.35,7.95,15.44,13.98,21.26,6.02,5.82,13.01,10.19,20.97,13.11,7.95,2.91,16.98,4.37,27.09,4.37h24.46c1.94,0,3.5-.58,4.66-1.75,1.16-1.17,1.75-2.72,1.75-4.66v-47.76h-9.32Z" /></g><path class="cls-3" d="M169.51,717.35c-10.88,7.38-21.85,12.63-32.91,15.73-11.07,3.11-22.82,4.66-35.24,4.66-13.21,0-23.11-3-29.71-9.03-6.61-6.01-9.9-14.65-9.9-25.92v-18.64c0-5.43.88-10.19,2.62-14.27,1.75-4.07,3.98-7.66,6.7-10.77,3.49-3.5,7.66-6.02,12.52-7.57,4.86-1.55,10.78-2.33,17.77-2.33h90.87v49.24c-7.75,7.53-15.34,13.9-22.72,18.91Z" /><g><path class="cls-4" d="M1700.14,447.04s-6.01,11.2-17.37,13.47c0,0-4.54.49-4.87,5.52,0,0,2.76,8.76-1.95,13.63,0,0-4.06,3.9-1.95,11.69,0,0-1.62,4.22.81,6.98,0,0,2.92,1.79,3.08,2.76,0,0,5.68-3.25,8.44-2.76,0,0,6.82-14.93,11.69-27.43,0,0,3.73-6,4.38-12.66l1.14,2.6s4.87-5.52-1.14-15.26c0,0-2.11-.49-2.27,1.46Z" /><g><path class="cls-3" d="M1324.24,404.79c.46,0-.1.09-.27.09-.09,0-.08-.02.19-.09.03,0,.06,0,.08,0M1477.89,20.82c6.98,0,13.33,4.36,15.75,11.07l3.03,8.4c1.46,4.04.88,8.63-1.83,11.96-4.86,5.97-2.5,14.98,4.71,17.78l67.84,26.29c1.99.77,4.04,1.14,6.05,1.14,7.08,0,13.7-4.52,15.97-11.7,1.7-5.36,5.97-9.5,11.37-11.05l14.98-4.28c1.51-.43,3.06-.64,4.6-.64,2.68,0,5.35.64,7.77,1.91l41.3,21.6c2.47,1.29,5.2,2.08,7.98,2.11.36,0,.73,0,1.09-.02l58.53-3.24c.31-.02.63-.03.94-.03,7.99,0,14.93,5.68,16.45,13.61l4.95,25.94c.12.6-.46,1.11-1.04.91l-5.41-1.8c-.7-.23-3.74,1.49-3.37,2.13l76.29,143.69c1.42,2.48,3.44,4.56,5.89,6.04l27.29,16.49c3.76,2.27,6.52,5.86,7.76,10.07l4.42,15.02c2.13,7.25,8.78,12.03,16.06,12.03,1.17,0,2.36-.12,3.55-.38l49.55-10.71c1.19-.26,2.38-.38,3.55-.38,7.07,0,13.57,4.5,15.89,11.46l1.29,3.88c1.61,4.83.94,10.13-1.83,14.4l-52.72,81.52c-1.46,2.26-3.44,4.13-5.78,5.46l-55.57,31.63c-3.91,2.23-6.76,5.93-7.91,10.27l-16.59,62.67c-.62,2.34-.75,4.77-.38,7.16l11.03,71.67c.82,5.31-.96,10.69-4.79,14.47l-63.75,62.95c-3.45,3.41-5.26,8.15-4.95,13l1.14,17.8c.39,6.07-2.39,11.91-7.35,15.44l-21.35,15.18c-3.93,2.79-5.84,7.64-4.87,12.36l.75,3.69c.77,3.77-.42,7.68-3.17,10.38l-20.86,20.53c-.77.76-1.47,1.58-2.08,2.46l-16.43,23.54c-2.24,3.21-5.53,5.53-9.3,6.57l-89.88,24.67c-1.48.41-2.97.6-4.44.6-6.44,0-12.49-3.73-15.26-9.85l-84.92-187.62c-.99-2.18-1.26-4.61-.78-6.96l7.39-97.75c.02-.27.06-.54.12-.81.85-3.71,4.55-16.73,2.92-19.16l-34.69-64.66c-1.33-1.97-2-4.31-1.93-6.68l1.44-49.26c.23-7.93-5.13-14.94-12.85-16.78l-25.66-6.13c-3.33-.8-6.36-2.55-8.71-5.05l-12.2-12.98c-2.18-2.31-5.19-3.58-8.28-3.58-.92,0-1.84.11-2.76.34-.04,0-.08.02-.12.04l-59.4,23.07c-.11.04-.23.06-.35.05l-75.88-5.36c-.07,0-.14,0-.21,0-3.14,0-6.14-1.3-8.3-3.6l-87.85-93.74c-2.78-2.96-4.44-6.8-4.71-10.85l-1.54-23.19c-.12-1.75.03-3.51.44-5.21l21.84-92.06c.86-3.6,2.88-6.82,5.76-9.15l82.62-66.88c2.06-1.67,3.69-3.8,4.77-6.22l13.37-30.07c1.42-3.19,3.79-5.85,6.79-7.62l40.45-23.88c2.6-1.53,5.55-2.33,8.52-2.33,1.21,0,2.42.13,3.62.4l38.69,8.57c1.19.26,2.41.4,3.62.4.73,0,1.46-.05,2.19-.14l97.51-12.88c.74-.1,1.47-.15,2.2-.15M1477.89,0c-1.64,0-3.3.11-4.93.33l-96.65,12.77c-.09.01-.19,0-.28-.01l-37.86-8.39c-2.66-.59-5.4-.89-8.12-.89-6.72,0-13.32,1.81-19.11,5.22l-40.45,23.88c-6.77,3.99-12.04,9.91-15.23,17.09l-12.89,29.01c-.05.12-.13.22-.23.3l-81.71,66.15c-6.42,5.2-11.01,12.49-12.92,20.53l-21.84,92.06c-.89,3.73-1.21,7.57-.95,11.4l1.55,23.47c.57,8.65,4.15,16.89,10.08,23.21l88.05,93.95c5.93,6.33,14.26,10.02,22.92,10.17l57.4,4.05c.38.03.69.32.74.7h0c.05.4.39.7.8.7h17.71c.22,0,.43,0,.65,0l2.55.18c.12,0,.24,0,.35-.05l2.23-.86s.04-.01.06-.02c1.49-.4,2.91-.96,4.24-1.65.02-.01.04-.02.06-.03l49.53-19.24c.31-.12.65-.04.88.2l7.41,7.88c5.13,5.46,11.75,9.29,19.04,11.03l21.81,5.21c.37.09.63.42.62.81l-1.32,45.3c-.18,6.33,1.46,12.46,4.77,17.83l31.58,58.86c.09.17.12.36.08.55-.51,2.38-1.2,5.13-1.5,6.34-.32,1.28-.59,2.35-.75,3.08-.36,1.58-.48,2.88-.55,3.72l-7.31,96.74c-.94,6.16-.08,12.38,2.5,18.1l84.92,187.62c6.07,13.41,19.51,22.08,34.23,22.08,3.36,0,6.7-.45,9.95-1.34l89.88-24.67c8.44-2.32,15.85-7.55,20.86-14.73l16.22-23.24s.06-.08.1-.11l20.59-20.26c7.24-7.12,10.64-17.09,9.35-27.05-.04-.29.08-.58.32-.75l16.43-11.68c10.84-7.7,16.91-20.47,16.06-33.73l-1-15.59c-.01-.23.07-.46.24-.62l62.17-61.39c8.55-8.44,12.56-20.57,10.74-32.45l-10.9-70.83c-.02-.11-.01-.22.02-.33l15.85-59.88c.06-.21.19-.39.38-.49l53.79-30.62c5.22-2.97,9.7-7.21,12.96-12.25l52.51-81.2c6.33-9.79,7.87-21.92,4.18-32.97l-1.17-3.51c-5.12-15.37-19.44-25.69-35.63-25.69-2.66,0-5.34.29-7.95.85l-45.13,9.76c-.41.09-.82-.15-.94-.56l-3.23-10.98c-2.66-9.03-8.56-16.69-16.61-21.55l-26.48-16c-.12-.07-.21-.17-.28-.29l-56.55-101.19h0l-6.67-34.89-5.21-27.28c-3.38-17.69-18.9-30.52-36.89-30.52-.69,0-1.39.02-2.08.06l-57.19,3.16c-.14,0-.29-.02-.42-.09l-40.5-21.18c-5.35-2.8-11.38-4.28-17.41-4.28-3.49,0-6.96.49-10.32,1.45l-14.98,4.28c-10.51,3-19.06,10.34-23.64,20.06-.18.38-.62.56-1.01.41l-52.8-20.46c-.39-.15-.59-.57-.47-.97,1.84-6.42,1.69-13.36-.64-19.82l-3.28-9.08c-5.36-14.85-19.56-24.83-35.33-24.83h0Z" /><path class="cls-5" d="M1369.06,388.34c.29,0,.07.05-.1.07-.04,0-.09,0-.11,0-.07,0-.07-.02.15-.07.02,0,.04,0,.06,0M1497.12,78.61c5.58,0,10.85,4.21,12.79,9.57l1.85,5.2.91,2.34c1.1,3.04.89,6.6-1.18,9.08-4,4.78-1.35,12.37,4.46,14.62l48.41,18.76,8.32,2.92c1.6.62,3.41.82,5.02.82,5.66,0,11.66-3.95,13.48-9.69,1.36-4.28,5.35-7.88,9.67-9.11l12.14-3.34c1.21-.34,2.48-.5,3.71-.5,2.15,0,4.35.55,6.29,1.56l33.87,17.71c.9.47,1.89.86,2.86,1.11,1.1.29,2.27.44,3.41.44.25,0,.49,0,.74-.02l47.51-2.44c.25-.01.5-.02.75-.02,6.39,0,12.25,4.61,13.46,10.95l3.45,17.52c.41,2.08-1.57,3.84-3.59,3.19l-4-1.28c-2.42-.78-4.53,1.83-3.27,4.04l66.12,115.97c1.13,1.99,2.8,3.74,4.76,4.92l22.28,13.74c2.87,1.73,5.06,4.61,6,7.82l3.72,12.45c1.71,5.8,7.18,9.91,13.01,9.91.94,0,1.9-.09,2.85-.29l34.04-6.76,5.96-1.22c.95-.21,1.91-.29,2.85-.29,5.66,0,11.05,3.81,12.91,9.37l1.05,3.12c1.29,3.86.89,8.24-1.32,11.66l-40.17,64.78-.94,1.52c-1.17,1.81-2.88,3.47-4.75,4.53l-45.53,26.7c-3.13,1.78-5.63,5.03-6.55,8.51l-1.37,4.91-12.46,47.08c-.47,1.78-.62,3.83-.34,5.65l2.97,21.19,5.62,38.27c.65,4.25-.79,8.96-3.85,11.99l-14.79,15.45-30.38,30-6.86,6.96c-2.76,2.73-4.36,6.92-4.11,10.79l.75,15.08c.3,4.63-1.99,9.52-5.77,12.21l-.1.07-17.83,13.06c-2.93,2.09-4.56,6.21-3.84,9.74l.65,3.4c.62,3.02-.6,6.4-2.8,8.56l-17,15.88c-.59.58-1.13,1.18-1.6,1.86l-13.41,18.37c-1.79,2.57-4.53,4.19-7.55,5.02l-19.46,4.81-52.41,13.23c-1.17.29-2.36.42-3.53.39-5.04-.13-9.79-3.15-12.03-8.03-.06-.12-.1-.25-.14-.38-1.49-5.11-67.96-152.88-68.56-154.17-.81-1.79-1.05-3.78-.69-5.7-.14-.29,2.38-36.04,2.39-38.84v-.45s.55-9.01.55-9.01l2.35-31.69c.03-.35.08-.68.15-1.02.74-3.2,3.33-13.56,2.05-15.46l-28.68-52.94c-1.06-1.58-1.68-3.55-1.62-5.45l.53-40.22c.19-6.35-4.4-12.34-10.58-13.81l-21.07-5.42c-2.55-.61-4.98-2.1-6.77-4.01l-10.1-10.79c-1.74-1.85-4.24-2.99-6.72-2.99-.75,0-1.52.07-2.27.27l-13.85,4.98-34.42,12.81c-.38.14-.78.2-1.18.17l-22.49-1.68-2.18-.09-37.07-2.82c-.06,0-.11,0-.17,0-2.51,0-5.1-1.09-6.82-2.93l-44.02-45.75-29.02-29.6c-2.12-2.26-3.64-5.12-3.84-8.22l-1.73-18.75c-.09-1.34-.09-2.65.22-3.95l.47-2.22,1.86-8.88,8.24-38.41,5.85-24.66c.83-3.48,2.78-6.59,5.57-8.85l67.3-54.48c1.65-1.33,3-3.1,3.86-5.04l11.01-24.47c1.13-2.55,3.12-4.8,5.53-6.22l30.66-18.38,2.1-1.24c2.08-1.23,4.55-1.86,6.93-1.86.97,0,1.97.11,2.93.32l31.55,6.88c.95.21,1.96.32,2.93.32.59,0,1.19-.04,1.77-.11l9.45-1.22,70.14-9.26c.59-.08,1.18-.12,1.77-.12M1310.99,101.72c-.19.16-10.74,23.68-10.9,23.87-.29.37-37.18,30.49-39.59,32.8l-.35.33-26.42,22.18c-5.14,4.16-8.94,10.56-10.47,16.99l-6.02,25.37-8.66,37.88-2.68,12.55c-.69,2.92-.78,6.1-.58,9.1l1.62,19.27c.46,6.92,3.71,13.92,8.45,18.98l72.51,77.37c4.74,5.06,12.28,8,19.21,8.12l41.39,2.77,7.02.41.15,1.08,15.38-.16c.17,0,.35,0,.52,0l1.66.1c.4.02.8-.04,1.17-.18l1.42-.55c1.17-.31,2.4-.78,3.46-1.31.07-.04.15-.07.22-.1l28.53-10.92,11.36-3.87c1.04-.35,2.18-.07,2.93.73l4.82,5.12c4.39,4.67,10.06,7.95,16.29,9.44l16.62,3.97c1.28.31,2.18,1.47,2.14,2.79l-1.05,36.04c-.15,5.06,1.15,10.68,3.8,14.96l18.21,33.6c.12.18,6.19,11.49,7.93,14.77.3.57.4,1.23.27,1.86-.36,1.77-.79,3.63-.98,4.54-.25,1.06-.45,1.95-.57,2.57-.27,1.3-.36,2.39-.4,3.1.11.47-2.44,34.86-2.54,35.34l-2.96,36.7c-.02.12-.67,8.51-.68,8.63-.77,5.14-.09,10.33,2,15.11.04.36,10.69,24.05,10.84,24.39l36.23,80.04c.34.75,23.57,51.35,24.27,51.68,5.3,10.94,16.53,17.98,28.8,17.98,2.77,0,5.54-.36,8.23-1.09.21-.02,18.27-4.96,18.48-5.01l28.86-7.92,26.65-7.92c3.08-.85,6.18-2.44,8.81-4.19,3.14-2.08,6.18-5.03,8.36-8.15l13.43-18.99c.1-.14.2-.26.32-.38l1-.98,12.77-13.28,2.57-2.5c5.52-5.43,8.82-13.34,8.24-20.98-.07-.96.38-1.89,1.16-2.44l12.9-9.17c8.55-6.08,13.17-17.14,12.5-27.61l-.42-12.27c-.03-.78.27-1.53.83-2.08l51.13-50.49c.9-.89,1.84-1.93,2.61-2.91,5.1-6.49,7.2-15.89,5.93-24.14l-7.31-47.5-1.53-11.02c-.05-.37-.03-.74.07-1.1l12.88-48.67c.18-.69.63-1.29,1.24-1.67h0s44.02-25.06,44.02-25.06c4.18-2.38,8.27-6.06,10.88-10.09l44.18-68.31c3.68-5.69,5-13.18,4.43-19.75-.2-2.33-1-4.6-1.76-6.88l-1.16-3.08c-4.1-12.29-17.23-20.19-30.19-20.19-2.13,0-4.56.29-6.65.74l-6.28,1.36-27.57,4.65-1.18.22c-1.38.26-2.73-.54-3.17-1.87l-2.4-7.28c-1.74-5.91-5.93-11.52-10.66-15.33-1.06-.85-2.26-1.78-3.43-2.49l-21.31-13.52c-.38-.24-.7-.58-.93-.97l-48.28-84.69-.17-1.8c0-.07,0-.13,0-.2l.21-2.86c-.01-.05-.02-.1-.03-.16l-2.11-14.2-1.67-8.75-4.36-22.83c-2.7-14.15-16.54-24.34-30.94-24.34-.55,0-1.14.02-1.69.05l-34.19,1.89-12.59.47c-.48.02-.97-.09-1.4-.32l-33.09-17.3c-1.42-.74-3.05-1.45-4.56-1.95-3.06-1.02-6.63-1.45-9.86-1.45-2.79,0-5.81.46-8.49,1.22l-12.42,3.55c-5.39,1.54-10.42,5.37-14.1,9.36-1.69,1.83-3.46,3.76-4.79,5.93-.69,1.12-2.11,1.56-3.34,1.08l-41.25-15.99c-1.22-.47-1.94-1.72-1.74-3.01.31-2,.29-4.09.26-6.1-.04-2.81-.25-5.98-1.22-8.68l-2.43-7.5c-2.1-5.81-6.23-11.64-11.03-15.1h0c-5.01-3.62-12.17-5.57-18.61-5.57h0c-1.31,0-2.84.11-4.14.29l-49.45,6.53-31.81,3.63c-.27.03-.55.02-.82-.03l-31.51-5.76c-1.33-.29-2.87-.38-4.22-.49-.82-.07-1.69,0-2.52,0-5.37,0-11.02,2.26-15.65,4.99l-6.76,4.29-27.11,16.3c-5.41,3.2-10.46,8.59-13.01,14.34Z" /><path class="cls-1" d="M1413.89,371.9c.22,0,.06.04-.07.05-.03,0-.06,0-.09,0-.05,0-.05-.01.11-.06.02,0,.03,0,.05,0M1516.35,136.4c4.19,0,8.37,4.05,9.82,8.08l1.43,4.1c.02.07.05.13.08.2l.69,1.57c.03.08.07.16.1.24.79,2.26,1.1,5.05-.43,6.88-3,3.58-.05,9.65,4.31,11.34l38.84,15.05c.07.03.14.05.22.07l6.56,1.95c1.2.46,2.78.51,3.99.51,4.25,0,9.61-3.38,10.98-7.69,1.02-3.21,4.72-6.25,7.97-7.18l9.31-2.4c.91-.26,1.89-.36,2.82-.36,1.61,0,3.36.46,4.81,1.22l26.04,13.62c.68.35,1.47.67,2.2.86.83.22,1.73.34,2.59.34.18,0,.37,0,.56-.02l36.49-1.64c.19-.01.38-.01.56-.01,4.79,0,9.56,3.54,10.47,8.3l2.55,12.39c.43,2.1-1.53,3.9-3.59,3.29h0c-2.45-.73-4.54,1.9-3.28,4.12l50.29,88.21c.85,1.49,2.16,2.91,3.63,3.8l17.01,10.82c2.15,1.3,3.88,3.62,4.59,6.03l2.93,9.58c1.28,4.35,5.59,7.78,9.96,7.78.7,0,1.43-.05,2.14-.21l25.92-4.39,4.54-.84c.71-.15,1.45-.21,2.15-.21,4.24,0,8.54,3.11,9.93,7.28l.81,2.36c.97,2.9.84,6.36-.82,8.93l-28.82,49.92-.6,1.06c-.04.07-.08.13-.12.2-.88,1.33-2.29,2.73-3.65,3.51l-35.49,21.78c-2.34,1.34-4.5,4.13-5.19,6.74l-1.16,3.86-9.87,37.29c-.35,1.34-.53,3.11-.32,4.47l1.99,16.76,4.13,30.31c.49,3.19-.62,7.24-2.92,9.5l-10.89,12.42c-.04.05-.09.1-.14.15l-24,23.7-5.29,5.6c-2.07,2.05-3.46,5.69-3.27,8.59l.34,11.91c.22,3.48-1.7,7.68-4.54,9.7l-.08.06-13.64,10.46c-2.2,1.56-3.67,5.29-3.13,7.94l.44,2.59c.46,2.26-.78,5.13-2.43,6.75l-13.08,11.18c-.44.43-.86.85-1.22,1.36l-10.35,13.14c-1.32,1.89-3.46,2.82-5.68,3.44-.07.02-.15.04-.23.05l-14.75,2.99-39,8.39c-.87.18-1.76.24-2.63.17-3.82-.27-7.4-2.77-9.03-6.71.38-2.86-51.03-118.37-52.25-120.98-.63-1.4-.84-2.95-.6-4.44-.28-.57,1.39-27.44,1.19-30.13l-.02-.57.24-6.85,1.79-24.83.13-.89c.54-2.47,2.18-10.53,1.23-11.95l-22.67-41.22c-.8-1.18-1.36-2.79-1.32-4.21l-.39-31.19c.14-4.76-3.67-9.73-8.3-10.84l-16.25-4.65c-1.91-.46-3.88-1.77-5.23-3.2l-7.83-8.43c-1.31-1.39-3.3-2.39-5.16-2.39-.56,0-1.16.03-1.72.18l-10.68,3.35-26.82,9.3c-.37.13-.77.18-1.16.15l-17.34-1.41c-.08,0-.16,0-.24,0h-1.41c-.08,0-.16,0-.25,0l-28.83-2.44s-.09,0-.13,0c-1.88,0-4.05-.88-5.34-2.26l-34.99-34.89-22.97-21.79c-.05-.05-.11-.1-.16-.16-1.56-1.68-2.96-3.72-3.11-6l-1.89-13.91c-.07-1-.2-1.95.03-2.93l.27-1.64,1.09-6.66,5.29-29.66c0-.05.02-.1.03-.16l4.4-18.54c.61-2.59,2.81-6.07,4.87-7.74l52.37-42.39c1.24-1,2.31-2.4,2.96-3.86l8.65-18.87c.85-1.91,2.46-3.75,4.26-4.81l23.49-14.44,1.59-.93c1.56-.92,3.56-1.39,5.35-1.39.73,0,1.52.08,2.24.24l24.42,5.19c.72.16,1.51.24,2.24.24.44,0,.91-.03,1.35-.09l7.32-.9,54.36-7.18c.44-.06.89-.09,1.33-.09M1366.71,153.44c-.39.31-8.52,18.18-8.82,18.56-.58.74-28.66,23.99-30.48,26.2l-.35.37-20.02,17.79c-3.85,3.12-6.88,8.64-8.02,13.46l-4.73,19.92-6.4,29.76-1.71,9.73c-.52,2.19-.38,4.8-.23,7.05l1.68,14.95c.34,5.19,3.26,10.95,6.81,14.75l56.97,60.79c3.56,3.8,10.31,5.98,15.51,6.07l33.17,2.04,5.61.22.12.81,12.51-.33h.32s1.11.05,1.11.05c.38.02.77-.05,1.13-.18l.89-.34c.07-.03.15-.05.22-.07.84-.23,1.83-.59,2.6-.98.08-.04.16-.07.24-.11l22.76-8.52c.08-.03.17-.06.26-.08l8.56-2.3c1.01-.27,2.08.03,2.8.8l3.55,3.77c3.39,3.61,7.77,6.15,12.59,7.3l13.52,3.23c1.31.31,2.21,1.5,2.17,2.84l-.83,28.36c-.11,3.8.84,8.89,2.82,12.1l14.75,26.83c.24.35,4.84,8.93,6.29,11.7.29.55.38,1.17.28,1.77-.24,1.36-.51,2.75-.63,3.49-.17.84-.31,1.55-.39,2.06-.16.88-.23,1.64-.25,2.21v.36c.13,1.89-1.62,26.19-1.87,28.12l-.04.37-2.58,29.1c-.05.24-.55,6.68-.57,6.92-.54,3.71-.18,7.45,1.06,10.96l.56,1.54c1.01,2.72,8.08,18.61,8.37,19.24l29.04,64.16c.67,1.47,18.03,38.45,20.12,40.72.12.13.22.28.31.44,4.58,8.27,13.5,13.54,23.19,13.54,2.19,0,4.38-.28,6.51-.83.41-.03,14.22-3.78,14.63-3.9l22.75-6.24s.1-.03.14-.04l20.56-6.84c2.31-.63,4.86-2.16,6.84-3.47,2.35-1.56,4.99-4.13,6.63-6.47l10.74-14.89c.09-.13.2-.25.31-.36l.69-.68s.09-.1.14-.15l9.28-10.54c.05-.06.11-.12.16-.17l1.95-1.87c4.06-4,7.2-10.26,6.99-15.97-.04-.95.41-1.85,1.18-2.4l9.96-7.08c6.41-4.56,9.79-14.35,9.28-22.2l.11-9.42c0-.75.31-1.46.84-1.98l40.74-40.23c.67-.66,1.51-1.58,2.09-2.31,3.82-4.87,5.21-13.15,4.26-19.34l-5.84-37.93-1-8.68c-.04-.35-.01-.71.08-1.05l10.51-39.7.73-.5,35.13-20c3.13-1.78,6.85-4.91,8.8-7.93l35.64-55.11c2.76-4.27,3.39-10.97,2.96-15.9-.15-1.72-1.1-3.3-1.67-4.97-.02-.07-.05-.13-.08-.19l-.94-2.1c-.02-.06-.05-.11-.07-.17-3.12-9.17-15.03-14.6-24.71-14.6-1.6,0-3.79.3-5.35.64l-4.89,1.06c-.11.02-.23.04-.34.05l-20.88,1.92c-.05,0-.11.01-.16.02l-.49.07c-1.32.2-2.59-.54-3.07-1.79l-2.07-5.39c-1.3-4.43-5.35-9.18-8.9-12.05-.79-.64-1.8-1.52-2.68-2.05l-16.59-11.29c-.36-.24-.65-.56-.87-.94l-38.86-68.17-.21-.93c-.06-.27-.08-.56-.06-.84l.17-2.03c-.03-.14-.05-.28-.06-.43l-.74-10.06c0-.11-.02-.22-.04-.32l-1.32-6.92-3.51-18.37c-2.03-10.61-14.19-18.16-24.99-18.16-.41,0-.89.01-1.3.04l-27.11,1.5-9.81.09c-.47,0-.93-.11-1.34-.32l-26.15-13.68c-1.07-.56-2.47-1.18-3.61-1.56-2.3-.76-5.39-.97-7.82-.97-2.09,0-4.66.43-6.67,1l-9.86,2.82c-4.05,1.16-8.15,5.11-10.91,8.1-1.21,1.31-2.8,2.55-3.96,4.01-.76.96-2.07,1.28-3.21.84l-33.11-12.83c-1.1-.43-1.86-1.49-1.83-2.67.05-1.5-.23-3.1-.25-4.53-.03-2.11.18-4.92-.55-6.95l-1.54-5.77c-.03-.1-.05-.19-.09-.28-1.6-4.34-5.08-9.8-8.65-12.37h0c-3.76-2.71-10.42-4-15.25-4h0c-.99,0-2.37.12-3.35.25l-40.36,5.33-25.89,2.29c-.2.02-.4.01-.6-.01l-25.53-3.22c-.99-.22-2.4-.14-3.41-.22-.62-.05-1.32.11-1.94.11-3.99,0-8.63,2.66-12.09,4.7-.07.04-.13.08-.19.12l-5.13,3.6s-.09.06-.14.09l-21.93,13.53c-4.06,2.4-8.88,7.28-10.79,11.6Z" /><path class="cls-2" d="M1458.72,355.46c.15,0,.05.02-.04.03-.02,0-.04,0-.06,0-.03,0-.04,0,.07-.04.01,0,.02,0,.03,0M1535.58,194.19c2.79,0,5.89,3.9,6.86,6.58l1.08,3.2.65,1.24c.55,1.52,1.44,3.68.4,4.92-2,2.39,1.25,6.93,4.16,8.05l29.48,11.42,5.02,1.05c.8.31,2.16.2,2.96.2,2.83,0,7.57-2.81,8.48-5.68.68-2.14,4.1-4.62,6.26-5.24l6.47-1.46c.6-.17,1.31-.21,1.93-.21,1.07,0,2.36.37,3.33.88l18.22,9.53c.45.24,1.04.48,1.53.61.55.14,1.19.23,1.76.23.12,0,.25,0,.37,0l25.47-.85c.13,0,.25,0,.38,0,3.2,0,6.88,2.47,7.49,5.64l2.65,11.91h0c-2.74-.7-4.98,2.24-3.58,4.7l34.19,59.96c.57.99,1.52,2.08,2.5,2.68l11.73,7.9c1.43.87,2.71,2.63,3.19,4.24l2.13,6.71c.85,2.9,3.99,5.66,6.91,5.66.47,0,.96-.02,1.44-.12l17.79-2.03,3.12-.46c.48-.1.98-.12,1.45-.12,2.83,0,6.02,2.41,6.95,5.19l.56,1.6c.64,1.93.8,4.48-.31,6.19l-17.48,35.06-.39.81c-.58.9-1.75,2.14-2.69,2.67l-25.46,16.85c-1.56.89-3.36,3.23-3.82,4.97l-.95,2.8-7.28,27.5c-.24.89-.43,2.38-.29,3.29l1.02,12.34,2.64,22.36c.33,2.12-.45,5.51-1.98,7.02l-7.12,9.55-17.77,17.55-3.72,4.24c-1.38,1.36-2.56,4.45-2.43,6.39l-.08,8.74c.15,2.32-1.41,5.84-3.3,7.19l-.06.05-9.44,7.87c-1.47,1.04-2.78,4.37-2.42,6.14l.24,1.78c.31,1.51-.96,3.85-2.06,4.93l-9.16,6.47c-.29.29-.59.53-.83.86l-7.29,7.9c-.9,1.28-2.53,1.52-4.04,1.93l-10.27,1.22-25.58,3.56c-.57.07-1.15.05-1.72-.04-2.5-.4-4.86-2.29-5.91-5.14.58-4.29-34.08-83.74-35.91-87.65-.46-1.01-.63-2.11-.51-3.19-.44-.9.5-20.84-.07-21.68l-.05-5.13,1.25-18.21.05-.35c.33-1.52,1.09-7.63.44-8.6l-16.66-29.5c-.53-.79-1.03-2.03-1.01-2.98l-1.3-22.15c.09-3.17-2.94-7.13-6.03-7.87l-11.43-3.87c-1.27-.3-2.79-1.44-3.68-2.4l-5.57-6.07c-.87-.93-2.36-1.8-3.6-1.8-.38,0-.8,0-1.17.09l-7.51,1.73-19.77,5.97-13-1.21-1.13.1-20.83-2.08s-.06,0-.09,0c-1.26,0-3-.68-3.86-1.6l-25.95-24.02-17.08-14.14c-1.06-1.13-2.44-2.4-2.54-3.95l-2.06-9.07c-.04-.67-.32-1.25-.17-1.91l.08-1.07.32-4.43,2.37-21.07,3.41-14.38c.34-1.44,1.15-2.73,2.3-3.66l38.88-31.48c.82-.67,1.62-1.71,2.05-2.67l6.29-13.26c.57-1.27,1.79-2.7,2.99-3.41l16.32-10.49,1.07-.62c1.04-.61,2.57-.92,3.76-.92.48,0,1.06.06,1.54.16l17.28,3.51c.48.11,1.07.16,1.55.16.29,0,.63-.02.92-.06l5.19-.59,38.58-5.1c.3-.04.6-.06.89-.06M1422.43,205.16c-.58.47-6.29,12.67-6.75,13.25-.9,1.14-21.09,18.29-21.43,19.73l-13.91,13.67c-2.57,2.08-4.81,6.71-5.57,9.93l-3.43,14.46-4.15,21.65-.74,6.92c-.35,1.46.02,3.49.12,4.99l1.74,10.62c.23,3.46,2.81,7.99,5.18,10.51l41.43,44.21c2.37,2.53,8.34,3.96,11.81,4.02l24.95,1.31,4.19.03.1.54,9.3-.49c.09,0,.18,0,.26,0l1.32.02,1.11-.41c.61-.16,1.55-.48,2.09-.76l17.39-6.27,7.59-1.09,3.97,4.22c2.02,2.14,6.76,4.16,9.63,4.84l11.37,2.72-.67,23.02c-.07,2.53.52,7.1,1.85,9.24l11.3,20.06c.41.61,4.78,8.77,5.05,9.45-.12,1.19-.34,2.58-.39,3.31-.1.62-.17,1.15-.21,1.54-.11.76-.13,1.4-.12,1.86.33,1.41-.92,19.83-1.21,21.28l-2.24,22.05c-.07.35-.44,4.85-.47,5.2-.44,3.1-.09,6.23,1,9.14.11,1.09,5.67,13.83,6.13,14.85l21.85,48.27c1.02,2.25,14.11,28.98,16.21,29.97,3.75,5.98,10.58,9.78,17.96,9.78,1.61,0,3.22-.19,4.79-.57.62-.05,10.17-2.61,10.79-2.78l16.78-4.61,14.62-5.82c1.54-.42,3.55-1.88,4.87-2.76,1.57-1.04,3.81-3.23,4.9-4.79l8.19-10.98.69-.68,6.08-8.12,1.5-1.4c2.94-2.89,6.23-8.34,5.65-12.39l8.32-5.91c4.27-3.04,6.4-11.55,6.06-16.78l.72-7.68,31.14-30.75c.45-.44,1.19-1.23,1.57-1.72,2.55-3.25,3.22-10.41,2.59-14.53l-4.36-28.36-.52-6.85,7.98-30.13.51-.41,26.24-14.93c2.09-1.19,5.42-3.76,6.73-5.78l27.1-41.91c1.84-2.84,1.78-8.77,1.49-12.06-.1-1.17-1.28-2.13-1.66-3.27l-.88-1.47c-2.05-6.15-12.82-9.19-19.3-9.19-1.07,0-3.01.3-4.06.53l-3.84.83-14.69-.76-2.07.17-2.61-5.42c-.87-2.95-4.78-6.85-7.14-8.76-.53-.43-1.33-1.25-1.92-1.61l-12.37-9.44-29.75-52.18-.26-1.22-.07-1.84.58-6.6-1.03-5.4-2.66-13.91c-1.35-7.07-11.84-11.97-19.04-11.97-.28,0-.64.01-.91.03l-20.03,1.11-7.72-.3-19.82-10.37c-.71-.37-1.89-.92-2.65-1.17-1.53-.51-4.16-.48-5.78-.48-1.4,0-3.5.4-4.85.78l-7.3,2.09c-2.7.77-5.89,4.85-7.73,6.84-1.09,1.18-3.5,1.97-4.17,3.47l-28.97-11.22c.41-1.31-.67-3.16-.69-4.53-.02-1.4.61-3.86.12-5.22l-.73-4.33c-1.05-2.91-3.96-8.18-6.37-9.91h0c-2.51-1.81-8.67-2.44-11.89-2.44h0c-.66,0-1.9.12-2.55.21l-31.27,4.13-20.17.94-19.75-.68c-.66-.15-1.93.1-2.6.05-.41-.03-.95.23-1.36.23-2.69,0-6.41,3.16-8.73,4.52l-3.82,3.15-16.89,10.85c-2.71,1.6-7.3,5.97-8.58,8.85Z" /><path class="cls-4" d="M1503.54,339.01c.07,0,.03.01-.01.02-.01,0-.02,0-.03,0-.02,0-.03,0,.03-.02,0,0,0,0,.01,0M1478.15,256.89c-.77.63-4.07,7.17-4.68,7.94-1.2,1.52-11.84,11.21-12.29,13.12l-7.54,9.31c-1.28,1.04-2.74,4.78-3.13,6.39l-2.14,9.01-1.9,13.54.23,4.1c-.17.73.42,2.19.47,2.94l1.79,6.3c.11,1.73,2.37,5.02,3.55,6.28l25.89,27.63c1.19,1.27,6.37,1.94,8.1,1.97l16.72.57,2.78-.16.08.26,6.26-.66s.09,0,.13,0l.84-.04.67-.24c.3-.08,1.08-.32,1.35-.46l11.76-3.92,4.86.59,2.64,2.81c1.01,1.07,5.19,2.51,6.62,2.85l7.59,1.81-.45,15.37c-.04,1.27.21,5.31.87,6.38l7.85,13.29c.55.82,3.02,5.44,3.37,6.35.01.78-.03,1.66,0,2.2-.02.39-.03.75-.03,1.03-.03.48,0,.91.02,1.24.45,1.88-.16,12.32-.55,14.24l-1.87,14.73c-.1.47-.32,3.01-.37,3.49-.27,2.08-.1,4.18.5,6.16.14,1.46,3.16,8.72,3.77,10.07l14.66,32.39c1.36,3.01,9.37,17.8,12.18,19.12,2.98,3.51,7.6,5.69,12.53,5.69,1.03,0,2.06-.1,3.06-.31.82-.07,6.12-1.44,6.94-1.66l10.75-2.95,8.61-4.77c.77-.21,2.24-1.61,2.9-2.04.78-.52,2.63-2.33,3.18-3.11l5.51-6.88.44-.44,2.74-5.54.96-.85c1.47-1.45,4.73-5.31,4.43-7.34l5.36-3.81c2.14-1.52,3.01-8.75,2.84-11.36l1.31-4.78,20.72-20.46c.22-.22.86-.88,1.06-1.12,1.27-1.62,1.23-7.67.92-9.73l-2.89-18.8.02-4.49,5.31-20.06.29-.32,17.35-9.87c1.04-.59,4-2.61,4.65-3.62l18.56-28.7c.92-1.42.16-6.56.02-8.21-.05-.58-1.42-.9-1.61-1.47l-.74-.67c-1.02-3.07-10.61-3.68-13.85-3.68-.53,0-2.24.31-2.76.42l-2.62.57-8.25-3.47-1.32-.08-2.33-3.33c-.43-1.48-4.2-4.52-5.38-5.47-.26-.21-.87-.99-1.17-1.17l-7.61-7.22-20.31-35.63h.23s-.73-2.13-.73-2.13l1.92-2.75-.71-3.72-1.81-9.46c-.68-3.54-9.49-5.79-13.08-5.79-.14,0-.39,0-.52.02l-12.95.72-4.91-.7-12.87-6.73c-.36-.19-1.31-.65-1.69-.78-.77-.25-2.93,0-3.74,0-.7,0-2.35.37-3.02.56l-4.74,1.35c-1.35.39-3.63,4.59-4.55,5.58-.55.59-3,.5-3.34,1.25l-20.56-7.97c.2-.65-1.39-1.99-1.4-2.68s1.03-2.8.79-3.48l.12-2.74c-.52-1.45-2.83-6.45-4.03-7.31h0c-1.25-.9-6.92-.88-8.53-.88h0c-.33,0-1.44.12-1.76.17l-22.18,2.93-14.14-.43-13.67,1.9c-.33-.07-1.46.34-1.8.31-.21-.02-.58.35-.78.35-1.34,0-4.11,3.61-5.27,4.29l-2.36,2.58-11.78,8.12c-1.35.8-5.72,4.66-6.36,6.1Z" /></g></g></g></g></svg>