<!DOCTYPE svg PUBLIC "-//W3C//DTD SVG 1.1//EN" "http://www.w3.org/Graphics/SVG/1.1/DTD/svg11.dtd"[]><svg xmlns="http://www.w3.org/2000/svg" version="1.1" width="160" height="157" style="shape-rendering:geometricPrecision; text-rendering:geometricPrecision; image-rendering:optimizeQuality; fill-rule:evenodd; clip-rule:evenodd" xmlns:xlink="http://www.w3.org/1999/xlink" viewBox="0 0 62 61"><g><path style="opacity:1" fill="#b8cddf" d="M -0.5,-0.5 C 20.1667,-0.5 40.8333,-0.5 61.5,-0.5C 61.5,19.8333 61.5,40.1667 61.5,60.5C 40.8333,60.5 20.1667,60.5 -0.5,60.5C -0.5,40.1667 -0.5,19.8333 -0.5,-0.5 Z" /></g><g><path style="opacity:1" fill="#030303" d="M 31.5,57.5 C 31.5,56.1667 31.5,54.8333 31.5,53.5C 38.8333,53.5 46.1667,53.5 53.5,53.5C 53.5,38.1667 53.5,22.8333 53.5,7.5C 38.1667,7.5 22.8333,7.5 7.5,7.5C 7.5,22.8333 7.5,38.1667 7.5,53.5C 14.8333,53.5 22.1667,53.5 29.5,53.5C 29.5,54.8333 29.5,56.1667 29.5,57.5C 20.8333,57.5 12.1667,57.5 3.5,57.5C 3.5,39.5 3.5,21.5 3.5,3.5C 21.5,3.5 39.5,3.5 57.5,3.5C 57.5,21.5 57.5,39.5 57.5,57.5C 48.8333,57.5 40.1667,57.5 31.5,57.5 Z" /></g><g><path style="opacity:1" fill="#fefefe" d="M 31.5,57.5 C 30.8333,57.5 30.1667,57.5 29.5,57.5C 29.5,56.1667 29.5,54.8333 29.5,53.5C 22.1667,53.5 14.8333,53.5 7.5,53.5C 7.5,38.1667 7.5,22.8333 7.5,7.5C 22.8333,7.5 38.1667,7.5 53.5,7.5C 53.5,22.8333 53.5,38.1667 53.5,53.5C 46.1667,53.5 38.8333,53.5 31.5,53.5C 31.5,54.8333 31.5,56.1667 31.5,57.5 Z" /></g><g><path style="opacity:1" fill="#060606" d="M 9.5,9.5 C 10.8333,9.5 12.1667,9.5 13.5,9.5C 13.5,14.8333 13.5,20.1667 13.5,25.5C 18.8333,25.5 24.1667,25.5 29.5,25.5C 29.5,26.8333 29.5,28.1667 29.5,29.5C 22.8333,29.5 16.1667,29.5 9.5,29.5C 9.5,22.8333 9.5,16.1667 9.5,9.5 Z" /></g><g><path style="opacity:1" fill="#030303" d="M 31.5,9.5 C 38.1667,9.5 44.8333,9.5 51.5,9.5C 51.5,16.1667 51.5,22.8333 51.5,29.5C 50.1667,29.5 48.8333,29.5 47.5,29.5C 47.5,24.1667 47.5,18.8333 47.5,13.5C 46.1667,13.5 44.8333,13.5 43.5,13.5C 43.5,18.8333 43.5,24.1667 43.5,29.5C 42.1667,29.5 40.8333,29.5 39.5,29.5C 39.5,24.1667 39.5,18.8333 39.5,13.5C 38.1667,13.5 36.8333,13.5 35.5,13.5C 35.5,18.8333 35.5,24.1667 35.5,29.5C 34.1667,29.5 32.8333,29.5 31.5,29.5C 31.5,22.8333 31.5,16.1667 31.5,9.5 Z" /></g><g><path style="opacity:1" fill="#010101" d="M 9.5,31.5 C 16.1667,31.5 22.8333,31.5 29.5,31.5C 29.5,32.8333 29.5,34.1667 29.5,35.5C 24.1667,35.5 18.8333,35.5 13.5,35.5C 13.5,39.5 13.5,43.5 13.5,47.5C 18.8333,47.5 24.1667,47.5 29.5,47.5C 29.5,48.8333 29.5,50.1667 29.5,51.5C 22.8333,51.5 16.1667,51.5 9.5,51.5C 9.5,44.8333 9.5,38.1667 9.5,31.5 Z" /></g><g><path style="opacity:1" fill="#020202" d="M 31.5,31.5 C 38.1667,31.5 44.8333,31.5 51.5,31.5C 51.5,32.8333 51.5,34.1667 51.5,35.5C 46.1667,35.5 40.8333,35.5 35.5,35.5C 35.5,36.8333 35.5,38.1667 35.5,39.5C 40.8333,39.5 46.1667,39.5 51.5,39.5C 51.5,43.5 51.5,47.5 51.5,51.5C 44.8333,51.5 38.1667,51.5 31.5,51.5C 31.5,50.1667 31.5,48.8333 31.5,47.5C 36.8333,47.5 42.1667,47.5 47.5,47.5C 47.5,46.1667 47.5,44.8333 47.5,43.5C 42.1667,43.5 36.8333,43.5 31.5,43.5C 31.5,39.5 31.5,35.5 31.5,31.5 Z" /></g></svg>