<svg id="Calque_1" xmlns="http://www.w3.org/2000/svg" version="1.1" viewBox="0 0 160 160" height="160" width="160"><!-- Generator: Adobe Illustrator 29.3.0, SVG Export Plug-In . SVG Version: 2.1.0 Build 146)  --><defs><style>      .st0 {        fill: none;        stroke: #ba605d;        stroke-miterlimit: 10;        stroke-width: .5px;      }      .st1 {        isolation: isolate;      }      .st2 {        fill: #ba605d;      }    </style></defs><path class="st2" d="M57.5,87.6c-.4,0-1.8,1.3-3,1.3s-.6,0-.9,0-.8,0-1.2,0c-1.2,0-2.8-1.8-3.8-2.1-.4-.2-.6-.1-.8-.2-.5-.2-.8-.5-1.1-.8-.7-.5-1.5-.5-2.2-1.2-1-1-2.4-2.2-3.3-3.3-.4-.3-.2-.8-.4-1.1-1-1.6-2.4-1.9-3.1-3.8-.2-.8-1.1-.5-1.2-1.9,0-.7,0-1.8.5-2.2,1.3-.8,2.7-1.5,4.2-1.5s2.1-.5,2.5-.5c.8-.2,1.3-.7,1.9-.9,2.5-.8,8.2-.9,9.2-3.5,0,0,0,0,0,0,0-.4-.2-.6-.2-.9-.1,0-.1-.3-.3-.5-1.1-1.3-5.2-3.6-7-4.4-.5-.2-1-.6-1.5-.9-1.2-.5-2.4-.7-3.5-1.3-.2-.2-4.3-1.4-4.8-1.7-.2,0-.6.1-.8.1-1.1,0-2.4-.2-3.5-.2s-.7.8-.7,1.2-.3,1.8-.5,2.5c-.5,2.2-.2,4.6-.9,6.7v.2c.1.4.5.9.5,1.3s-.7,1.3-.8,2c-.2,2,.2,3.9-.5,5.8v.2c0,.4.1.6.1,1,0,1.4-.9,2.7-.8,4.6,0,.2,0,.6.3.7-.3.9-1,1.8-1.5,2.6,0,.2.1,1.2.1,1.5,0,.8-.5,1.4-.5,2s.1.5.1.7c0,.5-.4,1-1,1-1.5,0-2.1-1.7-2.1-2.8,0-.2,0-.5,0-1,0-.8-1.3-1.5-1.3-2.3s.5-1.5.5-2-.5-.5-.5-1.2,1.6-2.5,1.8-4.3c0-.7.2-1.5.2-2.3s-.2-1-.4-1.5c0-.5.1-.9.1-1.2,0-.7.7-1.4.5-2.1.7-1.1.5-2.2.8-3.2.2-.4.5-.8.5-1.2s-.1-.4-.1-.5v-.2c.6-1.4.9-1.6.9-3.1,0-.5-.1-1.2,0-1.7.2-.3.7-.5.5-1.2,0-.5-.3-1-.4-1.5-.1-1,1.1-4.5,2.4-4.5,2.9,0,5.7,1,8.5,1.2,1.9.2,7.6,2.8,9.7,3.5.5,0,1,.5,1.5.8.8.3,1.9.5,2.5,1,.6.5,1.1,1.4,2,1.9.2.1.6.1.8.2,1.4.8,2,1.9,2.5,3.1.1.5.6.9.6,1.5,0,.9-2.1,2.6-3.1,2.8h-.6c-.5,0-1.3,1.3-2.4,1.7-.9.3-1.6.1-2.5.5-.5,0-1.2,0-1.8.3-1.1.4-1.4.9-2.6.9s-1.9.6-3.6.6-1.5.4-1.5,1.2c0,.5,1.8,2,2.2,2.6.8,1.2,1.6,2.2,2.6,3.5.6.5,1.2.8,1.9,1.2.9.6,1.6,1.7,2.5,2,.8.3,1.6.7,2.4,1.2.5.3,1.2.8,1.8,1.1.4,0,.6,0,1,.2.3,0,1.1.6,1.4.6.8,0,1.4-.5,2.1-.5s1,.2,1.2.7c0,1.1-1.6,1.2-2.5,1.5Z" /><path class="st2" d="M88.4,71.1c0,.2-.9,1.1-1,1.8-.3,2.2-1.6,4-2.8,6-.2.4-.8.5-1,1.1-.3.6-.9,1-1.5,1.7-2.9,3-5.9,5.7-9.6,7.9-.9.5-2,.5-2.8,1-1.5.8-2.8,1.2-4.5,1.5-.7.1-2.4,1.1-3.1,1.1s-.9,0-1.4-.2c-1.6-.5-4.8,0-4.8-2.3s1-1.5,2.2-1.5,1.4.6,2,1c.5.3.9.2,1.2.3.4,0,.6,0,.9,0,1,0,2.5-.6,3.5-.6s1.6-2.5,1.6-3.4-1-1.3-1-2,.1-.8.1-1.2-.2-.5-.2-.9c0-.6.1-1.1.1-1.6.1-.4.4-1,.4-1.5s-.1-.4-.1-.6c0-1.1.8-3.6,1-4.9,0-.2-.1-.4-.1-.6,0-.6.5-1.2.5-1.9s-.7-1.7-.7-1.8c0-.4.5-2,.5-2.7s0-.2-.2-.3c-.5-1.5-.3-3.2-.9-4.7-.2-.4-.2-.8-.2-1.2s.1-1.8.4-2.3c0-.1,1-.3,1-1s-2.2-1-2.2-1.5c0-1.8,2.7-2.7,4.2-2.7s2.5.4,3.7.6c.4,0,.9.4,1.2.5,1,.2,1.2.2,2.1.6.2.2.9,0,1.2.2,1,.9,2.3,1.4,3.3,2.2.7.7,1.4.7,2.2,1.3,1,.8,1.8,1.7,2.7,2.5s.8,1.6,1.1,2.2c.1.4.5.8.6,1.2.4.9.5,2.7.5,3.7s0,2-.2,3ZM82.5,65.3c0-.2,0-.8-.4-1.2-1-1.2-2.4-2.4-3.7-3.5-.3-.3-1-1.1-1.4-1.2-.6-.2-1.4-.3-2-.5-.4,0-1-.4-1.3-.5-.6-.2-1.1-.2-1.7-.4-.1.1-.6.4-.6.6,0,1.5,1.1,3.5,1.1,5.8v.2c0,.4.1.8.1,1.1s-.2.4-.2.5c0,.5.2,1,.2,1.5s-.8,1-.8,2,0,.2.1.2c.1.2.2.8.2,1.2s-.1,1.3-.4,1.8c0,.3,0,.8,0,1.1,0,1.3-.1,2.6-.5,3.7-.2.7-.5,1.2-.6,1.8-.6,2.5,0,5.4-.5,8,0,.1.3.1.4.1.4,0,2.5-1.4,2.9-1.7.6-.4.8-1,1.5-1.4.3,0,1.1-.5,1.3-.7.8-1.2,1.8-2.1,2.8-3.1.4-.4.4-.8.5-1,.4-.5,1-.7,1.2-1.1.5-.8,1-1.8,1.5-2.6.4-.9.5-1.9.6-2.5.4-1,.7-1.9.7-2.9s-.3-2-.3-2.9,0-.8,0-1.2c-.2-.4-.6-.8-1-1.2Z" /><path class="st2" d="M130,98c-.8-.7-1.6-1.3-2.5-2-.7-.5-1.1-1.4-1.1-2.5s.4-2.2.4-3.3-.3-.4-.3-.9c0-1,.5-2.2.5-3.3s-.2-1.7-.2-2.5.4-1.3.4-2,0-.6,0-.8c0-.7.3-1.5.3-2,0-.8,0-1.6,0-2.4,0-1.4.1-2.5.3-3.8h0c0-.8-.4-1.6-.4-2.3s.6-1.2.6-1.8-.4-1.4-.4-1.9.5-1.1.5-1.5-.6-1-.6-1.3.5-1.1.5-1.2c0-.4-.4-.8-.6-1.1,0-.1,0-.5,0-.6-.1,0-.5-.2-.5-.3-1.6.5-2.7,2.7-3.7,3.9-.3.4-1.1.5-1.2,1.1-.2,1.3-1.4,2.1-2.1,3.2-.9,1.4-1.8,3-2.6,4.2-.5.9-.5.4-1,1.7,0,.5-1,.7-1.3,1.1-.9.9-1,2.5-1.5,3.5-.5.8-1.5.8-2.2.8-1.5,0-2.8-1.4-3-2.9,0-.5-.4-.8-.4-1.2s.1-.7.1-1.2,0-1.2-.1-1.8c0-.3-.4-.8-.5-1-.1-.5-.2-1-.4-1.3-.1-.2-.6-1.2-.6-1.6s.2-.3.2-.6c0-.5-.5-1-.7-1.4-.2-.3-.2-.9-.4-1.5-.4-1.4-1.4-2.4-1.9-3.8h0c-.2,1-1.4,1.5-1.7,2.3-.8,2.9-1.1,6.1-2.8,8.8,0,0-.5,3.8-.8,4.6-.2.6-1.2,1.8-1.2,2.6s0,.5,0,.7-.5,2.1-.5,2.4c0,.4.3.7.6.7s.6,0,1,0c.5,0,1,.2,1.1.8-.7,1.5-2.3,3-4,3s-2.8-1.3-2.8-3,0-.7.1-1.2v-.7c0-.6,1.7-4.4,1.7-6.8.4-1.1,1-2.3,1.4-3.5.3-1.3.5-2.4,1.2-3.8.2-.3,0-2.1.5-2.8.4-.5,1.7-1,1.7-1.9s-.2-.8-.2-1.3.2-.9.2-1.4c0-.8,0-1.5,0-2.5s-.3-1-.3-1.8c0-1.3,2-2.5,3.1-2.5,1.9,0,3.9,2.5,5,3.9.5.5,1.6,4.1,1.9,5.1.1.7.9,1,.9,1.7s0,1,0,1.5c0,1,.5,1.2.5,2.5s.7,4.2,1,5.2v.4c0,.2.1.5.4.5.5,0,1.1-1.1,1.3-1.5.1-.3.2-.8.3-1.1.2-.5.8-.8,1-1.4.5-1.1,1.3-2.6,2.7-2.9.4-1.7,1.3-2.7,2.4-3.7.4-.3.2-1,.7-1.7,1.2-1.1,2.3-3.1,3.7-4.1,1.1-.9,1.9-2,3.3-2.8.1-.1.2-.2,0-.6.8-.4,1.8-1,2.4-1,1.8,0,2.1,3.5,2.2,4.8,0,.4.5.8.5,1.4,0,1.1.2,2.6.2,3.7s-.2.9-.2,1.2.3.5.3,1.2,0,1,0,1.6v4.2c0,.4-.2.8-.3,1.3-.2,1.9-.1,4.1-.1,6s-.6,2-.6,2.4,0,.9,0,1.3-.4,1-.4,1.5.5,1,.5,1.9-.3,1.8-.3,2.6c0,1.4,0,2.9.3,4.2,0,.6.6,1,.8,1.6,0,.9,1.8,1.6,1.8,2.6s-1.7,1.6-2.5,1.6h-.2c-.4,0-1.5-1.5-1.7-1.8ZM129.2,87.6h0c0,0,0,0,.2,0,0,0,.1-.5.1-.6h.2-.2c-.3,0-.3.2-.3.5Z" /><g class="st1"><path class="st0" d="M57.5,87.6c-.4,0-1.8,1.3-3,1.3s-.6,0-.9,0-.8,0-1.2,0c-1.2,0-2.8-1.8-3.8-2.1-.4-.2-.6-.1-.8-.2-.5-.2-.8-.5-1.1-.8-.7-.5-1.5-.5-2.2-1.2-1-1-2.4-2.2-3.3-3.3-.4-.3-.2-.8-.4-1.1-1-1.6-2.4-1.9-3.1-3.8-.2-.8-1.1-.5-1.2-1.9,0-.7,0-1.8.5-2.2,1.3-.8,2.7-1.5,4.2-1.5s2.1-.5,2.5-.5c.8-.2,1.3-.7,1.9-.9,2.5-.8,8.2-.9,9.2-3.5,0,0,0,0,0,0,0-.4-.2-.6-.2-.9-.1,0-.1-.3-.3-.5-1.1-1.3-5.2-3.6-7-4.4-.5-.2-1-.6-1.5-.9-1.2-.5-2.4-.7-3.5-1.3-.2-.2-4.3-1.4-4.8-1.7-.2,0-.6.1-.8.1-1.1,0-2.4-.2-3.5-.2s-.7.8-.7,1.2-.3,1.8-.5,2.5c-.5,2.2-.2,4.6-.9,6.7v.2c.1.4.5.9.5,1.3s-.7,1.3-.8,2c-.2,2,.2,3.9-.5,5.8v.2c0,.4.1.6.1,1,0,1.4-.9,2.7-.8,4.6,0,.2,0,.6.3.7-.3.9-1,1.8-1.5,2.6,0,.2.1,1.2.1,1.5,0,.8-.5,1.4-.5,2s.1.5.1.7c0,.5-.4,1-1,1-1.5,0-2.1-1.7-2.1-2.8,0-.2,0-.5,0-1,0-.8-1.3-1.5-1.3-2.3s.5-1.5.5-2-.5-.5-.5-1.2,1.6-2.5,1.8-4.3c0-.7.2-1.5.2-2.3s-.2-1-.4-1.5c0-.5.1-.9.1-1.2,0-.7.7-1.4.5-2.1.7-1.1.5-2.2.8-3.2.2-.4.5-.8.5-1.2s-.1-.4-.1-.5v-.2c.6-1.4.9-1.6.9-3.1,0-.5-.1-1.2,0-1.7.2-.3.7-.5.5-1.2,0-.5-.3-1-.4-1.5-.1-1,1.1-4.5,2.4-4.5,2.9,0,5.7,1,8.5,1.2,1.9.2,7.6,2.8,9.7,3.5.5,0,1,.5,1.5.8.8.3,1.9.5,2.5,1,.6.5,1.1,1.4,2,1.9.2.1.6.1.8.2,1.4.8,2,1.9,2.5,3.1.1.5.6.9.6,1.5,0,.9-2.1,2.6-3.1,2.8h-.6c-.5,0-1.3,1.3-2.4,1.7-.9.3-1.6.1-2.5.5-.5,0-1.2,0-1.8.3-1.1.4-1.4.9-2.6.9s-1.9.6-3.6.6-1.5.4-1.5,1.2c0,.5,1.8,2,2.2,2.6.8,1.2,1.6,2.2,2.6,3.5.6.5,1.2.8,1.9,1.2.9.6,1.6,1.7,2.5,2,.8.3,1.6.7,2.4,1.2.5.3,1.2.8,1.8,1.1.4,0,.6,0,1,.2.3,0,1.1.6,1.4.6.8,0,1.4-.5,2.1-.5s1,.2,1.2.7c0,1.1-1.6,1.2-2.5,1.5Z" /><path class="st0" d="M88.4,71.1c0,.2-.9,1.1-1,1.8-.3,2.2-1.6,4-2.8,6-.2.4-.8.5-1,1.1-.3.6-.9,1-1.5,1.7-2.9,3-5.9,5.7-9.6,7.9-.9.5-2,.5-2.8,1-1.5.8-2.8,1.2-4.5,1.5-.7.1-2.4,1.1-3.1,1.1s-.9,0-1.4-.2c-1.6-.5-4.8,0-4.8-2.3s1-1.5,2.2-1.5,1.4.6,2,1c.5.3.9.2,1.2.3.4,0,.6,0,.9,0,1,0,2.5-.6,3.5-.6s1.6-2.5,1.6-3.4-1-1.3-1-2,.1-.8.1-1.2-.2-.5-.2-.9c0-.6.1-1.1.1-1.6.1-.4.4-1,.4-1.5s-.1-.4-.1-.6c0-1.1.8-3.6,1-4.9,0-.2-.1-.4-.1-.6,0-.6.5-1.2.5-1.9s-.7-1.7-.7-1.8c0-.4.5-2,.5-2.7s0-.2-.2-.3c-.5-1.5-.3-3.2-.9-4.7-.2-.4-.2-.8-.2-1.2s.1-1.8.4-2.3c0-.1,1-.3,1-1s-2.2-1-2.2-1.5c0-1.8,2.7-2.7,4.2-2.7s2.5.4,3.7.6c.4,0,.9.4,1.2.5,1,.2,1.2.2,2.1.6.2.2.9,0,1.2.2,1,.9,2.3,1.4,3.3,2.2.7.7,1.4.7,2.2,1.3,1,.8,1.8,1.7,2.7,2.5s.8,1.6,1.1,2.2c.1.4.5.8.6,1.2.4.9.5,2.7.5,3.7s0,2-.2,3ZM82.5,65.3c0-.2,0-.8-.4-1.2-1-1.2-2.4-2.4-3.7-3.5-.3-.3-1-1.1-1.4-1.2-.6-.2-1.4-.3-2-.5-.4,0-1-.4-1.3-.5-.6-.2-1.1-.2-1.7-.4-.1.1-.6.4-.6.6,0,1.5,1.1,3.5,1.1,5.8v.2c0,.4.1.8.1,1.1s-.2.4-.2.5c0,.5.2,1,.2,1.5s-.8,1-.8,2,0,.2.1.2c.1.2.2.8.2,1.2s-.1,1.3-.4,1.8c0,.3,0,.8,0,1.1,0,1.3-.1,2.6-.5,3.7-.2.7-.5,1.2-.6,1.8-.6,2.5,0,5.4-.5,8,0,.1.3.1.4.1.4,0,2.5-1.4,2.9-1.7.6-.4.8-1,1.5-1.4.3,0,1.1-.5,1.3-.7.8-1.2,1.8-2.1,2.8-3.1.4-.4.4-.8.5-1,.4-.5,1-.7,1.2-1.1.5-.8,1-1.8,1.5-2.6.4-.9.5-1.9.6-2.5.4-1,.7-1.9.7-2.9s-.3-2-.3-2.9,0-.8,0-1.2c-.2-.4-.6-.8-1-1.2Z" /><path class="st0" d="M130,98c-.8-.7-1.6-1.3-2.5-2-.7-.5-1.1-1.4-1.1-2.5s.4-2.2.4-3.3-.3-.4-.3-.9c0-1,.5-2.2.5-3.3s-.2-1.7-.2-2.5.4-1.3.4-2,0-.6,0-.8c0-.7.3-1.5.3-2,0-.8,0-1.6,0-2.4,0-1.4.1-2.5.3-3.8h0c0-.8-.4-1.6-.4-2.3s.6-1.2.6-1.8-.4-1.4-.4-1.9.5-1.1.5-1.5-.6-1-.6-1.3.5-1.1.5-1.2c0-.4-.4-.8-.6-1.1,0-.1,0-.5,0-.6-.1,0-.5-.2-.5-.3-1.6.5-2.7,2.7-3.7,3.9-.3.4-1.1.5-1.2,1.1-.2,1.3-1.4,2.1-2.1,3.2-.9,1.4-1.8,3-2.6,4.2-.5.9-.5.4-1,1.7,0,.5-1,.7-1.3,1.1-.9.9-1,2.5-1.5,3.5-.5.8-1.5.8-2.2.8-1.5,0-2.8-1.4-3-2.9,0-.5-.4-.8-.4-1.2s.1-.7.1-1.2,0-1.2-.1-1.8c0-.3-.4-.8-.5-1-.1-.5-.2-1-.4-1.3-.1-.2-.6-1.2-.6-1.6s.2-.3.2-.6c0-.5-.5-1-.7-1.4-.2-.3-.2-.9-.4-1.5-.4-1.4-1.4-2.4-1.9-3.8h0c-.2,1-1.4,1.5-1.7,2.3-.8,2.9-1.1,6.1-2.8,8.8,0,0-.5,3.8-.8,4.6-.2.6-1.2,1.8-1.2,2.6s0,.5,0,.7-.5,2.1-.5,2.4c0,.4.3.7.6.7s.6,0,1,0c.5,0,1,.2,1.1.8-.7,1.5-2.3,3-4,3s-2.8-1.3-2.8-3,0-.7.1-1.2v-.7c0-.6,1.7-4.4,1.7-6.8.4-1.1,1-2.3,1.4-3.5.3-1.3.5-2.4,1.2-3.8.2-.3,0-2.1.5-2.8.4-.5,1.7-1,1.7-1.9s-.2-.8-.2-1.3.2-.9.2-1.4c0-.8,0-1.5,0-2.5s-.3-1-.3-1.8c0-1.3,2-2.5,3.1-2.5,1.9,0,3.9,2.5,5,3.9.5.5,1.6,4.1,1.9,5.1.1.7.9,1,.9,1.7s0,1,0,1.5c0,1,.5,1.2.5,2.5s.7,4.2,1,5.2v.4c0,.2.1.5.4.5.5,0,1.1-1.1,1.3-1.5.1-.3.2-.8.3-1.1.2-.5.8-.8,1-1.4.5-1.1,1.3-2.6,2.7-2.9.4-1.7,1.3-2.7,2.4-3.7.4-.3.2-1,.7-1.7,1.2-1.1,2.3-3.1,3.7-4.1,1.1-.9,1.9-2,3.3-2.8.1-.1.2-.2,0-.6.8-.4,1.8-1,2.4-1,1.8,0,2.1,3.5,2.2,4.8,0,.4.5.8.5,1.4,0,1.1.2,2.6.2,3.7s-.2.9-.2,1.2.3.5.3,1.2,0,1,0,1.6v4.2c0,.4-.2.8-.3,1.3-.2,1.9-.1,4.1-.1,6s-.6,2-.6,2.4,0,.9,0,1.3-.4,1-.4,1.5.5,1,.5,1.9-.3,1.8-.3,2.6c0,1.4,0,2.9.3,4.2,0,.6.6,1,.8,1.6,0,.9,1.8,1.6,1.8,2.6s-1.7,1.6-2.5,1.6h-.2c-.4,0-1.5-1.5-1.7-1.8ZM129.2,87.6h0c0,0,0,0,.2,0,0,0,.1-.5.1-.6h.2-.2c-.3,0-.3.2-.3.5Z" /></g></svg>