<?xml version="1.0" encoding="UTF-8"?>
<!DOCTYPE svg PUBLIC "-//W3C//DTD SVG 1.1//EN" "http://www.w3.org/Graphics/SVG/1.1/DTD/svg11.dtd">
<svg xmlns="http://www.w3.org/2000/svg" version="1.1" width="160px" height="160px" style="shape-rendering:geometricPrecision; text-rendering:geometricPrecision; image-rendering:optimizeQuality; fill-rule:evenodd; clip-rule:evenodd" xmlns:xlink="http://www.w3.org/1999/xlink">
<g><path style="opacity:1" fill="#e2d3bc" d="M 12.5,-0.5 C 17.1667,-0.5 21.8333,-0.5 26.5,-0.5C 22.5189,5.47528 18.1856,11.1419 13.5,16.5C 10.7578,14.4246 8.42445,12.0913 6.5,9.5C 9.53583,6.75738 11.5358,3.42405 12.5,-0.5 Z"/></g>
<g><path style="opacity:1" fill="#414947" d="M -0.5,-0.5 C 3.83333,-0.5 8.16667,-0.5 12.5,-0.5C 11.5358,3.42405 9.53583,6.75738 6.5,9.5C 5.02218,9.23798 3.68884,9.57131 2.5,10.5C 1.81181,11.8549 0.811806,12.8549 -0.5,13.5C -0.5,8.83333 -0.5,4.16667 -0.5,-0.5 Z"/></g>
<g><path style="opacity:1" fill="#ed391a" d="M 67.5,-0.5 C 70.5,-0.5 73.5,-0.5 76.5,-0.5C 78.697,3.2377 81.3637,6.57103 84.5,9.5C 84.5,9.83333 84.5,10.1667 84.5,10.5C 83.8333,10.5 83.1667,10.5 82.5,10.5C 77.1955,7.18783 72.1955,3.52117 67.5,-0.5 Z"/></g>
<g><path style="opacity:1" fill="#e6d2be" d="M 76.5,-0.5 C 78.1667,-0.5 79.8333,-0.5 81.5,-0.5C 83.1152,2.6227 84.1152,5.95603 84.5,9.5C 81.3637,6.57103 78.697,3.2377 76.5,-0.5 Z"/></g>
<g><path style="opacity:1" fill="#457fd5" d="M 99.5,-0.5 C 109.833,-0.5 120.167,-0.5 130.5,-0.5C 130.328,0.491622 130.662,1.15829 131.5,1.5C 131.086,3.68148 130.919,6.01482 131,8.5C 130.667,8.16667 130.333,7.83333 130,7.5C 129.213,8.71074 128.546,9.71074 128,10.5C 126.115,10.1379 125.281,8.97126 125.5,7C 125.755,5.67386 126.422,4.67386 127.5,4C 123.112,3.42278 118.779,3.75612 114.5,5C 117.641,7.53685 120.641,10.0369 123.5,12.5C 122.587,14.0861 122.587,15.5861 123.5,17C 122.833,17.3333 122.167,17.6667 121.5,18C 122.453,19.9552 123.787,21.6218 125.5,23C 124.552,23.4828 123.552,23.6495 122.5,23.5C 122.167,23.5 121.833,23.5 121.5,23.5C 120.415,21.4131 118.749,20.0798 116.5,19.5C 114.343,17.5879 112.009,15.9213 109.5,14.5C 108.055,12.9373 106.389,11.604 104.5,10.5C 103.024,8.50002 101.191,6.83336 99,5.5C 98.3224,3.40239 98.4891,1.40239 99.5,-0.5 Z"/></g>
<g><path style="opacity:1" fill="#315f9c" d="M 131.5,1.5 C 132.496,1.41423 133.329,1.74756 134,2.5C 135.065,9.05785 135.232,15.7245 134.5,22.5C 130.603,19.3908 126.936,16.0574 123.5,12.5C 120.641,10.0369 117.641,7.53685 114.5,5C 118.779,3.75612 123.112,3.42278 127.5,4C 126.422,4.67386 125.755,5.67386 125.5,7C 125.281,8.97126 126.115,10.1379 128,10.5C 128.546,9.71074 129.213,8.71074 130,7.5C 130.333,7.83333 130.667,8.16667 131,8.5C 130.919,6.01482 131.086,3.68148 131.5,1.5 Z"/></g>
<g><path style="opacity:1" fill="#0f1315" d="M 26.5,-0.5 C 40.1667,-0.5 53.8333,-0.5 67.5,-0.5C 72.1955,3.52117 77.1955,7.18783 82.5,10.5C 83.0693,18.2925 79.4027,23.2925 71.5,25.5C 72.0111,21.9703 71.3444,18.8037 69.5,16C 58.9266,13.7944 48.26,13.1277 37.5,14C 27.5404,15.4672 21.207,20.9672 18.5,30.5C 17.6829,32.9686 17.1829,35.6353 17,38.5C 13.3333,35.5 9.66667,32.5 6,29.5C 5.53042,28.4232 5.69708,27.4232 6.5,26.5C 9.63737,23.7015 11.9707,20.3681 13.5,16.5C 18.1856,11.1419 22.5189,5.47528 26.5,-0.5 Z"/></g>
<g><path style="opacity:1" fill="#f25a04" d="M 6.5,9.5 C 8.42445,12.0913 10.7578,14.4246 13.5,16.5C 11.9707,20.3681 9.63737,23.7015 6.5,26.5C 3.69673,26.0387 1.3634,24.7053 -0.5,22.5C -0.5,19.5 -0.5,16.5 -0.5,13.5C 0.811806,12.8549 1.81181,11.8549 2.5,10.5C 3.68884,9.57131 5.02218,9.23798 6.5,9.5 Z"/></g>
<g><path style="opacity:1" fill="#fafbfb" d="M 71.5,25.5 C 71.5,27.5 71.5,29.5 71.5,31.5C 71.7148,33.1788 71.0481,34.1788 69.5,34.5C 69.1583,33.6618 68.4916,33.3284 67.5,33.5C 58.9691,30.3691 50.3024,29.8691 41.5,32C 40.1667,34.3333 40.1667,36.6667 41.5,39C 45.5994,41.0896 49.9328,42.2562 54.5,42.5C 59.6501,44.5072 64.6501,47.0072 69.5,50C 71.8196,52.4778 73.4863,55.3111 74.5,58.5C 75.3414,60.3792 75.6747,62.3792 75.5,64.5C 75.5,66.1667 75.5,67.8333 75.5,69.5C 75.1727,73.8183 73.506,77.485 70.5,80.5C 70.5,80.8333 70.5,81.1667 70.5,81.5C 63.5759,86.1421 55.9092,88.8088 47.5,89.5C 42.7697,89.7166 38.1031,89.3833 33.5,88.5C 28.3303,88.3329 23.497,86.9996 19,84.5C 18.5172,83.552 18.3505,82.552 18.5,81.5C 18.3341,76.4889 18.5007,71.4889 19,66.5C 26.3139,69.7454 33.9806,71.7454 42,72.5C 45.8594,72.049 49.526,71.049 53,69.5C 54.3128,65.7949 53.1461,63.4615 49.5,62.5C 47.4907,60.9348 45.1573,59.9348 42.5,59.5C 36.9529,58.0594 31.6196,56.0594 26.5,53.5C 19.0153,47.7509 16.3487,40.0843 18.5,30.5C 21.207,20.9672 27.5404,15.4672 37.5,14C 48.26,13.1277 58.9266,13.7944 69.5,16C 71.3444,18.8037 72.0111,21.9703 71.5,25.5 Z"/></g>
<g><path style="opacity:1" fill="#c9c5be" d="M 104.5,10.5 C 106.389,11.604 108.055,12.9373 109.5,14.5C 108.167,14.5 106.833,14.5 105.5,14.5C 104.859,13.5178 104.193,12.5178 103.5,11.5C 103.624,10.8933 103.957,10.56 104.5,10.5 Z"/></g>
<g><path style="opacity:1" fill="#e8dccb" d="M 116.5,19.5 C 118.749,20.0798 120.415,21.4131 121.5,23.5C 121.704,25.6854 122.37,27.6854 123.5,29.5C 120.5,29.5 117.5,29.5 114.5,29.5C 114.31,25.9682 114.977,22.6348 116.5,19.5 Z"/></g>
<g><path style="opacity:1" fill="#0a141f" d="M 81.5,-0.5 C 87.5,-0.5 93.5,-0.5 99.5,-0.5C 98.4891,1.40239 98.3224,3.40239 99,5.5C 101.191,6.83336 103.024,8.50002 104.5,10.5C 103.957,10.56 103.624,10.8933 103.5,11.5C 104.193,12.5178 104.859,13.5178 105.5,14.5C 103.058,14.1192 102.391,14.7859 103.5,16.5C 101.632,18.575 101.965,20.7417 104.5,23C 101.712,25.3738 102.046,26.7071 105.5,27C 103.332,28.9705 102.998,31.1371 104.5,33.5C 106.322,39.1359 108.655,44.4693 111.5,49.5C 113.352,57.2167 116.352,64.55 120.5,71.5C 118.833,71.5 117.167,71.5 115.5,71.5C 115.5,70.8333 115.167,70.5 114.5,70.5C 111.037,66.5357 107.37,62.7023 103.5,59C 101.866,58.5065 100.199,58.3398 98.5,58.5C 101.945,56.2742 105.611,54.2742 109.5,52.5C 108.743,49.962 107.41,49.2953 105.5,50.5C 103.508,48.3174 101.174,47.9841 98.5,49.5C 97.7348,48.3881 96.7348,47.7214 95.5,47.5C 94.1001,46.9002 93.1001,45.9002 92.5,44.5C 89.6197,33.1978 86.953,21.8644 84.5,10.5C 84.5,10.1667 84.5,9.83333 84.5,9.5C 84.1152,5.95603 83.1152,2.6227 81.5,-0.5 Z"/></g>
<g><path style="opacity:1" fill="#6391d5" d="M 123.5,12.5 C 126.936,16.0574 130.603,19.3908 134.5,22.5C 134.833,23.1667 135.167,23.8333 135.5,24.5C 135.808,26.924 135.474,29.2573 134.5,31.5C 133.378,30.3698 132.044,29.7031 130.5,29.5C 127.527,27.8532 124.86,25.8532 122.5,23.5C 123.552,23.6495 124.552,23.4828 125.5,23C 123.787,21.6218 122.453,19.9552 121.5,18C 122.167,17.6667 122.833,17.3333 123.5,17C 122.587,15.5861 122.587,14.0861 123.5,12.5 Z"/></g>
<g><path style="opacity:1" fill="#212d35" d="M 105.5,14.5 C 106.833,14.5 108.167,14.5 109.5,14.5C 112.009,15.9213 114.343,17.5879 116.5,19.5C 114.977,22.6348 114.31,25.9682 114.5,29.5C 117.5,29.5 120.5,29.5 123.5,29.5C 124.319,31.7722 124.985,34.1055 125.5,36.5C 124.469,37.355 123.303,38.0217 122,38.5C 116.234,36.5153 110.4,34.8486 104.5,33.5C 102.998,31.1371 103.332,28.9705 105.5,27C 102.046,26.7071 101.712,25.3738 104.5,23C 101.965,20.7417 101.632,18.575 103.5,16.5C 102.391,14.7859 103.058,14.1192 105.5,14.5 Z"/></g>
<g><path style="opacity:1" fill="#172630" d="M 130.5,-0.5 C 140.167,-0.5 149.833,-0.5 159.5,-0.5C 159.5,12.5 159.5,25.5 159.5,38.5C 150.871,34.8543 142.871,30.1877 135.5,24.5C 135.167,23.8333 134.833,23.1667 134.5,22.5C 135.232,15.7245 135.065,9.05785 134,2.5C 133.329,1.74756 132.496,1.41423 131.5,1.5C 130.662,1.15829 130.328,0.491622 130.5,-0.5 Z"/></g>
<g><path style="opacity:1" fill="#101314" d="M 67.5,33.5 C 66.1719,36.4971 64.8386,39.4971 63.5,42.5C 60.5,42.5 57.5,42.5 54.5,42.5C 49.9328,42.2562 45.5994,41.0896 41.5,39C 40.1667,36.6667 40.1667,34.3333 41.5,32C 50.3024,29.8691 58.9691,30.3691 67.5,33.5 Z"/></g>
<g><path style="opacity:1" fill="#dccebb" d="M -0.5,22.5 C 1.3634,24.7053 3.69673,26.0387 6.5,26.5C 5.69708,27.4232 5.53042,28.4232 6,29.5C 9.66667,32.5 13.3333,35.5 17,38.5C 17.1829,35.6353 17.6829,32.9686 18.5,30.5C 16.3487,40.0843 19.0153,47.7509 26.5,53.5C 24.246,54.1237 22.5794,55.457 21.5,57.5C 18.372,52.1344 16.7053,46.1344 16.5,39.5C 11.6876,40.5641 7.02097,42.2307 2.5,44.5C 3.24065,41.703 3.90732,38.8697 4.5,36C 3.42013,33.0908 1.75346,30.5908 -0.5,28.5C -0.5,26.5 -0.5,24.5 -0.5,22.5 Z"/></g>
<g><path style="opacity:1" fill="#c14047" d="M -0.5,28.5 C 1.75346,30.5908 3.42013,33.0908 4.5,36C 3.90732,38.8697 3.24065,41.703 2.5,44.5C 1.5,43.8333 0.5,43.1667 -0.5,42.5C -0.5,37.8333 -0.5,33.1667 -0.5,28.5 Z"/></g>
<g><path style="opacity:1" fill="#355d99" d="M 104.5,33.5 C 110.4,34.8486 116.234,36.5153 122,38.5C 123.303,38.0217 124.469,37.355 125.5,36.5C 125.557,37.609 125.89,38.609 126.5,39.5C 121.635,41.348 116.968,43.6813 112.5,46.5C 111.614,47.325 111.281,48.325 111.5,49.5C 108.655,44.4693 106.322,39.1359 104.5,33.5 Z"/></g>
<g><path style="opacity:1" fill="#e9dbc6" d="M 135.5,24.5 C 142.871,30.1877 150.871,34.8543 159.5,38.5C 159.5,41.5 159.5,44.5 159.5,47.5C 157.461,48.6718 156.128,50.3384 155.5,52.5C 155.5,51.5 155.5,50.5 155.5,49.5C 154.178,49.67 153.011,49.3366 152,48.5C 150.503,44.8351 148.503,41.5017 146,38.5C 145.051,40.0931 143.885,41.4264 142.5,42.5C 142.291,41.0783 141.791,39.745 141,38.5C 137.598,35.2376 134.098,32.2376 130.5,29.5C 132.044,29.7031 133.378,30.3698 134.5,31.5C 135.474,29.2573 135.808,26.924 135.5,24.5 Z"/></g>
<g><path style="opacity:1" fill="#b1a997" d="M 67.5,33.5 C 68.4916,33.3284 69.1583,33.6618 69.5,34.5C 68.5581,39.284 70.2247,42.6173 74.5,44.5C 70.5752,44.5701 66.9085,43.9034 63.5,42.5C 64.8386,39.4971 66.1719,36.4971 67.5,33.5 Z"/></g>
<g><path style="opacity:1" fill="#c8ae35" d="M 78.5,44.5 C 77.1667,44.5 75.8333,44.5 74.5,44.5C 70.2247,42.6173 68.5581,39.284 69.5,34.5C 71.0481,34.1788 71.7148,33.1788 71.5,31.5C 74.5503,28.6465 78.2169,27.8132 82.5,29C 87.8333,34 87.8333,39 82.5,44C 81.2068,44.49 79.8734,44.6567 78.5,44.5 Z"/></g>
<g><path style="opacity:1" fill="#ded2be" d="M 82.5,10.5 C 83.1667,10.5 83.8333,10.5 84.5,10.5C 86.953,21.8644 89.6197,33.1978 92.5,44.5C 92.5,45.5 92.5,46.5 92.5,47.5C 87.4688,47.5567 82.8021,46.5567 78.5,44.5C 79.8734,44.6567 81.2068,44.49 82.5,44C 87.8333,39 87.8333,34 82.5,29C 78.2169,27.8132 74.5503,28.6465 71.5,31.5C 71.5,29.5 71.5,27.5 71.5,25.5C 79.4027,23.2925 83.0693,18.2925 82.5,10.5 Z"/></g>
<g><path style="opacity:1" fill="#f0b010" d="M 121.5,23.5 C 121.833,23.5 122.167,23.5 122.5,23.5C 124.86,25.8532 127.527,27.8532 130.5,29.5C 134.098,32.2376 137.598,35.2376 141,38.5C 141.791,39.745 142.291,41.0783 142.5,42.5C 139.68,48.1368 136.347,53.4701 132.5,58.5C 132.107,56.7162 131.441,55.0495 130.5,53.5C 130.506,50.1498 131.506,47.1498 133.5,44.5C 131.923,43.7589 130.256,42.4256 128.5,40.5C 127.508,40.6716 126.842,40.3382 126.5,39.5C 125.89,38.609 125.557,37.609 125.5,36.5C 124.985,34.1055 124.319,31.7722 123.5,29.5C 122.37,27.6854 121.704,25.6854 121.5,23.5 Z"/></g>
<g><path style="opacity:1" fill="#8c8b73" d="M 128.5,40.5 C 130.256,42.4256 131.923,43.7589 133.5,44.5C 131.506,47.1498 130.506,50.1498 130.5,53.5C 130.167,53.5 129.833,53.5 129.5,53.5C 129.693,49.993 129.027,46.6596 127.5,43.5C 128.127,42.5832 128.461,41.5832 128.5,40.5 Z"/></g>
<g><path style="opacity:1" fill="#4b7d5a" d="M 54.5,42.5 C 57.5,42.5 60.5,42.5 63.5,42.5C 66.9085,43.9034 70.5752,44.5701 74.5,44.5C 75.8333,44.5 77.1667,44.5 78.5,44.5C 82.8021,46.5567 87.4688,47.5567 92.5,47.5C 92.5,46.5 92.5,45.5 92.5,44.5C 93.1001,45.9002 94.1001,46.9002 95.5,47.5C 94.6586,49.3792 94.3253,51.3792 94.5,53.5C 89.8215,53.3342 85.1548,53.5008 80.5,54C 78.34,55.332 76.34,56.832 74.5,58.5C 73.4863,55.3111 71.8196,52.4778 69.5,50C 64.6501,47.0072 59.6501,44.5072 54.5,42.5 Z"/></g>
<g><path style="opacity:1" fill="#2f673f" d="M 98.5,58.5 C 95.4467,58.1107 92.78,58.7773 90.5,60.5C 87.3773,62.1152 84.044,63.1152 80.5,63.5C 81.8069,62.1984 81.8069,60.865 80.5,59.5C 81.5,58.6667 82.5,57.8333 83.5,57C 88.3986,55.632 93.3986,54.632 98.5,54C 101.069,53.1016 103.402,51.935 105.5,50.5C 107.41,49.2953 108.743,49.962 109.5,52.5C 105.611,54.2742 101.945,56.2742 98.5,58.5 Z"/></g>
<g><path style="opacity:1" fill="#1f412e" d="M 95.5,47.5 C 96.7348,47.7214 97.7348,48.3881 98.5,49.5C 101.174,47.9841 103.508,48.3174 105.5,50.5C 103.402,51.935 101.069,53.1016 98.5,54C 93.3986,54.632 88.3986,55.632 83.5,57C 82.5,57.8333 81.5,58.6667 80.5,59.5C 81.8069,60.865 81.8069,62.1984 80.5,63.5C 78.9582,64.3007 77.2915,64.634 75.5,64.5C 75.6747,62.3792 75.3414,60.3792 74.5,58.5C 76.34,56.832 78.34,55.332 80.5,54C 85.1548,53.5008 89.8215,53.3342 94.5,53.5C 94.3253,51.3792 94.6586,49.3792 95.5,47.5 Z"/></g>
<g><path style="opacity:1" fill="#e9d7c4" d="M 129.5,53.5 C 129.833,53.5 130.167,53.5 130.5,53.5C 131.441,55.0495 132.107,56.7162 132.5,58.5C 132.611,59.1174 132.944,59.6174 133.5,60C 141.159,60.4997 148.826,60.6664 156.5,60.5C 156.273,62.9328 157.273,64.5994 159.5,65.5C 159.5,68.5 159.5,71.5 159.5,74.5C 158.167,74.5 156.833,74.5 155.5,74.5C 155.5,70.1667 155.5,65.8333 155.5,61.5C 148.825,61.3337 142.158,61.5004 135.5,62C 132.261,62.6218 129.261,63.7884 126.5,65.5C 127.488,61.5152 128.488,57.5152 129.5,53.5 Z"/></g>
<g><path style="opacity:1" fill="#638d62" d="M 155.5,52.5 C 155.756,54.9372 156.423,57.2706 157.5,59.5C 157.376,60.1067 157.043,60.44 156.5,60.5C 148.826,60.6664 141.159,60.4997 133.5,60C 132.944,59.6174 132.611,59.1174 132.5,58.5C 136.347,53.4701 139.68,48.1368 142.5,42.5C 143.885,41.4264 145.051,40.0931 146,38.5C 148.503,41.5017 150.503,44.8351 152,48.5C 153.011,49.3366 154.178,49.67 155.5,49.5C 155.5,50.5 155.5,51.5 155.5,52.5 Z"/></g>
<g><path style="opacity:1" fill="#8f6098" d="M 159.5,47.5 C 159.5,53.5 159.5,59.5 159.5,65.5C 157.273,64.5994 156.273,62.9328 156.5,60.5C 157.043,60.44 157.376,60.1067 157.5,59.5C 156.423,57.2706 155.756,54.9372 155.5,52.5C 156.128,50.3384 157.461,48.6718 159.5,47.5 Z"/></g>
<g><path style="opacity:1" fill="#618fd6" d="M 126.5,39.5 C 126.842,40.3382 127.508,40.6716 128.5,40.5C 128.461,41.5832 128.127,42.5832 127.5,43.5C 129.027,46.6596 129.693,49.993 129.5,53.5C 128.488,57.5152 127.488,61.5152 126.5,65.5C 126.5,65.8333 126.5,66.1667 126.5,66.5C 125.13,68.2504 124.13,70.2504 123.5,72.5C 122.209,72.7373 121.209,72.404 120.5,71.5C 116.352,64.55 113.352,57.2167 111.5,49.5C 111.281,48.325 111.614,47.325 112.5,46.5C 116.968,43.6813 121.635,41.348 126.5,39.5 Z"/></g>
<g><path style="opacity:1" fill="#3b4c53" d="M 21.5,57.5 C 18.2721,60.3063 15.2721,63.3063 12.5,66.5C 8.25721,64.879 3.92388,63.5456 -0.5,62.5C -0.5,55.8333 -0.5,49.1667 -0.5,42.5C 0.5,43.1667 1.5,43.8333 2.5,44.5C 7.02097,42.2307 11.6876,40.5641 16.5,39.5C 16.7053,46.1344 18.372,52.1344 21.5,57.5 Z"/></g>
<g><path style="opacity:1" fill="#888177" d="M 42.5,59.5 C 45.1573,59.9348 47.4907,60.9348 49.5,62.5C 47.5831,63.9093 45.7498,65.576 44,67.5C 42.6253,65.0632 42.1253,62.3965 42.5,59.5 Z"/></g>
<g><path style="opacity:1" fill="#f65b03" d="M 155.5,74.5 C 155.5,74.8333 155.5,75.1667 155.5,75.5C 152.187,74.9552 148.854,74.4552 145.5,74C 144.069,73.5348 142.903,72.7014 142,71.5C 136.306,71.7697 131.139,70.103 126.5,66.5C 126.5,66.1667 126.5,65.8333 126.5,65.5C 129.261,63.7884 132.261,62.6218 135.5,62C 142.158,61.5004 148.825,61.3337 155.5,61.5C 155.5,65.8333 155.5,70.1667 155.5,74.5 Z"/></g>
<g><path style="opacity:1" fill="#590b17" d="M 98.5,58.5 C 100.199,58.3398 101.866,58.5065 103.5,59C 107.37,62.7023 111.037,66.5357 114.5,70.5C 106.501,67.1671 98.5007,63.8337 90.5,60.5C 92.78,58.7773 95.4467,58.1107 98.5,58.5 Z"/></g>
<g><path style="opacity:1" fill="#5589d8" d="M -0.5,62.5 C 3.92388,63.5456 8.25721,64.879 12.5,66.5C 12.6162,69.9103 10.9496,71.2436 7.5,70.5C 6.7592,75.2538 4.09254,78.5871 -0.5,80.5C -0.5,74.5 -0.5,68.5 -0.5,62.5 Z"/></g>
<g><path style="opacity:1" fill="#97202b" d="M 90.5,60.5 C 98.5007,63.8337 106.501,67.1671 114.5,70.5C 115.167,70.5 115.5,70.8333 115.5,71.5C 105.5,71.5 95.5,71.5 85.5,71.5C 82.3733,70.4192 79.0399,69.7526 75.5,69.5C 75.5,67.8333 75.5,66.1667 75.5,64.5C 77.2915,64.634 78.9582,64.3007 80.5,63.5C 84.044,63.1152 87.3773,62.1152 90.5,60.5 Z"/></g>
<g><path style="opacity:1" fill="#0e0e0d" d="M 26.5,53.5 C 31.6196,56.0594 36.9529,58.0594 42.5,59.5C 42.1253,62.3965 42.6253,65.0632 44,67.5C 45.7498,65.576 47.5831,63.9093 49.5,62.5C 53.1461,63.4615 54.3128,65.7949 53,69.5C 49.526,71.049 45.8594,72.049 42,72.5C 33.9806,71.7454 26.3139,69.7454 19,66.5C 18.5007,71.4889 18.3341,76.4889 18.5,81.5C 17.5041,81.4142 16.6708,81.7476 16,82.5C 14.6626,81.2351 13.1626,80.7351 11.5,81C 11.9574,81.414 12.2907,81.914 12.5,82.5C 12.054,85.2765 11.054,87.7765 9.5,90C 10.6469,92.0846 9.98025,93.5846 7.5,94.5C 8.02527,95.1924 8.69194,95.6924 9.5,96C 8.69194,96.3076 8.02527,96.8076 7.5,97.5C 11.1132,99.7171 10.7798,101.717 6.5,103.5C 4.21426,102.58 1.88093,102.58 -0.5,103.5C -0.5,95.8333 -0.5,88.1667 -0.5,80.5C 4.09254,78.5871 6.7592,75.2538 7.5,70.5C 10.9496,71.2436 12.6162,69.9103 12.5,66.5C 15.2721,63.3063 18.2721,60.3063 21.5,57.5C 22.5794,55.457 24.246,54.1237 26.5,53.5 Z"/></g>
<g><path style="opacity:1" fill="#fdfcfc" d="M 85.5,71.5 C 95.5,71.5 105.5,71.5 115.5,71.5C 117.167,71.5 118.833,71.5 120.5,71.5C 121.209,72.404 122.209,72.7373 123.5,72.5C 127.744,73.2479 131.744,74.5812 135.5,76.5C 137.885,78.8838 139.885,81.5505 141.5,84.5C 142.167,86.1667 142.833,87.8333 143.5,89.5C 146.867,101.45 144.2,111.784 135.5,120.5C 131.878,122.481 128.211,124.148 124.5,125.5C 122.901,125.232 121.568,125.566 120.5,126.5C 114.5,126.5 108.5,126.5 102.5,126.5C 101.51,132.645 101.177,138.978 101.5,145.5C 95.5,145.5 89.5,145.5 83.5,145.5C 82.5,145.5 81.5,145.5 80.5,145.5C 80.5,129.5 80.5,113.5 80.5,97.5C 80.5,93.1667 80.5,88.8333 80.5,84.5C 80.5,80.1667 80.5,75.8333 80.5,71.5C 82.1667,71.5 83.8333,71.5 85.5,71.5 Z"/></g>
<g><path style="opacity:1" fill="#d34e05" d="M 126.5,66.5 C 131.139,70.103 136.306,71.7697 142,71.5C 142.903,72.7014 144.069,73.5348 145.5,74C 148.854,74.4552 152.187,74.9552 155.5,75.5C 155.389,76.1174 155.056,76.6174 154.5,77C 148.161,77.3484 141.827,77.1817 135.5,76.5C 131.744,74.5812 127.744,73.2479 123.5,72.5C 124.13,70.2504 125.13,68.2504 126.5,66.5 Z"/></g>
<g><path style="opacity:1" fill="#7f786f" d="M 75.5,69.5 C 79.0399,69.7526 82.3733,70.4192 85.5,71.5C 83.8333,71.5 82.1667,71.5 80.5,71.5C 80.5,75.8333 80.5,80.1667 80.5,84.5C 76.5645,84.5393 73.2312,83.206 70.5,80.5C 73.506,77.485 75.1727,73.8183 75.5,69.5 Z"/></g>
<g><path style="opacity:1" fill="#1f2424" d="M 155.5,74.5 C 156.833,74.5 158.167,74.5 159.5,74.5C 159.5,77.5 159.5,80.5 159.5,83.5C 157.315,83.7036 155.315,84.3702 153.5,85.5C 149.702,84.5166 145.702,84.1832 141.5,84.5C 139.885,81.5505 137.885,78.8838 135.5,76.5C 141.827,77.1817 148.161,77.3484 154.5,77C 155.056,76.6174 155.389,76.1174 155.5,75.5C 155.5,75.1667 155.5,74.8333 155.5,74.5 Z"/></g>
<g><path style="opacity:1" fill="#040404" d="M 159.5,83.5 C 159.5,104.167 159.5,124.833 159.5,145.5C 154.949,142.033 150.616,138.367 146.5,134.5C 145.167,132.5 143.5,130.833 141.5,129.5C 139.526,126.518 137.526,123.518 135.5,120.5C 144.2,111.784 146.867,101.45 143.5,89.5C 146.555,87.59 149.889,86.2567 153.5,85.5C 155.315,84.3702 157.315,83.7036 159.5,83.5 Z"/></g>
<g><path style="opacity:1" fill="#938c81" d="M 141.5,84.5 C 145.702,84.1832 149.702,84.5166 153.5,85.5C 149.889,86.2567 146.555,87.59 143.5,89.5C 142.833,87.8333 142.167,86.1667 141.5,84.5 Z"/></g>
<g><path style="opacity:1" fill="#0c2673" d="M 70.5,81.5 C 70.5,85.8333 70.5,90.1667 70.5,94.5C 70.5,95.1667 70.1667,95.5 69.5,95.5C 69.6633,93.1432 69.4966,90.8098 69,88.5C 67.7453,89.2106 66.5786,90.044 65.5,91C 59.535,91.9632 53.535,92.4632 47.5,92.5C 47.5,91.5 47.5,90.5 47.5,89.5C 55.9092,88.8088 63.5759,86.1421 70.5,81.5 Z"/></g>
<g><path style="opacity:1" fill="#262d2f" d="M 70.5,80.5 C 73.2312,83.206 76.5645,84.5393 80.5,84.5C 80.5,88.8333 80.5,93.1667 80.5,97.5C 79.7777,98.5511 78.7777,99.2178 77.5,99.5C 75.7036,97.1 73.3702,95.4333 70.5,94.5C 70.5,90.1667 70.5,85.8333 70.5,81.5C 70.5,81.1667 70.5,80.8333 70.5,80.5 Z"/></g>
<g><path style="opacity:1" fill="#0831a7" d="M 69.5,95.5 C 69.4226,96.7498 68.756,97.5831 67.5,98C 62.1771,98.4994 56.8437,98.666 51.5,98.5C 49.9382,98.2671 48.6049,97.6005 47.5,96.5C 47.5,95.1667 47.5,93.8333 47.5,92.5C 53.535,92.4632 59.535,91.9632 65.5,91C 66.5786,90.044 67.7453,89.2106 69,88.5C 69.4966,90.8098 69.6633,93.1432 69.5,95.5 Z"/></g>
<g><path style="opacity:1" fill="#6a6020" d="M 102.5,88.5 C 107.179,88.3342 111.845,88.5008 116.5,89C 119.079,90.0757 120.746,91.909 121.5,94.5C 120.833,94.8333 120.167,95.1667 119.5,95.5C 114.855,91.2924 110.355,91.6257 106,96.5C 106.355,97.9594 106.189,99.2928 105.5,100.5C 104.833,100.167 104.167,99.8333 103.5,99.5C 102.656,95.9009 102.323,92.2343 102.5,88.5 Z"/></g>
<g><path style="opacity:1" fill="#233b5f" d="M 33.5,88.5 C 38.1031,89.3833 42.7697,89.7166 47.5,89.5C 47.5,90.5 47.5,91.5 47.5,92.5C 47.5,93.8333 47.5,95.1667 47.5,96.5C 45.5,96.5 43.5,96.5 41.5,96.5C 37.8792,95.7427 34.2125,95.4094 30.5,95.5C 31.9885,93.3549 32.9885,91.0215 33.5,88.5 Z"/></g>
<g><path style="opacity:1" fill="#3a6ab6" d="M 30.5,95.5 C 34.2125,95.4094 37.8792,95.7427 41.5,96.5C 37.8274,98.3177 33.8274,98.9843 29.5,98.5C 29.2627,97.209 29.596,96.209 30.5,95.5 Z"/></g>
<g><path style="opacity:1" fill="#d3c5b3" d="M 47.5,96.5 C 48.6049,97.6005 49.9382,98.2671 51.5,98.5C 49.3057,100.9 47.639,103.566 46.5,106.5C 45.8736,103.685 44.5402,101.185 42.5,99C 44.6526,98.9005 46.3192,98.0672 47.5,96.5 Z"/></g>
<g><path style="opacity:1" fill="#a2922c" d="M 119.5,95.5 C 117.124,96.512 116.124,98.3454 116.5,101C 116.124,103.655 117.124,105.488 119.5,106.5C 118.365,108.213 116.698,108.88 114.5,108.5C 111.5,105.833 108.5,103.167 105.5,100.5C 106.189,99.2928 106.355,97.9594 106,96.5C 110.355,91.6257 114.855,91.2924 119.5,95.5 Z"/></g>
<g><path style="opacity:1" fill="#ae3e20" d="M 121.5,94.5 C 122.638,97.3035 122.805,100.304 122,103.5C 121.623,104.942 120.79,105.942 119.5,106.5C 117.124,105.488 116.124,103.655 116.5,101C 116.124,98.3454 117.124,96.512 119.5,95.5C 120.167,95.1667 120.833,94.8333 121.5,94.5 Z"/></g>
<g><path style="opacity:1" fill="#9a9095" d="M 102.5,88.5 C 102.323,92.2343 102.656,95.9009 103.5,99.5C 102.521,102.625 102.187,105.958 102.5,109.5C 101.167,102.5 101.167,95.5 102.5,88.5 Z"/></g>
<g><path style="opacity:1" fill="#441f48" d="M 103.5,99.5 C 104.167,99.8333 104.833,100.167 105.5,100.5C 108.5,103.167 111.5,105.833 114.5,108.5C 110.702,109.483 106.702,109.817 102.5,109.5C 102.187,105.958 102.521,102.625 103.5,99.5 Z"/></g>
<g><path style="opacity:1" fill="#e7aa08" d="M 70.5,94.5 C 73.3702,95.4333 75.7036,97.1 77.5,99.5C 77.5,100.167 77.5,100.833 77.5,101.5C 73.7842,108.684 71.4509,116.351 70.5,124.5C 69.8333,124.5 69.5,124.833 69.5,125.5C 67.1667,125.5 64.8333,125.5 62.5,125.5C 61.8333,125.5 61.1667,125.5 60.5,125.5C 59.2332,121.183 56.5665,119.517 52.5,120.5C 50.0855,118.66 48.4188,116.327 47.5,113.5C 46.6314,111.283 46.298,108.95 46.5,106.5C 47.639,103.566 49.3057,100.9 51.5,98.5C 56.8437,98.666 62.1771,98.4994 67.5,98C 68.756,97.5831 69.4226,96.7498 69.5,95.5C 70.1667,95.5 70.5,95.1667 70.5,94.5 Z"/></g>
<g><path style="opacity:1" fill="#1f1e1b" d="M 18.5,81.5 C 18.3505,82.552 18.5172,83.552 19,84.5C 23.497,86.9996 28.3303,88.3329 33.5,88.5C 32.9885,91.0215 31.9885,93.3549 30.5,95.5C 29.596,96.209 29.2627,97.209 29.5,98.5C 33.8274,98.9843 37.8274,98.3177 41.5,96.5C 43.5,96.5 45.5,96.5 47.5,96.5C 46.3192,98.0672 44.6526,98.9005 42.5,99C 44.5402,101.185 45.8736,103.685 46.5,106.5C 46.298,108.95 46.6314,111.283 47.5,113.5C 46.2645,121.735 41.5979,126.735 33.5,128.5C 31.7202,127.01 31.0535,125.01 31.5,122.5C 26.2631,121.934 22.0964,119.601 19,115.5C 18.5,115.667 18,115.833 17.5,116C 18.3114,118.105 19.3114,120.105 20.5,122C 20.4301,122.765 20.0967,123.265 19.5,123.5C 15.7671,117.112 15.1004,110.446 17.5,103.5C 17.1667,103.167 16.8333,102.833 16.5,102.5C 10.8694,103.745 5.20269,104.745 -0.5,105.5C -0.5,104.833 -0.5,104.167 -0.5,103.5C 1.88093,102.58 4.21426,102.58 6.5,103.5C 10.7798,101.717 11.1132,99.7171 7.5,97.5C 8.02527,96.8076 8.69194,96.3076 9.5,96C 8.69194,95.6924 8.02527,95.1924 7.5,94.5C 9.98025,93.5846 10.6469,92.0846 9.5,90C 11.054,87.7765 12.054,85.2765 12.5,82.5C 12.2907,81.914 11.9574,81.414 11.5,81C 13.1626,80.7351 14.6626,81.2351 16,82.5C 16.6708,81.7476 17.5041,81.4142 18.5,81.5 Z"/></g>
<g><path style="opacity:1" fill="#dd5301" d="M 31.5,99.5 C 42.976,100.781 46.476,106.781 42,117.5C 36.6258,122.82 31.2924,122.82 26,117.5C 21.4143,109.406 23.2476,103.406 31.5,99.5 Z"/></g>
<g><path style="opacity:1" fill="#4c78c4" d="M 77.5,117.5 C 76.2058,120.249 74.7058,122.915 73,125.5C 71.5391,126.883 70.7058,126.549 70.5,124.5C 71.4509,116.351 73.7842,108.684 77.5,101.5C 78.8946,99.9456 79.5613,100.279 79.5,102.5C 79.0596,105.896 78.0596,109.063 76.5,112C 76.7591,113.261 77.4258,114.261 78.5,115C 77.7476,115.671 77.4142,116.504 77.5,117.5 Z"/></g>
<g><path style="opacity:1" fill="#eadbc8" d="M 47.5,113.5 C 48.4188,116.327 50.0855,118.66 52.5,120.5C 51.9688,122.544 50.8022,124.211 49,125.5C 48.502,128.482 48.3354,131.482 48.5,134.5C 43.8005,133.716 39.1338,132.716 34.5,131.5C 33.8728,130.583 33.5394,129.583 33.5,128.5C 41.5979,126.735 46.2645,121.735 47.5,113.5 Z"/></g>
<g><path style="opacity:1" fill="#dfc031" d="M -0.5,128.5 C -0.5,124.833 -0.5,121.167 -0.5,117.5C 1.71517,113.269 4.38184,109.269 7.5,105.5C 8.47758,105.977 9.31091,106.643 10,107.5C 11.3443,113.211 12.8443,118.877 14.5,124.5C 11.7516,129.666 8.75155,134.666 5.5,139.5C 3.12105,136.02 1.12105,132.353 -0.5,128.5 Z"/></g>
<g><path style="opacity:1" fill="#867f73" d="M 135.5,120.5 C 137.526,123.518 139.526,126.518 141.5,129.5C 140.609,128.89 139.609,128.557 138.5,128.5C 134.138,126.656 129.471,125.656 124.5,125.5C 128.211,124.148 131.878,122.481 135.5,120.5 Z"/></g>
<g><path style="opacity:1" fill="#66748c" d="M 80.5,97.5 C 80.5,113.5 80.5,129.5 80.5,145.5C 79.5206,142.375 79.1872,139.042 79.5,135.5C 79.6662,129.158 79.4995,122.825 79,116.5C 78.6174,117.056 78.1174,117.389 77.5,117.5C 77.4142,116.504 77.7476,115.671 78.5,115C 77.4258,114.261 76.7591,113.261 76.5,112C 78.0596,109.063 79.0596,105.896 79.5,102.5C 79.5613,100.279 78.8946,99.9456 77.5,101.5C 77.5,100.833 77.5,100.167 77.5,99.5C 78.7777,99.2178 79.7777,98.5511 80.5,97.5 Z"/></g>
<g><path style="opacity:1" fill="#171f26" d="M 102.5,126.5 C 108.5,126.5 114.5,126.5 120.5,126.5C 120.5,126.833 120.5,127.167 120.5,127.5C 122.113,132.007 122.779,136.673 122.5,141.5C 126.548,141.395 130.548,141.728 134.5,142.5C 133.791,143.404 132.791,143.737 131.5,143.5C 131.5,144.5 131.5,145.5 131.5,146.5C 128.31,146.487 125.476,145.487 123,143.5C 121.56,144.148 120.06,144.481 118.5,144.5C 117.29,144.068 116.29,143.401 115.5,142.5C 111.572,140.456 107.405,138.456 103,136.5C 102.502,133.183 102.335,129.85 102.5,126.5 Z"/></g>
<g><path style="opacity:1" fill="#9c710e" d="M 124.5,125.5 C 129.471,125.656 134.138,126.656 138.5,128.5C 135.986,128.754 133.652,129.587 131.5,131C 130.402,131.77 130.402,132.603 131.5,133.5C 129.518,133.005 127.518,132.505 125.5,132C 123.963,130.293 122.296,128.793 120.5,127.5C 120.5,127.167 120.5,126.833 120.5,126.5C 121.568,125.566 122.901,125.232 124.5,125.5 Z"/></g>
<g><path style="opacity:1" fill="#b62f37" d="M 60.5,125.5 C 62.167,130.835 61.5003,135.835 58.5,140.5C 56.9482,141.622 55.2816,142.122 53.5,142C 50.758,140.114 49.0913,137.614 48.5,134.5C 48.3354,131.482 48.502,128.482 49,125.5C 50.8022,124.211 51.9688,122.544 52.5,120.5C 56.5665,119.517 59.2332,121.183 60.5,125.5 Z"/></g>
<g><path style="opacity:1" fill="#2e3331" d="M 62.5,125.5 C 64.8333,125.5 67.1667,125.5 69.5,125.5C 68.8333,129.5 68.1667,133.5 67.5,137.5C 64.7816,134.048 63.1149,130.048 62.5,125.5 Z"/></g>
<g><path style="opacity:1" fill="#e1d3c3" d="M 60.5,125.5 C 61.1667,125.5 61.8333,125.5 62.5,125.5C 63.1149,130.048 64.7816,134.048 67.5,137.5C 67.2627,138.791 67.596,139.791 68.5,140.5C 69.167,142.819 69.3336,145.153 69,147.5C 65.8901,144.552 62.3901,142.219 58.5,140.5C 61.5003,135.835 62.167,130.835 60.5,125.5 Z"/></g>
<g><path style="opacity:1" fill="#e0a00d" d="M 138.5,128.5 C 139.609,128.557 140.609,128.89 141.5,129.5C 143.5,130.833 145.167,132.5 146.5,134.5C 148.624,141.624 152.957,146.958 159.5,150.5C 159.5,153.5 159.5,156.5 159.5,159.5C 157.5,159.5 155.5,159.5 153.5,159.5C 151.804,157.475 150.137,155.475 148.5,153.5C 146.748,150.328 144.748,147.328 142.5,144.5C 141.753,137.952 138.086,134.286 131.5,133.5C 130.402,132.603 130.402,131.77 131.5,131C 133.652,129.587 135.986,128.754 138.5,128.5 Z"/></g>
<g><path style="opacity:1" fill="#304e79" d="M 79.5,135.5 C 75.9154,137.461 72.2487,139.128 68.5,140.5C 67.596,139.791 67.2627,138.791 67.5,137.5C 68.1667,133.5 68.8333,129.5 69.5,125.5C 69.5,124.833 69.8333,124.5 70.5,124.5C 70.7058,126.549 71.5391,126.883 73,125.5C 74.7058,122.915 76.2058,120.249 77.5,117.5C 78.1174,117.389 78.6174,117.056 79,116.5C 79.4995,122.825 79.6662,129.158 79.5,135.5 Z"/></g>
<g><path style="opacity:1" fill="#867b75" d="M 102.5,126.5 C 102.335,129.85 102.502,133.183 103,136.5C 107.405,138.456 111.572,140.456 115.5,142.5C 111.17,141.668 107.004,140.335 103,138.5C 102.814,141.036 102.314,143.369 101.5,145.5C 101.177,138.978 101.51,132.645 102.5,126.5 Z"/></g>
<g><path style="opacity:1" fill="#ded2c0" d="M 120.5,127.5 C 122.296,128.793 123.963,130.293 125.5,132C 127.518,132.505 129.518,133.005 131.5,133.5C 138.086,134.286 141.753,137.952 142.5,144.5C 139.833,143.833 137.167,143.167 134.5,142.5C 130.548,141.728 126.548,141.395 122.5,141.5C 122.779,136.673 122.113,132.007 120.5,127.5 Z"/></g>
<g><path style="opacity:1" fill="#e9dcc7" d="M 19.5,123.5 C 12.4688,133.88 5.80214,144.547 -0.5,155.5C -0.5,146.5 -0.5,137.5 -0.5,128.5C 1.12105,132.353 3.12105,136.02 5.5,139.5C 8.75155,134.666 11.7516,129.666 14.5,124.5C 12.8443,118.877 11.3443,113.211 10,107.5C 9.31091,106.643 8.47758,105.977 7.5,105.5C 4.38184,109.269 1.71517,113.269 -0.5,117.5C -0.5,113.5 -0.5,109.5 -0.5,105.5C 5.20269,104.745 10.8694,103.745 16.5,102.5C 16.8333,102.833 17.1667,103.167 17.5,103.5C 15.1004,110.446 15.7671,117.112 19.5,123.5 Z"/></g>
<g><path style="opacity:1" fill="#ddd0ba" d="M 146.5,134.5 C 150.616,138.367 154.949,142.033 159.5,145.5C 159.5,147.167 159.5,148.833 159.5,150.5C 152.957,146.958 148.624,141.624 146.5,134.5 Z"/></g>
<g><path style="opacity:1" fill="#b32e1a" d="M 115.5,142.5 C 116.29,143.401 117.29,144.068 118.5,144.5C 116.436,147.046 114.103,149.379 111.5,151.5C 106.128,154.186 100.795,156.853 95.5,159.5C 95.1667,159.5 94.8333,159.5 94.5,159.5C 93.2825,158.839 91.9492,158.172 90.5,157.5C 88.9903,153.804 86.9903,150.471 84.5,147.5C 84.1667,146.833 83.8333,146.167 83.5,145.5C 89.5,145.5 95.5,145.5 101.5,145.5C 102.314,143.369 102.814,141.036 103,138.5C 107.004,140.335 111.17,141.668 115.5,142.5 Z"/></g>
<g><path style="opacity:1" fill="#243239" d="M 134.5,142.5 C 137.167,143.167 139.833,143.833 142.5,144.5C 144.748,147.328 146.748,150.328 148.5,153.5C 147.735,153.923 146.902,154.257 146,154.5C 144.323,153.509 142.657,152.509 141,151.5C 136.332,151.933 131.666,153.266 127,155.5C 123.66,153.99 120.327,153.323 117,153.5C 116.508,154.549 116.674,155.549 117.5,156.5C 116.675,157.386 115.675,157.719 114.5,157.5C 114.969,154.607 113.969,152.607 111.5,151.5C 114.103,149.379 116.436,147.046 118.5,144.5C 120.06,144.481 121.56,144.148 123,143.5C 125.476,145.487 128.31,146.487 131.5,146.5C 131.5,145.5 131.5,144.5 131.5,143.5C 132.791,143.737 133.791,143.404 134.5,142.5 Z"/></g>
<g><path style="opacity:1" fill="#131a21" d="M 33.5,128.5 C 33.5394,129.583 33.8728,130.583 34.5,131.5C 39.1338,132.716 43.8005,133.716 48.5,134.5C 49.0913,137.614 50.758,140.114 53.5,142C 55.2816,142.122 56.9482,141.622 58.5,140.5C 62.3901,142.219 65.8901,144.552 69,147.5C 69.3336,145.153 69.167,142.819 68.5,140.5C 72.2487,139.128 75.9154,137.461 79.5,135.5C 79.1872,139.042 79.5206,142.375 80.5,145.5C 81.5,145.5 82.5,145.5 83.5,145.5C 83.8333,146.167 84.1667,146.833 84.5,147.5C 84.8478,151.557 85.5145,155.557 86.5,159.5C 84.5,159.5 82.5,159.5 80.5,159.5C 72.4379,148.424 61.7712,144.59 48.5,148C 51.6967,152.362 55.3634,156.195 59.5,159.5C 39.5,159.5 19.5,159.5 -0.5,159.5C -0.5,158.167 -0.5,156.833 -0.5,155.5C 5.80214,144.547 12.4688,133.88 19.5,123.5C 20.0967,123.265 20.4301,122.765 20.5,122C 19.3114,120.105 18.3114,118.105 17.5,116C 18,115.833 18.5,115.667 19,115.5C 22.0964,119.601 26.2631,121.934 31.5,122.5C 31.0535,125.01 31.7202,127.01 33.5,128.5 Z"/></g>
<g><path style="opacity:1" fill="#392049" d="M 80.5,159.5 C 73.5,159.5 66.5,159.5 59.5,159.5C 55.3634,156.195 51.6967,152.362 48.5,148C 61.7712,144.59 72.4379,148.424 80.5,159.5 Z"/></g>
<g><path style="opacity:1" fill="#b2ac96" d="M 84.5,147.5 C 86.9903,150.471 88.9903,153.804 90.5,157.5C 91.9492,158.172 93.2825,158.839 94.5,159.5C 91.8333,159.5 89.1667,159.5 86.5,159.5C 85.5145,155.557 84.8478,151.557 84.5,147.5 Z"/></g>
<g><path style="opacity:1" fill="#121c23" d="M 111.5,151.5 C 113.969,152.607 114.969,154.607 114.5,157.5C 115.675,157.719 116.675,157.386 117.5,156.5C 116.674,155.549 116.508,154.549 117,153.5C 120.327,153.323 123.66,153.99 127,155.5C 131.666,153.266 136.332,151.933 141,151.5C 142.657,152.509 144.323,153.509 146,154.5C 146.902,154.257 147.735,153.923 148.5,153.5C 150.137,155.475 151.804,157.475 153.5,159.5C 134.167,159.5 114.833,159.5 95.5,159.5C 100.795,156.853 106.128,154.186 111.5,151.5 Z"/></g>
</svg>
