<!DOCTYPE svg PUBLIC "-//W3C//DTD SVG 1.1//EN" "http://www.w3.org/Graphics/SVG/1.1/DTD/svg11.dtd"[]><svg xmlns="http://www.w3.org/2000/svg" version="1.1" width="160" height="160" style="shape-rendering:geometricPrecision; text-rendering:geometricPrecision; image-rendering:optimizeQuality; fill-rule:evenodd; clip-rule:evenodd" xmlns:xlink="http://www.w3.org/1999/xlink" viewBox="0 0 300 300"><g><path style="opacity:0.765" fill="#fffdfd" d="M 190.5,-0.5 C 192.833,-0.5 195.167,-0.5 197.5,-0.5C 214.284,14.063 231.284,28.3964 248.5,42.5C 239.69,53.8113 230.69,64.978 221.5,76C 234.173,85.8018 244.673,97.6352 253,111.5C 263.192,106.154 273.692,101.488 284.5,97.5C 284.833,139.839 284.5,182.172 283.5,224.5C 274.197,220.183 264.864,215.85 255.5,211.5C 233.695,251.247 200.028,271.913 154.5,273.5C 154.5,276.167 154.5,278.833 154.5,281.5C 151.5,281.5 148.5,281.5 145.5,281.5C 145.5,278.5 145.5,275.5 145.5,272.5C 136.669,271.6 128.002,269.934 119.5,267.5C 119.5,272.167 119.5,276.833 119.5,281.5C 116.833,281.5 114.167,281.5 111.5,281.5C 111.829,275.463 111.496,269.463 110.5,263.5C 100.256,259.129 91.0889,253.129 83,245.5C 73.6667,256.833 64.3333,268.167 55,279.5C 36.561,264.372 18.061,249.372 -0.5,234.5C -0.5,233.833 -0.5,233.167 -0.5,232.5C 15.0828,214.067 30.5828,195.401 46,176.5C 43.2337,124.671 64.7337,87.0048 110.5,63.5C 111.5,43.8446 111.833,24.178 111.5,4.5C 114.167,4.5 116.833,4.5 119.5,4.5C 119.5,22.8333 119.5,41.1667 119.5,59.5C 127.938,57.3789 136.438,55.7123 145,54.5C 145.5,37.8367 145.667,21.17 145.5,4.5C 148.5,4.5 151.5,4.5 154.5,4.5C 154.333,17.5043 154.5,30.5043 155,43.5C 167.077,28.9345 178.91,14.2678 190.5,-0.5 Z" /></g><g><path style="opacity:0.898" fill="#ffa69e" d="M 214.5,71.5 C 206.1,67.1947 197.433,63.3614 188.5,60C 177.955,57.4879 167.621,55.3212 157.5,53.5C 169.462,38.2035 181.796,23.2035 194.5,8.5C 209.123,19.7881 223.457,31.4547 237.5,43.5C 229.815,52.9037 222.148,62.237 214.5,71.5 Z" /></g><g><path style="opacity:0.986" fill="#ffaea7" d="M 157.5,53.5 C 167.621,55.3212 177.955,57.4879 188.5,60C 197.433,63.3614 206.1,67.1947 214.5,71.5C 212.748,73.2459 211.415,75.2459 210.5,77.5C 209.833,77.8333 209.167,78.1667 208.5,78.5C 208.586,77.5041 208.252,76.6708 207.5,76C 191.171,66.3344 173.504,61.8344 154.5,62.5C 154.5,67.1667 154.5,71.8333 154.5,76.5C 158.042,76.1872 161.375,76.5206 164.5,77.5C 160.833,77.5 157.167,77.5 153.5,77.5C 153.5,71.1667 153.5,64.8333 153.5,58.5C 154.604,56.6115 155.937,54.9448 157.5,53.5 Z" /></g><g><path style="opacity:0.988" fill="#ffa099" d="M 208.5,78.5 C 206.132,82.528 203.132,85.8614 199.5,88.5C 188.671,82.257 177.005,78.5903 164.5,77.5C 161.375,76.5206 158.042,76.1872 154.5,76.5C 154.5,71.8333 154.5,67.1667 154.5,62.5C 173.504,61.8344 191.171,66.3344 207.5,76C 208.252,76.6708 208.586,77.5041 208.5,78.5 Z" /></g><g><path style="opacity:0.898" fill="#ff6569" d="M 137.5,63.5 C 138.376,63.3691 139.043,63.7025 139.5,64.5C 134.144,70.8527 128.81,77.186 123.5,83.5C 122.07,83.4208 120.736,83.7542 119.5,84.5C 118.167,79.1667 118.167,73.8333 119.5,68.5C 125.371,66.3266 131.371,64.6599 137.5,63.5 Z" /></g><g><path style="opacity:0.898" fill="#ff5e62" d="M 111.5,72.5 C 111.829,78.2055 111.495,83.8722 110.5,89.5C 88.2425,103.989 74.4092,124.323 69,150.5C 64.0945,155.983 59.4278,161.649 55,167.5C 54.5008,162.845 54.3342,158.179 54.5,153.5C 58.4937,121.333 73.827,96.166 100.5,78C 103.91,75.6284 107.577,73.7951 111.5,72.5 Z" /></g><g><path style="opacity:0.898" fill="#ff5e63" d="M 216.5,82.5 C 228.355,91.0178 237.689,101.685 244.5,114.5C 244.586,115.496 244.252,116.329 243.5,117C 239.807,119.526 235.807,120.86 231.5,121C 225.132,110.294 216.965,101.128 207,93.5C 206.333,92.8333 206.333,92.1667 207,91.5C 209.043,89.792 210.71,87.792 212,85.5C 213.129,83.8588 214.629,82.8588 216.5,82.5 Z" /></g><g><path style="opacity:1" fill="#ff7e82" d="M 162.5,84.5 C 159.833,84.5 157.167,84.5 154.5,84.5C 154.5,104.5 154.5,124.5 154.5,144.5C 154.5,148.167 154.5,151.833 154.5,155.5C 154.263,156.791 154.596,157.791 155.5,158.5C 155.158,159.338 154.492,159.672 153.5,159.5C 153.5,134.167 153.5,108.833 153.5,83.5C 156.713,83.19 159.713,83.5233 162.5,84.5 Z" /></g><g><path style="opacity:1" fill="#ff6165" d="M 162.5,84.5 C 173.936,85.647 184.603,88.9803 194.5,94.5C 194.649,95.552 194.483,96.552 194,97.5C 180.969,113.357 167.802,129.024 154.5,144.5C 154.5,124.5 154.5,104.5 154.5,84.5C 157.167,84.5 159.833,84.5 162.5,84.5 Z" /></g><g><path style="opacity:1" fill="#ffecec" d="M 153.5,58.5 C 153.5,64.8333 153.5,71.1667 153.5,77.5C 157.167,77.5 160.833,77.5 164.5,77.5C 177.005,78.5903 188.671,82.257 199.5,88.5C 201.838,89.6817 203.838,91.3483 205.5,93.5C 204.395,95.6114 202.729,96.9447 200.5,97.5C 198.483,96.4706 196.483,95.4706 194.5,94.5C 184.603,88.9803 173.936,85.647 162.5,84.5C 159.713,83.5233 156.713,83.19 153.5,83.5C 153.5,108.833 153.5,134.167 153.5,159.5C 153.5,161.5 153.5,163.5 153.5,165.5C 153.5,191.5 153.5,217.5 153.5,243.5C 153.5,245.833 153.5,248.167 153.5,250.5C 153.5,255.5 153.5,260.5 153.5,265.5C 149.629,265.815 145.962,265.482 142.5,264.5C 143.833,264.5 145.167,264.5 146.5,264.5C 146.5,259.5 146.5,254.5 146.5,249.5C 143.391,249.736 140.391,249.403 137.5,248.5C 135.485,247.076 133.152,246.41 130.5,246.5C 127.037,245.901 123.704,244.901 120.5,243.5C 120.44,242.957 120.107,242.624 119.5,242.5C 118.505,247.792 118.172,253.125 118.5,258.5C 116.5,257.5 114.5,256.5 112.5,255.5C 112.822,249.642 112.489,243.975 111.5,238.5C 106.238,235.244 101.238,231.578 96.5,227.5C 92.6815,230.972 89.6815,234.972 87.5,239.5C 86.1149,237.117 84.1149,235.45 81.5,234.5C 81.8333,233.833 82.1667,233.167 82.5,232.5C 85.7008,229.458 88.3674,225.958 90.5,222C 77.4607,204.734 69.794,185.234 67.5,163.5C 63.2513,168.348 59.2513,173.348 55.5,178.5C 55.1667,178.5 54.8333,178.5 54.5,178.5C 53.5212,170.003 53.5212,161.67 54.5,153.5C 54.3342,158.179 54.5008,162.845 55,167.5C 59.4278,161.649 64.0945,155.983 69,150.5C 74.4092,124.323 88.2425,103.989 110.5,89.5C 111.495,83.8722 111.829,78.2055 111.5,72.5C 112.492,79.9818 112.825,87.6484 112.5,95.5C 114.703,95.3964 116.703,94.7298 118.5,93.5C 118.168,140.67 118.501,187.67 119.5,234.5C 123.111,236.931 127.111,238.597 131.5,239.5C 133.515,240.924 135.848,241.59 138.5,241.5C 140.607,242.468 142.941,242.802 145.5,242.5C 146.499,190.003 146.832,137.336 146.5,84.5C 143.171,84.2153 140.171,84.8819 137.5,86.5C 135.097,86.448 132.764,86.7814 130.5,87.5C 131.919,84.8996 133.585,82.3996 135.5,80C 134.167,79.3333 132.833,79.3333 131.5,80C 128.664,80.9211 125.998,82.0877 123.5,83.5C 128.81,77.186 134.144,70.8527 139.5,64.5C 139.043,63.7025 138.376,63.3691 137.5,63.5C 137.735,62.9033 138.235,62.5699 139,62.5C 142.056,63.0767 145.056,63.7434 148,64.5C 150.068,62.6038 151.901,60.6038 153.5,58.5 Z" /></g><g><path style="opacity:1" fill="#ff6165" d="M 119.5,92.5 C 123.083,90.6396 126.749,88.9729 130.5,87.5C 132.764,86.7814 135.097,86.448 137.5,86.5C 140.167,86.1667 142.833,85.8333 145.5,85.5C 145.667,109.169 145.5,132.836 145,156.5C 136.667,166.833 128.333,177.167 120,187.5C 119.5,155.835 119.333,124.168 119.5,92.5 Z" /></g><g><path style="opacity:0.988" fill="#ffa49e" d="M 145.5,67.5 C 146.479,70.6248 146.813,73.9581 146.5,77.5C 143.319,77.7423 140.319,77.7423 137.5,77.5C 140.57,74.4362 143.237,71.1029 145.5,67.5 Z" /></g><g><path style="opacity:1" fill="#ff686d" d="M 194.5,94.5 C 196.483,95.4706 198.483,96.4706 200.5,97.5C 201.167,98.1667 201.833,98.8333 202.5,99.5C 200.983,99.5106 199.816,100.177 199,101.5C 184.302,119.689 169.469,137.689 154.5,155.5C 154.5,151.833 154.5,148.167 154.5,144.5C 167.802,129.024 180.969,113.357 194,97.5C 194.483,96.552 194.649,95.552 194.5,94.5 Z" /></g><g><path style="opacity:1" fill="#ff686d" d="M 111.5,97.5 C 111.5,101.833 111.5,106.167 111.5,110.5C 99.3568,124.131 87.6902,138.131 76.5,152.5C 76.366,150.708 76.6993,149.042 77.5,147.5C 78.9238,145.485 79.5905,143.152 79.5,140.5C 84.8393,122.166 95.506,107.833 111.5,97.5 Z" /></g><g><path style="opacity:0.988" fill="#ff5b60" d="M 202.5,99.5 C 212.763,106.419 220.43,115.419 225.5,126.5C 201.934,136.615 178.601,147.282 155.5,158.5C 154.596,157.791 154.263,156.791 154.5,155.5C 169.469,137.689 184.302,119.689 199,101.5C 199.816,100.177 200.983,99.5106 202.5,99.5 Z" /></g><g><path style="opacity:1" fill="#ffa8aa" d="M 111.5,97.5 C 112.831,141.669 112.831,186.002 111.5,230.5C 110.893,230.376 110.56,230.043 110.5,229.5C 111.499,190.004 111.832,150.337 111.5,110.5C 111.5,106.167 111.5,101.833 111.5,97.5 Z" /></g><g><path style="opacity:1" fill="#ff6266" d="M 111.5,110.5 C 111.832,150.337 111.499,190.004 110.5,229.5C 84.8522,210.245 73.5189,184.578 76.5,152.5C 87.6902,138.131 99.3568,124.131 111.5,110.5 Z" /></g><g><path style="opacity:0.898" fill="#ffa69e" d="M 276.5,109.5 C 276.832,143.671 276.498,177.671 275.5,211.5C 269.196,209.344 263.196,206.678 257.5,203.5C 264.359,183.235 265.859,162.569 262,141.5C 260.126,134.048 257.959,126.715 255.5,119.5C 262.25,115.797 269.25,112.464 276.5,109.5 Z" /></g><g><path style="opacity:0.985" fill="#ffada7" d="M 255.5,119.5 C 257.959,126.715 260.126,134.048 262,141.5C 265.859,162.569 264.359,183.235 257.5,203.5C 255.167,202.833 252.833,202.167 250.5,201.5C 249.833,200.833 249.167,200.167 248.5,199.5C 249.496,199.586 250.329,199.252 251,198.5C 259.638,174.881 259.638,151.215 251,127.5C 250.502,125.456 249.335,124.122 247.5,123.5C 248.167,122.833 248.833,122.167 249.5,121.5C 251.5,120.833 253.5,120.167 255.5,119.5 Z" /></g><g><path style="opacity:0.988" fill="#ff9f98" d="M 247.5,123.5 C 249.335,124.122 250.502,125.456 251,127.5C 259.638,151.215 259.638,174.881 251,198.5C 250.329,199.252 249.496,199.586 248.5,199.5C 244.407,198.618 240.74,196.951 237.5,194.5C 241.174,180.766 242.674,166.766 242,152.5C 240.369,144.803 238.202,137.303 235.5,130C 236.056,129.617 236.389,129.117 236.5,128.5C 239.751,126.043 243.418,124.376 247.5,123.5 Z" /></g><g><path style="opacity:1" fill="#ffe8e9" d="M 210.5,77.5 C 212.5,79.1667 214.5,80.8333 216.5,82.5C 214.629,82.8588 213.129,83.8588 212,85.5C 210.71,87.792 209.043,89.792 207,91.5C 206.333,92.1667 206.333,92.8333 207,93.5C 216.965,101.128 225.132,110.294 231.5,121C 235.807,120.86 239.807,119.526 243.5,117C 244.252,116.329 244.586,115.496 244.5,114.5C 245.991,117.021 247.658,119.354 249.5,121.5C 248.833,122.167 248.167,122.833 247.5,123.5C 243.418,124.376 239.751,126.043 236.5,128.5C 233.314,129.597 230.314,130.93 227.5,132.5C 206.484,142.009 185.817,152.009 165.5,162.5C 186.137,172.652 207.137,181.985 228.5,190.5C 231.088,192.625 234.088,193.958 237.5,194.5C 240.74,196.951 244.407,198.618 248.5,199.5C 249.167,200.167 249.833,200.833 250.5,201.5C 249.263,202.965 248.263,204.632 247.5,206.5C 242.823,204.662 238.157,203.162 233.5,202C 216.407,233.529 189.741,249.695 153.5,250.5C 153.5,248.167 153.5,245.833 153.5,243.5C 156.713,243.81 159.713,243.477 162.5,242.5C 192.153,239.515 213.82,224.849 227.5,198.5C 203.483,187.824 179.483,177.157 155.5,166.5C 155.158,165.662 154.492,165.328 153.5,165.5C 153.5,163.5 153.5,161.5 153.5,159.5C 154.492,159.672 155.158,159.338 155.5,158.5C 178.601,147.282 201.934,136.615 225.5,126.5C 220.43,115.419 212.763,106.419 202.5,99.5C 201.833,98.8333 201.167,98.1667 200.5,97.5C 202.729,96.9447 204.395,95.6114 205.5,93.5C 203.838,91.3483 201.838,89.6817 199.5,88.5C 203.132,85.8614 206.132,82.528 208.5,78.5C 209.167,78.1667 209.833,77.8333 210.5,77.5 Z" /></g><g><path style="opacity:1" fill="#ffada6" d="M 236.5,128.5 C 236.389,129.117 236.056,129.617 235.5,130C 238.202,137.303 240.369,144.803 242,152.5C 242.674,166.766 241.174,180.766 237.5,194.5C 234.088,193.958 231.088,192.625 228.5,190.5C 229.496,190.586 230.329,190.252 231,189.5C 236.971,171.851 236.971,154.185 231,136.5C 230.502,134.456 229.335,133.122 227.5,132.5C 230.314,130.93 233.314,129.597 236.5,128.5 Z" /></g><g><path style="opacity:1" fill="#ff9f99" d="M 227.5,132.5 C 229.335,133.122 230.502,134.456 231,136.5C 236.971,154.185 236.971,171.851 231,189.5C 230.329,190.252 229.496,190.586 228.5,190.5C 207.137,181.985 186.137,172.652 165.5,162.5C 185.817,152.009 206.484,142.009 227.5,132.5 Z" /></g><g><path style="opacity:1" fill="#ff9a9c" d="M 79.5,140.5 C 79.5905,143.152 78.9238,145.485 77.5,147.5C 77.4095,144.848 78.0762,142.515 79.5,140.5 Z" /></g><g><path style="opacity:1" fill="#ff7376" d="M 145.5,242.5 C 145.667,217.831 145.5,193.164 145,168.5C 136.29,178.208 127.957,188.208 120,198.5C 119.5,210.495 119.333,222.495 119.5,234.5C 118.501,187.67 118.168,140.67 118.5,93.5C 118.5,92.8333 118.833,92.5 119.5,92.5C 119.333,124.168 119.5,155.835 120,187.5C 128.333,177.167 136.667,166.833 145,156.5C 145.5,132.836 145.667,109.169 145.5,85.5C 142.833,85.8333 140.167,86.1667 137.5,86.5C 140.171,84.8819 143.171,84.2153 146.5,84.5C 146.832,137.336 146.499,190.003 145.5,242.5 Z" /></g><g><path style="opacity:0.988" fill="#ffa099" d="M 82.5,232.5 C 80.2843,231.797 78.451,230.464 77,228.5C 65.2666,213.801 58.1,197.134 55.5,178.5C 59.2513,173.348 63.2513,168.348 67.5,163.5C 69.794,185.234 77.4607,204.734 90.5,222C 88.3674,225.958 85.7008,229.458 82.5,232.5 Z" /></g><g><path style="opacity:0.992" fill="#ff7579" d="M 153.5,165.5 C 154.492,165.328 155.158,165.662 155.5,166.5C 154.502,191.661 154.169,216.995 154.5,242.5C 157.167,242.5 159.833,242.5 162.5,242.5C 159.713,243.477 156.713,243.81 153.5,243.5C 153.5,217.5 153.5,191.5 153.5,165.5 Z" /></g><g><path style="opacity:0.988" fill="#ff5a5f" d="M 155.5,166.5 C 179.483,177.157 203.483,187.824 227.5,198.5C 213.82,224.849 192.153,239.515 162.5,242.5C 159.833,242.5 157.167,242.5 154.5,242.5C 154.169,216.995 154.502,191.661 155.5,166.5 Z" /></g><g><path style="opacity:0.898" fill="#ffd9d6" d="M 276.5,109.5 C 277.83,143.669 277.83,178.002 276.5,212.5C 275.893,212.376 275.56,212.043 275.5,211.5C 276.498,177.671 276.832,143.671 276.5,109.5 Z" /></g><g><path style="opacity:0.988" fill="#ff5a5f" d="M 145.5,242.5 C 142.941,242.802 140.607,242.468 138.5,241.5C 136.485,240.076 134.152,239.41 131.5,239.5C 127.111,238.597 123.111,236.931 119.5,234.5C 119.333,222.495 119.5,210.495 120,198.5C 127.957,188.208 136.29,178.208 145,168.5C 145.5,193.164 145.667,217.831 145.5,242.5 Z" /></g><g><path style="opacity:0.985" fill="#ffada6" d="M 54.5,178.5 C 54.8333,178.5 55.1667,178.5 55.5,178.5C 58.1,197.134 65.2666,213.801 77,228.5C 78.451,230.464 80.2843,231.797 82.5,232.5C 82.1667,233.167 81.8333,233.833 81.5,234.5C 80.194,236.473 78.5273,238.139 76.5,239.5C 70.7729,231.732 65.2729,223.732 60,215.5C 55.6768,206.863 52.3435,197.863 50,188.5C 49.6174,187.944 49.1174,187.611 48.5,187.5C 50.4742,184.518 52.4742,181.518 54.5,178.5 Z" /></g><g><path style="opacity:0.898" fill="#ffa69e" d="M 48.5,187.5 C 49.1174,187.611 49.6174,187.944 50,188.5C 52.3435,197.863 55.6768,206.863 60,215.5C 65.2729,223.732 70.7729,231.732 76.5,239.5C 69.6056,249.401 61.939,258.735 53.5,267.5C 39.2307,256.734 25.3973,245.4 12,233.5C 11.3333,232.5 11.3333,231.5 12,230.5C 23.7102,215.724 35.8768,201.391 48.5,187.5 Z" /></g><g><path style="opacity:0.898" fill="#ff5e62" d="M 247.5,206.5 C 228.129,244.813 196.795,264.48 153.5,265.5C 153.5,260.5 153.5,255.5 153.5,250.5C 189.741,249.695 216.407,233.529 233.5,202C 238.157,203.162 242.823,204.662 247.5,206.5 Z" /></g><g><path style="opacity:0.898" fill="#ff5e62" d="M 111.5,238.5 C 111.821,244.026 111.488,249.36 110.5,254.5C 102.321,250.247 94.6545,245.247 87.5,239.5C 89.6815,234.972 92.6815,230.972 96.5,227.5C 101.238,231.578 106.238,235.244 111.5,238.5 Z" /></g><g><path style="opacity:0.941" fill="#ffabae" d="M 111.5,238.5 C 112.489,243.975 112.822,249.642 112.5,255.5C 111.508,255.672 110.842,255.338 110.5,254.5C 111.488,249.36 111.821,244.026 111.5,238.5 Z" /></g><g><path style="opacity:0.988" fill="#ff8688" d="M 131.5,239.5 C 134.152,239.41 136.485,240.076 138.5,241.5C 135.848,241.59 133.515,240.924 131.5,239.5 Z" /></g><g><path style="opacity:0.937" fill="#ff9da1" d="M 120.5,243.5 C 119.513,248.305 119.179,253.305 119.5,258.5C 119.167,258.5 118.833,258.5 118.5,258.5C 118.172,253.125 118.505,247.792 119.5,242.5C 120.107,242.624 120.44,242.957 120.5,243.5 Z" /></g><g><path style="opacity:0.898" fill="#ff5d61" d="M 120.5,243.5 C 123.704,244.901 127.037,245.901 130.5,246.5C 132.515,247.924 134.848,248.59 137.5,248.5C 140.391,249.403 143.391,249.736 146.5,249.5C 146.5,254.5 146.5,259.5 146.5,264.5C 145.167,264.5 143.833,264.5 142.5,264.5C 138.96,264.247 135.627,263.581 132.5,262.5C 130.485,261.076 128.152,260.41 125.5,260.5C 123.214,260.405 121.214,259.738 119.5,258.5C 119.179,253.305 119.513,248.305 120.5,243.5 Z" /></g><g><path style="opacity:0.969" fill="#ffbcbe" d="M 130.5,246.5 C 133.152,246.41 135.485,247.076 137.5,248.5C 134.848,248.59 132.515,247.924 130.5,246.5 Z" /></g><g><path style="opacity:0.898" fill="#ff8b8d" d="M 125.5,260.5 C 128.152,260.41 130.485,261.076 132.5,262.5C 129.848,262.59 127.515,261.924 125.5,260.5 Z" /></g></svg>