<!DOCTYPE svg PUBLIC "-//W3C//DTD SVG 1.1//EN" "http://www.w3.org/Graphics/SVG/1.1/DTD/svg11.dtd"[]><svg xmlns="http://www.w3.org/2000/svg" version="1.1" width="160" height="37" style="shape-rendering:geometricPrecision; text-rendering:geometricPrecision; image-rendering:optimizeQuality; fill-rule:evenodd; clip-rule:evenodd" xmlns:xlink="http://www.w3.org/1999/xlink" viewBox="0 0 470 111"><g><path style="opacity:1" fill="#fcfcfc" d="M -0.5,-0.5 C 13.5,-0.5 27.5,-0.5 41.5,-0.5C 41.5,-0.166667 41.5,0.166667 41.5,0.5C 26.6856,-2.06032 14.5189,2.27302 5,13.5C 0.0262042,24.488 0.692871,35.1547 7,45.5C 10.0422,48.9327 13.5422,51.766 17.5,54C 28.1196,58.0928 38.4529,62.7594 48.5,68C 55.8953,75.6845 56.3953,83.8511 50,92.5C 40.9784,98.1405 31.1451,99.9738 20.5,98C 13.929,96.9411 7.59567,95.1077 1.5,92.5C 0.166667,96.8333 0.166667,101.167 1.5,105.5C 5.64058,107.38 9.97391,108.547 14.5,109C 21.4921,109.5 28.4921,109.666 35.5,109.5C 35.5,109.833 35.5,110.167 35.5,110.5C 23.5,110.5 11.5,110.5 -0.5,110.5C -0.5,73.5 -0.5,36.5 -0.5,-0.5 Z" /></g><g><path style="opacity:1" fill="#fdfefd" d="M 41.5,0.5 C 41.5,0.166667 41.5,-0.166667 41.5,-0.5C 94.8333,-0.5 148.167,-0.5 201.5,-0.5C 179.135,5.04387 166.301,19.3772 163,42.5C 160.576,60.9136 164.243,77.9136 174,93.5C 183.85,104.454 196.184,109.787 211,109.5C 240.558,108.947 257.224,93.9467 261,64.5C 262.977,48.6314 260.31,33.6314 253,19.5C 245.398,8.12372 234.898,1.45705 221.5,-0.5C 283.833,-0.5 346.167,-0.5 408.5,-0.5C 386.135,5.04387 373.301,19.3772 370,42.5C 367.576,60.9136 371.243,77.9136 381,93.5C 390.85,104.454 403.184,109.787 418,109.5C 447.558,108.947 464.224,93.9467 468,64.5C 469.977,48.6314 467.31,33.6314 460,19.5C 452.398,8.12372 441.898,1.45705 428.5,-0.5C 442.167,-0.5 455.833,-0.5 469.5,-0.5C 469.5,36.5 469.5,73.5 469.5,110.5C 324.833,110.5 180.167,110.5 35.5,110.5C 35.5,110.167 35.5,109.833 35.5,109.5C 60.8613,106.987 71.0279,93.3208 66,68.5C 62.0518,61.2192 56.2185,56.0526 48.5,53C 39.1159,49.8068 30.1159,45.8068 21.5,41C 15.9388,35.6363 14.1055,29.1363 16,21.5C 18.2215,17.6119 21.3882,14.7786 25.5,13C 37.6875,10.1591 49.3542,11.6591 60.5,17.5C 62.7955,13.6532 63.7955,9.6532 63.5,5.5C 56.4416,2.56848 49.1083,0.90181 41.5,0.5 Z" /></g><g><path style="opacity:1" fill="#719893" d="M 201.5,-0.5 C 208.167,-0.5 214.833,-0.5 221.5,-0.5C 234.898,1.45705 245.398,8.12372 253,19.5C 260.31,33.6314 262.977,48.6314 261,64.5C 257.224,93.9467 240.558,108.947 211,109.5C 196.184,109.787 183.85,104.454 174,93.5C 164.243,77.9136 160.576,60.9136 163,42.5C 166.301,19.3772 179.135,5.04387 201.5,-0.5 Z" /></g><g><path style="opacity:1" fill="#719893" d="M 408.5,-0.5 C 415.167,-0.5 421.833,-0.5 428.5,-0.5C 441.898,1.45705 452.398,8.12372 460,19.5C 467.31,33.6314 469.977,48.6314 468,64.5C 464.224,93.9467 447.558,108.947 418,109.5C 403.184,109.787 390.85,104.454 381,93.5C 371.243,77.9136 367.576,60.9136 370,42.5C 373.301,19.3772 386.135,5.04387 408.5,-0.5 Z" /></g><g><path style="opacity:1" fill="#709893" d="M 41.5,0.5 C 49.1083,0.90181 56.4416,2.56848 63.5,5.5C 63.7955,9.6532 62.7955,13.6532 60.5,17.5C 49.3542,11.6591 37.6875,10.1591 25.5,13C 21.3882,14.7786 18.2215,17.6119 16,21.5C 14.1055,29.1363 15.9388,35.6363 21.5,41C 30.1159,45.8068 39.1159,49.8068 48.5,53C 56.2185,56.0526 62.0518,61.2192 66,68.5C 71.0279,93.3208 60.8613,106.987 35.5,109.5C 28.4921,109.666 21.4921,109.5 14.5,109C 9.97391,108.547 5.64058,107.38 1.5,105.5C 0.166667,101.167 0.166667,96.8333 1.5,92.5C 7.59567,95.1077 13.929,96.9411 20.5,98C 31.1451,99.9738 40.9784,98.1405 50,92.5C 56.3953,83.8511 55.8953,75.6845 48.5,68C 38.4529,62.7594 28.1196,58.0928 17.5,54C 13.5422,51.766 10.0422,48.9327 7,45.5C 0.692871,35.1547 0.0262042,24.488 5,13.5C 14.5189,2.27302 26.6856,-2.06032 41.5,0.5 Z" /></g><g><path style="opacity:1" fill="#6f9792" d="M 90.5,1.5 C 94.8333,1.5 99.1667,1.5 103.5,1.5C 103.5,33.1667 103.5,64.8333 103.5,96.5C 119.167,96.5 134.833,96.5 150.5,96.5C 150.5,100.5 150.5,104.5 150.5,108.5C 130.5,108.5 110.5,108.5 90.5,108.5C 90.5,72.8333 90.5,37.1667 90.5,1.5 Z" /></g><g><path style="opacity:1" fill="#719893" d="M 270.5,2.5 C 275.234,1.17637 280.067,1.17637 285,2.5C 295.865,31.9277 306.031,61.5944 315.5,91.5C 325.307,61.4134 335.307,31.4134 345.5,1.5C 350.511,1.33407 355.511,1.50074 360.5,2C 347.335,37.3289 334.668,72.8289 322.5,108.5C 317.833,108.5 313.167,108.5 308.5,108.5C 296.405,72.8755 283.738,37.5422 270.5,2.5 Z" /></g><g><path style="opacity:1" fill="#fdfefe" d="M 201.5,11.5 C 224.853,6.91116 239.687,15.9112 246,38.5C 248.553,52.1054 247.553,65.4387 243,78.5C 239.232,88.6001 232.066,94.7668 221.5,97C 197.181,101.314 182.681,91.4809 178,67.5C 175.184,53.7356 176.517,40.4022 182,27.5C 186.518,19.6695 193.018,14.3362 201.5,11.5 Z" /></g><g><path style="opacity:1" fill="#fdfefe" d="M 408.5,11.5 C 431.853,6.91116 446.687,15.9112 453,38.5C 455.553,52.1054 454.553,65.4387 450,78.5C 446.232,88.6001 439.066,94.7668 428.5,97C 404.181,101.314 389.681,91.4809 385,67.5C 382.184,53.7356 383.517,40.4022 389,27.5C 393.518,19.6695 400.018,14.3362 408.5,11.5 Z" /></g></svg>