<!DOCTYPE svg PUBLIC "-//W3C//DTD SVG 1.1//EN" "http://www.w3.org/Graphics/SVG/1.1/DTD/svg11.dtd"[]><svg xmlns="http://www.w3.org/2000/svg" version="1.1" width="160" height="160" style="shape-rendering:geometricPrecision; text-rendering:geometricPrecision; image-rendering:optimizeQuality; fill-rule:evenodd; clip-rule:evenodd" xmlns:xlink="http://www.w3.org/1999/xlink" viewBox="0 0 1024 1024"><g><path style="opacity:1" fill="#fcfdfc" d="M -0.5,-0.5 C 340.833,-0.5 682.167,-0.5 1023.5,-0.5C 1023.5,340.833 1023.5,682.167 1023.5,1023.5C 682.167,1023.5 340.833,1023.5 -0.5,1023.5C -0.5,682.167 -0.5,340.833 -0.5,-0.5 Z" /></g><g><path style="opacity:1" fill="#cccdcf" d="M 495.5,145.5 C 487.639,146.494 479.639,147.494 471.5,148.5C 473.476,146.989 475.809,146.156 478.5,146C 484.157,145.501 489.824,145.334 495.5,145.5 Z" /></g><g><path style="opacity:1" fill="#141516" d="M 495.5,145.5 C 596.388,142.946 681.888,177.613 752,249.5C 757.426,255.085 762.259,261.085 766.5,267.5C 763.797,269.11 760.797,270.11 757.5,270.5C 744.202,270.744 732.535,275.077 722.5,283.5C 713.445,290.252 706.778,298.918 702.5,309.5C 708.472,310.33 714.472,310.83 720.5,311C 709.387,324.209 707.553,338.709 715,354.5C 717.767,360.258 720.934,365.758 724.5,371C 730.323,354.106 740.657,340.106 755.5,329C 760.554,325.806 765.888,323.139 771.5,321C 751.134,320.436 735.634,328.936 725,346.5C 720.428,331.838 724.261,320.005 736.5,311C 749.5,303.237 763.333,301.403 778,305.5C 778.833,305.167 779.667,304.833 780.5,304.5C 773.536,298.856 765.536,295.689 756.5,295C 744.274,293.699 732.607,295.366 721.5,300C 725.101,295.889 729.101,292.389 733.5,289.5C 745.195,284.03 757.528,282.03 770.5,283.5C 771.615,278.438 773.949,273.938 777.5,270C 797.96,252.016 821.626,245.516 848.5,250.5C 828.015,252.264 810.181,259.931 795,273.5C 791.937,277.569 789.27,281.902 787,286.5C 785.792,292.922 786.792,298.922 790,304.5C 791.836,287.354 800.669,275.187 816.5,268C 834.552,260.095 852.886,259.429 871.5,266C 863.259,266.595 855.259,268.262 847.5,271C 869.16,271.097 886.993,279.263 901,295.5C 901.483,296.448 901.649,297.448 901.5,298.5C 900.167,298.5 898.833,298.5 897.5,298.5C 887.833,297.167 878.167,297.167 868.5,298.5C 861.408,299.117 854.742,301.117 848.5,304.5C 866.878,311.71 880.711,324.043 890,341.5C 890.494,343.134 890.66,344.801 890.5,346.5C 876.525,343.792 862.525,340.959 848.5,338C 846.098,337.186 843.765,337.353 841.5,338.5C 860.652,366.947 872.319,398.28 876.5,432.5C 869.5,432.5 862.5,432.5 855.5,432.5C 855.728,388.823 841.062,351.157 811.5,319.5C 814.468,317.408 817.801,315.908 821.5,315C 834.552,312.503 847.218,313.503 859.5,318C 843.672,307.101 826.672,304.768 808.5,311C 805.109,312.689 802.109,314.856 799.5,317.5C 818.745,334.3 832.245,354.966 840,379.5C 844.772,393.864 847.939,408.531 849.5,423.5C 849.5,426.167 849.5,428.833 849.5,431.5C 816.833,431.5 784.167,431.5 751.5,431.5C 739.988,431.828 728.654,431.495 717.5,430.5C 722.167,428.833 726.833,427.167 731.5,425.5C 732.833,425.5 733.5,424.833 733.5,423.5C 736.988,423.295 740.321,422.461 743.5,421C 742.062,420.781 740.729,420.281 739.5,419.5C 746.803,418.503 754.137,418.169 761.5,418.5C 764.496,406.176 772.163,401.176 784.5,403.5C 782.478,400.644 779.978,398.311 777,396.5C 776.383,395.551 776.549,394.718 777.5,394C 784.02,391.483 790.02,392.317 795.5,396.5C 796.721,388.498 793.388,382.998 785.5,380C 768.683,378.972 758.683,386.805 755.5,403.5C 748.759,403.171 742.092,403.671 735.5,405C 723.961,409.954 712.628,415.288 701.5,421C 700.365,421.749 699.365,421.583 698.5,420.5C 713.383,406.687 719.216,389.687 716,369.5C 712.44,357.942 705.273,349.442 694.5,344C 678.112,335.139 661.445,326.806 644.5,319C 623.343,314.328 608.176,321.828 599,341.5C 596.193,347.921 594.193,354.588 593,361.5C 592.435,371.873 592.435,382.207 593,392.5C 578.574,382.689 563.741,373.856 548.5,366C 559.033,377.365 569.7,388.532 580.5,399.5C 579.817,401.176 578.483,401.843 576.5,401.5C 576.389,400.883 576.056,400.383 575.5,400C 559.5,399.833 543.5,399.667 527.5,399.5C 476.844,399.832 426.177,399.832 375.5,399.5C 351.319,399.433 327.319,400.1 303.5,401.5C 293.985,401.173 284.652,401.506 275.5,402.5C 272.145,402.909 269.145,402.242 266.5,400.5C 261.509,383.342 250.509,377.175 233.5,382C 228.769,385.93 226.769,390.764 227.5,396.5C 232.15,392.687 237.484,391.52 243.5,393C 244.91,393.368 245.91,394.201 246.5,395.5C 243.73,397.561 241.396,400.061 239.5,403C 244.76,402.928 249.76,403.928 254.5,406C 258.052,409.606 260.719,413.773 262.5,418.5C 268.887,417.201 275.22,417.534 281.5,419.5C 280.271,420.281 278.938,420.781 277.5,421C 282.011,422.836 286.677,424.17 291.5,425C 290.5,425.333 289.5,425.667 288.5,426C 292.308,427.992 296.308,429.492 300.5,430.5C 289.5,431.167 278.5,431.833 267.5,432.5C 236.167,432.5 204.833,432.5 173.5,432.5C 175.845,396.605 187.345,363.939 208,334.5C 212.982,328.684 218.149,323.017 223.5,317.5C 220.345,313.75 216.345,311.25 211.5,310C 194.061,304.524 178.061,307.19 163.5,318C 179.754,311.998 196.087,312.165 212.5,318.5C 186.19,347.735 171.523,382.068 168.5,421.5C 167.521,424.625 167.187,427.958 167.5,431.5C 161.167,431.5 154.833,431.5 148.5,431.5C 148.5,429.5 148.5,427.5 148.5,425.5C 152.789,393.612 164.123,364.612 182.5,338.5C 177.525,337.742 172.525,337.908 167.5,339C 156.168,341.5 144.835,344 133.5,346.5C 134.857,338.453 138.357,331.453 144,325.5C 152.681,316.315 162.848,309.315 174.5,304.5C 166.32,300.523 157.653,298.356 148.5,298C 139.921,297.184 131.421,297.351 123,298.5C 122.333,297.5 122.333,296.5 123,295.5C 132.829,282.834 145.662,275.168 161.5,272.5C 166.511,272.666 171.511,272.499 176.5,272C 175.473,271.487 174.473,270.987 173.5,270.5C 166.568,268.813 159.568,267.313 152.5,266C 176.036,257.707 198.036,260.707 218.5,275C 227.756,282.678 232.923,292.512 234,304.5C 239.096,295.114 238.429,286.114 232,277.5C 223.611,268.053 213.445,261.22 201.5,257C 192.903,254.512 184.237,252.346 175.5,250.5C 201.946,246.021 225.446,252.354 246,269.5C 249.005,273.506 251.505,277.84 253.5,282.5C 272.924,281.194 289.59,287.194 303.5,300.5C 303.333,300.833 303.167,301.167 303,301.5C 285.516,293.201 267.683,292.367 249.5,299C 247.208,300.29 245.208,301.957 243.5,304C 257.777,301.912 271.443,303.912 284.5,310C 298.531,318.413 303.364,330.579 299,346.5C 287.854,328.345 271.688,319.845 250.5,321C 269.173,327.332 283.34,339.165 293,356.5C 295.466,361.232 297.133,366.232 298,371.5C 308.868,358.022 313.535,342.689 312,325.5C 309.996,320.167 307.163,315.334 303.5,311C 309.491,310.501 315.491,310.334 321.5,310.5C 319.524,305.529 320.357,301.195 324,297.5C 331.088,306.034 337.922,314.701 344.5,323.5C 347.286,321.043 349.286,318.043 350.5,314.5C 342.02,298.206 332.52,282.539 322,267.5C 317.075,274.347 311.908,281.014 306.5,287.5C 292.15,275.881 275.65,269.881 257,269.5C 257.398,267.369 258.398,265.369 260,263.5C 315.585,198.445 386.085,160.112 471.5,148.5C 479.639,147.494 487.639,146.494 495.5,145.5 Z" /></g><g><path style="opacity:1" fill="#ececee" d="M 423.5,183.5 C 425.628,184.957 427.962,185.957 430.5,186.5C 430.5,188.833 430.5,191.167 430.5,193.5C 428.508,193.328 426.842,193.995 425.5,195.5C 423.827,193.914 421.827,193.247 419.5,193.5C 419.682,191.409 419.348,189.409 418.5,187.5C 419.729,186.719 421.062,186.219 422.5,186C 423.252,185.329 423.586,184.496 423.5,183.5 Z" /></g><g><path style="opacity:1" fill="#e6e6e7" d="M 607.5,182.5 C 609.689,184.507 612.355,185.507 615.5,185.5C 614.58,187.881 614.58,190.214 615.5,192.5C 613.311,193.173 611.311,194.173 609.5,195.5C 607.672,194.205 605.672,193.205 603.5,192.5C 604.833,190.833 604.833,189.167 603.5,187.5C 606.342,186.996 607.675,185.329 607.5,182.5 Z" /></g><g><path style="opacity:1" fill="#fafbfb" d="M 561.5,182.5 C 561.5,183.5 561.5,184.5 561.5,185.5C 558.801,185.466 556.301,186.133 554,187.5C 552.16,186.167 551.66,186.334 552.5,188C 551.552,188.483 550.552,188.649 549.5,188.5C 536.257,182.969 522.59,181.469 508.5,184C 546.29,206.77 558.457,239.27 545,281.5C 536.859,298.977 523.692,310.81 505.5,317C 501.48,318.177 497.48,318.344 493.5,317.5C 483.649,301.784 473.316,286.451 462.5,271.5C 454.167,278.833 445.833,286.167 437.5,293.5C 420.827,251.678 429.827,216.512 464.5,188C 495.903,166.876 528.236,165.043 561.5,182.5 Z" /></g><g><path style="opacity:1" fill="#ececee" d="M 646.5,205.5 C 652.158,204.679 653.825,206.846 651.5,212C 646.279,212.61 644.612,210.443 646.5,205.5 Z" /></g><g><path style="opacity:1" fill="#e5e5e7" d="M 370.5,201.5 C 372.017,201.511 373.184,202.177 374,203.5C 377.415,206.737 377.248,209.737 373.5,212.5C 371.253,211.626 368.92,211.292 366.5,211.5C 366.5,209.167 366.5,206.833 366.5,204.5C 368.973,204.912 370.306,203.912 370.5,201.5 Z" /></g><g><path style="opacity:1" fill="#f3f3f4" d="M 561.5,182.5 C 592.311,199.682 608.311,226.015 609.5,261.5C 607.69,304.342 586.356,331.842 545.5,344C 538.882,345.378 532.215,345.711 525.5,345C 581.919,329.934 604.752,293.767 594,236.5C 586.196,213.866 571.362,197.866 549.5,188.5C 550.552,188.649 551.552,188.483 552.5,188C 551.66,186.334 552.16,186.167 554,187.5C 556.301,186.133 558.801,185.466 561.5,185.5C 561.5,184.5 561.5,183.5 561.5,182.5 Z" /></g><g><path style="opacity:1" fill="#edeeee" d="M 684.5,222.5 C 687.161,225.082 690.494,226.748 694.5,227.5C 692.834,228.992 691.834,230.825 691.5,233C 692.322,235.472 692.989,237.972 693.5,240.5C 688.304,238.913 682.97,238.246 677.5,238.5C 679.112,234.588 678.779,230.921 676.5,227.5C 678.423,226.692 680.423,226.192 682.5,226C 683.305,224.887 683.972,223.721 684.5,222.5 Z" /></g><g><path style="opacity:1" fill="#f1f2f3" d="M 337.5,223.5 C 340.715,225.718 344.382,226.885 348.5,227C 345.744,230.413 346.077,233.58 349.5,236.5C 345.641,237.259 342.641,239.259 340.5,242.5C 338.822,239.139 336.155,237.472 332.5,237.5C 334.296,233.518 333.629,230.018 330.5,227C 333.592,227.107 335.925,225.941 337.5,223.5 Z" /></g><g><path style="opacity:1" fill="#eaeaec" d="M 715.5,242.5 C 719.707,242.694 721.04,244.694 719.5,248.5C 713.701,249.576 712.368,247.576 715.5,242.5 Z" /></g><g><path style="opacity:1" fill="#e8e8e9" d="M 305.5,242.5 C 309.935,242.752 311.268,244.919 309.5,249C 303.339,249.878 302.006,247.711 305.5,242.5 Z" /></g><g><path style="opacity:1" fill="#f1f1f2" d="M 368.5,236.5 C 379.081,240.25 386.581,247.25 391,257.5C 391.333,260.167 391.667,262.833 392,265.5C 395.655,258.93 401.155,256.763 408.5,259C 411.01,259.376 413.343,260.21 415.5,261.5C 411.883,263.095 408.217,264.595 404.5,266C 399.004,269.916 393.337,273.582 387.5,277C 381.436,279.586 375.77,278.92 370.5,275C 367.612,271.828 368.278,269.661 372.5,268.5C 374.775,269.598 376.942,270.932 379,272.5C 380.415,259.014 376.915,247.014 368.5,236.5 Z" /></g><g><path style="opacity:1" fill="#606261" d="M 766.5,267.5 C 767.404,268.209 767.737,269.209 767.5,270.5C 764.167,270.5 760.833,270.5 757.5,270.5C 760.797,270.11 763.797,269.11 766.5,267.5 Z" /></g><g><path style="opacity:1" fill="#4c4e4b" d="M 173.5,270.5 C 174.473,270.987 175.473,271.487 176.5,272C 171.511,272.499 166.511,272.666 161.5,272.5C 165.5,271.833 169.5,271.167 173.5,270.5 Z" /></g><g><path style="opacity:1" fill="#eff0f1" d="M 172.5,275.5 C 191.572,273.452 205.738,280.785 215,297.5C 215.667,298.833 215.667,300.167 215,301.5C 200.051,287.28 182.218,280.113 161.5,280C 164.979,277.791 168.646,276.291 172.5,275.5 Z" /></g><g><path style="opacity:1" fill="#f0f0f1" d="M 631.5,262.5 C 642.882,262.038 651.215,267.038 656.5,277.5C 661.671,270.527 668.337,268.693 676.5,272C 668.584,276.468 661.584,282.135 655.5,289C 651.216,291.898 646.883,292.064 642.5,289.5C 640.998,287.167 641.498,285.501 644,284.5C 645.3,285.707 646.8,286.374 648.5,286.5C 646.272,276.038 640.606,268.038 631.5,262.5 Z" /></g><g><path style="opacity:1" fill="#efeff0" d="M 833.5,275.5 C 843.588,274.492 853.254,275.992 862.5,280C 840.639,279.52 822.472,287.353 808,303.5C 809.929,293.225 815.429,285.392 824.5,280C 827.648,278.576 830.648,277.076 833.5,275.5 Z" /></g><g><path style="opacity:1" fill="#f5f5f5" d="M 722.5,283.5 C 724.062,284.976 725.729,286.476 727.5,288C 729.235,288.651 730.902,288.485 732.5,287.5C 733.298,287.957 733.631,288.624 733.5,289.5C 729.101,292.389 725.101,295.889 721.5,300C 732.607,295.366 744.274,293.699 756.5,295C 765.536,295.689 773.536,298.856 780.5,304.5C 779.667,304.833 778.833,305.167 778,305.5C 763.333,301.403 749.5,303.237 736.5,311C 724.261,320.005 720.428,331.838 725,346.5C 735.634,328.936 751.134,320.436 771.5,321C 765.888,323.139 760.554,325.806 755.5,329C 740.657,340.106 730.323,354.106 724.5,371C 720.934,365.758 717.767,360.258 715,354.5C 707.553,338.709 709.387,324.209 720.5,311C 714.472,310.83 708.472,310.33 702.5,309.5C 706.778,298.918 713.445,290.252 722.5,283.5 Z" /></g><g><path style="opacity:1" fill="#c8c9c8" d="M 868.5,298.5 C 878.167,297.167 887.833,297.167 897.5,298.5C 887.922,298.86 878.255,298.86 868.5,298.5 Z" /></g><g><path style="opacity:1" fill="#f6f6f6" d="M 388.5,302.5 C 390.371,302.859 391.871,303.859 393,305.5C 414.05,332.215 434.717,359.215 455,386.5C 455.688,387.332 455.521,387.998 454.5,388.5C 431.682,370.329 409.515,351.329 388,331.5C 378.015,340.651 368.182,349.984 358.5,359.5C 358.167,359.167 357.833,358.833 357.5,358.5C 359.295,354.616 360.795,350.616 362,346.5C 363.167,345.333 364.333,344.167 365.5,343C 357.773,345.192 350.44,348.525 343.5,353C 342.5,353.667 341.5,353.667 340.5,353C 356.704,336.298 372.704,319.464 388.5,302.5 Z" /></g><g><path style="opacity:1" fill="#d8d9db" d="M 241.5,310.5 C 247.362,310.152 253.028,310.985 258.5,313C 251.5,313.667 244.5,313.667 237.5,313C 239.066,312.392 240.4,311.558 241.5,310.5 Z" /></g><g><path style="opacity:1" fill="#bebec0" d="M 769.5,310.5 C 775.028,310.206 780.361,311.039 785.5,313C 778.167,313.667 770.833,313.667 763.5,313C 765.611,312.155 767.611,311.322 769.5,310.5 Z" /></g><g><path style="opacity:1" fill="#f5f7f7" d="M 876.5,432.5 C 876.918,433.222 877.584,433.722 878.5,434C 876.388,434.906 875.555,436.406 876,438.5C 876.741,439.641 877.575,439.641 878.5,438.5C 879.833,439.833 879.833,441.167 878.5,442.5C 877.264,441.754 875.93,441.421 874.5,441.5C 869.89,441.265 866.223,440.265 863.5,438.5C 863.5,439.5 863.5,440.5 863.5,441.5C 796.304,441.828 729.138,441.495 662,440.5C 660.358,440.978 659.191,441.978 658.5,443.5C 658.5,443.833 658.5,444.167 658.5,444.5C 657.295,447.234 655.795,449.901 654,452.5C 653.251,453.635 653.417,454.635 654.5,455.5C 660.973,461.399 668.306,465.732 676.5,468.5C 674.833,468.5 673.167,468.5 671.5,468.5C 671.5,469.5 671.5,470.5 671.5,471.5C 675.394,471.11 679.06,471.777 682.5,473.5C 682.167,474.167 681.833,474.833 681.5,475.5C 739.496,476.5 797.496,476.833 855.5,476.5C 794.335,477.665 733.001,477.832 671.5,477C 661.919,476.866 653.586,473.699 646.5,467.5C 643.654,471.191 641.32,475.191 639.5,479.5C 639.5,480.833 639.5,482.167 639.5,483.5C 646.746,486.144 654.079,488.477 661.5,490.5C 664.37,492.794 667.703,494.128 671.5,494.5C 689.394,501.747 707.394,508.913 725.5,516C 737.398,520.687 749.398,524.854 761.5,528.5C 768.599,530.044 775.932,530.71 783.5,530.5C 807.493,529.691 831.493,529.357 855.5,529.5C 844.992,530.167 834.326,530.833 823.5,531.5C 831.479,532.332 839.479,532.832 847.5,533C 848.328,533.915 849.328,534.581 850.5,535C 833.469,535.125 816.469,535.791 799.5,537C 816.5,537.333 833.5,537.667 850.5,538C 852.058,538.21 853.391,538.71 854.5,539.5C 857.572,539.183 860.572,539.516 863.5,540.5C 861.577,541.308 859.577,541.808 857.5,542C 856.74,543.441 856.074,544.941 855.5,546.5C 838.843,547.333 822.177,547.833 805.5,548C 810.555,549.648 815.722,550.815 821,551.5C 822.326,551.245 823.326,550.578 824,549.5C 831.65,549.239 839.484,549.572 847.5,550.5C 842.208,551.495 836.875,551.828 831.5,551.5C 831.5,552.5 831.5,553.5 831.5,554.5C 837.873,554.753 844.206,554.419 850.5,553.5C 851.966,554.135 853.3,554.969 854.5,556C 852.52,557.825 850.187,558.659 847.5,558.5C 847.5,557.5 847.5,556.5 847.5,555.5C 837.652,555.173 827.986,555.506 818.5,556.5C 817.504,572.325 817.17,588.325 817.5,604.5C 816.669,589.672 816.169,574.672 816,559.5C 815.667,558.833 815.333,558.167 815,557.5C 812.2,558.125 809.366,558.792 806.5,559.5C 806.709,560.086 807.043,560.586 807.5,561C 806.835,621.931 806.168,682.764 805.5,743.5C 805.833,682.83 805.5,622.163 804.5,561.5C 742.974,537.263 681.307,513.097 619.5,489C 619.043,488.586 618.709,488.086 618.5,487.5C 623.195,479.15 627.861,470.816 632.5,462.5C 639.346,449.982 646.346,437.482 653.5,425C 675.851,423.074 691.685,411.908 701,391.5C 706.344,377.534 702.844,366.367 690.5,358C 675.627,349.731 660.627,341.731 645.5,334C 630.06,328.142 618.893,332.642 612,347.5C 604.923,366.743 604.756,386.076 611.5,405.5C 600.146,426.373 588.146,446.873 575.5,467C 573.833,467.667 572.167,467.667 570.5,467C 566.077,465.115 561.744,463.281 557.5,461.5C 559.857,461.663 562.19,461.497 564.5,461C 561.712,458.626 562.046,457.293 565.5,457C 564.692,456.692 564.025,456.192 563.5,455.5C 565.547,453.985 567.881,453.151 570.5,453C 571.866,451.4 572.866,449.567 573.5,447.5C 574.425,446.359 575.259,446.359 576,447.5C 578.492,442.751 580.326,437.418 581.5,431.5C 581.5,431.167 581.5,430.833 581.5,430.5C 582.043,430.44 582.376,430.107 582.5,429.5C 581.675,428.614 580.675,428.281 579.5,428.5C 578.282,427.839 576.949,427.172 575.5,426.5C 577.079,425.333 578.412,424 579.5,422.5C 581.698,422.88 583.365,422.213 584.5,420.5C 587.264,420.001 588.931,418.335 589.5,415.5C 590.338,415.158 590.672,414.492 590.5,413.5C 591.89,412.101 592.89,410.434 593.5,408.5C 596.91,406.778 597.243,404.611 594.5,402C 590.083,401.772 585.75,401.272 581.5,400.5C 581.5,399.833 581.167,399.5 580.5,399.5C 569.7,388.532 559.033,377.365 548.5,366C 563.741,373.856 578.574,382.689 593,392.5C 592.435,382.207 592.435,371.873 593,361.5C 594.193,354.588 596.193,347.921 599,341.5C 608.176,321.828 623.343,314.328 644.5,319C 661.445,326.806 678.112,335.139 694.5,344C 705.273,349.442 712.44,357.942 716,369.5C 719.216,389.687 713.383,406.687 698.5,420.5C 699.365,421.583 700.365,421.749 701.5,421C 712.628,415.288 723.961,409.954 735.5,405C 742.092,403.671 748.759,403.171 755.5,403.5C 758.683,386.805 768.683,378.972 785.5,380C 793.388,382.998 796.721,388.498 795.5,396.5C 790.02,392.317 784.02,391.483 777.5,394C 776.549,394.718 776.383,395.551 777,396.5C 779.978,398.311 782.478,400.644 784.5,403.5C 772.163,401.176 764.496,406.176 761.5,418.5C 754.137,418.169 746.803,418.503 739.5,419.5C 740.729,420.281 742.062,420.781 743.5,421C 740.321,422.461 736.988,423.295 733.5,423.5C 731.473,423.338 729.473,423.505 727.5,424C 729.058,424.21 730.391,424.71 731.5,425.5C 726.833,427.167 722.167,428.833 717.5,430.5C 715.692,430.491 714.025,430.991 712.5,432C 725.496,432.5 738.496,432.667 751.5,432.5C 784.5,432.5 817.5,432.5 850.5,432.5C 850.81,429.287 850.477,426.287 849.5,423.5C 847.939,408.531 844.772,393.864 840,379.5C 832.245,354.966 818.745,334.3 799.5,317.5C 802.109,314.856 805.109,312.689 808.5,311C 826.672,304.768 843.672,307.101 859.5,318C 847.218,313.503 834.552,312.503 821.5,315C 817.801,315.908 814.468,317.408 811.5,319.5C 841.062,351.157 855.728,388.823 855.5,432.5C 862.5,432.5 869.5,432.5 876.5,432.5 Z" /></g><g><path style="opacity:1" fill="#f2f2f3" d="M 790.5,324.5 C 791.675,324.281 792.675,324.614 793.5,325.5C 795.682,329.864 797.849,334.198 800,338.5C 802.707,339.437 805.207,340.77 807.5,342.5C 805.257,343.474 802.924,343.808 800.5,343.5C 800.925,347.607 802.425,351.274 805,354.5C 808.696,355.955 812.196,357.788 815.5,360C 812.167,360.333 808.833,360.667 805.5,361C 806.717,365.79 807.884,370.624 809,375.5C 812.984,377.718 817.15,379.551 821.5,381C 817.848,381.499 814.182,381.665 810.5,381.5C 810.666,387.509 810.499,393.509 810,399.5C 809.899,402.7 809.232,405.7 808,408.5C 802.126,384.793 796.126,361.126 790,337.5C 789.232,333.08 789.398,328.747 790.5,324.5 Z" /></g><g><path style="opacity:1" fill="#f5f5f6" d="M 481.5,331.5 C 483.783,331.608 485.783,332.441 487.5,334C 507.351,350.095 527.018,366.428 546.5,383C 537.975,379.416 529.308,375.749 520.5,372C 510.095,366.38 499.595,360.88 489,355.5C 482.679,360.488 477.012,366.154 472,372.5C 467.399,368.813 466.399,364.48 469,359.5C 467.981,360.687 466.814,361.687 465.5,362.5C 463.15,360.313 461.15,357.813 459.5,355C 466.672,346.996 474.005,339.162 481.5,331.5 Z" /></g><g><path style="opacity:1" fill="#f2f1f3" d="M 242.5,332.5 C 245.253,331.341 247.919,331.841 250.5,334C 259.234,340.864 261.401,349.364 257,359.5C 253.693,349.546 248.86,340.546 242.5,332.5 Z" /></g><g><path style="opacity:1" fill="#f1f1f1" d="M 173.5,432.5 C 171.833,433.833 170.167,433.833 168.5,432.5C 168.5,428.833 168.5,425.167 168.5,421.5C 171.523,382.068 186.19,347.735 212.5,318.5C 196.087,312.165 179.754,311.998 163.5,318C 178.061,307.19 194.061,304.524 211.5,310C 216.345,311.25 220.345,313.75 223.5,317.5C 218.149,323.017 212.982,328.684 208,334.5C 187.345,363.939 175.845,396.605 173.5,432.5 Z" /></g><g><path style="opacity:1" fill="#efefee" d="M 776.5,331.5 C 778.199,331.34 779.866,331.506 781.5,332C 775.417,340.393 770.751,349.56 767.5,359.5C 761.931,347.324 764.931,337.99 776.5,331.5 Z" /></g><g><path style="opacity:1" fill="#f1f2f2" d="M 217.5,362.5 C 218.404,361.791 218.737,360.791 218.5,359.5C 215.941,359.802 213.607,359.468 211.5,358.5C 214.063,356.47 216.896,354.803 220,353.5C 221.372,350.382 222.538,347.216 223.5,344C 221.715,342.837 219.715,342.17 217.5,342C 219.468,340.456 221.635,339.289 224,338.5C 226.167,334.167 228.333,329.833 230.5,325.5C 231.651,324.269 232.817,324.269 234,325.5C 234.167,327.167 234.333,328.833 234.5,330.5C 229.033,355.998 222.867,381.331 216,406.5C 213.884,398.333 213.051,389.999 213.5,381.5C 210.15,381.665 206.817,381.498 203.5,381C 207.628,379.102 211.628,376.935 215.5,374.5C 216.598,370.577 217.265,366.577 217.5,362.5 Z" /></g><g><path style="opacity:1" fill="#838586" d="M 211.5,358.5 C 213.607,359.468 215.941,359.802 218.5,359.5C 218.737,360.791 218.404,361.791 217.5,362.5C 214.992,360.763 211.992,359.93 208.5,360C 209.244,358.961 210.244,358.461 211.5,358.5 Z" /></g><g><path style="opacity:1" fill="#0c1b20" d="M 576.5,401.5 C 485.5,401.5 394.5,401.5 303.5,401.5C 327.319,400.1 351.319,399.433 375.5,399.5C 426.177,399.832 476.844,399.832 527.5,399.5C 543.5,399.667 559.5,399.833 575.5,400C 576.056,400.383 576.389,400.883 576.5,401.5 Z" /></g><g><path style="opacity:1" fill="#56717a" d="M 580.5,399.5 C 581.167,399.5 581.5,399.833 581.5,400.5C 479.839,402.498 377.839,403.164 275.5,402.5C 284.652,401.506 293.985,401.173 303.5,401.5C 394.5,401.5 485.5,401.5 576.5,401.5C 578.483,401.843 579.817,401.176 580.5,399.5 Z" /></g><g><path style="opacity:1" fill="#4a7f8f" d="M 266.5,400.5 C 269.145,402.242 272.145,402.909 275.5,402.5C 377.839,403.164 479.839,402.498 581.5,400.5C 585.75,401.272 590.083,401.772 594.5,402C 597.243,404.611 596.91,406.778 593.5,408.5C 593.719,407.325 593.386,406.325 592.5,405.5C 591.571,406.689 591.238,408.022 591.5,409.5C 522.169,408.833 452.836,408.167 383.5,407.5C 356.031,407.78 328.531,408.446 301,409.5C 298.116,409.394 295.282,409.061 292.5,408.5C 284.36,404.301 275.694,402.634 266.5,403.5C 266.5,402.5 266.5,401.5 266.5,400.5 Z" /></g><g><path style="opacity:1" fill="#47828d" d="M 593.5,408.5 C 592.89,410.434 591.89,412.101 590.5,413.5C 585.651,412.834 580.651,412.167 575.5,411.5C 564.833,411.167 554.167,410.833 543.5,410.5C 526.143,411.042 508.81,411.042 491.5,410.5C 479.537,412.496 467.537,412.83 455.5,411.5C 444.833,412.167 434.167,412.833 423.5,413.5C 382.844,412.934 342.177,412.934 301.5,413.5C 298.299,412.069 295.299,410.403 292.5,408.5C 295.282,409.061 298.116,409.394 301,409.5C 328.531,408.446 356.031,407.78 383.5,407.5C 452.836,408.167 522.169,408.833 591.5,409.5C 591.238,408.022 591.571,406.689 592.5,405.5C 593.386,406.325 593.719,407.325 593.5,408.5 Z" /></g><g><path style="opacity:1" fill="#4b8192" d="M 590.5,413.5 C 590.672,414.492 590.338,415.158 589.5,415.5C 579.491,415.751 569.491,416.251 559.5,417C 476.814,416.976 394.148,417.81 311.5,419.5C 309.517,418.529 307.517,417.529 305.5,416.5C 304.128,415.488 302.795,414.488 301.5,413.5C 342.177,412.934 382.844,412.934 423.5,413.5C 434.167,412.833 444.833,412.167 455.5,411.5C 467.537,412.83 479.537,412.496 491.5,410.5C 508.81,411.042 526.143,411.042 543.5,410.5C 554.167,410.833 564.833,411.167 575.5,411.5C 580.651,412.167 585.651,412.834 590.5,413.5 Z" /></g><g><path style="opacity:1" fill="#4e8990" d="M 589.5,415.5 C 588.931,418.335 587.264,420.001 584.5,420.5C 493.332,420.833 402.332,420.499 311.5,419.5C 394.148,417.81 476.814,416.976 559.5,417C 569.491,416.251 579.491,415.751 589.5,415.5 Z" /></g><g><path style="opacity:1" fill="#ecfdfe" d="M 305.5,416.5 C 307.517,417.529 309.517,418.529 311.5,419.5C 402.332,420.499 493.332,420.833 584.5,420.5C 583.365,422.213 581.698,422.88 579.5,422.5C 492.472,421.536 405.472,421.203 318.5,421.5C 312.808,424.649 308.475,422.982 305.5,416.5 Z" /></g><g><path style="opacity:1" fill="#979797" d="M 733.5,423.5 C 733.5,424.833 732.833,425.5 731.5,425.5C 730.391,424.71 729.058,424.21 727.5,424C 729.473,423.505 731.473,423.338 733.5,423.5 Z" /></g><g><path style="opacity:1" fill="#cadfe7" d="M 579.5,428.5 C 580.675,428.281 581.675,428.614 582.5,429.5C 582.376,430.107 582.043,430.44 581.5,430.5C 498.167,429.167 414.833,429.167 331.5,430.5C 330.711,430.217 330.044,429.717 329.5,429C 412.833,428.5 496.166,428.333 579.5,428.5 Z" /></g><g><path style="opacity:1" fill="#a4afae" d="M 688.5,428.5 C 689.873,428.343 691.207,428.51 692.5,429C 689.677,430.483 686.843,431.983 684,433.5C 683.5,433.167 683,432.833 682.5,432.5C 684.901,431.642 686.901,430.309 688.5,428.5 Z" /></g><g><path style="opacity:1" fill="#3a3a3b" d="M 168.5,421.5 C 168.5,425.167 168.5,428.833 168.5,432.5C 161.5,432.5 154.5,432.5 147.5,432.5C 147.198,429.941 147.532,427.607 148.5,425.5C 148.5,427.5 148.5,429.5 148.5,431.5C 154.833,431.5 161.167,431.5 167.5,431.5C 167.187,427.958 167.521,424.625 168.5,421.5 Z" /></g><g><path style="opacity:1" fill="#818284" d="M 300.5,430.5 C 301.756,430.461 302.756,430.961 303.5,432C 291.505,432.5 279.505,432.667 267.5,432.5C 278.5,431.833 289.5,431.167 300.5,430.5 Z" /></g><g><path style="opacity:1" fill="#757776" d="M 717.5,430.5 C 728.654,431.495 739.988,431.828 751.5,431.5C 751.5,431.833 751.5,432.167 751.5,432.5C 738.496,432.667 725.496,432.5 712.5,432C 714.025,430.991 715.692,430.491 717.5,430.5 Z" /></g><g><path style="opacity:1" fill="#414543" d="M 849.5,423.5 C 850.477,426.287 850.81,429.287 850.5,432.5C 817.5,432.5 784.5,432.5 751.5,432.5C 751.5,432.167 751.5,431.833 751.5,431.5C 784.167,431.5 816.833,431.5 849.5,431.5C 849.5,428.833 849.5,426.167 849.5,423.5 Z" /></g><g><path style="opacity:1" fill="#effcfc" d="M 338.5,433.5 C 349.527,438.896 361.193,441.73 373.5,442C 366.239,443.348 358.906,443.848 351.5,443.5C 284.167,443.5 216.833,443.5 149.5,443.5C 149.787,441.879 150.787,440.879 152.5,440.5C 215.833,441.167 279.167,441.833 342.5,442.5C 343.357,441.264 344.023,439.931 344.5,438.5C 341.832,437.487 339.832,435.821 338.5,433.5 Z" /></g><g><path style="opacity:1" fill="#f1fefd" d="M 874.5,441.5 C 875.167,442.167 875.833,442.833 876.5,443.5C 803.833,443.5 731.167,443.5 658.5,443.5C 659.191,441.978 660.358,440.978 662,440.5C 729.138,441.495 796.304,441.828 863.5,441.5C 863.5,440.5 863.5,439.5 863.5,438.5C 866.223,440.265 869.89,441.265 874.5,441.5 Z" /></g><g><path style="opacity:1" fill="#9dbcc2" d="M 149.5,443.5 C 216.833,443.5 284.167,443.5 351.5,443.5C 351.5,443.833 351.5,444.167 351.5,444.5C 283.158,443.837 215.158,444.503 147.5,446.5C 146.596,445.791 146.263,444.791 146.5,443.5C 147.5,443.5 148.5,443.5 149.5,443.5 Z" /></g><g><path style="opacity:1" fill="#96b6bb" d="M 658.5,444.5 C 658.5,444.167 658.5,443.833 658.5,443.5C 731.167,443.5 803.833,443.5 876.5,443.5C 877.833,444.5 877.833,445.5 876.5,446.5C 876.5,446.167 876.5,445.833 876.5,445.5C 804.002,444.501 731.335,444.167 658.5,444.5 Z" /></g><g><path style="opacity:1" fill="#478291" d="M 658.5,444.5 C 658.47,445.497 658.97,446.164 660,446.5C 668.8,445.854 677.634,445.52 686.5,445.5C 748.843,447.927 811.177,447.927 873.5,445.5C 873.351,446.552 873.517,447.552 874,448.5C 874.236,446.881 875.069,445.881 876.5,445.5C 876.5,445.833 876.5,446.167 876.5,446.5C 872.076,459.904 862.743,467.404 848.5,469C 791.138,469.821 733.805,469.655 676.5,468.5C 668.306,465.732 660.973,461.399 654.5,455.5C 653.417,454.635 653.251,453.635 654,452.5C 655.795,449.901 657.295,447.234 658.5,444.5 Z" /></g><g><path style="opacity:1" fill="#468090" d="M 319.5,446.5 C 314.36,447.488 309.026,447.821 303.5,447.5C 303.5,448.833 303.5,450.167 303.5,451.5C 298.167,451.5 292.833,451.5 287.5,451.5C 287.5,454.167 287.5,456.833 287.5,459.5C 292.833,459.5 298.167,459.5 303.5,459.5C 303.5,460.833 303.5,462.167 303.5,463.5C 287.486,463.167 271.486,463.501 255.5,464.5C 266.113,464.655 276.78,465.155 287.5,466C 283.5,466.5 279.5,467 275.5,467.5C 242.174,466.195 208.841,466.195 175.5,467.5C 223.665,468.167 271.665,468.833 319.5,469.5C 271.5,469.5 223.5,469.5 175.5,469.5C 161.444,467.485 152.111,459.818 147.5,446.5C 148.117,446.611 148.617,446.944 149,447.5C 157.268,446.182 165.768,445.516 174.5,445.5C 190.841,446.14 207.175,446.807 223.5,447.5C 223.5,448.833 223.5,450.167 223.5,451.5C 226.167,451.5 228.833,451.5 231.5,451.5C 231.5,450.167 231.5,448.833 231.5,447.5C 260.825,446.648 290.158,446.315 319.5,446.5 Z" /></g><g><path style="opacity:1" fill="#48838f" d="M 331.5,430.5 C 414.833,429.167 498.167,429.167 581.5,430.5C 581.5,430.833 581.5,431.167 581.5,431.5C 577.441,437.266 573.608,443.266 570,449.5C 569.107,450.081 568.107,450.415 567,450.5C 551.398,444.942 535.898,439.275 520.5,433.5C 507.584,437.63 494.918,442.297 482.5,447.5C 482.799,444.358 484.466,442.191 487.5,441C 497.665,439.407 507.332,436.407 516.5,432C 508.236,431.065 500.07,431.565 492,433.5C 490.272,433.546 488.772,433.046 487.5,432C 458.169,431.5 428.835,431.333 399.5,431.5C 399.5,434.5 399.5,437.5 399.5,440.5C 396.272,440.701 393.105,440.367 390,439.5C 388.054,441.881 386.221,444.381 384.5,447C 389.933,446.882 394.933,447.715 399.5,449.5C 383.809,448.897 369.809,453.397 357.5,463C 345.5,468.87 332.833,471.037 319.5,469.5C 271.665,468.833 223.665,468.167 175.5,467.5C 208.841,466.195 242.174,466.195 275.5,467.5C 279.5,467 283.5,466.5 287.5,466C 276.78,465.155 266.113,464.655 255.5,464.5C 271.486,463.501 287.486,463.167 303.5,463.5C 303.5,462.167 303.5,460.833 303.5,459.5C 298.167,459.5 292.833,459.5 287.5,459.5C 287.5,456.833 287.5,454.167 287.5,451.5C 292.833,451.5 298.167,451.5 303.5,451.5C 303.5,450.167 303.5,448.833 303.5,447.5C 309.026,447.821 314.36,447.488 319.5,446.5C 330.359,446.488 341.026,445.821 351.5,444.5C 351.5,444.167 351.5,443.833 351.5,443.5C 358.906,443.848 366.239,443.348 373.5,442C 361.193,441.73 349.527,438.896 338.5,433.5C 336.287,432.227 333.954,431.227 331.5,430.5 Z" /></g><g><path style="opacity:1" fill="#498494" d="M 482.5,447.5 C 482.167,447.5 481.833,447.5 481.5,447.5C 459.497,447.333 437.497,447.5 415.5,448C 413.618,448.198 411.952,448.698 410.5,449.5C 406.833,449.5 403.167,449.5 399.5,449.5C 394.933,447.715 389.933,446.882 384.5,447C 386.221,444.381 388.054,441.881 390,439.5C 393.105,440.367 396.272,440.701 399.5,440.5C 399.5,437.5 399.5,434.5 399.5,431.5C 428.835,431.333 458.169,431.5 487.5,432C 488.772,433.046 490.272,433.546 492,433.5C 500.07,431.565 508.236,431.065 516.5,432C 507.332,436.407 497.665,439.407 487.5,441C 484.466,442.191 482.799,444.358 482.5,447.5 Z" /></g><g><path style="opacity:1" fill="#447887" d="M 658.5,444.5 C 731.335,444.167 804.002,444.501 876.5,445.5C 875.069,445.881 874.236,446.881 874,448.5C 873.517,447.552 873.351,446.552 873.5,445.5C 811.177,447.927 748.843,447.927 686.5,445.5C 677.634,445.52 668.8,445.854 660,446.5C 658.97,446.164 658.47,445.497 658.5,444.5 Z" /></g><g><path style="opacity:1" fill="#437686" d="M 351.5,444.5 C 341.026,445.821 330.359,446.488 319.5,446.5C 290.158,446.315 260.825,446.648 231.5,447.5C 231.5,448.833 231.5,450.167 231.5,451.5C 228.833,451.5 226.167,451.5 223.5,451.5C 223.5,450.167 223.5,448.833 223.5,447.5C 207.175,446.807 190.841,446.14 174.5,445.5C 165.768,445.516 157.268,446.182 149,447.5C 148.617,446.944 148.117,446.611 147.5,446.5C 215.158,444.503 283.158,443.837 351.5,444.5 Z" /></g><g><path style="opacity:1" fill="#4c8d8d" d="M 481.5,447.5 C 480.048,448.302 478.382,448.802 476.5,449C 454.503,449.5 432.503,449.667 410.5,449.5C 411.952,448.698 413.618,448.198 415.5,448C 437.497,447.5 459.497,447.333 481.5,447.5 Z" /></g><g><path style="opacity:1" fill="#d4d4d6" d="M 619.5,454.5 C 608.866,473.48 598.199,492.48 587.5,511.5C 601.156,481.187 616.656,451.854 634,423.5C 629.746,434.014 624.912,444.347 619.5,454.5 Z" /></g><g><path style="opacity:1" fill="#f4f9f8" d="M 581.5,431.5 C 580.326,437.418 578.492,442.751 576,447.5C 575.259,446.359 574.425,446.359 573.5,447.5C 572.866,449.567 571.866,451.4 570.5,453C 567.881,453.151 565.547,453.985 563.5,455.5C 564.025,456.192 564.692,456.692 565.5,457C 562.046,457.293 561.712,458.626 564.5,461C 562.19,461.497 559.857,461.663 557.5,461.5C 546.232,457.343 534.899,453.176 523.5,449C 521.5,448.333 519.5,448.333 517.5,449C 421.978,485.568 326.311,522.068 230.5,558.5C 230.631,557.624 230.298,556.957 229.5,556.5C 227.584,557.248 225.584,557.248 223.5,556.5C 223.5,555.5 223.5,554.5 223.5,553.5C 215.583,553.783 207.75,553.117 200,551.5C 193.986,552.12 187.986,552.786 182,553.5C 179.943,552.277 177.777,551.277 175.5,550.5C 192.891,548.947 210.225,549.281 227.5,551.5C 233.673,551.038 234.006,549.704 228.5,547.5C 230.77,546.41 232.937,545.076 235,543.5C 241.773,542.147 248.607,541.147 255.5,540.5C 254.167,540.167 252.833,539.833 251.5,539.5C 224.01,538.197 196.677,538.197 169.5,539.5C 170.363,541.421 171.029,543.421 171.5,545.5C 172.568,546.434 173.901,546.768 175.5,546.5C 174.903,547.139 174.07,547.472 173,547.5C 168.006,545.688 166.506,542.355 168.5,537.5C 192.112,537.81 215.779,537.477 239.5,536.5C 239.5,534.833 239.5,533.167 239.5,531.5C 227.269,530.517 204.269,530.017 170.5,530C 169.944,529.617 169.611,529.117 169.5,528.5C 203.671,528.832 237.671,528.498 271.5,527.5C 274.216,527.322 276.883,526.822 279.5,526C 335.34,504.16 391.34,482.493 447.5,461C 430.135,460.122 412.802,460.455 395.5,462C 383.753,465.358 372.42,469.692 361.5,475C 355.545,476.072 349.545,476.572 343.5,476.5C 342.833,476.5 342.167,476.5 341.5,476.5C 341.918,475.778 342.584,475.278 343.5,475C 341.699,474.683 341.366,474.016 342.5,473C 345.482,472.502 348.482,472.335 351.5,472.5C 351.5,471.167 351.5,469.833 351.5,468.5C 346.953,468.678 342.786,470.011 339,472.5C 337.933,471.809 336.766,471.309 335.5,471C 281.998,470.833 228.665,470.333 175.5,469.5C 223.5,469.5 271.5,469.5 319.5,469.5C 332.833,471.037 345.5,468.87 357.5,463C 369.809,453.397 383.809,448.897 399.5,449.5C 403.167,449.5 406.833,449.5 410.5,449.5C 432.503,449.667 454.503,449.5 476.5,449C 478.382,448.802 480.048,448.302 481.5,447.5C 481.833,447.5 482.167,447.5 482.5,447.5C 494.918,442.297 507.584,437.63 520.5,433.5C 535.898,439.275 551.398,444.942 567,450.5C 568.107,450.415 569.107,450.081 570,449.5C 573.608,443.266 577.441,437.266 581.5,431.5 Z" /></g><g><path style="opacity:1" fill="#6faab4" d="M 855.5,476.5 C 860.875,476.172 866.208,476.505 871.5,477.5C 869.275,481.338 866.608,484.672 863.5,487.5C 863.238,486.022 863.571,484.689 864.5,483.5C 866.841,482.601 867.507,481.268 866.5,479.5C 800.335,478.667 734.001,478.167 667.5,478C 662.153,476.829 656.819,475.663 651.5,474.5C 650.134,472.649 648.467,472.316 646.5,473.5C 645.652,475.409 645.318,477.409 645.5,479.5C 643.5,479.5 641.5,479.5 639.5,479.5C 641.32,475.191 643.654,471.191 646.5,467.5C 653.586,473.699 661.919,476.866 671.5,477C 733.001,477.832 794.335,477.665 855.5,476.5 Z" /></g><g><path style="opacity:1" fill="#f4fef6" d="M 160.5,470.5 C 165.536,470.588 170.536,471.088 175.5,472C 228.832,472.5 282.166,472.667 335.5,472.5C 335.5,473.5 335.5,474.5 335.5,475.5C 282.163,475.833 228.829,475.5 175.5,474.5C 170.167,473.833 164.833,473.167 159.5,472.5C 159.863,471.817 160.196,471.15 160.5,470.5 Z" /></g><g><path style="opacity:1" fill="#f3fef6" d="M 854.5,470.5 C 855.222,470.918 855.722,471.584 856,472.5C 858.381,471.565 860.881,471.232 863.5,471.5C 863.5,472.5 863.5,473.5 863.5,474.5C 860.011,474.137 856.511,473.804 853,473.5C 797.873,475.454 742.706,476.12 687.5,475.5C 687.5,474.5 687.5,473.5 687.5,472.5C 743.208,472.491 798.708,472.491 854,472.5C 854.464,471.906 854.631,471.239 854.5,470.5 Z" /></g><g><path style="opacity:1" fill="#deeefc" d="M 341.5,476.5 C 342.167,476.5 342.833,476.5 343.5,476.5C 343.5,476.833 343.5,477.167 343.5,477.5C 280.496,477.167 217.496,477.5 154.5,478.5C 155.456,480.075 156.123,481.742 156.5,483.5C 155.076,481.856 153.409,480.356 151.5,479C 152.167,478.333 152.833,477.667 153.5,477C 216.166,476.5 278.832,476.333 341.5,476.5 Z" /></g><g><path style="opacity:1" fill="#6ca6b0" d="M 343.5,477.5 C 287.512,478.35 226.179,478.85 159.5,479C 158.692,479.308 158.025,479.808 157.5,480.5C 158.747,482.323 159.414,484.323 159.5,486.5C 158.728,485.306 157.728,484.306 156.5,483.5C 156.123,481.742 155.456,480.075 154.5,478.5C 217.496,477.5 280.496,477.167 343.5,477.5 Z" /></g><g><path style="opacity:1" fill="#6db9cb" d="M 271.5,527.5 C 238.5,527.5 205.5,527.5 172.5,527.5C 173.357,525.138 173.691,522.804 173.5,520.5C 171.955,519.548 170.288,519.215 168.5,519.5C 168.5,516.833 168.5,514.167 168.5,511.5C 169.552,511.649 170.552,511.483 171.5,511C 168.5,510.667 165.5,510.333 162.5,510C 195.515,509.479 228.515,508.479 261.5,507C 274.658,504.702 274.325,503.535 260.5,503.5C 263.986,502.467 267.653,501.633 271.5,501C 241.519,499.349 211.519,498.182 181.5,497.5C 176.535,496.349 171.535,494.849 166.5,493C 163.669,491.334 161.336,489.168 159.5,486.5C 159.414,484.323 158.747,482.323 157.5,480.5C 158.025,479.808 158.692,479.308 159.5,479C 226.179,478.85 287.512,478.35 343.5,477.5C 343.5,477.167 343.5,476.833 343.5,476.5C 349.545,476.572 355.545,476.072 361.5,475C 372.42,469.692 383.753,465.358 395.5,462C 412.802,460.455 430.135,460.122 447.5,461C 391.34,482.493 335.34,504.16 279.5,526C 276.883,526.822 274.216,527.322 271.5,527.5 Z" /></g><g><path style="opacity:1" fill="#6eb9cb" d="M 866.5,479.5 C 867.507,481.268 866.841,482.601 864.5,483.5C 863.571,484.689 863.238,486.022 863.5,487.5C 863.063,489.074 862.063,490.241 860.5,491C 856.107,492.956 851.774,494.789 847.5,496.5C 812.816,497.593 778.149,499.093 743.5,501C 759.428,503.327 775.428,504.993 791.5,506C 814.164,506.5 836.831,506.667 859.5,506.5C 862.91,506.384 864.244,508.05 863.5,511.5C 861.803,515.934 860.47,520.601 859.5,525.5C 859.182,526.647 858.516,527.481 857.5,528C 825.502,528.5 793.502,528.667 761.5,528.5C 749.398,524.854 737.398,520.687 725.5,516C 707.394,508.913 689.394,501.747 671.5,494.5C 671.5,492.833 671.5,491.167 671.5,489.5C 668.927,489.852 666.594,489.352 664.5,488C 666.01,485.245 668.343,484.079 671.5,484.5C 671.5,482.833 671.5,481.167 671.5,479.5C 736.5,479.5 801.5,479.5 866.5,479.5 Z" /></g><g><path style="opacity:1" fill="#70b6c8" d="M 651.5,474.5 C 652.641,476.229 654.307,477.229 656.5,477.5C 660.372,478.84 664.372,479.674 668.5,480C 665.19,483.386 661.19,485.552 656.5,486.5C 657.729,487.281 659.062,487.781 660.5,488C 661.252,488.671 661.586,489.504 661.5,490.5C 654.079,488.477 646.746,486.144 639.5,483.5C 639.5,482.167 639.5,480.833 639.5,479.5C 641.5,479.5 643.5,479.5 645.5,479.5C 645.318,477.409 645.652,475.409 646.5,473.5C 648.467,472.316 650.134,472.649 651.5,474.5 Z" /></g><g><path style="opacity:1" fill="#67bcc4" d="M 651.5,474.5 C 656.819,475.663 662.153,476.829 667.5,478C 734.001,478.167 800.335,478.667 866.5,479.5C 801.5,479.5 736.5,479.5 671.5,479.5C 671.5,481.167 671.5,482.833 671.5,484.5C 668.343,484.079 666.01,485.245 664.5,488C 666.594,489.352 668.927,489.852 671.5,489.5C 671.5,491.167 671.5,492.833 671.5,494.5C 667.703,494.128 664.37,492.794 661.5,490.5C 661.586,489.504 661.252,488.671 660.5,488C 659.062,487.781 657.729,487.281 656.5,486.5C 661.19,485.552 665.19,483.386 668.5,480C 664.372,479.674 660.372,478.84 656.5,477.5C 654.307,477.229 652.641,476.229 651.5,474.5 Z" /></g><g><path style="opacity:1" fill="#f8f8f8" d="M 501.5,517.5 C 493.229,532.944 484.729,548.277 476,563.5C 467.998,577.868 466.498,592.868 471.5,608.5C 467.289,609.902 462.956,610.736 458.5,611C 439.768,612.016 421.102,611.349 402.5,609C 395.426,607.298 388.426,605.298 381.5,603C 365.213,596.848 349.213,590.015 333.5,582.5C 332.167,581.5 332.167,580.5 333.5,579.5C 352.282,564.614 373.616,555.447 397.5,552C 414.185,551.74 430.852,551.074 447.5,550C 460.693,547.733 472.693,542.733 483.5,535C 468.178,539.163 452.512,541.497 436.5,542C 447.299,527.701 459.632,514.868 473.5,503.5C 485.476,493.512 499.143,486.679 514.5,483C 530.678,481.902 545.678,485.402 559.5,493.5C 559.113,494.72 558.28,495.387 557,495.5C 540.934,485.301 525.934,486.634 512,499.5C 507.706,505.095 504.206,511.095 501.5,517.5 Z" /></g><g><path style="opacity:1" fill="#161617" d="M 632.5,462.5 C 632.657,461.127 632.49,459.793 632,458.5C 630.951,460.107 629.451,460.773 627.5,460.5C 628.293,453.263 625.627,451.263 619.5,454.5C 624.912,444.347 629.746,434.014 634,423.5C 616.656,451.854 601.156,481.187 587.5,511.5C 588.716,514.07 589.383,516.57 589.5,519C 588.167,522 586.833,525 585.5,528C 587.527,528.498 589.527,528.331 591.5,527.5C 593.279,528.394 594.612,529.727 595.5,531.5C 591.977,529.913 588.31,529.413 584.5,530C 576.778,539.969 569.444,550.136 562.5,560.5C 560.397,559.02 560.397,557.853 562.5,557C 561.167,555.16 561.334,554.66 563,555.5C 563.9,554.23 565.066,553.23 566.5,552.5C 568.024,550.208 567.691,548.208 565.5,546.5C 566.5,545.667 567.5,544.833 568.5,544C 566.098,543.322 563.932,543.822 562,545.5C 561.055,545.095 560.388,544.428 560,543.5C 559.612,545.715 558.612,547.048 557,547.5C 556.333,546.833 555.667,546.167 555,545.5C 555.979,547.279 555.646,548.945 554,550.5C 553.722,549.584 553.222,548.918 552.5,548.5C 558.901,534.7 567.067,522.033 577,510.5C 597.839,475.493 618.172,440.16 638,404.5C 638.739,403.426 639.739,402.759 641,402.5C 646.385,406.115 652.218,408.448 658.5,409.5C 672.859,406.056 682.692,397.389 688,383.5C 688.667,380.5 688.667,377.5 688,374.5C 672.707,364.436 656.874,355.269 640.5,347C 637.262,345.632 633.928,345.299 630.5,346C 621.636,360.076 619.136,375.243 623,391.5C 626.026,394.026 629.193,396.36 632.5,398.5C 611.585,433.999 590.418,469.332 569,504.5C 566.988,507.846 564.321,510.512 561,512.5C 554.007,508.587 546.84,505.087 539.5,502C 533.345,500.776 528.012,502.276 523.5,506.5C 522.881,503.405 521.881,503.071 520.5,505.5C 520.594,504.028 519.594,502.862 517.5,502C 518.938,501.781 520.271,501.281 521.5,500.5C 518.974,499.49 516.808,500.157 515,502.5C 514.667,501.5 514.333,500.5 514,499.5C 513.603,502.083 512.603,504.75 511,507.5C 510.282,506.549 509.449,506.383 508.5,507C 510.572,508.793 510.905,510.96 509.5,513.5C 509.497,516.602 509.997,516.935 511,514.5C 511.774,516.403 511.44,518.07 510,519.5C 507.435,517.104 504.602,516.437 501.5,517.5C 504.206,511.095 507.706,505.095 512,499.5C 525.934,486.634 540.934,485.301 557,495.5C 558.28,495.387 559.113,494.72 559.5,493.5C 545.678,485.402 530.678,481.902 514.5,483C 499.143,486.679 485.476,493.512 473.5,503.5C 473.136,501.106 473.136,498.773 473.5,496.5C 472.497,494.458 471.163,494.125 469.5,495.5C 468.304,495.154 468.304,494.654 469.5,494C 468.451,493.508 467.451,493.674 466.5,494.5C 465.304,494.154 465.304,493.654 466.5,493C 465.906,492.536 465.239,492.369 464.5,492.5C 482.961,484.195 501.794,476.529 521,469.5C 535.158,474.917 549.158,480.584 563,486.5C 565.518,484.318 566.685,481.818 566.5,479C 552.296,473.401 537.963,468.068 523.5,463C 521.5,462.333 519.5,462.333 517.5,463C 422.586,499.024 327.92,535.524 233.5,572.5C 232.952,570.606 231.952,568.94 230.5,567.5C 228.189,566.786 226.022,565.786 224,564.5C 222.187,565.609 221.354,564.942 221.5,562.5C 224.453,561.254 227.453,559.921 230.5,558.5C 326.311,522.068 421.978,485.568 517.5,449C 519.5,448.333 521.5,448.333 523.5,449C 534.899,453.176 546.232,457.343 557.5,461.5C 561.744,463.281 566.077,465.115 570.5,467C 572.167,467.667 573.833,467.667 575.5,467C 588.146,446.873 600.146,426.373 611.5,405.5C 604.756,386.076 604.923,366.743 612,347.5C 618.893,332.642 630.06,328.142 645.5,334C 660.627,341.731 675.627,349.731 690.5,358C 702.844,366.367 706.344,377.534 701,391.5C 691.685,411.908 675.851,423.074 653.5,425C 646.346,437.482 639.346,449.982 632.5,462.5 Z" /></g><g><path style="opacity:1" fill="#def6f8" d="M 302.5,485.5 C 303.239,485.369 303.906,485.536 304.5,486C 305.67,489.178 307.67,491.678 310.5,493.5C 309.135,494.941 307.635,496.274 306,497.5C 305.517,498.448 305.351,499.448 305.5,500.5C 304.5,500.5 303.5,500.5 302.5,500.5C 302.649,499.448 302.483,498.448 302,497.5C 300.075,495.787 297.908,494.453 295.5,493.5C 299.965,492.702 302.298,490.035 302.5,485.5 Z" /></g><g><path style="opacity:1" fill="#e6f8f7" d="M 710.5,486.5 C 712.941,488.997 715.608,491.331 718.5,493.5C 715.661,494.806 713.328,496.806 711.5,499.5C 709.511,496.844 707.177,494.511 704.5,492.5C 707.515,491.485 709.515,489.485 710.5,486.5 Z" /></g><g><path style="opacity:1" fill="#effbfb" d="M 181.5,497.5 C 211.519,498.182 241.519,499.349 271.5,501C 267.653,501.633 263.986,502.467 260.5,503.5C 227.231,505.999 193.898,507.333 160.5,507.5C 161.342,514.362 163.009,521.029 165.5,527.5C 164.5,527.5 163.5,527.5 162.5,527.5C 162.565,524.529 161.731,521.862 160,519.5C 159.501,515.179 159.334,510.846 159.5,506.5C 183.448,504.613 207.448,503.446 231.5,503C 230.833,502.667 230.167,502.333 229.5,502C 230.833,501.667 232.167,501.333 233.5,501C 218.317,500.223 203.15,500.389 188,501.5C 185.269,500.978 183.102,499.644 181.5,497.5 Z" /></g><g><path style="opacity:1" fill="#e9fbfd" d="M 847.5,496.5 C 846.848,497.725 845.681,498.392 844,498.5C 840.825,498.946 837.658,499.446 834.5,500C 835.706,501.018 835.373,501.518 833.5,501.5C 813.858,500.357 794.191,500.191 774.5,501C 775.67,502.755 777.337,503.755 779.5,504C 806.335,504.624 833.002,505.457 859.5,506.5C 836.831,506.667 814.164,506.5 791.5,506C 775.428,504.993 759.428,503.327 743.5,501C 778.149,499.093 812.816,497.593 847.5,496.5 Z" /></g><g><path style="opacity:1" fill="#f3f3f3" d="M 552.5,548.5 C 543.102,564.283 532.935,579.616 522,594.5C 521.83,592.155 522.163,589.821 523,587.5C 532.426,564.889 541.259,542.055 549.5,519C 544.275,510.563 536.608,507.23 526.5,509C 522.333,511.833 518.833,515.333 516,519.5C 517.344,514.619 519.844,510.286 523.5,506.5C 528.012,502.276 533.345,500.776 539.5,502C 546.84,505.087 554.007,508.587 561,512.5C 564.321,510.512 566.988,507.846 569,504.5C 590.418,469.332 611.585,433.999 632.5,398.5C 629.193,396.36 626.026,394.026 623,391.5C 619.136,375.243 621.636,360.076 630.5,346C 633.928,345.299 637.262,345.632 640.5,347C 656.874,355.269 672.707,364.436 688,374.5C 688.667,377.5 688.667,380.5 688,383.5C 682.692,397.389 672.859,406.056 658.5,409.5C 652.218,408.448 646.385,406.115 641,402.5C 639.739,402.759 638.739,403.426 638,404.5C 618.172,440.16 597.839,475.493 577,510.5C 567.067,522.033 558.901,534.7 552.5,548.5 Z" /></g><g><path style="opacity:1" fill="#151517" d="M 635.5,356.5 C 650.213,363.358 664.547,371.025 678.5,379.5C 674.457,386.713 669.457,393.213 663.5,399C 661.635,400.301 659.635,400.635 657.5,400C 648.672,395.42 640.005,390.587 631.5,385.5C 630.689,375.597 632.023,365.93 635.5,356.5 Z" /></g><g><path style="opacity:1" fill="#74b8c3" d="M 260.5,503.5 C 274.325,503.535 274.658,504.702 261.5,507C 228.515,508.479 195.515,509.479 162.5,510C 165.5,510.333 168.5,510.667 171.5,511C 170.552,511.483 169.552,511.649 168.5,511.5C 168.5,514.167 168.5,516.833 168.5,519.5C 170.288,519.215 171.955,519.548 173.5,520.5C 173.691,522.804 173.357,525.138 172.5,527.5C 205.5,527.5 238.5,527.5 271.5,527.5C 237.671,528.498 203.671,528.832 169.5,528.5C 167.901,528.768 166.568,528.434 165.5,527.5C 163.009,521.029 161.342,514.362 160.5,507.5C 193.898,507.333 227.231,505.999 260.5,503.5 Z" /></g><g><path style="opacity:1" fill="#f0f1f2" d="M 464.5,492.5 C 407.548,514.201 350.882,536.368 294.5,559C 288.658,561.526 282.658,562.026 276.5,560.5C 273.076,560.737 269.743,561.404 266.5,562.5C 273.532,566.683 280.866,570.349 288.5,573.5C 282.101,577.245 275.268,579.911 268,581.5C 261.954,579.592 256.121,577.092 250.5,574C 249.5,573.333 248.5,573.333 247.5,574C 252.702,577.101 258.035,579.934 263.5,582.5C 264.477,593.419 264.81,604.419 264.5,615.5C 262.299,614.434 259.965,613.767 257.5,613.5C 264.763,595.032 258.596,583.698 239,579.5C 237.338,579.388 236.171,580.054 235.5,581.5C 243.723,581.074 247.057,585.074 245.5,593.5C 243.363,594.868 241.03,595.868 238.5,596.5C 241.309,600.477 244.309,604.31 247.5,608C 246.5,608.667 245.5,608.667 244.5,608C 240.633,605.302 236.633,602.802 232.5,600.5C 231.363,591.882 231.196,583.215 232,574.5C 232.278,573.584 232.778,572.918 233.5,572.5C 327.92,535.524 422.586,499.024 517.5,463C 519.5,462.333 521.5,462.333 523.5,463C 537.963,468.068 552.296,473.401 566.5,479C 566.685,481.818 565.518,484.318 563,486.5C 549.158,480.584 535.158,474.917 521,469.5C 501.794,476.529 482.961,484.195 464.5,492.5 Z" /></g><g><path style="opacity:1" fill="#ddfcfd" d="M 863.5,511.5 C 863.554,517.352 862.888,523.019 861.5,528.5C 859.5,528.833 857.5,529.167 855.5,529.5C 831.493,529.357 807.493,529.691 783.5,530.5C 775.932,530.71 768.599,530.044 761.5,528.5C 793.502,528.667 825.502,528.5 857.5,528C 858.516,527.481 859.182,526.647 859.5,525.5C 860.47,520.601 861.803,515.934 863.5,511.5 Z" /></g><g><path style="opacity:1" fill="#67b7bc" d="M 169.5,539.5 C 193.502,539.333 217.502,539.5 241.5,540C 237.857,541.326 234.19,542.492 230.5,543.5C 228.821,543.892 227.154,544.392 225.5,545C 207.503,545.5 189.503,545.667 171.5,545.5C 171.029,543.421 170.363,541.421 169.5,539.5 Z" /></g><g><path style="opacity:1" fill="#dff9f9" d="M 169.5,539.5 C 196.677,538.197 224.01,538.197 251.5,539.5C 252.833,539.833 254.167,540.167 255.5,540.5C 248.607,541.147 241.773,542.147 235,543.5C 232.937,545.076 230.77,546.41 228.5,547.5C 221.313,547.825 214.313,547.491 207.5,546.5C 213.842,546.666 220.175,546.5 226.5,546C 228.32,545.8 229.653,544.966 230.5,543.5C 234.19,542.492 237.857,541.326 241.5,540C 217.502,539.5 193.502,539.333 169.5,539.5 Z" /></g><g><path style="opacity:1" fill="#6ebbc0" d="M 854.5,539.5 C 853.793,541.781 852.793,543.948 851.5,546C 835.833,546.667 820.167,546.667 804.5,546C 797.641,543.535 790.641,541.535 783.5,540C 807.164,539.5 830.831,539.333 854.5,539.5 Z" /></g><g><path style="opacity:1" fill="#b4d7e2" d="M 230.5,543.5 C 229.653,544.966 228.32,545.8 226.5,546C 220.175,546.5 213.842,546.666 207.5,546.5C 196.833,546.5 186.167,546.5 175.5,546.5C 173.901,546.768 172.568,546.434 171.5,545.5C 189.503,545.667 207.503,545.5 225.5,545C 227.154,544.392 228.821,543.892 230.5,543.5 Z" /></g><g><path style="opacity:1" fill="#141516" d="M 632.5,462.5 C 627.861,470.816 623.195,479.15 618.5,487.5C 618.709,488.086 619.043,488.586 619.5,489C 681.307,513.097 742.974,537.263 804.5,561.5C 805.5,622.163 805.833,682.83 805.5,743.5C 805.439,745.592 804.439,747.092 802.5,748C 708.217,794.572 614.55,842.572 521.5,892C 520.167,892.667 518.833,892.667 517.5,892C 434.347,851.923 351.347,811.59 268.5,771C 266.5,770.667 264.5,770.333 262.5,770C 248.082,763.075 233.916,755.575 220,747.5C 219.833,716.667 219.667,685.833 219.5,655C 219.5,623.826 220.167,592.993 221.5,562.5C 221.354,564.942 222.187,565.609 224,564.5C 226.022,565.786 228.189,566.786 230.5,567.5C 231.952,568.94 232.952,570.606 233.5,572.5C 232.778,572.918 232.278,573.584 232,574.5C 231.196,583.215 231.363,591.882 232.5,600.5C 236.633,602.802 240.633,605.302 244.5,608C 245.5,608.667 246.5,608.667 247.5,608C 244.309,604.31 241.309,600.477 238.5,596.5C 241.03,595.868 243.363,594.868 245.5,593.5C 247.057,585.074 243.723,581.074 235.5,581.5C 236.171,580.054 237.338,579.388 239,579.5C 258.596,583.698 264.763,595.032 257.5,613.5C 259.965,613.767 262.299,614.434 264.5,615.5C 265.166,610.177 265.499,604.677 265.5,599C 265.495,593.124 264.829,587.624 263.5,582.5C 258.035,579.934 252.702,577.101 247.5,574C 248.5,573.333 249.5,573.333 250.5,574C 256.121,577.092 261.954,579.592 268,581.5C 275.268,579.911 282.101,577.245 288.5,573.5C 280.866,570.349 273.532,566.683 266.5,562.5C 269.743,561.404 273.076,560.737 276.5,560.5C 282.658,562.026 288.658,561.526 294.5,559C 350.882,536.368 407.548,514.201 464.5,492.5C 465.239,492.369 465.906,492.536 466.5,493C 465.304,493.654 465.304,494.154 466.5,494.5C 467.451,493.674 468.451,493.508 469.5,494C 468.304,494.654 468.304,495.154 469.5,495.5C 471.163,494.125 472.497,494.458 473.5,496.5C 473.136,498.773 473.136,501.106 473.5,503.5C 459.632,514.868 447.299,527.701 436.5,542C 452.512,541.497 468.178,539.163 483.5,535C 472.693,542.733 460.693,547.733 447.5,550C 430.852,551.074 414.185,551.74 397.5,552C 373.616,555.447 352.282,564.614 333.5,579.5C 332.167,580.5 332.167,581.5 333.5,582.5C 349.213,590.015 365.213,596.848 381.5,603C 388.426,605.298 395.426,607.298 402.5,609C 421.102,611.349 439.768,612.016 458.5,611C 462.956,610.736 467.289,609.902 471.5,608.5C 466.498,592.868 467.998,577.868 476,563.5C 484.729,548.277 493.229,532.944 501.5,517.5C 504.602,516.437 507.435,517.104 510,519.5C 511.44,518.07 511.774,516.403 511,514.5C 509.997,516.935 509.497,516.602 509.5,513.5C 510.905,510.96 510.572,508.793 508.5,507C 509.449,506.383 510.282,506.549 511,507.5C 512.603,504.75 513.603,502.083 514,499.5C 514.333,500.5 514.667,501.5 515,502.5C 516.808,500.157 518.974,499.49 521.5,500.5C 520.271,501.281 518.938,501.781 517.5,502C 519.594,502.862 520.594,504.028 520.5,505.5C 521.881,503.071 522.881,503.405 523.5,506.5C 519.844,510.286 517.344,514.619 516,519.5C 518.833,515.333 522.333,511.833 526.5,509C 536.608,507.23 544.275,510.563 549.5,519C 541.259,542.055 532.426,564.889 523,587.5C 522.163,589.821 521.83,592.155 522,594.5C 532.935,579.616 543.102,564.283 552.5,548.5C 553.222,548.918 553.722,549.584 554,550.5C 555.646,548.945 555.979,547.279 555,545.5C 555.667,546.167 556.333,546.833 557,547.5C 558.612,547.048 559.612,545.715 560,543.5C 560.388,544.428 561.055,545.095 562,545.5C 563.932,543.822 566.098,543.322 568.5,544C 567.5,544.833 566.5,545.667 565.5,546.5C 567.691,548.208 568.024,550.208 566.5,552.5C 565.066,553.23 563.9,554.23 563,555.5C 561.334,554.66 561.167,555.16 562.5,557C 560.397,557.853 560.397,559.02 562.5,560.5C 562.775,562.842 563.608,562.842 565,560.5C 570.339,552.681 576.505,545.514 583.5,539C 590.624,537.485 595.791,539.985 599,546.5C 599.584,549.257 599.25,551.923 598,554.5C 588.959,569.417 579.792,584.25 570.5,599C 560.072,599.092 549.738,600.092 539.5,602C 518.703,606.826 498.037,612.159 477.5,618C 460.005,621.45 442.338,623.116 424.5,623C 457.118,637.144 489.785,650.977 522.5,664.5C 562.151,646.675 601.818,628.842 641.5,611C 641.833,610.667 642.167,610.333 642.5,610C 623.35,603.474 603.683,599.308 583.5,597.5C 593.132,584.027 601.299,569.693 608,554.5C 608.563,544.295 604.397,536.629 595.5,531.5C 594.612,529.727 593.279,528.394 591.5,527.5C 589.527,528.331 587.527,528.498 585.5,528C 586.833,525 588.167,522 589.5,519C 589.383,516.57 588.716,514.07 587.5,511.5C 598.199,492.48 608.866,473.48 619.5,454.5C 625.627,451.263 628.293,453.263 627.5,460.5C 629.451,460.773 630.951,460.107 632,458.5C 632.49,459.793 632.657,461.127 632.5,462.5 Z" /></g><g><path style="opacity:1" fill="#454545" d="M 464.5,552.5 C 465.5,552.5 466.5,552.5 467.5,552.5C 467.5,553.5 467.5,554.5 467.5,555.5C 466.5,555.5 465.5,555.5 464.5,555.5C 464.5,554.5 464.5,553.5 464.5,552.5 Z" /></g><g><path style="opacity:1" fill="#252626" d="M 454.5,529.5 C 456.465,529.948 456.798,530.948 455.5,532.5C 454.614,531.675 454.281,530.675 454.5,529.5 Z" /></g><g><path style="opacity:1" fill="#272727" d="M 485.5,504.5 C 487.337,504.639 487.67,505.306 486.5,506.5C 485.702,506.043 485.369,505.376 485.5,504.5 Z" /></g><g><path style="opacity:1" fill="#f6f6f6" d="M 763.5,749.5 C 762.501,710.337 762.168,671.004 762.5,631.5C 762.5,615.167 762.5,598.833 762.5,582.5C 755.62,580.428 748.954,577.761 742.5,574.5C 747.679,570.742 753.346,567.742 759.5,565.5C 760.376,565.631 761.043,565.298 761.5,564.5C 759.604,563.534 757.604,563.201 755.5,563.5C 750.69,562.964 746.023,561.797 741.5,560C 701.56,544.857 661.56,530.023 621.5,515.5C 620.304,515.846 620.304,516.346 621.5,517C 656.911,534.69 692.911,551.023 729.5,566C 729.833,566.333 730.167,566.667 730.5,567C 712.807,571.728 695.14,571.394 677.5,566C 664.122,562.31 651.455,556.976 639.5,550C 626.543,540.045 613.876,529.712 601.5,519C 604.969,512.552 608.802,506.386 613,500.5C 652.385,515.768 691.885,530.935 731.5,546C 750.593,553.808 769.593,561.808 788.5,570C 779.857,572.737 772.024,576.904 765,582.5C 765.379,601.515 766.379,620.515 768,639.5C 769.108,675.492 769.608,711.492 769.5,747.5C 767.297,747.604 765.297,748.27 763.5,749.5 Z" /></g><g><path style="opacity:1" fill="#bee3e8" d="M 205.5,556.5 C 206.193,574.02 206.859,591.686 207.5,609.5C 207.224,611.33 206.557,612.997 205.5,614.5C 204.702,614.043 204.369,613.376 204.5,612.5C 205.497,595.008 205.83,577.341 205.5,559.5C 205.5,558.5 205.5,557.5 205.5,556.5 Z" /></g><g><path style="opacity:1" fill="#74bacb" d="M 205.5,556.5 C 205.5,557.5 205.5,558.5 205.5,559.5C 204.5,559.5 203.5,559.5 202.5,559.5C 202.667,571.505 202.5,583.505 202,595.5C 201.333,596.167 200.667,596.833 200,597.5C 196.068,590.767 194.568,583.434 195.5,575.5C 194.5,575.5 193.5,575.5 192.5,575.5C 192.631,581.082 192.631,586.416 192.5,591.5C 186.299,580.313 180.633,568.646 175.5,556.5C 185.659,555.177 195.659,555.177 205.5,556.5 Z" /></g><g><path style="opacity:1" fill="#909291" d="M 755.5,563.5 C 757.604,563.201 759.604,563.534 761.5,564.5C 761.043,565.298 760.376,565.631 759.5,565.5C 758.167,564.833 756.833,564.167 755.5,563.5 Z" /></g><g><path style="opacity:1" fill="#303030" d="M 449.5,564.5 C 453.31,565.754 453.31,566.754 449.5,567.5C 449.5,566.5 449.5,565.5 449.5,564.5 Z" /></g><g><path style="opacity:1" fill="#f7f7f8" d="M 595.5,531.5 C 604.397,536.629 608.563,544.295 608,554.5C 601.299,569.693 593.132,584.027 583.5,597.5C 603.683,599.308 623.35,603.474 642.5,610C 642.167,610.333 641.833,610.667 641.5,611C 601.818,628.842 562.151,646.675 522.5,664.5C 489.785,650.977 457.118,637.144 424.5,623C 442.338,623.116 460.005,621.45 477.5,618C 498.037,612.159 518.703,606.826 539.5,602C 549.738,600.092 560.072,599.092 570.5,599C 579.792,584.25 588.959,569.417 598,554.5C 599.25,551.923 599.584,549.257 599,546.5C 595.791,539.985 590.624,537.485 583.5,539C 576.505,545.514 570.339,552.681 565,560.5C 563.608,562.842 562.775,562.842 562.5,560.5C 569.444,550.136 576.778,539.969 584.5,530C 588.31,529.413 591.977,529.913 595.5,531.5 Z" /></g><g><path style="opacity:1" fill="#1c1c1c" d="M 394.5,566.5 C 398.485,566.629 399.818,568.463 398.5,572C 393.728,572.81 392.395,570.977 394.5,566.5 Z" /></g><g><path style="opacity:1" fill="#71bbc8" d="M 847.5,558.5 C 840.378,576.081 831.711,592.747 821.5,608.5C 820.768,609.808 819.934,611.142 819,612.5C 818.5,593.836 818.333,575.17 818.5,556.5C 827.986,555.506 837.652,555.173 847.5,555.5C 847.5,556.5 847.5,557.5 847.5,558.5 Z" /></g><g><path style="opacity:1" fill="#242424" d="M 411.5,571.5 C 415.676,570.831 417.009,572.331 415.5,576C 414.207,576.49 412.873,576.657 411.5,576.5C 411.5,574.833 411.5,573.167 411.5,571.5 Z" /></g><g><path style="opacity:1" fill="#161616" d="M 376.5,574.5 C 381.159,574.015 382.492,575.848 380.5,580C 375.728,580.81 374.395,578.977 376.5,574.5 Z" /></g><g><path style="opacity:1" fill="#282a2b" d="M 352.5,578.5 C 354.167,578.5 355.833,578.5 357.5,578.5C 358.169,582.676 356.669,584.009 353,582.5C 352.51,581.207 352.343,579.873 352.5,578.5 Z" /></g><g><path style="opacity:1" fill="#171717" d="M 430.5,578.5 C 436.016,578.473 437.349,580.64 434.5,585C 432.866,585.494 431.199,585.66 429.5,585.5C 429.298,583.05 429.631,580.717 430.5,578.5 Z" /></g><g><path style="opacity:1" fill="#1d1d1d" d="M 389.5,582.5 C 392.91,582.384 394.244,584.05 393.5,587.5C 389.065,588.078 387.732,586.411 389.5,582.5 Z" /></g><g><path style="opacity:1" fill="#f4f4f5" d="M 299.5,583.5 C 301.527,583.338 303.527,583.505 305.5,584C 369.505,612.008 433.171,640.508 496.5,669.5C 492.552,672.307 488.218,674.307 483.5,675.5C 419.002,647.917 355.002,619.25 291.5,589.5C 290.289,588.726 290.289,587.893 291.5,587C 294.599,586.613 297.266,585.446 299.5,583.5 Z" /></g><g><path style="opacity:1" fill="#f2f2f3" d="M 776.5,584.5 C 783.827,583.329 786.994,586.329 786,593.5C 784.649,595.019 783.149,596.352 781.5,597.5C 781.089,596.738 780.923,595.738 781,594.5C 778.16,597.371 775.826,597.037 774,593.5C 773.131,590.007 773.964,587.007 776.5,584.5 Z" /></g><g><path style="opacity:1" fill="#6cbcc4" d="M 205.5,559.5 C 205.83,577.341 205.497,595.008 204.5,612.5C 200.505,605.503 196.505,598.503 192.5,591.5C 192.631,586.416 192.631,581.082 192.5,575.5C 193.5,575.5 194.5,575.5 195.5,575.5C 194.568,583.434 196.068,590.767 200,597.5C 200.667,596.833 201.333,596.167 202,595.5C 202.5,583.505 202.667,571.505 202.5,559.5C 203.5,559.5 204.5,559.5 205.5,559.5 Z" /></g><g><path style="opacity:1" fill="#191b1b" d="M 365.5,587.5 C 366.833,587.5 368.167,587.5 369.5,587.5C 369.5,589.167 369.5,590.833 369.5,592.5C 367.833,592.5 366.167,592.5 364.5,592.5C 364.629,590.784 364.962,589.117 365.5,587.5 Z" /></g><g><path style="opacity:1" fill="#212121" d="M 444.5,587.5 C 448.909,586.899 450.242,588.566 448.5,592.5C 443.722,593.922 442.389,592.255 444.5,587.5 Z" /></g><g><path style="opacity:1" fill="#1b1d1e" d="M 378.5,592.5 C 380.167,592.5 381.833,592.5 383.5,592.5C 383.5,594.167 383.5,595.833 383.5,597.5C 381.5,597.5 379.5,597.5 377.5,597.5C 377.366,595.708 377.699,594.042 378.5,592.5 Z" /></g><g><path style="opacity:1" fill="#232323" d="M 399.5,590.5 C 403.138,589.737 404.638,591.07 404,594.5C 400.331,596.009 398.831,594.676 399.5,590.5 Z" /></g><g><path style="opacity:1" fill="#a6d4d5" d="M 818.5,556.5 C 818.333,575.17 818.5,593.836 819,612.5C 819.934,611.142 820.768,609.808 821.5,608.5C 821.872,611.022 821.039,613.022 819,614.5C 817.595,611.381 817.095,608.048 817.5,604.5C 817.17,588.325 817.504,572.325 818.5,556.5 Z" /></g><g><path style="opacity:1" fill="#1a1b1b" d="M 426.5,597.5 C 427.833,597.5 429.167,597.5 430.5,597.5C 430.5,599.167 430.5,600.833 430.5,602.5C 429.167,602.5 427.833,602.5 426.5,602.5C 426.5,600.833 426.5,599.167 426.5,597.5 Z" /></g><g><path style="opacity:1" fill="#616061" d="M 263.5,582.5 C 264.829,587.624 265.495,593.124 265.5,599C 265.499,604.677 265.166,610.177 264.5,615.5C 264.81,604.419 264.477,593.419 263.5,582.5 Z" /></g><g><path style="opacity:1" fill="#353535" d="M 445.5,600.5 C 449.161,600.35 450.161,601.85 448.5,605C 444.707,605.487 443.707,603.987 445.5,600.5 Z" /></g><g><path style="opacity:1" fill="#f6f6f7" d="M 288.5,595.5 C 351.373,621.812 414.039,649.145 476.5,677.5C 477.641,679.421 477.808,681.421 477,683.5C 472.368,683.449 467.535,683.616 462.5,684C 457.332,686.669 453.332,690.502 450.5,695.5C 407.423,677.71 364.923,658.71 323,638.5C 321.138,632.383 318.971,626.383 316.5,620.5C 320.784,621.209 325.118,622.709 329.5,625C 330.5,625.667 331.5,625.667 332.5,625C 323.595,620.432 314.928,615.432 306.5,610C 300.735,608.467 295.068,606.634 289.5,604.5C 288.516,601.572 288.183,598.572 288.5,595.5 Z" /></g><g><path style="opacity:1" fill="#1c1c1c" d="M 575.5,608.5 C 580.328,608.385 581.661,610.552 579.5,615C 573.339,615.878 572.006,613.711 575.5,608.5 Z" /></g><g><path style="opacity:1" fill="#2b2b2b" d="M 527.5,613.5 C 529.337,613.639 529.67,614.306 528.5,615.5C 527.702,615.043 527.369,614.376 527.5,613.5 Z" /></g><g><path style="opacity:1" fill="#f7f7f8" d="M 234.5,614.5 C 244.27,619.207 254.27,623.54 264.5,627.5C 264.5,656.5 264.5,685.5 264.5,714.5C 263.833,726.833 263.167,739.167 262.5,751.5C 260.614,750.639 258.78,749.639 257,748.5C 256.248,733.488 255.415,718.488 254.5,703.5C 254.906,695.921 254.239,688.588 252.5,681.5C 252.665,678.15 252.498,674.817 252,671.5C 250.799,680.125 250.299,688.792 250.5,697.5C 249.095,707.301 248.428,717.301 248.5,727.5C 247.922,733.15 247.255,738.817 246.5,744.5C 245.914,744.291 245.414,743.957 245,743.5C 244.821,739.975 244.321,736.641 243.5,733.5C 242.064,710.193 240.897,686.86 240,663.5C 239.5,676.829 239.333,690.163 239.5,703.5C 238.608,715.023 237.608,726.69 236.5,738.5C 235.148,737.476 233.815,736.476 232.5,735.5C 231.839,694.82 232.506,654.486 234.5,614.5 Z" /></g><g><path style="opacity:1" fill="#2d2d2d" d="M 614.5,615.5 C 616.332,616.14 616.665,617.14 615.5,618.5C 614.614,617.675 614.281,616.675 614.5,615.5 Z" /></g><g><path style="opacity:1" fill="#1b1b1b" d="M 592.5,617.5 C 596.35,617.701 597.35,619.534 595.5,623C 590.289,623.546 589.289,621.713 592.5,617.5 Z" /></g><g><path style="opacity:1" fill="#f1f2f4" d="M 356.5,733.5 C 353.629,735.435 350.629,737.101 347.5,738.5C 342.138,737.635 338.971,734.635 338,729.5C 339.255,728.789 340.421,727.956 341.5,727C 338.5,726.667 335.5,726.333 332.5,726C 327.517,722.416 327.517,719.249 332.5,716.5C 326.069,716.24 321.736,713.073 319.5,707C 321.232,705.305 323.232,703.972 325.5,703C 319.367,703.534 315.367,700.867 313.5,695C 314.34,693.233 315.673,691.899 317.5,691C 310.683,690.183 307.517,686.35 308,679.5C 309.067,678.809 310.234,678.309 311.5,678C 304.673,676.209 301.34,671.709 301.5,664.5C 307.779,664.532 307.779,663.365 301.5,661C 298.117,657.518 296.784,653.351 297.5,648.5C 299.199,648.66 300.866,648.494 302.5,648C 300.481,647.55 298.648,646.717 297,645.5C 295.334,641.337 294.501,637.003 294.5,632.5C 295.873,632.657 297.207,632.49 298.5,632C 296.777,631.477 295.444,630.477 294.5,629C 292.721,624.221 293.387,619.888 296.5,616C 300.588,615.396 303.088,617.23 304,621.5C 308.966,664.987 326.466,702.32 356.5,733.5 Z" /></g><g><path style="opacity:1" fill="#f3f4f3" d="M 727.5,583.5 C 733.559,583.463 739.225,584.963 744.5,588C 742.844,589.829 740.844,591.163 738.5,592C 680.077,619.044 621.744,646.377 563.5,674C 558.499,673.174 553.499,672.007 548.5,670.5C 548.36,668.876 549.027,667.71 550.5,667C 609.802,639.681 668.802,611.848 727.5,583.5 Z" /></g><g><path style="opacity:1" fill="#1d1d1d" d="M 539.5,619.5 C 543.35,619.701 544.35,621.534 542.5,625C 538.537,625.118 537.537,623.284 539.5,619.5 Z" /></g><g><path style="opacity:1" fill="#191919" d="M 489.5,625.5 C 494.493,625.997 495.493,628.164 492.5,632C 487.361,631.886 486.361,629.719 489.5,625.5 Z" /></g><g><path style="opacity:1" fill="#141414" d="M 560.5,627.5 C 566.158,626.679 567.825,628.846 565.5,634C 559.741,635.139 558.074,632.972 560.5,627.5 Z" /></g><g><path style="opacity:1" fill="#1c1c1c" d="M 509.5,632.5 C 512.91,632.384 514.244,634.05 513.5,637.5C 509.065,638.078 507.732,636.411 509.5,632.5 Z" /></g><g><path style="opacity:1" fill="#aeafb1" d="M 365.5,637.5 C 364.833,637.5 364.5,637.833 364.5,638.5C 360.861,636.345 357.194,634.178 353.5,632C 357.836,633 361.836,634.833 365.5,637.5 Z" /></g><g><path style="opacity:1" fill="#1e1f1f" d="M 474.5,636.5 C 479.159,636.015 480.492,637.848 478.5,642C 477.216,642.684 476.049,642.517 475,641.5C 474.506,639.866 474.34,638.199 474.5,636.5 Z" /></g><g><path style="opacity:1" fill="#eaebeb" d="M 634.5,674.5 C 633.833,674.5 633.5,674.167 633.5,673.5C 671.452,653.236 710.119,634.403 749.5,617C 750.944,616.219 752.277,616.386 753.5,617.5C 750.217,620.482 746.551,622.982 742.5,625C 707.109,642.958 671.109,659.458 634.5,674.5 Z" /></g><g><path style="opacity:1" fill="#6d6e6e" d="M 234.5,614.5 C 232.506,654.486 231.839,694.82 232.5,735.5C 231.501,695.003 231.168,654.337 231.5,613.5C 232.791,613.263 233.791,613.596 234.5,614.5 Z" /></g><g><path style="opacity:1" fill="#1e1e1e" d="M 519.5,639.5 C 523.138,638.737 524.638,640.07 524,643.5C 519.415,645.413 517.915,644.079 519.5,639.5 Z" /></g><g><path style="opacity:1" fill="#040605" d="M 552.5,641.5 C 554.337,641.639 554.67,642.306 553.5,643.5C 552.702,643.043 552.369,642.376 552.5,641.5 Z" /></g><g><path style="opacity:1" fill="#4d5051" d="M 364.5,638.5 C 364.5,637.833 364.833,637.5 365.5,637.5C 371.357,639.93 377.023,642.597 382.5,645.5C 382.5,645.833 382.5,646.167 382.5,646.5C 376.5,643.833 370.5,641.167 364.5,638.5 Z" /></g><g><path style="opacity:1" fill="#181918" d="M 499.5,643.5 C 501.5,643.5 503.5,643.5 505.5,643.5C 506.145,648.315 504.312,649.981 500,648.5C 499.506,646.866 499.34,645.199 499.5,643.5 Z" /></g><g><path style="opacity:1" fill="#1b1b1b" d="M 518.5,652.5 C 520.167,652.5 521.833,652.5 523.5,652.5C 523.949,654.977 523.283,656.977 521.5,658.5C 519.022,657.278 518.022,655.278 518.5,652.5 Z" /></g><g><path style="opacity:1" fill="#282b2b" d="M 382.5,646.5 C 382.5,646.167 382.5,645.833 382.5,645.5C 402.382,653.773 422.049,662.606 441.5,672C 421.453,664.65 401.786,656.15 382.5,646.5 Z" /></g><g><path style="opacity:1" fill="#969ba2" d="M 278.5,657.5 C 283.878,660.507 289.212,663.507 294.5,666.5C 294.167,666.833 293.833,667.167 293.5,667.5C 289.024,664.76 284.357,662.26 279.5,660C 278.748,659.329 278.414,658.496 278.5,657.5 Z" /></g><g><path style="opacity:1" fill="#e3e3e3" d="M 714.5,674.5 C 706.443,677.632 698.443,680.965 690.5,684.5C 689.893,684.376 689.56,684.043 689.5,683.5C 708.582,672.625 728.249,662.792 748.5,654C 749.944,653.219 751.277,653.386 752.5,654.5C 740.375,662.229 727.709,668.895 714.5,674.5 Z" /></g><g><path style="opacity:1" fill="#f8f8f9" d="M 331.5,663.5 C 368.569,681.367 405.902,698.701 443.5,715.5C 440.014,721.667 435.347,727 429.5,731.5C 401.825,718.437 374.159,705.27 346.5,692C 339.533,683.568 334.533,674.068 331.5,663.5 Z" /></g><g><path style="opacity:1" fill="#7c7a7b" d="M 777.5,671.5 C 776.833,671.5 776.167,671.5 775.5,671.5C 775.575,658.311 776.242,658.311 777.5,671.5 Z" /></g><g><path style="opacity:1" fill="#717173" d="M 633.5,673.5 C 633.5,674.167 633.833,674.5 634.5,674.5C 632.956,675.914 631.289,676.247 629.5,675.5C 630.766,674.638 632.099,673.971 633.5,673.5 Z" /></g><g><path style="opacity:1" fill="#272727" d="M 714.5,674.5 C 713.398,676.092 714.065,676.925 716.5,677C 713.526,678.929 710.526,680.762 707.5,682.5C 707.44,681.957 707.107,681.624 706.5,681.5C 699.554,684.811 692.554,687.811 685.5,690.5C 685.511,688.983 686.177,687.816 687.5,687C 685.249,684.987 685.916,683.82 689.5,683.5C 689.56,684.043 689.893,684.376 690.5,684.5C 698.443,680.965 706.443,677.632 714.5,674.5 Z" /></g><g><path style="opacity:1" fill="#c0c5ca" d="M 287.5,673.5 C 290.861,675.847 294.528,677.681 298.5,679C 299.743,680.154 300.743,681.488 301.5,683C 297.187,681.004 292.854,678.671 288.5,676C 287.748,675.329 287.414,674.496 287.5,673.5 Z" /></g><g><path style="opacity:1" fill="#ebedef" d="M 327.5,654.5 C 366.97,671.381 406.637,688.714 446.5,706.5C 447.578,708.475 447.245,710.308 445.5,712C 408.717,697.117 372.384,680.784 336.5,663C 332.973,660.638 329.973,657.804 327.5,654.5 Z" /></g><g><path style="opacity:1" fill="#d6dbdd" d="M 288.5,689.5 C 288.56,688.957 288.893,688.624 289.5,688.5C 295.197,691.017 300.864,693.517 306.5,696C 308.211,697.133 308.711,698.633 308,700.5C 301.554,696.695 295.054,693.028 288.5,689.5 Z" /></g><g><path style="opacity:1" fill="#adb5b2" d="M 252.5,681.5 C 254.239,688.588 254.906,695.921 254.5,703.5C 253.462,696.347 252.796,689.014 252.5,681.5 Z" /></g><g><path style="opacity:1" fill="#f0f0f1" d="M 541.5,696.5 C 548.369,696.538 550.869,699.871 549,706.5C 545.521,710.84 541.521,711.173 537,707.5C 535.776,702.626 537.276,698.959 541.5,696.5 Z" /></g><g><path style="opacity:1" fill="#dfdfdf" d="M 707.5,682.5 C 681.083,698.376 653.416,711.543 624.5,722C 644.515,710.992 664.848,700.492 685.5,690.5C 692.554,687.811 699.554,684.811 706.5,681.5C 707.107,681.624 707.44,681.957 707.5,682.5 Z" /></g><g><path style="opacity:1" fill="#79787a" d="M 521.5,695.5 C 522.495,707.322 522.828,719.322 522.5,731.5C 521.209,731.737 520.209,731.404 519.5,730.5C 521.478,719.215 522.145,707.548 521.5,695.5 Z" /></g><g><path style="opacity:1" fill="#f1f1f2" d="M 446.5,733.5 C 450.557,726.389 454.391,719.056 458,711.5C 459.487,704.697 461.653,698.197 464.5,692C 470.193,692.036 472.86,695.036 472.5,701C 472.728,707.11 469.728,710.444 463.5,711C 466.226,711.182 468.893,711.682 471.5,712.5C 470.623,716.431 468.623,719.597 465.5,722C 462.5,722.333 459.5,722.667 456.5,723C 458.569,725.534 461.235,726.701 464.5,726.5C 462.83,732.359 458.83,735.359 452.5,735.5C 450.286,735.389 448.286,734.722 446.5,733.5 Z" /></g><g><path style="opacity:1" fill="#f6f7f7" d="M 350.5,699.5 C 374.994,711.245 399.661,722.745 424.5,734C 421.785,735.908 418.785,737.241 415.5,738C 403.191,740.355 391.857,738.021 381.5,731C 368.265,723.266 357.932,712.766 350.5,699.5 Z" /></g><g><path style="opacity:1" fill="#f1f2f3" d="M 518.5,692.5 C 514.07,689.643 509.404,687.477 504.5,686C 508.534,689.017 512.867,691.517 517.5,693.5C 518.605,694.6 519.938,695.267 521.5,695.5C 522.145,707.548 521.478,719.215 519.5,730.5C 508.712,726.523 498.212,721.857 488,716.5C 487.5,706.506 487.334,696.506 487.5,686.5C 500.262,682.204 512.762,677.204 525,671.5C 533.201,674.794 541.367,678.294 549.5,682C 541.079,685.246 533.079,689.246 525.5,694C 523.041,694.239 520.707,693.739 518.5,692.5 Z" /></g><g><path style="opacity:1" fill="#161617" d="M 493.5,693.5 C 504.783,692.742 512.617,697.742 517,708.5C 518.874,715.011 517.041,720.178 511.5,724C 510.167,724.667 508.833,724.667 507.5,724C 501.927,720.261 497.594,715.428 494.5,709.5C 504.992,708.025 506.992,703.192 500.5,695C 498.26,694.023 495.927,693.523 493.5,693.5 Z" /></g><g><path style="opacity:1" fill="#4a5151" d="M 518.5,692.5 C 517.833,692.5 517.5,692.833 517.5,693.5C 512.867,691.517 508.534,689.017 504.5,686C 509.404,687.477 514.07,689.643 518.5,692.5 Z" /></g><g><path style="opacity:1" fill="#e4e5e8" d="M 289.5,702.5 C 299.157,704.559 308.323,708.559 317,714.5C 318.289,716.055 318.956,717.721 319,719.5C 309.221,713.695 299.388,708.029 289.5,702.5 Z" /></g><g><path style="opacity:1" fill="#dfdfdf" d="M 775.5,671.5 C 776.167,671.5 776.833,671.5 777.5,671.5C 778.195,688.491 778.528,705.491 778.5,722.5C 777.833,728.5 777.167,734.5 776.5,740.5C 775.6,717.514 775.267,694.514 775.5,671.5 Z" /></g><g><path style="opacity:1" fill="#e8eaed" d="M 287.5,713.5 C 300.77,718.569 314.103,724.402 327.5,731C 331.188,735.686 335.188,740.019 339.5,744C 321.501,735.16 304.167,724.993 287.5,713.5 Z" /></g><g><path style="opacity:1" fill="#141616" d="M 243.5,733.5 C 243.663,735.857 243.497,738.19 243,740.5C 242.461,737.471 241.794,734.471 241,731.5C 240.313,733.568 240.48,735.568 241.5,737.5C 240.675,738.386 239.675,738.719 238.5,738.5C 239.055,726.841 239.388,715.174 239.5,703.5C 239.333,690.163 239.5,676.829 240,663.5C 240.897,686.86 242.064,710.193 243.5,733.5 Z" /></g><g><path style="opacity:1" fill="#eaeceb" d="M 747.5,694.5 C 751.527,694.281 752.194,695.448 749.5,698C 692.945,728.611 635.611,757.611 577.5,785C 574.911,786.314 572.244,786.981 569.5,787C 586.044,776.56 603.044,766.894 620.5,758C 662.925,736.787 705.259,715.621 747.5,694.5 Z" /></g><g><path style="opacity:1" fill="#454644" d="M 250.5,697.5 C 250.219,702.565 250.552,707.565 251.5,712.5C 249.938,717.46 248.938,722.46 248.5,727.5C 248.428,717.301 249.095,707.301 250.5,697.5 Z" /></g><g><path style="opacity:1" fill="#a6a6a4" d="M 264.5,714.5 C 264.832,727.184 264.499,739.851 263.5,752.5C 262.893,752.376 262.56,752.043 262.5,751.5C 263.167,739.167 263.833,726.833 264.5,714.5 Z" /></g><g><path style="opacity:1" fill="#f8f9f9" d="M 491.5,730.5 C 501.263,734.547 510.93,738.88 520.5,743.5C 521.833,787.833 521.833,832.167 520.5,876.5C 519.029,875.619 518.196,874.286 518,872.5C 517.372,865.171 516.872,857.837 516.5,850.5C 516.666,844.158 516.5,837.825 516,831.5C 515.802,829.618 515.302,827.952 514.5,826.5C 513.806,814.846 513.473,803.18 513.5,791.5C 513.656,787.418 513.156,783.418 512,779.5C 511.5,794.163 511.333,808.83 511.5,823.5C 511.177,839.18 510.51,854.846 509.5,870.5C 506.254,868.961 503.088,867.294 500,865.5C 499.333,840.157 498.5,814.823 497.5,789.5C 497.665,786.482 497.498,783.482 497,780.5C 495.675,785.401 495.175,790.401 495.5,795.5C 495.299,813.519 494.632,831.519 493.5,849.5C 492.833,853.5 492.167,857.5 491.5,861.5C 490.178,861.67 489.011,861.337 488,860.5C 487.5,842.836 487.333,825.17 487.5,807.5C 488.332,782.337 488.832,757.003 489,731.5C 489.671,730.748 490.504,730.414 491.5,730.5 Z" /></g><g><path style="opacity:1" fill="#777779" d="M 286.5,735.5 C 286.5,735.833 286.5,736.167 286.5,736.5C 284.364,735.597 282.364,734.431 280.5,733C 282.821,732.992 284.821,733.825 286.5,735.5 Z" /></g><g><path style="opacity:1" fill="#7c7c7c" d="M 778.5,722.5 C 778.666,729.175 778.5,735.842 778,742.5C 777.667,742.833 777.333,743.167 777,743.5C 776.517,742.552 776.351,741.552 776.5,740.5C 777.167,734.5 777.833,728.5 778.5,722.5 Z" /></g><g><path style="opacity:1" fill="#f2f3f4" d="M 446.5,733.5 C 448.647,737.263 451.98,739.597 456.5,740.5C 451.249,746.308 444.916,748.142 437.5,746C 435.789,744.867 435.289,743.367 436,741.5C 438.858,737.786 442.358,735.12 446.5,733.5 Z" /></g><g><path style="opacity:1" fill="#494f4f" d="M 356.5,733.5 C 357.5,733.833 358.167,734.5 358.5,735.5C 354.911,736.298 351.578,737.631 348.5,739.5C 348.5,738.833 348.167,738.5 347.5,738.5C 350.629,737.101 353.629,735.435 356.5,733.5 Z" /></g><g><path style="opacity:1" fill="#f2f2f4" d="M 358.5,735.5 C 361.803,739.156 365.803,741.822 370.5,743.5C 369.552,744.978 368.219,745.978 366.5,746.5C 364.391,747.391 362.391,748.558 360.5,750C 355.686,748.908 351.519,746.408 348,742.5C 347.53,741.423 347.697,740.423 348.5,739.5C 351.578,737.631 354.911,736.298 358.5,735.5 Z" /></g><g><path style="opacity:1" fill="#98989a" d="M 762.5,631.5 C 762.168,671.004 762.501,710.337 763.5,749.5C 763.44,750.043 763.107,750.376 762.5,750.5C 761.169,710.669 761.169,671.002 762.5,631.5 Z" /></g><g><path style="opacity:1" fill="#474749" d="M 556.5,745.5 C 555.833,744.833 555.167,744.167 554.5,743.5C 554.336,740.813 554.503,738.146 555,735.5C 556.405,738.619 556.905,741.952 556.5,745.5 Z" /></g><g><path style="opacity:1" fill="#8c8c8c" d="M 370.5,743.5 C 371.872,744.512 373.205,745.512 374.5,746.5C 372.05,746.298 369.717,746.631 367.5,747.5C 367.5,746.833 367.167,746.5 366.5,746.5C 368.219,745.978 369.552,744.978 370.5,743.5 Z" /></g><g><path style="opacity:1" fill="#f5f6f6" d="M 374.5,746.5 C 377.09,747.128 379.423,748.295 381.5,750C 383.134,750.494 384.801,750.66 386.5,750.5C 385.63,752.274 384.297,753.607 382.5,754.5C 380.271,755.055 378.605,756.389 377.5,758.5C 372.236,759.3 367.736,757.633 364,753.5C 363.613,750.696 364.779,748.696 367.5,747.5C 369.717,746.631 372.05,746.298 374.5,746.5 Z" /></g><g><path style="opacity:1" fill="#f1f2f2" d="M 425.5,755.5 C 423.919,753.858 423.253,751.858 423.5,749.5C 426.251,747.422 429.251,745.755 432.5,744.5C 435.238,745.728 437.571,747.562 439.5,750C 441.392,750.973 443.392,751.64 445.5,752C 439.426,757.361 432.76,758.527 425.5,755.5 Z" /></g><g><path style="opacity:1" fill="#f0f2f3" d="M 419.5,750.5 C 421.164,752.408 422.831,754.408 424.5,756.5C 426.327,758.561 428.66,759.894 431.5,760.5C 425.813,763.309 419.813,764.143 413.5,763C 412.069,762.535 410.903,761.701 410,760.5C 410.05,762.752 411.216,764.418 413.5,765.5C 409.205,766.661 404.871,766.828 400.5,766C 398.365,765.124 397.031,763.624 396.5,761.5C 396.018,758.169 397.018,755.503 399.5,753.5C 402.038,753.493 404.538,753.159 407,752.5C 408.326,752.755 409.326,753.422 410,754.5C 412.703,752.098 415.87,750.765 419.5,750.5 Z" /></g><g><path style="opacity:1" fill="#a2a4a3" d="M 419.5,750.5 C 420.568,749.566 421.901,749.232 423.5,749.5C 423.253,751.858 423.919,753.858 425.5,755.5C 424.833,755.5 424.5,755.833 424.5,756.5C 422.831,754.408 421.164,752.408 419.5,750.5 Z" /></g><g><path style="opacity:1" fill="#8f8f91" d="M 554.5,743.5 C 555.167,744.167 555.833,744.833 556.5,745.5C 556.5,749.5 556.5,753.5 556.5,757.5C 555.833,755.5 555.167,753.5 554.5,751.5C 554.5,748.833 554.5,746.167 554.5,743.5 Z" /></g><g><path style="opacity:1" fill="#afb0b3" d="M 386.5,750.5 C 390.637,752.123 394.97,753.123 399.5,753.5C 397.018,755.503 396.018,758.169 396.5,761.5C 395.833,760.833 395.167,760.167 394.5,759.5C 394.877,757.742 395.544,756.075 396.5,754.5C 391.833,753.349 387.166,753.349 382.5,754.5C 384.297,753.607 385.63,752.274 386.5,750.5 Z" /></g><g><path style="opacity:1" fill="#f2f3f4" d="M 394.5,759.5 C 395.057,761.949 395.057,764.282 394.5,766.5C 391.192,765.605 387.859,764.771 384.5,764C 379.973,761.718 379.306,758.552 382.5,754.5C 387.166,753.349 391.833,753.349 396.5,754.5C 395.544,756.075 394.877,757.742 394.5,759.5 Z" /></g><g><path style="opacity:1" fill="#f5f6f6" d="M 476.5,814.5 C 477.809,821.266 477.809,827.932 476.5,834.5C 440.398,816.543 404.398,798.709 368.5,781C 340.98,766.408 313.647,751.575 286.5,736.5C 286.5,736.167 286.5,735.833 286.5,735.5C 302.928,742.465 319.261,749.298 335.5,756C 319.664,746.25 303.997,736.25 288.5,726C 306.388,733.938 324.388,741.938 342.5,750C 360.84,763.338 380.507,774.338 401.5,783C 406.677,784.961 412.01,786.294 417.5,787C 437.188,796.178 456.855,805.345 476.5,814.5 Z" /></g><g><path style="opacity:1" fill="#e5e4e6" d="M 476.5,753.5 C 477.65,758.316 477.816,763.316 477,768.5C 474.404,766.451 471.571,764.785 468.5,763.5C 471.57,760.436 474.237,757.103 476.5,753.5 Z" /></g><g><path style="opacity:1" fill="#dfe0df" d="M 616.5,790.5 C 615.833,790.5 615.5,790.167 615.5,789.5C 643.801,774.347 672.801,760.847 702.5,749C 674.728,764.72 646.061,778.553 616.5,790.5 Z" /></g><g><path style="opacity:1" fill="#d5d4d4" d="M 680.5,782.5 C 679.833,782.5 679.5,782.167 679.5,781.5C 699.833,769.997 720.833,760.164 742.5,752C 722.305,763.016 701.639,773.183 680.5,782.5 Z" /></g><g><path style="opacity:1" fill="#e0e1e3" d="M 470.5,778.5 C 472.288,777.378 474.288,777.211 476.5,778C 477.337,779.011 477.67,780.178 477.5,781.5C 474.978,780.989 472.645,779.989 470.5,778.5 Z" /></g><g><path style="opacity:1" fill="#e7e7e9" d="M 554.5,751.5 C 555.167,753.5 555.833,755.5 556.5,757.5C 556.5,782.5 556.5,807.5 556.5,832.5C 555.833,835.167 555.167,837.833 554.5,840.5C 553.193,810.84 553.193,781.173 554.5,751.5 Z" /></g><g><path style="opacity:1" fill="#f6f6f7" d="M 458.5,780.5 C 464.96,780.39 470.96,782.057 476.5,785.5C 477.665,793.145 477.831,800.812 477,808.5C 462.298,801.566 447.798,794.232 433.5,786.5C 442.186,785.45 450.519,783.45 458.5,780.5 Z" /></g><g><path style="opacity:1" fill="#787878" d="M 679.5,781.5 C 679.5,782.167 679.833,782.5 680.5,782.5C 677.908,784.752 674.908,785.919 671.5,786C 674.032,784.235 676.699,782.735 679.5,781.5 Z" /></g><g><path style="opacity:1" fill="#d3dade" d="M 289.5,761.5 C 289.56,760.957 289.893,760.624 290.5,760.5C 319.928,775.381 349.261,790.548 378.5,806C 375.076,805.639 371.742,804.639 368.5,803C 341.477,790.159 315.144,776.325 289.5,761.5 Z" /></g><g><path style="opacity:1" fill="#788689" d="M 497.5,789.5 C 496.833,791.5 496.167,793.5 495.5,795.5C 495.175,790.401 495.675,785.401 497,780.5C 497.498,783.482 497.665,786.482 497.5,789.5 Z" /></g><g><path style="opacity:1" fill="#9c9c9c" d="M 615.5,789.5 C 615.5,790.167 615.833,790.5 616.5,790.5C 612.807,792.848 608.807,794.348 604.5,795C 608.193,793.153 611.86,791.32 615.5,789.5 Z" /></g><g><path style="opacity:1" fill="#d2d2d4" d="M 491.5,730.5 C 490.504,730.414 489.671,730.748 489,731.5C 488.832,757.003 488.332,782.337 487.5,807.5C 487.167,781.158 487.5,754.825 488.5,728.5C 489.739,728.942 490.739,729.609 491.5,730.5 Z" /></g><g><path style="opacity:1" fill="#809293" d="M 513.5,791.5 C 512.833,802.167 512.167,812.833 511.5,823.5C 511.333,808.83 511.5,794.163 512,779.5C 513.156,783.418 513.656,787.418 513.5,791.5 Z" /></g><g><path style="opacity:1" fill="#ecedef" d="M 288.5,751.5 C 346.031,778.927 403.698,807.094 461.5,836C 466.341,838.921 471.341,841.588 476.5,844C 477.747,845.494 477.747,846.994 476.5,848.5C 430.379,825.772 384.046,803.605 337.5,782C 320.751,772.401 304.418,762.234 288.5,751.5 Z" /></g><g><path style="opacity:1" fill="#57585a" d="M 476.5,814.5 C 477.821,817.598 478.488,821.098 478.5,825C 478.167,828.5 477.833,832 477.5,835.5C 476.893,835.376 476.56,835.043 476.5,834.5C 477.809,827.932 477.809,821.266 476.5,814.5 Z" /></g><g><path style="opacity:1" fill="#b7b9b8" d="M 514.5,826.5 C 515.302,827.952 515.802,829.618 516,831.5C 516.5,837.825 516.666,844.158 516.5,850.5C 515.369,842.686 514.702,834.686 514.5,826.5 Z" /></g><g><path style="opacity:1" fill="#a9a9ab" d="M 556.5,832.5 C 556.642,840.208 556.142,847.875 555,855.5C 554.501,850.511 554.334,845.511 554.5,840.5C 555.167,837.833 555.833,835.167 556.5,832.5 Z" /></g><g><path style="opacity:1" fill="#787677" d="M 493.5,849.5 C 493.826,853.884 493.492,858.217 492.5,862.5C 491.893,862.376 491.56,862.043 491.5,861.5C 492.167,857.5 492.833,853.5 493.5,849.5 Z" /></g></svg>