<!DOCTYPE svg PUBLIC "-//W3C//DTD SVG 1.1//EN" "http://www.w3.org/Graphics/SVG/1.1/DTD/svg11.dtd"[]><svg xmlns="http://www.w3.org/2000/svg" version="1.1" width="108" height="160" style="shape-rendering:geometricPrecision; text-rendering:geometricPrecision; image-rendering:optimizeQuality; fill-rule:evenodd; clip-rule:evenodd" xmlns:xlink="http://www.w3.org/1999/xlink" viewBox="0 0 784 1155"><g><path style="opacity:1" fill="#fefefe" d="M -0.5,-0.5 C 260.833,-0.5 522.167,-0.5 783.5,-0.5C 783.5,384.5 783.5,769.5 783.5,1154.5C 522.167,1154.5 260.833,1154.5 -0.5,1154.5C -0.5,1105.5 -0.5,1056.5 -0.5,1007.5C 17.7385,1041.64 35.7385,1075.97 53.5,1110.5C 56.2326,1116.3 59.2326,1121.96 62.5,1127.5C 66.5,1127.83 70.5,1128.17 74.5,1128.5C 87.8286,1127.68 101.162,1127.01 114.5,1126.5C 116.084,1134.1 118.417,1141.44 121.5,1148.5C 136.06,1140.39 150.393,1132.06 164.5,1123.5C 165.167,1123.5 165.833,1123.5 166.5,1123.5C 190.484,1121.98 214.484,1120.64 238.5,1119.5C 267.143,1117.61 295.81,1115.95 324.5,1114.5C 343.491,1113.35 362.491,1112.35 381.5,1111.5C 404.496,1110.11 427.496,1108.78 450.5,1107.5C 460.456,1121.46 470.79,1135.12 481.5,1148.5C 493.083,1133.66 504.416,1118.66 515.5,1103.5C 515.833,1103.5 516.167,1103.5 516.5,1103.5C 536.851,1102.83 557.185,1101.83 577.5,1100.5C 607.151,1098.57 636.818,1096.91 666.5,1095.5C 666.5,1092.83 666.5,1090.17 666.5,1087.5C 636.842,1083.75 607.176,1080.08 577.5,1076.5C 565.018,1074.92 552.685,1073.25 540.5,1071.5C 595.551,999.784 650.217,927.784 704.5,855.5C 718.921,836.566 733.588,817.733 748.5,799C 734.186,803.655 720.186,809.155 706.5,815.5C 686.597,823.129 666.93,831.129 647.5,839.5C 626.55,847.314 605.884,855.648 585.5,864.5C 576.401,867.548 567.401,870.882 558.5,874.5C 562.221,837.355 566.554,800.022 571.5,762.5C 576.198,724.881 580.532,687.214 584.5,649.5C 586.69,634.33 588.69,618.997 590.5,603.5C 593.116,578.438 596.116,553.438 599.5,528.5C 601.829,510.538 603.829,492.538 605.5,474.5C 609.715,442.541 613.715,410.541 617.5,378.5C 620.268,355.485 622.768,332.485 625,309.5C 615.606,325.388 606.439,341.388 597.5,357.5C 568.914,406.336 540.581,455.336 512.5,504.5C 502.343,520.804 492.677,537.471 483.5,554.5C 462.581,590.003 441.914,625.67 421.5,661.5C 407.914,684.336 394.581,707.336 381.5,730.5C 336.182,808.465 290.848,886.465 245.5,964.5C 222.359,950.094 199.359,935.427 176.5,920.5C 159.149,909.474 141.816,898.474 124.5,887.5C 111.041,878.265 97.3747,869.265 83.5,860.5C 72.641,853.24 61.641,846.24 50.5,839.5C 43.7375,834.609 36.7375,829.942 29.5,825.5C 28.7526,827.289 29.086,828.956 30.5,830.5C 33.4676,842.711 36.801,854.711 40.5,866.5C 46.526,888.606 52.8593,910.606 59.5,932.5C 66.7975,960.35 74.4642,988.017 82.5,1015.5C 73.1657,1014.5 63.8324,1013.5 54.5,1012.5C 36.2991,1009.43 17.9658,1007.1 -0.5,1005.5C -0.5,670.167 -0.5,334.833 -0.5,-0.5 Z" /></g><g><path style="opacity:1" fill="#ec6341" d="M 675.5,0.5 C 691.866,-0.275153 700.033,7.39151 700,23.5C 695.534,37.9264 686.034,42.7597 671.5,38C 660.943,30.6062 658.443,21.1062 664,9.5C 667.161,5.49052 670.994,2.49052 675.5,0.5 Z" /></g><g><path style="opacity:1" fill="#ef7555" d="M 694.5,35.5 C 696.55,37.2368 698.383,39.2368 700,41.5C 700.688,42.3317 700.521,42.9984 699.5,43.5C 696.174,41.4598 694.507,38.7931 694.5,35.5 Z" /></g><g><path style="opacity:1" fill="#ec6341" d="M 706.5,68.5 C 695.372,62.3312 693.705,54.1646 701.5,44C 709.699,39.706 716.532,41.206 722,48.5C 724.998,61.347 719.832,68.0137 706.5,68.5 Z" /></g><g><path style="opacity:1" fill="#ee7050" d="M 722.5,62.5 C 725.815,64.8081 729.149,67.1414 732.5,69.5C 731.635,70.5827 730.635,70.7494 729.5,70C 726.833,68 724.167,66 721.5,64C 722.056,63.6174 722.389,63.1174 722.5,62.5 Z" /></g><g><path style="opacity:1" fill="#ec6442" d="M 750.5,83.5 C 743.567,89.3143 737.4,88.6477 732,81.5C 730.876,68.4844 736.376,64.3177 748.5,69C 751.677,73.4133 752.344,78.2466 750.5,83.5 Z" /></g><g><path style="opacity:1" fill="#ed6c4c" d="M 710.5,69.5 C 711.725,70.1522 712.392,71.3189 712.5,73C 712.167,74.1667 711.833,75.3333 711.5,76.5C 710.526,74.2573 710.192,71.924 710.5,69.5 Z" /></g><g><path style="opacity:1" fill="#ec6442" d="M 702.5,84.5 C 709.298,75.2134 716.132,75.2134 723,84.5C 723.833,94.3333 719.333,98.8333 709.5,98C 704.053,95.1815 701.719,90.6815 702.5,84.5 Z" /></g><g><path style="opacity:1" fill="#ec6644" d="M 764.5,85.5 C 774.195,85.3569 778.362,90.0235 777,99.5C 773.184,105.742 768.017,107.075 761.5,103.5C 758.031,100.562 756.864,96.8956 758,92.5C 759.694,89.6424 761.861,87.309 764.5,85.5 Z" /></g><g><path style="opacity:1" fill="#ee7151" d="M 750.5,83.5 C 753.658,84.3134 756.324,85.9801 758.5,88.5C 757.998,89.521 757.332,89.6877 756.5,89C 753.957,87.6181 751.957,85.7848 750.5,83.5 Z" /></g><g><path style="opacity:1" fill="#ef7454" d="M 706.5,68.5 C 705.478,73.9227 704.144,79.256 702.5,84.5C 701.213,88.313 700.213,92.313 699.5,96.5C 698.9,97.9002 697.9,98.9002 696.5,99.5C 698.694,90.0843 701.194,80.751 704,71.5C 704.236,69.8807 705.069,68.8807 706.5,68.5 Z" /></g><g><path style="opacity:1" fill="#fbc9b8" d="M 699.5,96.5 C 699.366,98.2915 699.699,99.9582 700.5,101.5C 696.901,100.656 693.234,100.323 689.5,100.5C 691.607,99.5318 693.941,99.1984 696.5,99.5C 697.9,98.9002 698.9,97.9002 699.5,96.5 Z" /></g><g><path style="opacity:1" fill="#ec6341" d="M 689.5,100.5 C 693.234,100.323 696.901,100.656 700.5,101.5C 703.112,102.779 705.445,104.445 707.5,106.5C 713.466,114.62 713.799,122.953 708.5,131.5C 700.814,140.256 691.814,141.756 681.5,136C 672.682,127.736 671.182,118.236 677,107.5C 680.355,103.63 684.521,101.297 689.5,100.5 Z" /></g><g><path style="opacity:1" fill="#f08064" d="M 711.5,99.5 C 712.693,99.9704 713.36,100.97 713.5,102.5C 713.167,103.5 712.833,104.5 712.5,105.5C 711.534,103.604 711.201,101.604 711.5,99.5 Z" /></g><g><path style="opacity:1" fill="#ec6744" d="M 715.5,126.5 C 714.325,126.719 713.325,126.386 712.5,125.5C 714.172,119.219 713.505,113.219 710.5,107.5C 716.15,105.903 720.317,107.903 723,113.5C 724.487,120.249 721.987,124.583 715.5,126.5 Z" /></g><g><path style="opacity:1" fill="#fddfd3" d="M 707.5,106.5 C 708.609,106.557 709.609,106.89 710.5,107.5C 713.505,113.219 714.172,119.219 712.5,125.5C 713.325,126.386 714.325,126.719 715.5,126.5C 712.611,127.44 710.278,129.106 708.5,131.5C 713.799,122.953 713.466,114.62 707.5,106.5 Z" /></g><g><path style="opacity:1" fill="#ee7152" d="M 677.5,220.5 C 676.732,221.263 676.232,222.263 676,223.5C 678.683,196.038 682.517,168.705 687.5,141.5C 688.077,140.227 688.743,140.227 689.5,141.5C 685.209,167.78 681.209,194.114 677.5,220.5 Z" /></g><g><path style="opacity:1" fill="#fef6f4" d="M 686.5,140.5 C 686.5,141.167 686.833,141.5 687.5,141.5C 682.517,168.705 678.683,196.038 676,223.5C 676.232,222.263 676.732,221.263 677.5,220.5C 677.351,221.552 677.517,222.552 678,223.5C 679.729,223.974 680.895,224.974 681.5,226.5C 672.008,222.612 663.675,224.279 656.5,231.5C 655.167,230.833 655.167,230.167 656.5,229.5C 657.458,229.047 658.292,228.381 659,227.5C 667.898,198.31 677.065,169.31 686.5,140.5 Z" /></g><g><path style="opacity:1" fill="#ef7353" d="M 686.5,140.5 C 677.065,169.31 667.898,198.31 659,227.5C 658.292,228.381 657.458,229.047 656.5,229.5C 665.563,199.811 674.73,170.144 684,140.5C 684.977,139.226 685.811,139.226 686.5,140.5 Z" /></g><g><path style="opacity:1" fill="#ec6341" d="M 681.5,226.5 C 693.683,234.935 695.516,245.268 687,257.5C 681.448,262.35 674.948,264.35 667.5,263.5C 662.262,261.377 657.928,258.043 654.5,253.5C 653.248,248.744 652.915,244.077 653.5,239.5C 654.448,236.86 655.448,234.193 656.5,231.5C 663.675,224.279 672.008,222.612 681.5,226.5 Z" /></g><g><path style="opacity:1" fill="#ec6441" d="M 651.5,238.5 C 651.335,242.182 651.501,245.848 652,249.5C 652.608,251.066 653.442,252.4 654.5,253.5C 654.709,254.922 655.209,256.255 656,257.5C 659.4,260.414 662.9,263.08 666.5,265.5C 660.196,277.102 650.863,280.269 638.5,275C 627.68,266.855 625.847,257.021 633,245.5C 637.939,239.948 644.106,237.615 651.5,238.5 Z" /></g><g><path style="opacity:1" fill="#fbcbb8" d="M 651.5,238.5 C 652.167,238.833 652.833,239.167 653.5,239.5C 652.915,244.077 653.248,248.744 654.5,253.5C 653.442,252.4 652.608,251.066 652,249.5C 651.501,245.848 651.335,242.182 651.5,238.5 Z" /></g><g><path style="opacity:1" fill="#fcd4c3" d="M 654.5,253.5 C 657.928,258.043 662.262,261.377 667.5,263.5C 667.672,264.492 667.338,265.158 666.5,265.5C 662.9,263.08 659.4,260.414 656,257.5C 655.209,256.255 654.709,254.922 654.5,253.5 Z" /></g><g><path style="opacity:1" fill="#d7ebde" d="M 617.5,378.5 C 545.944,563.968 474.611,749.634 403.5,935.5C 403.624,936.107 403.957,936.44 404.5,936.5C 394.117,941.352 383.451,945.686 372.5,949.5C 446.94,752.567 522.273,555.567 598.5,358.5C 598.376,357.893 598.043,357.56 597.5,357.5C 606.439,341.388 615.606,325.388 625,309.5C 622.768,332.485 620.268,355.485 617.5,378.5 Z" /></g><g><path style="opacity:1" fill="#ddeee2" d="M 617.5,378.5 C 613.715,410.541 609.715,442.541 605.5,474.5C 547.598,624.655 489.931,774.989 432.5,925.5C 428.047,927.226 423.714,929.226 419.5,931.5C 414.415,932.973 409.415,934.64 404.5,936.5C 403.957,936.44 403.624,936.107 403.5,935.5C 474.611,749.634 545.944,563.968 617.5,378.5 Z" /></g><g><path style="opacity:1" fill="#d1e8d8" d="M 597.5,357.5 C 598.043,357.56 598.376,357.893 598.5,358.5C 522.273,555.567 446.94,752.567 372.5,949.5C 362.591,953.811 352.591,958.145 342.5,962.5C 347.843,969.863 353.176,977.196 358.5,984.5C 350.325,1005.01 342.325,1025.68 334.5,1046.5C 326.811,1045.7 319.144,1044.7 311.5,1043.5C 310.167,1043.5 308.833,1043.5 307.5,1043.5C 307.328,1042.51 307.662,1041.84 308.5,1041.5C 317.97,1036.26 327.304,1030.76 336.5,1025C 331.15,1020.66 325.484,1016.83 319.5,1013.5C 322.353,1004.11 325.52,994.774 329,985.5C 391.149,825.173 452.316,664.839 512.5,504.5C 540.581,455.336 568.914,406.336 597.5,357.5 Z" /></g><g><path style="opacity:1" fill="#e1f0e6" d="M 605.5,474.5 C 603.829,492.538 601.829,510.538 599.5,528.5C 598.624,528.369 597.957,528.702 597.5,529.5C 547.282,659.2 497.949,788.867 449.5,918.5C 444.015,921.069 438.349,923.403 432.5,925.5C 489.931,774.989 547.598,624.655 605.5,474.5 Z" /></g><g><path style="opacity:1" fill="#cde6d5" d="M 512.5,504.5 C 452.316,664.839 391.149,825.173 329,985.5C 325.52,994.774 322.353,1004.11 319.5,1013.5C 316.398,1011.9 313.731,1009.73 311.5,1007C 368.872,856.383 426.539,705.883 484.5,555.5C 484.376,554.893 484.043,554.56 483.5,554.5C 492.677,537.471 502.343,520.804 512.5,504.5 Z" /></g><g><path style="opacity:1" fill="#e5f2e9" d="M 599.5,528.5 C 596.116,553.438 593.116,578.438 590.5,603.5C 551.136,704.577 512.136,805.911 473.5,907.5C 473.624,908.107 473.957,908.44 474.5,908.5C 471.167,910.167 467.833,911.833 464.5,913.5C 459.406,914.88 454.406,916.547 449.5,918.5C 497.949,788.867 547.282,659.2 597.5,529.5C 597.957,528.702 598.624,528.369 599.5,528.5 Z" /></g><g><path style="opacity:1" fill="#c9e4d2" d="M 483.5,554.5 C 484.043,554.56 484.376,554.893 484.5,555.5C 426.539,705.883 368.872,856.383 311.5,1007C 313.731,1009.73 316.398,1011.9 319.5,1013.5C 325.484,1016.83 331.15,1020.66 336.5,1025C 327.304,1030.76 317.97,1036.26 308.5,1041.5C 308.216,1039.12 308.216,1036.96 308.5,1035C 304.826,1031.59 303.826,1027.59 305.5,1023C 303.727,1018.43 301.727,1013.93 299.5,1009.5C 300.32,1007.06 299.653,1004.89 297.5,1003C 297.833,1002.67 298.167,1002.33 298.5,1002C 297.035,1000.23 295.702,998.392 294.5,996.5C 337.151,885.192 379.817,773.859 422.5,662.5C 422.376,661.893 422.043,661.56 421.5,661.5C 441.914,625.67 462.581,590.003 483.5,554.5 Z" /></g><g><path style="opacity:1" fill="#e8f4ec" d="M 590.5,603.5 C 588.69,618.997 586.69,634.33 584.5,649.5C 551.806,733.079 519.472,816.912 487.5,901C 487.57,901.765 487.903,902.265 488.5,902.5C 484.134,905.012 479.467,907.012 474.5,908.5C 473.957,908.44 473.624,908.107 473.5,907.5C 512.136,805.911 551.136,704.577 590.5,603.5 Z" /></g><g><path style="opacity:1" fill="#ecf5ef" d="M 584.5,649.5 C 580.532,687.214 576.198,724.881 571.5,762.5C 554.788,804.529 538.788,846.529 523.5,888.5C 516.833,891.5 510.167,894.5 503.5,897.5C 498.562,899.368 493.562,901.035 488.5,902.5C 487.903,902.265 487.57,901.765 487.5,901C 519.472,816.912 551.806,733.079 584.5,649.5 Z" /></g><g><path style="opacity:1" fill="#c6e3cf" d="M 421.5,661.5 C 422.043,661.56 422.376,661.893 422.5,662.5C 379.817,773.859 337.151,885.192 294.5,996.5C 290.561,994.554 286.894,992.221 283.5,989.5C 316.394,903.656 349.394,817.823 382.5,732C 382.43,731.235 382.097,730.735 381.5,730.5C 394.581,707.336 407.914,684.336 421.5,661.5 Z" /></g><g><path style="opacity:1" fill="#c2e0cc" d="M 381.5,730.5 C 382.097,730.735 382.43,731.235 382.5,732C 349.394,817.823 316.394,903.656 283.5,989.5C 273.334,982.916 263,976.582 252.5,970.5C 250.469,968.478 248.135,966.811 245.5,965.5C 245.5,965.167 245.5,964.833 245.5,964.5C 290.848,886.465 336.182,808.465 381.5,730.5 Z" /></g><g><path style="opacity:1" fill="#f2f9f4" d="M 571.5,762.5 C 566.554,800.022 562.221,837.355 558.5,874.5C 554.917,876.36 551.251,878.027 547.5,879.5C 539.489,882.507 531.489,885.507 523.5,888.5C 538.788,846.529 554.788,804.529 571.5,762.5 Z" /></g><g><path style="opacity:1" fill="#e8f2dd" d="M 704.5,855.5 C 645.247,913.251 585.747,970.917 526,1028.5C 520.024,1040.95 512.191,1052.11 502.5,1062C 498.205,1062.91 493.872,1063.58 489.5,1064C 488.944,1064.38 488.611,1064.88 488.5,1065.5C 487.5,1065.5 486.5,1065.5 485.5,1065.5C 483.901,1065.77 482.568,1065.43 481.5,1064.5C 483.701,1058.81 486.534,1053.47 490,1048.5C 497.61,1040.22 505.277,1031.89 513,1023.5C 514.823,1017.7 517.49,1012.36 521,1007.5C 526.79,1001.72 531.79,995.386 536,988.5C 541.453,983.913 545.119,978.247 547,971.5C 600.804,920.03 654.304,868.197 707.5,816C 707.272,815.601 706.938,815.435 706.5,815.5C 720.186,809.155 734.186,803.655 748.5,799C 733.588,817.733 718.921,836.566 704.5,855.5 Z" /></g><g><path style="opacity:1" fill="#e4efd7" d="M 706.5,815.5 C 706.938,815.435 707.272,815.601 707.5,816C 654.304,868.197 600.804,920.03 547,971.5C 545.119,978.247 541.453,983.913 536,988.5C 531.79,995.386 526.79,1001.72 521,1007.5C 517.49,1012.36 514.823,1017.7 513,1023.5C 505.277,1031.89 497.61,1040.22 490,1048.5C 486.534,1053.47 483.701,1058.81 481.5,1064.5C 479.833,1064.5 478.167,1064.5 476.5,1064.5C 472.228,1063.51 467.894,1062.84 463.5,1062.5C 462.602,1061.84 461.602,1061.18 460.5,1060.5C 462.622,1058.55 464.122,1056.22 465,1053.5C 467.185,1052.07 469.185,1050.4 471,1048.5C 476.487,1041.68 481.154,1034.35 485,1026.5C 490.79,1020.72 495.79,1014.39 500,1007.5C 504.967,1001.53 510.301,995.865 516,990.5C 519.999,981.827 524.999,973.827 531,966.5C 537.784,959.725 543.784,952.392 549,944.5C 549.452,941.123 550.118,937.789 551,934.5C 583.196,902.637 615.696,871.137 648.5,840C 648.272,839.601 647.938,839.435 647.5,839.5C 666.93,831.129 686.597,823.129 706.5,815.5 Z" /></g><g><path style="opacity:1" fill="#9fd8cd" d="M 50.5,839.5 C 91.5537,901.25 131.887,963.583 171.5,1026.5C 166.467,1025.98 161.467,1025.31 156.5,1024.5C 114.805,958.969 72.8045,894.302 30.5,830.5C 29.086,828.956 28.7526,827.289 29.5,825.5C 36.7375,829.942 43.7375,834.609 50.5,839.5 Z" /></g><g><path style="opacity:1" fill="#99d6ca" d="M 156.5,1024.5 C 151.609,1024.47 146.943,1023.8 142.5,1022.5C 108.937,969.72 75.1039,917.053 41,864.5C 40.5357,865.094 40.369,865.761 40.5,866.5C 36.801,854.711 33.4676,842.711 30.5,830.5C 72.8045,894.302 114.805,958.969 156.5,1024.5 Z" /></g><g><path style="opacity:1" fill="#a7dcd1" d="M 50.5,839.5 C 61.641,846.24 72.641,853.24 83.5,860.5C 84.0447,862.593 84.878,864.593 86,866.5C 121.104,920.387 155.937,974.387 190.5,1028.5C 184.792,1028.16 179.125,1027.49 173.5,1026.5C 172.833,1026.5 172.167,1026.5 171.5,1026.5C 131.887,963.583 91.5537,901.25 50.5,839.5 Z" /></g><g><path style="opacity:1" fill="#ecf4e3" d="M 704.5,855.5 C 650.217,927.784 595.551,999.784 540.5,1071.5C 540.167,1071.5 539.833,1071.5 539.5,1071.5C 529.84,1070.43 520.173,1069.43 510.5,1068.5C 503.202,1067.24 495.869,1066.24 488.5,1065.5C 488.611,1064.88 488.944,1064.38 489.5,1064C 493.872,1063.58 498.205,1062.91 502.5,1062C 512.191,1052.11 520.024,1040.95 526,1028.5C 585.747,970.917 645.247,913.251 704.5,855.5 Z" /></g><g><path style="opacity:1" fill="#91d3c6" d="M 142.5,1022.5 C 133.452,1021.87 124.452,1020.87 115.5,1019.5C 97.0796,990.322 78.4129,961.322 59.5,932.5C 52.8593,910.606 46.526,888.606 40.5,866.5C 40.369,865.761 40.5357,865.094 41,864.5C 75.1039,917.053 108.937,969.72 142.5,1022.5 Z" /></g><g><path style="opacity:1" fill="#b3e0d7" d="M 83.5,860.5 C 97.3747,869.265 111.041,878.265 124.5,887.5C 152.755,933.018 181.755,978.018 211.5,1022.5C 210.828,1025.34 209.494,1027.84 207.5,1030C 201.727,1030.4 196.061,1029.9 190.5,1028.5C 155.937,974.387 121.104,920.387 86,866.5C 84.878,864.593 84.0447,862.593 83.5,860.5 Z" /></g><g><path style="opacity:1" fill="#d9e9ca" d="M 585.5,864.5 C 585.938,864.435 586.272,864.601 586.5,865C 576.954,875.048 566.954,884.548 556.5,893.5C 555.354,900.368 553.52,907.035 551,913.5C 546.165,918.172 542.332,923.505 539.5,929.5C 535.071,932.758 531.571,936.758 529,941.5C 522.061,947.757 516.728,955.09 513,963.5C 508.914,965.659 506.247,968.992 505,973.5C 498.188,979.805 492.854,987.139 489,995.5C 485.058,1000.4 480.892,1005.06 476.5,1009.5C 475.764,1011.54 474.931,1013.54 474,1015.5C 469.589,1018.24 466.256,1021.91 464,1026.5C 461,1029.5 458,1032.5 455,1035.5C 451.552,1042.96 446.552,1049.29 440,1054.5C 439.392,1056.15 438.892,1057.82 438.5,1059.5C 429.896,1058.11 421.229,1057.11 412.5,1056.5C 412.5,1056.17 412.5,1055.83 412.5,1055.5C 414.771,1053.73 416.937,1051.73 419,1049.5C 425.614,1034.63 434.947,1021.63 447,1010.5C 454.176,999.646 462.509,989.646 472,980.5C 475.035,974.423 479.035,969.089 484,964.5C 485,961.833 486,959.167 487,956.5C 494.313,950.514 499.647,943.18 503,934.5C 514.506,921.606 525.84,908.606 537,895.5C 539.494,889.995 543.161,885.328 548,881.5C 548.692,880.563 548.525,879.897 547.5,879.5C 551.251,878.027 554.917,876.36 558.5,874.5C 567.401,870.882 576.401,867.548 585.5,864.5 Z" /></g><g><path style="opacity:1" fill="#d4e6c4" d="M 547.5,879.5 C 548.525,879.897 548.692,880.563 548,881.5C 543.161,885.328 539.494,889.995 537,895.5C 525.84,908.606 514.506,921.606 503,934.5C 499.647,943.18 494.313,950.514 487,956.5C 486,959.167 485,961.833 484,964.5C 479.035,969.089 475.035,974.423 472,980.5C 462.509,989.646 454.176,999.646 447,1010.5C 434.947,1021.63 425.614,1034.63 419,1049.5C 416.937,1051.73 414.771,1053.73 412.5,1055.5C 412.167,1055.5 411.833,1055.5 411.5,1055.5C 406.833,1049.17 402.167,1042.83 397.5,1036.5C 400.636,1035.91 401.802,1034.24 401,1031.5C 405.699,1026.47 410.699,1021.8 416,1017.5C 418.494,1012 422.161,1007.33 427,1003.5C 432.897,992.948 440.231,983.614 449,975.5C 449.862,973.913 450.529,972.246 451,970.5C 459.496,962.348 466.83,953.348 473,943.5C 479.299,938.875 483.633,932.875 486,925.5C 489.462,922.874 491.962,919.54 493.5,915.5C 493.154,914.304 492.654,914.304 492,915.5C 491.333,914.833 491.333,914.167 492,913.5C 497.305,909.201 501.472,904.034 504.5,898C 504.272,897.601 503.938,897.435 503.5,897.5C 510.167,894.5 516.833,891.5 523.5,888.5C 531.489,885.507 539.489,882.507 547.5,879.5 Z" /></g><g><path style="opacity:1" fill="#bee5dd" d="M 124.5,887.5 C 141.816,898.474 159.149,909.474 176.5,920.5C 177.774,924.381 179.607,928.048 182,931.5C 196.249,952.997 210.249,974.663 224,996.5C 224.671,997.252 225.504,997.586 226.5,997.5C 221.737,1006.03 216.737,1014.37 211.5,1022.5C 181.755,978.018 152.755,933.018 124.5,887.5 Z" /></g><g><path style="opacity:1" fill="#d0e4be" d="M 503.5,897.5 C 503.938,897.435 504.272,897.601 504.5,898C 501.472,904.034 497.305,909.201 492,913.5C 491.333,914.167 491.333,914.833 492,915.5C 492.654,914.304 493.154,914.304 493.5,915.5C 491.962,919.54 489.462,922.874 486,925.5C 483.633,932.875 479.299,938.875 473,943.5C 466.83,953.348 459.496,962.348 451,970.5C 450.529,972.246 449.862,973.913 449,975.5C 440.231,983.614 432.897,992.948 427,1003.5C 422.161,1007.33 418.494,1012 416,1017.5C 410.699,1021.8 405.699,1026.47 401,1031.5C 401.802,1034.24 400.636,1035.91 397.5,1036.5C 393.167,1030.5 388.833,1024.5 384.5,1018.5C 393.022,1011.15 399.855,1002.48 405,992.5C 407.371,989.794 410.037,987.461 413,985.5C 414.541,981.95 416.874,978.95 420,976.5C 420.862,974.913 421.529,973.246 422,971.5C 426.699,966.466 431.699,961.8 437,957.5C 438.543,955.911 438.543,954.577 437,953.5C 434.049,955.447 431.382,957.781 429,960.5C 428.333,959.833 428.333,959.167 429,958.5C 436.5,951.683 442.166,944.017 446,935.5C 446.853,933.875 447.853,933.542 449,934.5C 455.287,928.223 460.787,921.389 465.5,914C 465.272,913.601 464.938,913.435 464.5,913.5C 467.833,911.833 471.167,910.167 474.5,908.5C 479.467,907.012 484.134,905.012 488.5,902.5C 493.562,901.035 498.562,899.368 503.5,897.5 Z" /></g><g><path style="opacity:1" fill="#dfedd1" d="M 647.5,839.5 C 647.938,839.435 648.272,839.601 648.5,840C 615.696,871.137 583.196,902.637 551,934.5C 550.118,937.789 549.452,941.123 549,944.5C 543.784,952.392 537.784,959.725 531,966.5C 524.999,973.827 519.999,981.827 516,990.5C 510.301,995.865 504.967,1001.53 500,1007.5C 495.79,1014.39 490.79,1020.72 485,1026.5C 481.154,1034.35 476.487,1041.68 471,1048.5C 469.185,1050.4 467.185,1052.07 465,1053.5C 464.122,1056.22 462.622,1058.55 460.5,1060.5C 461.602,1061.18 462.602,1061.84 463.5,1062.5C 455.195,1061.28 446.862,1060.28 438.5,1059.5C 438.892,1057.82 439.392,1056.15 440,1054.5C 446.552,1049.29 451.552,1042.96 455,1035.5C 458,1032.5 461,1029.5 464,1026.5C 466.256,1021.91 469.589,1018.24 474,1015.5C 474.931,1013.54 475.764,1011.54 476.5,1009.5C 480.892,1005.06 485.058,1000.4 489,995.5C 492.854,987.139 498.188,979.805 505,973.5C 506.247,968.992 508.914,965.659 513,963.5C 516.728,955.09 522.061,947.757 529,941.5C 531.571,936.758 535.071,932.758 539.5,929.5C 542.332,923.505 546.165,918.172 551,913.5C 553.52,907.035 555.354,900.368 556.5,893.5C 566.954,884.548 576.954,875.048 586.5,865C 586.272,864.601 585.938,864.435 585.5,864.5C 605.884,855.648 626.55,847.314 647.5,839.5 Z" /></g><g><path style="opacity:1" fill="#cbe2b8" d="M 464.5,913.5 C 464.938,913.435 465.272,913.601 465.5,914C 460.787,921.389 455.287,928.223 449,934.5C 447.853,933.542 446.853,933.875 446,935.5C 442.166,944.017 436.5,951.683 429,958.5C 428.333,959.167 428.333,959.833 429,960.5C 431.382,957.781 434.049,955.447 437,953.5C 438.543,954.577 438.543,955.911 437,957.5C 431.699,961.8 426.699,966.466 422,971.5C 421.529,973.246 420.862,974.913 420,976.5C 416.874,978.95 414.541,981.95 413,985.5C 410.037,987.461 407.371,989.794 405,992.5C 399.855,1002.48 393.022,1011.15 384.5,1018.5C 381.833,1015.17 379.167,1011.83 376.5,1008.5C 373.253,1004.34 370.253,1000.01 367.5,995.5C 368.239,995.631 368.906,995.464 369.5,995C 374.133,990.375 377.966,985.209 381,979.5C 392.506,966.606 403.84,953.606 415,940.5C 415.737,936.953 417.57,934.12 420.5,932C 420.272,931.601 419.938,931.435 419.5,931.5C 423.714,929.226 428.047,927.226 432.5,925.5C 438.349,923.403 444.015,921.069 449.5,918.5C 454.406,916.547 459.406,914.88 464.5,913.5 Z" /></g><g><path style="opacity:1" fill="#cdebe5" d="M 176.5,920.5 C 199.359,935.427 222.359,950.094 245.5,964.5C 245.5,964.833 245.5,965.167 245.5,965.5C 240.745,972.004 236.745,979.004 233.5,986.5C 230.931,989.961 228.597,993.628 226.5,997.5C 225.504,997.586 224.671,997.252 224,996.5C 210.249,974.663 196.249,952.997 182,931.5C 179.607,928.048 177.774,924.381 176.5,920.5 Z" /></g><g><path style="opacity:1" fill="#c7dfb2" d="M 419.5,931.5 C 419.938,931.435 420.272,931.601 420.5,932C 417.57,934.12 415.737,936.953 415,940.5C 403.84,953.606 392.506,966.606 381,979.5C 377.966,985.209 374.133,990.375 369.5,995C 368.906,995.464 368.239,995.631 367.5,995.5C 364.261,992.017 361.261,988.35 358.5,984.5C 353.176,977.196 347.843,969.863 342.5,962.5C 352.591,958.145 362.591,953.811 372.5,949.5C 383.451,945.686 394.117,941.352 404.5,936.5C 409.415,934.64 414.415,932.973 419.5,931.5 Z" /></g><g><path style="opacity:1" fill="#84cdbf" d="M 59.5,932.5 C 78.4129,961.322 97.0796,990.322 115.5,1019.5C 114.5,1019.5 113.5,1019.5 112.5,1019.5C 102.539,1017.99 92.5389,1016.65 82.5,1015.5C 74.4642,988.017 66.7975,960.35 59.5,932.5 Z" /></g><g><path style="opacity:1" fill="#d7ebdd" d="M 358.5,984.5 C 361.261,988.35 364.261,992.017 367.5,995.5C 370.253,1000.01 373.253,1004.34 376.5,1008.5C 370.37,1021.78 365.037,1035.44 360.5,1049.5C 354.137,1049.08 347.804,1048.41 341.5,1047.5C 339.236,1046.78 336.903,1046.45 334.5,1046.5C 342.325,1025.68 350.325,1005.01 358.5,984.5 Z" /></g><g><path style="opacity:1" fill="#a1d3bc" d="M 245.5,965.5 C 248.135,966.811 250.469,968.478 252.5,970.5C 252.539,971.583 252.873,972.583 253.5,973.5C 252.833,973.833 252.167,974.167 251.5,974.5C 253.043,977.086 254.709,979.586 256.5,982C 256.167,982.333 255.833,982.667 255.5,983C 256.198,987.232 257.865,991.066 260.5,994.5C 260.013,995.446 259.68,996.446 259.5,997.5C 260.787,999.16 262.12,1000.83 263.5,1002.5C 263.167,1003.17 262.833,1003.83 262.5,1004.5C 264.962,1011.45 267.629,1018.28 270.5,1025C 269.978,1025.56 269.645,1026.23 269.5,1027C 271.222,1030.74 272.556,1034.57 273.5,1038.5C 268.155,1038.31 262.822,1037.98 257.5,1037.5C 255.958,1036.7 254.292,1036.37 252.5,1036.5C 252.028,1033.48 250.528,1032.48 248,1033.5C 247.365,1032.03 246.531,1030.7 245.5,1029.5C 246.309,1027.21 246.643,1025.04 246.5,1023C 245.333,1021.17 244.167,1019.33 243,1017.5C 242.667,1017.83 242.333,1018.17 242,1018.5C 243.102,1014.15 241.935,1010.32 238.5,1007C 239.337,1003.8 238.67,1000.8 236.5,998C 236.833,997.667 237.167,997.333 237.5,997C 234.668,994.429 233.835,991.263 235,987.5C 234.617,986.944 234.117,986.611 233.5,986.5C 236.745,979.004 240.745,972.004 245.5,965.5 Z" /></g><g><path style="opacity:1" fill="#b1dac6" d="M 252.5,970.5 C 263,976.582 273.334,982.916 283.5,989.5C 286.894,992.221 290.561,994.554 294.5,996.5C 295.702,998.392 297.035,1000.23 298.5,1002C 298.167,1002.33 297.833,1002.67 297.5,1003C 299.653,1004.89 300.32,1007.06 299.5,1009.5C 301.727,1013.93 303.727,1018.43 305.5,1023C 303.826,1027.59 304.826,1031.59 308.5,1035C 308.216,1036.96 308.216,1039.12 308.5,1041.5C 307.662,1041.84 307.328,1042.51 307.5,1043.5C 305.883,1042.96 304.216,1042.63 302.5,1042.5C 292.714,1041.74 283.047,1040.4 273.5,1038.5C 272.556,1034.57 271.222,1030.74 269.5,1027C 269.645,1026.23 269.978,1025.56 270.5,1025C 267.629,1018.28 264.962,1011.45 262.5,1004.5C 262.833,1003.83 263.167,1003.17 263.5,1002.5C 262.12,1000.83 260.787,999.16 259.5,997.5C 259.68,996.446 260.013,995.446 260.5,994.5C 257.865,991.066 256.198,987.232 255.5,983C 255.833,982.667 256.167,982.333 256.5,982C 254.709,979.586 253.043,977.086 251.5,974.5C 252.167,974.167 252.833,973.833 253.5,973.5C 252.873,972.583 252.539,971.583 252.5,970.5 Z" /></g><g><path style="opacity:1" fill="#a6d3b5" d="M -0.5,1005.5 C 17.9658,1007.1 36.2991,1009.43 54.5,1012.5C 54.8316,1045.34 54.4983,1078 53.5,1110.5C 35.7385,1075.97 17.7385,1041.64 -0.5,1007.5C -0.5,1006.83 -0.5,1006.17 -0.5,1005.5 Z" /></g><g><path style="opacity:1" fill="#94cdb4" d="M 233.5,986.5 C 234.117,986.611 234.617,986.944 235,987.5C 233.835,991.263 234.668,994.429 237.5,997C 237.167,997.333 236.833,997.667 236.5,998C 238.67,1000.8 239.337,1003.8 238.5,1007C 241.935,1010.32 243.102,1014.15 242,1018.5C 242.333,1018.17 242.667,1017.83 243,1017.5C 244.167,1019.33 245.333,1021.17 246.5,1023C 246.643,1025.04 246.309,1027.21 245.5,1029.5C 246.531,1030.7 247.365,1032.03 248,1033.5C 250.528,1032.48 252.028,1033.48 252.5,1036.5C 240.149,1034.91 227.816,1033.24 215.5,1031.5C 212.428,1031.18 209.428,1031.52 206.5,1032.5C 201.726,1041.06 196.726,1049.4 191.5,1057.5C 189.425,1053.04 186.592,1049.04 183,1045.5C 181.796,1041.43 179.796,1037.76 177,1034.5C 176.667,1032.5 176.333,1030.5 176,1028.5C 175.005,1027.93 174.172,1027.27 173.5,1026.5C 179.125,1027.49 184.792,1028.16 190.5,1028.5C 196.061,1029.9 201.727,1030.4 207.5,1030C 209.494,1027.84 210.828,1025.34 211.5,1022.5C 216.737,1014.37 221.737,1006.03 226.5,997.5C 228.597,993.628 230.931,989.961 233.5,986.5 Z" /></g><g><path style="opacity:1" fill="#abd5b9" d="M 54.5,1012.5 C 63.8324,1013.5 73.1657,1014.5 82.5,1015.5C 93.1909,1052.28 103.858,1088.95 114.5,1125.5C 114.5,1125.83 114.5,1126.17 114.5,1126.5C 101.162,1127.01 87.8286,1127.68 74.5,1128.5C 70.5,1128.17 66.5,1127.83 62.5,1127.5C 59.2326,1121.96 56.2326,1116.3 53.5,1110.5C 54.4983,1078 54.8316,1045.34 54.5,1012.5 Z" /></g><g><path style="opacity:1" fill="#deeee3" d="M 376.5,1008.5 C 379.167,1011.83 381.833,1015.17 384.5,1018.5C 388.833,1024.5 393.167,1030.5 397.5,1036.5C 402.167,1042.83 406.833,1049.17 411.5,1055.5C 394.456,1053.86 377.456,1051.86 360.5,1049.5C 365.037,1035.44 370.37,1021.78 376.5,1008.5 Z" /></g><g><path style="opacity:1" fill="#7fc3a2" d="M 82.5,1015.5 C 92.5389,1016.65 102.539,1017.99 112.5,1019.5C 112.34,1021.2 112.506,1022.87 113,1024.5C 117.308,1031.12 120.641,1038.12 123,1045.5C 123.333,1044.17 123.667,1042.83 124,1041.5C 124.419,1042.67 125.085,1043.67 126,1044.5C 126.333,1041.83 126.667,1039.17 127,1036.5C 131.87,1042.58 133.87,1049.58 133,1057.5C 134.31,1060.47 136.31,1062.81 139,1064.5C 140.855,1070 143.855,1074.66 148,1078.5C 148.249,1081.18 149.249,1083.51 151,1085.5C 151.773,1090.18 151.107,1090.51 149,1086.5C 148.432,1089.22 148.099,1091.89 148,1094.5C 148.333,1094.17 148.667,1093.83 149,1093.5C 150.667,1096.17 152.333,1098.83 154,1101.5C 154.333,1099.5 154.667,1097.5 155,1095.5C 157.064,1099.96 159.398,1104.29 162,1108.5C 162.333,1108.17 162.667,1107.83 163,1107.5C 164.803,1111.51 165.803,1111.18 166,1106.5C 167.987,1110.8 169.82,1115.13 171.5,1119.5C 169.651,1120.59 167.984,1121.93 166.5,1123.5C 165.833,1123.5 165.167,1123.5 164.5,1123.5C 147.863,1124.83 131.196,1125.5 114.5,1125.5C 103.858,1088.95 93.1909,1052.28 82.5,1015.5 Z" /></g><g><path style="opacity:1" fill="#89c7a8" d="M 112.5,1019.5 C 113.5,1019.5 114.5,1019.5 115.5,1019.5C 124.452,1020.87 133.452,1021.87 142.5,1022.5C 146.943,1023.8 151.609,1024.47 156.5,1024.5C 161.467,1025.31 166.467,1025.98 171.5,1026.5C 172.167,1026.5 172.833,1026.5 173.5,1026.5C 174.172,1027.27 175.005,1027.93 176,1028.5C 176.333,1030.5 176.667,1032.5 177,1034.5C 179.796,1037.76 181.796,1041.43 183,1045.5C 186.592,1049.04 189.425,1053.04 191.5,1057.5C 185.11,1069.27 178.443,1080.94 171.5,1092.5C 190.03,1091.33 208.697,1089.66 227.5,1087.5C 209.096,1098.56 190.429,1109.23 171.5,1119.5C 169.82,1115.13 167.987,1110.8 166,1106.5C 165.803,1111.18 164.803,1111.51 163,1107.5C 162.667,1107.83 162.333,1108.17 162,1108.5C 159.398,1104.29 157.064,1099.96 155,1095.5C 154.667,1097.5 154.333,1099.5 154,1101.5C 152.333,1098.83 150.667,1096.17 149,1093.5C 148.667,1093.83 148.333,1094.17 148,1094.5C 148.099,1091.89 148.432,1089.22 149,1086.5C 151.107,1090.51 151.773,1090.18 151,1085.5C 149.249,1083.51 148.249,1081.18 148,1078.5C 143.855,1074.66 140.855,1070 139,1064.5C 136.31,1062.81 134.31,1060.47 133,1057.5C 133.87,1049.58 131.87,1042.58 127,1036.5C 126.667,1039.17 126.333,1041.83 126,1044.5C 125.085,1043.67 124.419,1042.67 124,1041.5C 123.667,1042.83 123.333,1044.17 123,1045.5C 120.641,1038.12 117.308,1031.12 113,1024.5C 112.506,1022.87 112.34,1021.2 112.5,1019.5 Z" /></g><g><path style="opacity:1" fill="#7fc29f" d="M 215.5,1031.5 C 215.953,1032.46 216.619,1033.29 217.5,1034C 216.707,1035.09 216.04,1036.25 215.5,1037.5C 216.065,1040.51 217.065,1043.34 218.5,1046C 218.579,1047.91 218.246,1049.91 217.5,1052C 219.739,1055.94 222.072,1059.94 224.5,1064C 224.333,1064.5 224.167,1065 224,1065.5C 223.085,1064.67 222.419,1063.67 222,1062.5C 221.308,1063.03 220.808,1063.69 220.5,1064.5C 221.76,1065.38 222.926,1066.38 224,1067.5C 225.163,1074.39 226.33,1081.05 227.5,1087.5C 208.697,1089.66 190.03,1091.33 171.5,1092.5C 178.443,1080.94 185.11,1069.27 191.5,1057.5C 196.726,1049.4 201.726,1041.06 206.5,1032.5C 209.428,1031.52 212.428,1031.18 215.5,1031.5 Z" /></g><g><path style="opacity:1" fill="#88c6a5" d="M 215.5,1031.5 C 227.816,1033.24 240.149,1034.91 252.5,1036.5C 254.292,1036.37 255.958,1036.7 257.5,1037.5C 258.148,1039.09 258.648,1040.75 259,1042.5C 259.333,1042.17 259.667,1041.83 260,1041.5C 260.055,1047.8 260.889,1053.96 262.5,1060C 262.09,1062.87 261.757,1065.71 261.5,1068.5C 250.467,1074.34 239.801,1080.68 229.5,1087.5C 228.833,1087.5 228.167,1087.5 227.5,1087.5C 226.33,1081.05 225.163,1074.39 224,1067.5C 222.926,1066.38 221.76,1065.38 220.5,1064.5C 220.808,1063.69 221.308,1063.03 222,1062.5C 222.419,1063.67 223.085,1064.67 224,1065.5C 224.167,1065 224.333,1064.5 224.5,1064C 222.072,1059.94 219.739,1055.94 217.5,1052C 218.246,1049.91 218.579,1047.91 218.5,1046C 217.065,1043.34 216.065,1040.51 215.5,1037.5C 216.04,1036.25 216.707,1035.09 217.5,1034C 216.619,1033.29 215.953,1032.46 215.5,1031.5 Z" /></g><g><path style="opacity:1" fill="#94ccac" d="M 257.5,1037.5 C 262.822,1037.98 268.155,1038.31 273.5,1038.5C 283.047,1040.4 292.714,1041.74 302.5,1042.5C 303.598,1043.4 303.598,1044.23 302.5,1045C 288.687,1052.66 275.021,1060.49 261.5,1068.5C 261.757,1065.71 262.09,1062.87 262.5,1060C 260.889,1053.96 260.055,1047.8 260,1041.5C 259.667,1041.83 259.333,1042.17 259,1042.5C 258.648,1040.75 258.148,1039.09 257.5,1037.5 Z" /></g><g><path style="opacity:1" fill="#a9d4b7" d="M 302.5,1042.5 C 304.216,1042.63 305.883,1042.96 307.5,1043.5C 308.833,1043.5 310.167,1043.5 311.5,1043.5C 314.024,1048.09 313.857,1052.76 311,1057.5C 310.667,1061.83 310.333,1066.17 310,1070.5C 308.53,1073.74 307.363,1077.08 306.5,1080.5C 284.854,1082.75 263.188,1084.75 241.5,1086.5C 237.548,1087.27 233.548,1087.61 229.5,1087.5C 239.801,1080.68 250.467,1074.34 261.5,1068.5C 275.021,1060.49 288.687,1052.66 302.5,1045C 303.598,1044.23 303.598,1043.4 302.5,1042.5 Z" /></g><g><path style="opacity:1" fill="#b1d8be" d="M 311.5,1043.5 C 319.144,1044.7 326.811,1045.7 334.5,1046.5C 336.903,1046.45 339.236,1046.78 341.5,1047.5C 339.903,1057.69 337.57,1067.69 334.5,1077.5C 332.901,1077.23 331.568,1077.57 330.5,1078.5C 329.5,1078.5 328.5,1078.5 327.5,1078.5C 320.5,1079.17 313.5,1079.83 306.5,1080.5C 307.363,1077.08 308.53,1073.74 310,1070.5C 310.333,1066.17 310.667,1061.83 311,1057.5C 313.857,1052.76 314.024,1048.09 311.5,1043.5 Z" /></g><g><path style="opacity:1" fill="#bddec8" d="M 341.5,1047.5 C 347.804,1048.41 354.137,1049.08 360.5,1049.5C 377.456,1051.86 394.456,1053.86 411.5,1055.5C 411.833,1055.5 412.167,1055.5 412.5,1055.5C 412.5,1055.83 412.5,1056.17 412.5,1056.5C 415.915,1060.58 418.915,1064.91 421.5,1069.5C 410.5,1070.83 399.5,1072.17 388.5,1073.5C 369.146,1074.93 349.813,1076.59 330.5,1078.5C 331.568,1077.57 332.901,1077.23 334.5,1077.5C 337.57,1067.69 339.903,1057.69 341.5,1047.5 Z" /></g><g><path style="opacity:1" fill="#cfe5cb" d="M 476.5,1064.5 C 478.167,1064.5 479.833,1064.5 481.5,1064.5C 482.568,1065.43 483.901,1065.77 485.5,1065.5C 484.375,1067.13 483.041,1068.63 481.5,1070C 481.957,1070.41 482.291,1070.91 482.5,1071.5C 479.6,1073.89 477.767,1076.89 477,1080.5C 471.834,1085.65 467.501,1091.32 464,1097.5C 462.085,1100.24 460.918,1103.24 460.5,1106.5C 457.214,1107.21 453.881,1107.54 450.5,1107.5C 445.5,1100.83 440.5,1094.17 435.5,1087.5C 437.716,1086.8 439.549,1085.46 441,1083.5C 441.54,1080.64 442.54,1077.97 444,1075.5C 446.54,1073.3 448.707,1070.8 450.5,1068C 459.331,1067.01 467.997,1065.84 476.5,1064.5 Z" /></g><g><path style="opacity:1" fill="#d5e8d1" d="M 485.5,1065.5 C 486.5,1065.5 487.5,1065.5 488.5,1065.5C 495.869,1066.24 503.202,1067.24 510.5,1068.5C 508.238,1072.24 506.405,1076.24 505,1080.5C 501.36,1086.59 497.027,1092.26 492,1097.5C 490.555,1100.09 489.388,1102.76 488.5,1105.5C 479.171,1105.92 469.837,1106.26 460.5,1106.5C 460.918,1103.24 462.085,1100.24 464,1097.5C 467.501,1091.32 471.834,1085.65 477,1080.5C 477.767,1076.89 479.6,1073.89 482.5,1071.5C 482.291,1070.91 481.957,1070.41 481.5,1070C 483.041,1068.63 484.375,1067.13 485.5,1065.5 Z" /></g><g><path style="opacity:1" fill="#c7e1c3" d="M 412.5,1056.5 C 421.229,1057.11 429.896,1058.11 438.5,1059.5C 446.862,1060.28 455.195,1061.28 463.5,1062.5C 467.894,1062.84 472.228,1063.51 476.5,1064.5C 467.997,1065.84 459.331,1067.01 450.5,1068C 448.707,1070.8 446.54,1073.3 444,1075.5C 442.54,1077.97 441.54,1080.64 441,1083.5C 439.549,1085.46 437.716,1086.8 435.5,1087.5C 431.185,1081.19 426.518,1075.19 421.5,1069.5C 418.915,1064.91 415.915,1060.58 412.5,1056.5 Z" /></g><g><path style="opacity:1" fill="#d8ebde" d="M 421.5,1069.5 C 426.518,1075.19 431.185,1081.19 435.5,1087.5C 440.5,1094.17 445.5,1100.83 450.5,1107.5C 427.496,1108.78 404.496,1110.11 381.5,1111.5C 383.607,1110.53 385.941,1110.2 388.5,1110.5C 388.5,1098.17 388.5,1085.83 388.5,1073.5C 399.5,1072.17 410.5,1070.83 421.5,1069.5 Z" /></g><g><path style="opacity:1" fill="#dbebd8" d="M 510.5,1068.5 C 520.173,1069.43 529.84,1070.43 539.5,1071.5C 532.333,1082.49 524.666,1093.16 516.5,1103.5C 516.167,1103.5 515.833,1103.5 515.5,1103.5C 506.506,1104.2 497.506,1104.87 488.5,1105.5C 489.388,1102.76 490.555,1100.09 492,1097.5C 497.027,1092.26 501.36,1086.59 505,1080.5C 506.405,1076.24 508.238,1072.24 510.5,1068.5 Z" /></g><g><path style="opacity:1" fill="#eaf5ee" d="M 539.5,1071.5 C 539.833,1071.5 540.167,1071.5 540.5,1071.5C 552.685,1073.25 565.018,1074.92 577.5,1076.5C 577.5,1084.5 577.5,1092.5 577.5,1100.5C 557.185,1101.83 536.851,1102.83 516.5,1103.5C 524.666,1093.16 532.333,1082.49 539.5,1071.5 Z" /></g><g><path style="opacity:1" fill="#f1f8f3" d="M 577.5,1076.5 C 607.176,1080.08 636.842,1083.75 666.5,1087.5C 666.5,1090.17 666.5,1092.83 666.5,1095.5C 636.818,1096.91 607.151,1098.57 577.5,1100.5C 577.5,1092.5 577.5,1084.5 577.5,1076.5 Z" /></g><g><path style="opacity:1" fill="#cfe7d7" d="M 388.5,1073.5 C 388.5,1085.83 388.5,1098.17 388.5,1110.5C 385.941,1110.2 383.607,1110.53 381.5,1111.5C 362.491,1112.35 343.491,1113.35 324.5,1114.5C 324.5,1102.83 324.5,1091.17 324.5,1079.5C 325.791,1079.74 326.791,1079.4 327.5,1078.5C 328.5,1078.5 329.5,1078.5 330.5,1078.5C 349.813,1076.59 369.146,1074.93 388.5,1073.5 Z" /></g><g><path style="opacity:1" fill="#c5e2cf" d="M 327.5,1078.5 C 326.791,1079.4 325.791,1079.74 324.5,1079.5C 324.5,1091.17 324.5,1102.83 324.5,1114.5C 295.81,1115.95 267.143,1117.61 238.5,1119.5C 240.158,1108.68 241.158,1097.68 241.5,1086.5C 263.188,1084.75 284.854,1082.75 306.5,1080.5C 313.5,1079.83 320.5,1079.17 327.5,1078.5 Z" /></g><g><path style="opacity:1" fill="#bedfc8" d="M 241.5,1086.5 C 241.158,1097.68 240.158,1108.68 238.5,1119.5C 214.484,1120.64 190.484,1121.98 166.5,1123.5C 167.984,1121.93 169.651,1120.59 171.5,1119.5C 190.429,1109.23 209.096,1098.56 227.5,1087.5C 228.167,1087.5 228.833,1087.5 229.5,1087.5C 233.548,1087.61 237.548,1087.27 241.5,1086.5 Z" /></g><g><path style="opacity:1" fill="#f0f6e9" d="M 515.5,1103.5 C 504.416,1118.66 493.083,1133.66 481.5,1148.5C 470.79,1135.12 460.456,1121.46 450.5,1107.5C 453.881,1107.54 457.214,1107.21 460.5,1106.5C 469.837,1106.26 479.171,1105.92 488.5,1105.5C 497.506,1104.87 506.506,1104.2 515.5,1103.5 Z" /></g><g><path style="opacity:1" fill="#6ec4b3" d="M 164.5,1123.5 C 150.393,1132.06 136.06,1140.39 121.5,1148.5C 118.417,1141.44 116.084,1134.1 114.5,1126.5C 114.5,1126.17 114.5,1125.83 114.5,1125.5C 131.196,1125.5 147.863,1124.83 164.5,1123.5 Z" /></g></svg>