<svg xmlns="http://www.w3.org/2000/svg" xmlns:xlink="http://www.w3.org/1999/xlink" width="160" height="44" viewBox="0 0 99 37"><path d="M5.18 33.88a2.583 2.583 0 1 1-5.165 0 2.583 2.583 0 0 1 5.166 0M12.361 33.88a2.583 2.583 0 1 1-5.165 0 2.583 2.583 0 0 1 5.165 0M19.794 33.88a2.583 2.583 0 1 1-5.165 0 2.583 2.583 0 0 1 5.165 0M26.723 33.88a2.583 2.583 0 1 1-5.165 0 2.583 2.583 0 0 1 5.165 0M33.715 33.88a2.583 2.583 0 1 1-5.165 0 2.583 2.583 0 0 1 5.165 0M40.896 33.88a2.583 2.583 0 1 1-5.165 0 2.583 2.583 0 0 1 5.165 0M48.14 33.88a2.583 2.583 0 1 1-5.165 0 2.583 2.583 0 0 1 5.165 0M69.493 33.88a2.583 2.583 0 1 1-5.165 0 2.583 2.583 0 0 1 5.165 0M76.674 33.88a2.583 2.583 0 1 1-5.165 0 2.583 2.583 0 0 1 5.165 0M84.107 33.88a2.583 2.583 0 1 1-5.165 0 2.583 2.583 0 0 1 5.165 0M91.099 33.88a2.583 2.583 0 1 1-5.165 0 2.583 2.583 0 0 1 5.165 0M98.09 33.88a2.583 2.583 0 1 1-5.164 0 2.583 2.583 0 0 1 5.165 0" fill="#d10000" fill-rule="evenodd" /><symbol id="a"><path d="M0 0h.316c.216 0 .36.138.36.345 0 .206-.139.331-.371.331H0V.651C.063.646.082.631.083.584V.091C.083.047.056.025 0 .025V0m.245.607c0 .023.02.035.059.035C.376.642.426.609.461.54A.467.467 0 0 0 .502.33.426.426 0 0 0 .45.104.17.17 0 0 0 .303.035C.258.035.245.048.245.093v.514z" /></symbol><symbol id="b"><path d="M.907.025C.831.034.821.044.819.117v.442c.002.074.016.088.088.092v.025H.655l-.2-.472-.2.472H.002V.651C.074.646.091.632.091.58V.105C.09.044.077.032 0 .025V0h.234v.025C.153.03.134.05.133.124v.47L.385 0h.027l.252.609V.1C.662.043.649.031.575.025V0h.332v.025z" /></symbol><symbol id="c"><path d="M.608.171a.357.357 0 0 0-.14-.105.245.245 0 0 0-.09-.018.183.183 0 0 0-.158.087.465.465 0 0 0-.043.225c0 .207.064.317.184.317A.198.198 0 0 0 .494.621.38.38 0 0 0 .595.473H.62v.234H.593C.578.671.569.661.548.661a.124.124 0 0 0-.045.014.39.39 0 0 1-.154.035A.345.345 0 0 1 0 .352C0 .145.146 0 .354 0c.115 0 .183.035.284.146l-.03.025z" /></symbol><symbol id="d"><path d="M.449.494v.217h-.03C.411.684.405.677.387.677a.147.147 0 0 0-.042.01.31.31 0 0 1-.117.023C.092.71.009.633.009.506c0-.087.052-.15.171-.207L.247.267C.335.225.359.199.359.146.359.077.31.033.233.033a.178.178 0 0 0-.146.074.348.348 0 0 0-.058.14H0V0h.029c.006.026.014.034.03.034A.159.159 0 0 0 .1.024.37.37 0 0 1 .23 0c.148 0 .248.085.248.211 0 .075-.045.15-.11.182L.221.466C.14.506.118.531.118.579c0 .062.042.1.11.1A.17.17 0 0 0 .351.623a.272.272 0 0 0 .07-.129h.028z" /></symbol><use xlink:href="#a" transform="matrix(28.3455 0 0 -28.3455 3.184 27.393)" fill="#d10000" /><use xlink:href="#b" transform="matrix(28.3455 0 0 -28.3455 23.65 27.393)" fill="#d10000" /><use xlink:href="#c" transform="matrix(28.3455 0 0 -28.3455 64.961 27.931)" fill="#d10000" /><use xlink:href="#d" transform="matrix(28.3455 0 0 -28.3455 85.03 27.931)" fill="#d10000" /><path d="M75.926 1.8h-27.12l-3.992 11.656 1.86.272c2.222-4.036 2.675-4.807 3.9-6.349C52.388 5.021 54.52 4 56.969 4h.635c1.043 0 1.496.194 1.496.658 0 .227-.09.635-.226 1.134l-6.168 23.13c-.635 2.403-.68 2.449-1.044 2.811-.498.454-1.587.567-3.81.567h-.997l-.227 2.2H62.32l.273-2.2h-1.679c-2.948 0-3.582-.214-3.582-1.156 0-.318.181-1.36.408-2.222l6.032-22.495C64.407 4.114 64.633 4 66.039 4h.635c1.724 0 3.039.367 3.855 1.02 1.043.998 1.678 3.175 1.678 5.806 0 .816 0 1.315-.09 3.175l1.904.226zm-1.86 32.7" fill-rule="evenodd" /></svg>