<svg xmlns="http://www.w3.org/2000/svg" width="160" height="160" style="shape-rendering:geometricPrecision;text-rendering:geometricPrecision;image-rendering:optimizeQuality;fill-rule:evenodd;clip-rule:evenodd" viewBox="0 0 880 880"><path style="opacity:1" fill="#242021" d="M-.5-.5h880v880H-.5V-.5z" /><path style="opacity:1" fill="#b4b4b4" d="M619.5 168.5c7.125-.489 11.458-.156 13 1v5h8v4c2.808.193 5.475.86 8 2l1 12h3c-.795 4.094.538 7.261 4 9.5l-1 1a158.709 158.709 0 0 0 14.5 15.5c2.125 2.674 1.958 5.007-.5 7-10.785-21.895-28.451-30.895-53-27a112.33 112.33 0 0 0-5-2 51.28 51.28 0 0 1 6-2c.929-1.189 1.262-2.522 1-4h-6v-4h4v-4h-4c-.68-4.094-2.014-7.761-4-11 3.388-1.618 7.054-2.618 11-3z" /><path style="opacity:1" fill="#c5c3c3" d="M608.5 171.5c1.986 3.239 3.32 6.906 4 11h4v4h-4v4h6c.262 1.478-.071 2.811-1 4a51.28 51.28 0 0 0-6 2 112.33 112.33 0 0 1 5 2c-10.671 2.165-19.671 7.165-27 15-9.115 9.558-15.115 20.891-18 34-5.08-30.295 4.587-54.462 29-72.5a42.302 42.302 0 0 1 8-3.5z" /><path style="opacity:1" fill="#e5e4e4" d="M478.5 169.5a8.43 8.43 0 0 0-4 .5c2.563.763 2.563 1.263 0 1.5-1.529-.029-2.696-.696-3.5-2a38.929 38.929 0 0 0-5.5 5l-2-2c-1.342 1.505-3.008 2.172-5 2a68.36 68.36 0 0 0 2 20 8.43 8.43 0 0 1 4 .5 108.394 108.394 0 0 0-9 2 8.43 8.43 0 0 0 4 .5c-27.513 5.513-44.18 22.179-50 50-5.301-27.223 2.366-50.056 23-68.5 13.939-10.532 29.273-13.699 46-9.5z" /><path style="opacity:1" fill="#c3c1c2" d="M286.5 171.5c1.612.952 3.112 1.286 4.5 1a34.78 34.78 0 0 1 2 10c.71-1.473 1.876-2.14 3.5-2l4 10h4v5a8.43 8.43 0 0 1 4 .5c-2.547.66-5.047.493-7.5-.5-1.364.871-2.53 1.871-3.5 3-12.986 1.491-23.653 7.157-32 17-7.953 9.24-13.287 19.907-16 32-5.258-28.735 3.409-52.235 26-70.5a42.494 42.494 0 0 1 11-5.5z" /><path style="opacity:1" fill="#1b191a" d="M371.5 379.5a4043.687 4043.687 0 0 1 8 51c.356 3.064-.477 5.731-2.5 8a109.807 109.807 0 0 1-5-20c-1.746-1.086-2.912-3.086-3.5-6 .284-1.915-.049-3.581-1-5-.552-7.199-1.552-14.199-3-21a1771.209 1771.209 0 0 1-8-59 356.598 356.598 0 0 0-1.5-31c-.89-8.007-2.556-16.007-5-24a256.548 256.548 0 0 0-5.5-37c-2.158-2.093-4.492-3.759-7-5-.823-11.326-6.823-18.159-18-20.5l-3-3a96.673 96.673 0 0 0-24-1c-5 2.586-10.334 4.253-16 5a74.616 74.616 0 0 1-9 6.5c-1.213-.247-1.88-.914-2-2 8.347-9.843 19.014-15.509 32-17 30.032-2.488 47.865 11.179 53.5 41a3399.146 3399.146 0 0 0 20.5 140z" /><path style="opacity:1" fill="#aeacac" d="M619.5 168.5c28.129-3.103 46.962 8.897 56.5 36a302.505 302.505 0 0 1 8 33 203337.139 203337.139 0 0 1 38.5 234c-6.993-.973-7.326-2.306-1-4-3.906-.574-7.573-1.74-11-3.5 1.017-1.049 1.184-2.216.5-3.5l-1 2-1-4a4.934 4.934 0 0 0-.5 3 4827.163 4827.163 0 0 1-35.5-222l-3.5-14c2.458-1.993 2.625-4.326.5-7a158.709 158.709 0 0 1-14.5-15.5l1-1c-3.462-2.239-4.795-5.406-4-9.5h-3l-1-12a23.142 23.142 0 0 0-8-2v-4h-8v-5c-1.542-1.156-5.875-1.489-13-1z" /><path style="opacity:1" fill="#f4f3f4" d="M478.5 169.5c12.924 3.711 22.757 11.378 29.5 23a130.425 130.425 0 0 1 8 20 4908.185 4908.185 0 0 1 28.5 168c-3.098-.087-3.432.413-1 1.5-1.601 5.239-2.601 10.739-3 16.5-1.22-.387-1.887-1.22-2-2.5a448.324 448.324 0 0 1 2-10.5c-2.357-.903-3.857-2.57-4.5-5-1.69 2.522-1.524 5.022.5 7.5-.871 1.364-1.871 2.53-3 3.5a4998.282 4998.282 0 0 0-13-80 1638.805 1638.805 0 0 1-10.5-76c-6.35-26.509-23.184-39.176-50.5-38a8.43 8.43 0 0 1-4-.5 108.394 108.394 0 0 1 9-2 8.43 8.43 0 0 0-4-.5 68.36 68.36 0 0 1-2-20c1.992.172 3.658-.495 5-2l2 2a38.929 38.929 0 0 1 5.5-5c.804 1.304 1.971 1.971 3.5 2 2.563-.237 2.563-.737 0-1.5a8.43 8.43 0 0 1 4-.5z" /><path style="opacity:1" fill="#aba9aa" d="M387.5 395.5c-.768-.763-1.268-1.763-1.5-3-.674 1.078-1.674 1.745-3 2a16.816 16.816 0 0 0-6.5-2c-.466-1.701-.466-3.201 0-4.5a20.431 20.431 0 0 1-1.5-5.5l-1 4a74.513 74.513 0 0 0-2-12 12.93 12.93 0 0 0-.5 5 3399.146 3399.146 0 0 1-20.5-140c-5.635-29.821-23.468-43.488-53.5-41 .97-1.129 2.136-2.129 3.5-3 2.453.993 4.953 1.16 7.5.5a8.43 8.43 0 0 0-4-.5v-5h-4l-4-10c-1.624-.14-2.79.527-3.5 2a34.78 34.78 0 0 0-2-10c-1.388.286-2.888-.048-4.5-1 33.098-9.902 55.598 1.431 67.5 34a999.821 999.821 0 0 0 6 25l27.5 165z" /><path style="opacity:1" fill="#717171" d="M356.5 327.5a1771.209 1771.209 0 0 0 8 59c-.79 1.109-1.29 2.442-1.5 4-.607-2.702-.44-5.368.5-8l-.5-2-1 3-1-5c-2.456 1.821-5.289 2.488-8.5 2v-4h-8v-4h-4v-4c-3.988-1.309-5.321-3.976-4-8a83.084 83.084 0 0 1 7.5-8 24.836 24.836 0 0 1 6-10 40.79 40.79 0 0 0 2.5-5.5c-.336-1.03-1.003-1.53-2-1.5 1.546-3.132 3.546-5.798 6-8z" /><path style="opacity:1" fill="#f6f5f6" d="M518.5 341.5a1250.205 1250.205 0 0 1 4 33c-1.163 3.215-1.83 6.382-2 9.5-5.667-.449-10.333 1.384-14 5.5.63 2.816-.036 5.482-2 8-1.131 1.104-1.965.771-2.5-1-.863 4.788-3.696 6.788-8.5 6v8c-7.543.393-10.876 4.393-10 12h-3v4h-4v4h-3l-2 8h-3v4l-8 1v7h-4v8h-4v4h-7a73.314 73.314 0 0 0-1 12l-8 2v4c-4.164.272-5.997 2.606-5.5 7l-3.5 3.5c-4.316 1.224-7.982 3.391-11 6.5a9.108 9.108 0 0 0-1 5h-5v-3c-2.041-.354-3.874-.354-5.5 0-2.075 3.334-2.909 7.001-2.5 11-4.241-.75-7.574.583-10 4a43.836 43.836 0 0 0-2-1 409.027 409.027 0 0 0 3-6 85.569 85.569 0 0 0 11-14 14800.15 14800.15 0 0 1 114-152z" /><path style="opacity:1" fill="#7c7c7c" d="M336.5 360.5c-1.321 4.024.012 6.691 4 8v4h4v4h8v4c3.211.488 6.044-.179 8.5-2l1 5 1-3 .5 2c-.94 2.632-1.107 5.298-.5 8 .21-1.558.71-2.891 1.5-4 1.448 6.801 2.448 13.801 3 21-.996-.086-1.829.248-2.5 1 .148-1.325-.018-2.492-.5-3.5a12.93 12.93 0 0 0-5-.5c.262-1.478-.071-2.811-1-4-3.323-.02-5.989-1.687-8-5l-9-2c-1.505-1.342-2.172-3.008-2-5h-4v-4c-3.233-1.151-6.233-2.818-9-5-1.109 1.09-2.109 1.09-3 0 1.797-1.631 2.964-3.631 3.5-6 1.011-.837 2.178-1.17 3.5-1 .399-4.799 2.399-8.799 6-12z" /><path style="opacity:1" fill="#878686" d="M350.5 335.5c.997-.03 1.664.47 2 1.5a40.79 40.79 0 0 1-2.5 5.5 24.836 24.836 0 0 0-6 10 83.084 83.084 0 0 0-7.5 8c-3.601 3.201-5.601 7.201-6 12-1.322-.17-2.489.163-3.5 1-.536 2.369-1.703 4.369-3.5 6 .891 1.09 1.891 1.09 3 0 2.767 2.182 5.767 3.849 9 5v4h4c-.172 1.992.495 3.658 2 5l9 2c2.011 3.313 4.677 4.98 8 5 .929 1.189 1.262 2.522 1 4a12.93 12.93 0 0 1 5 .5c.482 1.008.648 2.175.5 3.5.671-.752 1.504-1.086 2.5-1 .951 1.419 1.284 3.085 1 5-2.352-1.212-4.185-.545-5.5 2-2.899-2.835-6.399-4.502-10.5-5a18.924 18.924 0 0 1-3-5c-2.103 2.38-3.27 1.713-3.5-2-.984 2.295-1.817 1.961-2.5-1-3.232-1.23-5.899-3.23-8-6a51.089 51.089 0 0 0-11-3v-4c-2.544-.396-4.711.271-6.5 2-.242-3.38.592-6.546 2.5-9.5l-.5-1.5-3 3c-.383-.556-.883-.889-1.5-1a39322.8 39322.8 0 0 1 35-46z" /><path style="opacity:1" fill="#f0f0f0" d="M522.5 374.5c2.079 7.41 3.412 15.077 4 23 .043 4.393-.457 4.726-1.5 1-3.207 2.967-7.041 4.3-11.5 4a25.429 25.429 0 0 0-3 8c-1.478-.262-2.811.071-4 1l-3 6c-.825.886-1.825 1.219-3 1v4h-4v6h-3v6h-5v4h-4v5h-4v7h-4l-4 12h-4v4h-4v8h-4v4h-4v4h-3a51.569 51.569 0 0 1-1 7 13.116 13.116 0 0 0-7 1 6.846 6.846 0 0 0-1 4h-4v7a38.218 38.218 0 0 1-11 2 51.569 51.569 0 0 0-1 7h-4v3a29.753 29.753 0 0 0-7 2c-1.222 4.501-3.889 7.835-8 10-.587 2.906-2.254 4.572-5 5v3l-8 2v3h-4c.268 2.619-.065 5.119-1 7.5-2.087-.218-4.087-.051-6 .5a25.163 25.163 0 0 0-4 7c-4.005.671-6.338 3.005-7 7a1757.81 1757.81 0 0 0-12 6.5c-1.777 4.542-5.11 7.042-10 7.5a9.108 9.108 0 0 0-1-5c1.667-3 4-5.333 7-7-.762-.411-1.762-.577-3-.5a9.175 9.175 0 0 0 2-4.5 37345.644 37345.644 0 0 1 33-44c.65.304 1.317.637 2 1 2.426-3.417 5.759-4.75 10-4-.409-3.999.425-7.666 2.5-11 1.626-.354 3.459-.354 5.5 0v3h5a9.108 9.108 0 0 1 1-5c3.018-3.109 6.684-5.276 11-6.5l3.5-3.5c-.497-4.394 1.336-6.728 5.5-7v-4l8-2a73.314 73.314 0 0 1 1-12h7v-4h4v-8h4v-7l8-1v-4h3l2-8h3v-4h4v-4h3c-.876-7.607 2.457-11.607 10-12v-8c4.804.788 7.637-1.212 8.5-6 .535 1.771 1.369 2.104 2.5 1 1.964-2.518 2.63-5.184 2-8 3.667-4.116 8.333-5.949 14-5.5.17-3.118.837-6.285 2-9.5z" /><path style="opacity:1" fill="#807f7f" d="M681.5 338.5a2304.517 2304.517 0 0 0 5.5 44c3.508 15.01 6.008 30.01 7.5 45h-1c-.751-1.073-1.751-1.24-3-.5a30.233 30.233 0 0 0-3 3.5 23.142 23.142 0 0 0-8-2l-6-12c-3.457-.46-5.123-2.46-5-6-1.624.14-2.79-.527-3.5-2l-1 2-3-8-1 2c-.388-.928-1.055-1.595-2-2-4.53-.503-8.363-2.336-11.5-5.5a122.318 122.318 0 0 0 6-12.5c-.247-1.213-.914-1.88-2-2a498.951 498.951 0 0 0 31-44z" /><path style="opacity:1" fill="#949393" d="M368.5 412.5c-.998 5.337-3.664 9.67-8 13-.672-.767-1.505-1.434-2.5-2l-5.5 6.5c-4.55.722-8.884.222-13-1.5v-4c-3.739-.428-7.073-1.761-10-4v-4c-4.458-1.111-7.791-3.777-10-8a4.457 4.457 0 0 0-1.5 2c-2.713-1.599-4.547-3.932-5.5-7l-5-2c.94-4.548 2.94-8.548 6-12-.825-.886-1.825-1.219-3-1a40.943 40.943 0 0 1 5-7c.617.111 1.117.444 1.5 1l3-3 .5 1.5c-1.908 2.954-2.742 6.12-2.5 9.5 1.789-1.729 3.956-2.396 6.5-2v4a51.089 51.089 0 0 1 11 3c2.101 2.77 4.768 4.77 8 6 .683 2.961 1.516 3.295 2.5 1 .23 3.713 1.397 4.38 3.5 2a18.924 18.924 0 0 0 3 5c4.101.498 7.601 2.165 10.5 5 1.315-2.545 3.148-3.212 5.5-2z" /><path style="opacity:1" fill="#908f8f" d="M650.5 382.5c1.086.12 1.753.787 2 2a122.318 122.318 0 0 1-6 12.5c3.137 3.164 6.97 4.997 11.5 5.5.945.405 1.612 1.072 2 2l1-2 3 8 1-2c.71 1.473 1.876 2.14 3.5 2-.123 3.54 1.543 5.54 5 6l6 12c2.808.193 5.475.86 8 2a152.312 152.312 0 0 0-7 11 19.522 19.522 0 0 1-7.5-1 63.603 63.603 0 0 0-6.5-7c-1.545-.952-3.212-1.285-5-1v-4h-4c-.457-5.613-3.457-8.28-9-8v-4c-3.023.395-4.023-.605-3-3-1.505-1.342-2.172-3.008-2-5-2.1-.023-3.933.644-5.5 2l-1.5-1a216.167 216.167 0 0 1 8-11.5c-1.208-.921-2.542-1.421-4-1.5a103.473 103.473 0 0 1 10-14z" /><path style="opacity:1" fill="#e9e9e9" d="M526.5 397.5c1.629 5.091 2.629 10.424 3 16 .667 4-1 5.667-5 5v-4c-5.066.477-8.066 3.143-9 8h-3c.727 4.823-1.273 7.823-6 9-1.834 1.998-2.834 4.332-3 7h-3v4a51.569 51.569 0 0 0-7 1v11h-5v4c-4 .667-4 1.333 0 2v10h-8v6c-4 0-6 2-6 6h-6v4h-4v8h-4v7l-8 2v3h-7a51.569 51.569 0 0 1-1 7l-8 2v3h-7c.317 3.672-1.349 5.338-5 5v3h-4v4h-3l-4 8c-3.44-.163-5.44 1.504-6 5a23.098 23.098 0 0 0-9.5 6c-1.44.648-2.94.981-4.5 1-.333 3-2 4.667-5 5v3h-3c.219 1.175-.114 2.175-1 3a55.012 55.012 0 0 0-12 10c-.886.825-1.219 1.825-1 3-3.739.428-7.073 1.761-10 4 .02 1.643-.647 2.976-2 4a216.047 216.047 0 0 1-9.5 6 11.187 11.187 0 0 0-4.5-1c-1.108 3.631-3.274 6.631-6.5 9-1.055 3.778-2.888 7.111-5.5 10-.886-.825-1.219-1.825-1-3-2.097-.497-3.93-.83-5.5-1-.485 2.672.682 4.005 3.5 4-.411 7.079-4.078 11.412-11 13-2.309-1.433-3.809-.766-4.5 2-.995-.566-1.828-1.233-2.5-2a1587.403 1587.403 0 0 1 45-62 9.175 9.175 0 0 1-2 4.5c1.238-.077 2.238.089 3 .5-3 1.667-5.333 4-7 7a9.108 9.108 0 0 1 1 5c4.89-.458 8.223-2.958 10-7.5a1757.81 1757.81 0 0 1 12-6.5c.662-3.995 2.995-6.329 7-7a25.163 25.163 0 0 1 4-7c1.913-.551 3.913-.718 6-.5.935-2.381 1.268-4.881 1-7.5h4v-3l8-2v-3c2.746-.428 4.413-2.094 5-5 4.111-2.165 6.778-5.499 8-10a29.753 29.753 0 0 1 7-2v-3h4a51.569 51.569 0 0 1 1-7 38.218 38.218 0 0 0 11-2v-7h4a6.846 6.846 0 0 1 1-4 13.116 13.116 0 0 1 7-1 51.569 51.569 0 0 0 1-7h3v-4h4v-4h4v-8h4v-4h4l4-12h4v-7h4v-5h4v-4h5v-6h3v-6h4v-4c1.175.219 2.175-.114 3-1l3-6c1.189-.929 2.522-1.262 4-1a25.429 25.429 0 0 1 3-8c4.459.3 8.293-1.033 11.5-4 1.043 3.726 1.543 3.393 1.5-1z" /><path style="opacity:1" fill="#a6a4a5" d="M310.5 388.5c1.175-.219 2.175.114 3 1-3.06 3.452-5.06 7.452-6 12l5 2c.953 3.068 2.787 5.401 5.5 7a4.457 4.457 0 0 1 1.5-2c2.209 4.223 5.542 6.889 10 8v4c2.927 2.239 6.261 3.572 10 4v4c4.116 1.722 8.45 2.222 13 1.5l5.5-6.5c.995.566 1.828 1.233 2.5 2a8129.625 8129.625 0 0 0-14 19c-1.098-.897-1.098-1.73 0-2.5-1.077-.47-2.077-.303-3 .5-1.643.02-2.976-.647-4-2-1.558 5.194-2.558 5.194-3 0a32.91 32.91 0 0 1-9-4v-4h-6l-2-8c-2.106-.179-3.772-1.179-5-3a9.86 9.86 0 0 0-6-1v-4c-2.825.338-4.992-.662-6.5-3l-1 1-1.5-3a129.073 129.073 0 0 0 8-13c-.825-.886-1.825-1.219-3-1 1.259-3.525 3.259-6.525 6-9z" /><path style="opacity:1" fill="#1d1c1d" d="M520.5 311.5a4998.282 4998.282 0 0 1 13 80 6489.25 6489.25 0 0 1 19 112c.903 2.891 1.236 5.891 1 9-.432 1.21-1.099 2.21-2 3-.617-.111-1.117-.444-1.5-1a214.726 214.726 0 0 0-3.5-20h-6a225.771 225.771 0 0 0-1-30c-2.023-1.673-4.356-2.34-7-2v-8h4c-.262 1.478.071 2.811 1 4 .774-4.405 1.108-8.738 1-13-.577-2.05-1.91-3.05-4-3 .327-5.708-.673-11.041-3-16 .22-4.6-.446-8.933-2-13-.371-5.576-1.371-10.909-3-16-.588-7.923-1.921-15.59-4-23a1250.205 1250.205 0 0 0-4-33c1.175.219 2.175-.114 3-1a33.902 33.902 0 0 0-3.5-6 402.517 402.517 0 0 0-1.5-20c.098-2.119.931-3.786 2.5-5 .278.916.778 1.582 1.5 2z" /><path style="opacity:1" fill="#e3e3e3" d="M529.5 413.5c1.554 4.067 2.22 8.4 2 13a8961.86 8961.86 0 0 1-96 126c-2.475-1.187-3.475-3.187-3-6-4-1.333-8-1.333-12 0v3a29.753 29.753 0 0 0-7 2c.411 2.776-.422 3.443-2.5 2-1.741 1.954-3.908 2.954-6.5 3v4c-5.762.379-10.095 3.046-13 8-1.789 1.533-3.789 2.533-6 3a29.753 29.753 0 0 0-2 7h-3v3a29.753 29.753 0 0 0-7 2 29.753 29.753 0 0 0-2 7h-5c-.428 2.746-2.094 4.413-5 5-.886.825-1.219 1.825-1 3h-4v4h-4c-.6 4.6-3.266 7.267-8 8a36.38 36.38 0 0 1-8.5 9l-1-1c-4.015 6.595-9.849 10.595-17.5 12-1.621 3.239-4.287 4.739-8 4.5-.861 2.868-2.528 5.202-5 7-2.707-.471-5.374-.471-8 0 1.537-1.11 2.203-2.61 2-4.5a185.447 185.447 0 0 1 14-18c.672.767 1.505 1.434 2.5 2 .691-2.766 2.191-3.433 4.5-2 6.922-1.588 10.589-5.921 11-13-2.818.005-3.985-1.328-3.5-4 1.57.17 3.403.503 5.5 1-.219 1.175.114 2.175 1 3 2.612-2.889 4.445-6.222 5.5-10 3.226-2.369 5.392-5.369 6.5-9 1.56.019 3.06.352 4.5 1a216.047 216.047 0 0 0 9.5-6c1.353-1.024 2.02-2.357 2-4 2.927-2.239 6.261-3.572 10-4-.219-1.175.114-2.175 1-3a55.012 55.012 0 0 1 12-10c.886-.825 1.219-1.825 1-3h3v-3c3-.333 4.667-2 5-5 1.56-.019 3.06-.352 4.5-1a23.098 23.098 0 0 1 9.5-6c.56-3.496 2.56-5.163 6-5l4-8h3v-4h4v-3c3.651.338 5.317-1.328 5-5h7v-3l8-2a51.569 51.569 0 0 0 1-7h7v-3l8-2v-7h4v-8h4v-4h6c0-4 2-6 6-6v-6h8v-10c-4-.667-4-1.333 0-2v-4h5v-11a51.569 51.569 0 0 1 7-1v-4h3c.166-2.668 1.166-5.002 3-7 4.727-1.177 6.727-4.177 6-9h3c.934-4.857 3.934-7.523 9-8v4c4 .667 5.667-1 5-5z" /><path style="opacity:1" fill="#a09f9f" d="M640.5 396.5c1.458.079 2.792.579 4 1.5a216.167 216.167 0 0 0-8 11.5l1.5 1c1.567-1.356 3.4-2.023 5.5-2-.172 1.992.495 3.658 2 5-1.023 2.395-.023 3.395 3 3v4c5.543-.28 8.543 2.387 9 8h4v4c1.788-.285 3.455.048 5 1a63.603 63.603 0 0 1 6.5 7 19.522 19.522 0 0 0 7.5 1 152.312 152.312 0 0 1 7-11 30.233 30.233 0 0 1 3-3.5c1.249-.74 2.249-.573 3 .5a291.66 291.66 0 0 1-24 33c-.283-.789-.783-1.456-1.5-2a29.936 29.936 0 0 0-6.5 4c-2.837-1.009-4.17-3.009-4-6a31.871 31.871 0 0 1-7-3 9.108 9.108 0 0 1-1-5 32.91 32.91 0 0 1-9-4 9.86 9.86 0 0 0-1-6 46.607 46.607 0 0 1-5.5-6l-1 2a36.411 36.411 0 0 1-8.5-9 216.167 216.167 0 0 1 8-11.5c-1.462-1.628-3.128-1.795-5-.5a241.507 241.507 0 0 1 13-17z" /><path style="opacity:1" fill="#b0b0b0" d="M304.5 397.5c1.175-.219 2.175.114 3 1a129.073 129.073 0 0 1-8 13l1.5 3 1-1c1.508 2.338 3.675 3.338 6.5 3v4a9.86 9.86 0 0 1 6 1c1.228 1.821 2.894 2.821 5 3l2 8h6v4a32.91 32.91 0 0 0 9 4c.442 5.194 1.442 5.194 3 0 1.024 1.353 2.357 2.02 4 2a236.714 236.714 0 0 0-12 13.5c-2.271-1.696-4.938-2.862-8-3.5v-4h-4v-4a29.753 29.753 0 0 0-7-2v-4h-8c-.261-4.261-2.594-6.595-7-7-1.321-2.215-3.154-3.882-5.5-5a3.647 3.647 0 0 1-1.5 1c-1.131-1.574-1.298-3.241-.5-5 2.792-2.408 2.959-4.741.5-7a140.296 140.296 0 0 1 14-18z" /><path style="opacity:1" fill="#bdbdbd" d="M290.5 415.5c2.459 2.259 2.292 4.592-.5 7-.798 1.759-.631 3.426.5 5a3.647 3.647 0 0 0 1.5-1c2.346 1.118 4.179 2.785 5.5 5 4.406.405 6.739 2.739 7 7h8v4a29.753 29.753 0 0 1 7 2v4h4v4c3.062.638 5.729 1.804 8 3.5a236.714 236.714 0 0 1 12-13.5c.923-.803 1.923-.97 3-.5-1.098.77-1.098 1.603 0 2.5a185.447 185.447 0 0 1-14 18 7.47 7.47 0 0 0-2-3 134.072 134.072 0 0 1-9.5 10 14.72 14.72 0 0 1-1.5 5c-1.965-.69-4.298-1.357-7-2v-4c-3.55-1.21-6.216-3.543-8-7a80.686 80.686 0 0 0-11-5c.123-3.54-1.543-5.54-5-6a85.378 85.378 0 0 0-3-10c-.925-1.141-1.759-1.141-2.5 0-.317-1.801-.984-2.134-2-1 .118-4.289 1.618-8.122 4.5-11.5-1-.667-2-.667-3 0-1.333.667-1.333 1.333 0 2a10.134 10.134 0 0 1-4 1.5 139.708 139.708 0 0 1 12-16z" /><path style="opacity:1" fill="#e9e8e8" d="M544.5 380.5a3038.586 3038.586 0 0 1 18 108 4.934 4.934 0 0 1-.5 3 118.62 118.62 0 0 1-9.5 12 6489.25 6489.25 0 0 0-19-112c1.129-.97 2.129-2.136 3-3.5-2.024-2.478-2.19-4.978-.5-7.5.643 2.43 2.143 4.097 4.5 5a448.324 448.324 0 0 0-2 10.5c.113 1.28.78 2.113 2 2.5.399-5.761 1.399-11.261 3-16.5-2.432-1.087-2.098-1.587 1-1.5z" /><path style="opacity:1" fill="#242021" d="M368.5 412.5c.588 2.914 1.754 4.914 3.5 6a109.807 109.807 0 0 0 5 20c2.023-2.269 2.856-4.936 2.5-8a1205.376 1205.376 0 0 1 12 68 54.057 54.057 0 0 0 2 9 409.027 409.027 0 0 1-3 6 37345.644 37345.644 0 0 0-33 44 1587.403 1587.403 0 0 0-45 62 185.447 185.447 0 0 0-14 18c-14.227 16.719-30.561 31.219-49 43.5-20.296 11.154-41.629 18.32-64 21.5 5.581.851 11.915 1.351 19 1.5l-14 1 6 1-18 1.5a79.066 79.066 0 0 1-10-2l-8 2a134.081 134.081 0 0 0-20-1v-4h-4l-2 8a131.629 131.629 0 0 1-22-4l-4-3a592.692 592.692 0 0 0 32-11.5 47.276 47.276 0 0 0 9.5-6.5c.414.457.914.791 1.5 1l2-4a81.524 81.524 0 0 0 11-5 37.138 37.138 0 0 1 9-7.5l16-16c-.566-.995-1.233-1.828-2-2.5v-1a163.576 163.576 0 0 0 21-22 314.118 314.118 0 0 0 18-24 383.604 383.604 0 0 0 20-26 5809.51 5809.51 0 0 0 11-16 417.39 417.39 0 0 0 21-27 4550.035 4550.035 0 0 0 54-73 185.447 185.447 0 0 0 14-18c4.635-6.31 9.302-12.643 14-19 4.336-3.33 7.002-7.663 8-13z" /><path style="opacity:1" fill="#b1b0b1" d="M669.5 460.5a143.143 143.143 0 0 1-12 16c-1.634-2.651-3.301-2.651-5 0-6.398-3.08-10.732-8.08-13-15-3.344-2.011-6.011-4.677-8-8-.825-.886-1.825-1.219-3-1v-4c-1.478.262-2.811-.071-4-1-1.347-5.081-4.347-7.081-9-6a51.569 51.569 0 0 0 1-7c.131-.876-.202-1.543-1-2a5.576 5.576 0 0 1-3 1l15-20c1.872-1.295 3.538-1.128 5 .5a216.167 216.167 0 0 0-8 11.5 36.411 36.411 0 0 0 8.5 9l1-2a46.607 46.607 0 0 0 5.5 6 9.86 9.86 0 0 1 1 6 32.91 32.91 0 0 0 9 4 9.108 9.108 0 0 0 1 5 31.871 31.871 0 0 0 7 3c-.17 2.991 1.163 4.991 4 6a29.936 29.936 0 0 1 6.5-4c.717.544 1.217 1.211 1.5 2z" /><path style="opacity:1" fill="#b3b1b1" d="M387.5 395.5a3016.393 3016.393 0 0 1 15 91c-3.297 3.236-6.13 6.903-8.5 11-.671.752-1.504 1.086-2.5 1a1205.376 1205.376 0 0 0-12-68 4043.687 4043.687 0 0 0-8-51 12.93 12.93 0 0 1 .5-5 74.513 74.513 0 0 1 2 12l1-4a20.431 20.431 0 0 0 1.5 5.5c-.466 1.299-.466 2.799 0 4.5 2.274.215 4.441.882 6.5 2 1.326-.255 2.326-.922 3-2 .232 1.237.732 2.237 1.5 3z" /><path style="opacity:1" fill="#c7c7c7" d="M332.5 462.5a4550.035 4550.035 0 0 1-54 73 7.47 7.47 0 0 1-3-2 62.272 62.272 0 0 1 9-12 54.966 54.966 0 0 1 4-9c-1.144-3.558-3.478-5.891-7-7-.886-.825-1.219-1.825-1-3h-8l-8-16h-4v-3c-6.397-2.991-12.397-2.325-18 2-1.022-.355-1.689-1.022-2-2a1485.043 1485.043 0 0 1 38-52 10.134 10.134 0 0 0 4-1.5c-1.333-.667-1.333-1.333 0-2 1-.667 2-.667 3 0-2.882 3.378-4.382 7.211-4.5 11.5 1.016-1.134 1.683-.801 2 1 .741-1.141 1.575-1.141 2.5 0a85.378 85.378 0 0 1 3 10c3.457.46 5.123 2.46 5 6a80.686 80.686 0 0 1 11 5c1.784 3.457 4.45 5.79 8 7v4c2.702.643 5.035 1.31 7 2a14.72 14.72 0 0 0 1.5-5 134.072 134.072 0 0 0 9.5-10 7.47 7.47 0 0 1 2 3z" /><path style="opacity:1" fill="#bdbcbc" d="M616.5 434.5a51.569 51.569 0 0 1-1 7c4.653-1.081 7.653.919 9 6 1.189.929 2.522 1.262 4 1v4c1.175-.219 2.175.114 3 1 1.989 3.323 4.656 5.989 8 8 2.268 6.92 6.602 11.92 13 15a157.727 157.727 0 0 1-14.5 18 108.654 108.654 0 0 0-9.5-8c-.929-1.189-1.262-2.522-1-4h-3l-2-8h-4l-2-8-8-4c.253-2.327-.414-4.327-2-6-1.611.82-2.278 2.154-2 4-1.846.278-3.18-.389-4-2 .774-1.211 1.607-1.211 2.5 0 .133-5.595 2.467-9.928 7-13 1.679-4.037 3.846-7.703 6.5-11z" /><path style="opacity:1" fill="#1b1919" d="m669.5 225.5 3.5 14a4827.163 4827.163 0 0 0 35.5 222 4846.358 4846.358 0 0 0 20 117 8725.047 8725.047 0 0 1 9.5 57c2.141 16.933 8.141 32.266 18 46 5.96 6.804 13.127 11.804 21.5 15 2.338 1.54 5.005 2.206 8 2 5.475.989 11.142 1.322 17 1a38.833 38.833 0 0 0 6 3.5c-11.118 3.844-22.451 4.511-34 2a87.183 87.183 0 0 1-22.5-15.5 123.321 123.321 0 0 1-11-18 1152.97 1152.97 0 0 1-7.5-31.5 6.293 6.293 0 0 0 1-3 10190.18 10190.18 0 0 1-22-119 3.943 3.943 0 0 0 1-2 839.08 839.08 0 0 1-13-63.5c.624-7.674-1.043-14.841-5-21.5l1-1c-.881-.708-1.547-1.542-2-2.5-1.492-14.99-3.992-29.99-7.5-45a2304.517 2304.517 0 0 1-5.5-44 98.432 98.432 0 0 0-.5-14 704.08 704.08 0 0 1-4.5-30h-4l2-8h-6v16h-6l-4-24c2.512.077 4.512-.923 6-3-3.374-3.826-4.374-8.159-3-13a20.812 20.812 0 0 1 7.5-3l3 4c-.513-14.384-4.013-28.05-10.5-41a71.19 71.19 0 0 1-13-11.5 58.873 58.873 0 0 0-12-4 146.57 146.57 0 0 0-37 2c1.211.893 1.211 1.726 0 2.5a35.983 35.983 0 0 0-9 5c-.886-.825-1.219-1.825-1-3 7.329-7.835 16.329-12.835 27-15 24.549-3.895 42.215 5.105 53 27z" /><path style="opacity:1" fill="#242021" d="M531.5 426.5c2.327 4.959 3.327 10.292 3 16 2.09-.05 3.423.95 4 3 .108 4.262-.226 8.595-1 13-.929-1.189-1.262-2.522-1-4h-4v8c2.644-.34 4.977.327 7 2a225.771 225.771 0 0 1 1 30h6a214.726 214.726 0 0 1 3.5 20c.383.556.883.889 1.5 1a137.896 137.896 0 0 0-9 13 168.895 168.895 0 0 0-15 20 294.54 294.54 0 0 0-14 19 3451.78 3451.78 0 0 0-40.5 54 912.65 912.65 0 0 1-23.5 27 59.708 59.708 0 0 0-7 7c-6.104-4.826-10.271-11.159-12.5-19a914.787 914.787 0 0 1-9.5-54c-.888-2.554-1.221-5.221-1-8a253.64 253.64 0 0 0 16-22 8961.86 8961.86 0 0 0 96-126z" /><path style="opacity:1" fill="#c7c7c7" d="M616.5 434.5c-2.654 3.297-4.821 6.963-6.5 11-4.533 3.072-6.867 7.405-7 13-.893-1.211-1.726-1.211-2.5 0 .82 1.611 2.154 2.278 4 2-.278-1.846.389-3.18 2-4 1.586 1.673 2.253 3.673 2 6l8 4 2 8h4l2 8h3c-.262 1.478.071 2.811 1 4a108.654 108.654 0 0 1 9.5 8 157.727 157.727 0 0 0 14.5-18c1.699-2.651 3.366-2.651 5 0l-63 84c-2.012-1.708-2.346-3.708-1-6 2.755-1.461 4.588-3.795 5.5-7 4.157-3.664 7.324-7.998 9.5-13-2.26-2.245-3.594-4.911-4-8h-4v-3l-8-2a29.753 29.753 0 0 1-2-7h-4l-2-8h-4v-3c-3.05.577-5.05-.59-6-3.5-3.784-1.31-6.118-.143-7 3.5a14.828 14.828 0 0 0-6.5 2c-.399-.228-.565-.562-.5-1l5-8a3261.534 3261.534 0 0 0 47-63 5.576 5.576 0 0 0 3-1c.798.457 1.131 1.124 1 2z" /><path style="opacity:1" fill="#bbb" d="M278.5 535.5a417.39 417.39 0 0 1-21 27c-.31-1.238-.81-1.238-1.5 0l-.5-2a553.075 553.075 0 0 0 5-8 106.882 106.882 0 0 1 8.5-10 169.595 169.595 0 0 0 1.5-8 448.32 448.32 0 0 1-4-8h-4v-4h-4c-.46-3.457-2.46-5.123-6-5a29.753 29.753 0 0 1-2-7h-4v-8h-4a85.378 85.378 0 0 0-3-10 34.164 34.164 0 0 0-6 7.5 4.934 4.934 0 0 1-3 .5c.216 2.181-.617 3.847-2.5 5l-1.5-3a102.457 102.457 0 0 1 14-19c.311.978.978 1.645 2 2 5.603-4.325 11.603-4.991 18-2v3h4l8 16h8c-.219 1.175.114 2.175 1 3 3.522 1.109 5.856 3.442 7 7a54.966 54.966 0 0 0-4 9 62.272 62.272 0 0 0-9 12 7.47 7.47 0 0 0 3 2z" /><path style="opacity:1" fill="#5b5959" d="M402.5 486.5a67.898 67.898 0 0 0 2 7 85.569 85.569 0 0 1-11 14 54.057 54.057 0 0 1-2-9c.996.086 1.829-.248 2.5-1 2.37-4.097 5.203-7.764 8.5-11z" /><path style="opacity:1" fill="#5e5d5d" d="M562.5 488.5a46.702 46.702 0 0 0 3 8l-5 8-7 8c.236-3.109-.097-6.109-1-9a118.62 118.62 0 0 0 9.5-12 4.934 4.934 0 0 0 .5-3z" /><path style="opacity:1" fill="#b6b4b4" d="M722.5 471.5a2037.004 2037.004 0 0 1 12 71c.117 1.984-.55 3.65-2 5 .577 2.289 1.577 3.455 3 3.5a25.807 25.807 0 0 0-2.5 7.5 130.373 130.373 0 0 1-1.5 16 3.647 3.647 0 0 1-1.5-1c-.198 1.882-.698 3.548-1.5 5a4846.358 4846.358 0 0 1-20-117 4.934 4.934 0 0 1 .5-3l1 4 1-2c.684 1.284.517 2.451-.5 3.5 3.427 1.76 7.094 2.926 11 3.5-6.326 1.694-5.993 3.027 1 4z" /><path style="opacity:1" fill="#aeadad" d="M260.5 552.5c-1.107-2.469-3.107-3.469-6-3v-6a50.464 50.464 0 0 1-10-.5c2.137-2.179 2.471-4.679 1-7.5-5.54-.481-8.54-3.481-9-9h-4v-4h-6c.047-4.148-1.953-5.648-6-4.5-4.074 2.975-7.074 6.808-9 11.5l-3 2c-.017-.894-.351-1.894-1-3a181.77 181.77 0 0 1 19-26l1.5 3c1.883-1.153 2.716-2.819 2.5-5a4.934 4.934 0 0 0 3-.5 34.164 34.164 0 0 1 6-7.5 85.378 85.378 0 0 1 3 10h4v8h4a29.753 29.753 0 0 0 2 7c3.54-.123 5.54 1.543 6 5h4v4h4a448.32 448.32 0 0 0 4 8 169.595 169.595 0 0 1-1.5 8 106.882 106.882 0 0 0-8.5 10z" /><path style="opacity:1" fill="#bababa" d="M593.5 554.5c.169-4.541-.498-4.874-2-1-.886-.825-1.219-1.825-1-3h-4c.273-2.458-.727-4.125-3-5a13.116 13.116 0 0 1-1-7h-4c.256-4.021-1.41-5.354-5-4a22.725 22.725 0 0 0-3-7c-5.421-2.123-10.254-5.123-14.5-9-4.879 3.212-8.712 7.379-11.5 12.5-1.561.188-2.228-.645-2-2.5a137.896 137.896 0 0 1 9-13c.901-.79 1.568-1.79 2-3l7-8c-.065.438.101.772.5 1a14.828 14.828 0 0 1 6.5-2c.882-3.643 3.216-4.81 7-3.5.95 2.91 2.95 4.077 6 3.5v3h4l2 8h4a29.753 29.753 0 0 0 2 7l8 2v3h4c.406 3.089 1.74 5.755 4 8-2.176 5.002-5.343 9.336-9.5 13-.912 3.205-2.745 5.539-5.5 7z" /><path style="opacity:1" fill="#afaeae" d="M593.5 554.5c-1.346 2.292-1.012 4.292 1 6l-14 19a25.658 25.658 0 0 0-6 6c-.978-.311-1.645-.978-2-2a10.502 10.502 0 0 1 3.5-5l1-7c.93 2.466 1.763 2.299 2.5-.5a19.522 19.522 0 0 1-1-7.5h-4c.12-2.705-.88-3.372-3-2a9.86 9.86 0 0 1-1-6c-4.824-.388-6.824-3.055-6-8a108.337 108.337 0 0 0-14-4c-3.626-3.997-7.96-5.33-13-4-1.756 5.272-4.923 9.605-9.5 13a8.43 8.43 0 0 1-.5-4 168.895 168.895 0 0 1 15-20c-.228 1.855.439 2.688 2 2.5 2.788-5.121 6.621-9.288 11.5-12.5 4.246 3.877 9.079 6.877 14.5 9a22.725 22.725 0 0 1 3 7c3.59-1.354 5.256-.021 5 4h4a13.116 13.116 0 0 0 1 7c2.273.875 3.273 2.542 3 5h4c-.219 1.175.114 2.175 1 3 1.502-3.874 2.169-3.541 2 1z" /><path style="opacity:1" fill="#a3a1a2" d="M260.5 552.5a553.075 553.075 0 0 1-5 8l.5 2c.69-1.238 1.19-1.238 1.5 0a5809.51 5809.51 0 0 1-11 16c-.767-.672-1.434-1.505-2-2.5a79.456 79.456 0 0 0 4-7.5 7.293 7.293 0 0 0-2-3 3.647 3.647 0 0 1 1-1.5 35.91 35.91 0 0 0-15-5.5v-7a16.873 16.873 0 0 1-8-1 68.958 68.958 0 0 0-4-6.5 50.464 50.464 0 0 0-10-.5c-.955-8.448-3.788-9.114-8.5-2a10.134 10.134 0 0 1-1.5-4 46.493 46.493 0 0 1 7-9c.649 1.106.983 2.106 1 3l3-2c1.926-4.692 4.926-8.525 9-11.5 4.047-1.148 6.047.352 6 4.5h6v4h4c.46 5.519 3.46 8.519 9 9 1.471 2.821 1.137 5.321-1 7.5 3.317.498 6.65.665 10 .5v6c2.893-.469 4.893.531 6 3z" /><path style="opacity:1" fill="#a4a3a3" d="m574.5 585.5-7 10a35.061 35.061 0 0 1-6 8c-2.486-.962-2.486-1.795 0-2.5l-1-1a71.306 71.306 0 0 0 4.5-8.5c2.092-1.352 3.592-3.186 4.5-5.5-.113-1.28-.78-2.113-2-2.5a13.116 13.116 0 0 1-1-7h-4v-4a50.464 50.464 0 0 1-10-.5c-1.692-1.401-2.359-3.234-2-5.5h-10v-4c-2.512.077-4.512-.923-6-3l2-2c-6.449-5.8-11.116-4.467-14 4a38.182 38.182 0 0 1-7.5 9l-1.5-3a294.54 294.54 0 0 1 14-19 8.43 8.43 0 0 0 .5 4c4.577-3.395 7.744-7.728 9.5-13 5.04-1.33 9.374.003 13 4a108.337 108.337 0 0 1 14 4c-.824 4.945 1.176 7.612 6 8a9.86 9.86 0 0 0 1 6c2.12-1.372 3.12-.705 3 2h4a19.522 19.522 0 0 0 1 7.5c-.737 2.799-1.57 2.966-2.5.5l-1 7a10.502 10.502 0 0 0-3.5 5c.355 1.022 1.022 1.689 2 2z" /><path style="opacity:1" fill="#969495" d="M246.5 578.5a383.604 383.604 0 0 1-20 26c-.543-.06-.876-.393-1-1a71.617 71.617 0 0 1 7-15 30.608 30.608 0 0 0-3-5c-.886.825-1.219 1.825-1 3h-4c-.755-3.012-2.088-5.678-4-8h-4l-2-8h-6l-2-8h-4v-11c-1.967.239-3.801-.094-5.5-1-.263 2.764-1.763 4.431-4.5 5a262.115 262.115 0 0 1-12.5 15c.135-1.925.302-3.925.5-6a597.482 597.482 0 0 1 20-27 10.134 10.134 0 0 0 1.5 4c4.712-7.114 7.545-6.448 8.5 2 3.35-.165 6.683.002 10 .5a68.958 68.958 0 0 1 4 6.5 16.873 16.873 0 0 0 8 1v7a35.91 35.91 0 0 1 15 5.5 3.647 3.647 0 0 0-1 1.5 7.293 7.293 0 0 1 2 3 79.456 79.456 0 0 1-4 7.5c.566.995 1.233 1.828 2 2.5z" /><path style="opacity:1" fill="#898888" d="M226.5 604.5a314.118 314.118 0 0 1-18 24c-.789-.283-1.456-.783-2-1.5a151.696 151.696 0 0 1 10-17.5c-1.882-2.108-4.215-3.441-7-4-1.46-2.867-3.46-5.201-6-7-.929-1.189-1.262-2.522-1-4h-4c-.477-5.066-3.143-8.066-8-9-.667-4-1.333-4-2 0h-4v-3h-6c.225-2.216-.608-3.883-2.5-5-1.269 1.405-1.769 3.071-1.5 5-1.175-.219-2.175.114-3 1a343.784 343.784 0 0 1-16.5 20c-1.03-.336-1.53-1.003-1.5-2a750.589 750.589 0 0 1 27-37 240.024 240.024 0 0 0-.5 6 262.115 262.115 0 0 0 12.5-15c2.737-.569 4.237-2.236 4.5-5 1.699.906 3.533 1.239 5.5 1v11h4l2 8h6l2 8h4c1.912 2.322 3.245 4.988 4 8h4c-.219-1.175.114-2.175 1-3a30.608 30.608 0 0 1 3 5 71.617 71.617 0 0 0-7 15c.124.607.457.94 1 1z" /><path style="opacity:1" fill="#939192" d="M561.5 603.5a133.492 133.492 0 0 1-20 24c-1.844-.704-2.344-2.037-1.5-4 1.533-3.038 3.033-5.538 4.5-7.5-2.606-.45-3.939-1.95-4-4.5a42.945 42.945 0 0 0-12-3c0-4-2-6-6-6 .262-1.478-.071-2.811-1-4-2.052-1.234-3.719-2.9-5-5a45.603 45.603 0 0 1-11-3.5 11.333 11.333 0 0 1-1.5-3.5 801.392 801.392 0 0 0-11 15 8.43 8.43 0 0 0-.5 4h-4v3c-.787 1.604-2.12 2.271-4 2a4.934 4.934 0 0 1-.5 3 335.288 335.288 0 0 1-27 33c-1.532 2.062-3.532 3.396-6 4-.717-.544-1.217-1.211-1.5-2a912.65 912.65 0 0 0 23.5-27 3451.78 3451.78 0 0 1 40.5-54l1.5 3a38.182 38.182 0 0 0 7.5-9c2.884-8.467 7.551-9.8 14-4l-2 2c1.488 2.077 3.488 3.077 6 3v4h10c-.359 2.266.308 4.099 2 5.5 3.317.498 6.65.665 10 .5v4h4a13.116 13.116 0 0 0 1 7c1.22.387 1.887 1.22 2 2.5-.908 2.314-2.408 4.148-4.5 5.5a71.306 71.306 0 0 1-4.5 8.5l1 1c-2.486.705-2.486 1.538 0 2.5z" /><path style="opacity:1" fill="#dad9d9" d="M435.5 552.5a253.64 253.64 0 0 1-16 22 136.738 136.738 0 0 1-12 16c-2.446-.892-3.112-2.392-2-4.5-3.07-.078-6.07.422-9 1.5v7h-4v3c-3 .333-4.667 2-5 5l-10 4c-1.145 3.799-3.478 6.799-7 9-2.976 5.314-7.309 8.981-13 11 .219 1.175-.114 2.175-1 3l-5 4a32.553 32.553 0 0 0-10 4 229.955 229.955 0 0 0-7 12.5 25.807 25.807 0 0 0-7.5 2.5c-1.68 3.179-4.18 5.512-7.5 7-2.12-1.372-3.12-.705-3 2-3.56 1.874-6.893 4.208-10 7-1.104 4.103-3.77 6.436-8 7a4.457 4.457 0 0 0 2 1.5 23.597 23.597 0 0 0-6 2.5 20.222 20.222 0 0 0-5-1c.02 1.643-.647 2.976-2 4a13.116 13.116 0 0 1-7 1c-.085 2.429-1.085 4.429-3 6a6.802 6.802 0 0 0 3 1.5 66.616 66.616 0 0 1-14-1.5c-1.556 1.047-3.223 1.714-5 2-.14 1.624.527 2.79 2 3.5a22.508 22.508 0 0 1-7 2c2.208.191 4.208.691 6 1.5a469.375 469.375 0 0 1-77 4c22.371-3.18 43.704-10.346 64-21.5 18.439-12.281 34.773-26.781 49-43.5.203 1.89-.463 3.39-2 4.5 2.626-.471 5.293-.471 8 0 2.472-1.798 4.139-4.132 5-7 3.713.239 6.379-1.261 8-4.5 7.651-1.405 13.485-5.405 17.5-12l1 1a36.38 36.38 0 0 0 8.5-9c4.734-.733 7.4-3.4 8-8h4v-4h4c-.219-1.175.114-2.175 1-3 2.906-.587 4.572-2.254 5-5h5a29.753 29.753 0 0 1 2-7 29.753 29.753 0 0 1 7-2v-3h3a29.753 29.753 0 0 1 2-7c2.211-.467 4.211-1.467 6-3 2.905-4.954 7.238-7.621 13-8v-4c2.592-.046 4.759-1.046 6.5-3 2.078 1.443 2.911.776 2.5-2a29.753 29.753 0 0 1 7-2v-3c4-1.333 8-1.333 12 0-.475 2.813.525 4.813 3 6z" /><path style="opacity:1" fill="#585757" d="M419.5 574.5c-.221 2.779.112 5.446 1 8-2.699 2.328-5.199 4.994-7.5 8-1.903 1.941-2.736 4.274-2.5 7a24.614 24.614 0 0 0-3-7 136.738 136.738 0 0 0 12-16z" /><path style="opacity:1" fill="#cfcfcf" d="M407.5 590.5a454.345 454.345 0 0 1-50 60.5c-27.045 24.856-58.712 40.689-95 47.5-1.792-.809-3.792-1.309-6-1.5a22.508 22.508 0 0 0 7-2c-1.473-.71-2.14-1.876-2-3.5 1.777-.286 3.444-.953 5-2a66.616 66.616 0 0 0 14 1.5 6.802 6.802 0 0 1-3-1.5c1.915-1.571 2.915-3.571 3-6a13.116 13.116 0 0 0 7-1c1.353-1.024 2.02-2.357 2-4 1.699.12 3.365.454 5 1a23.597 23.597 0 0 1 6-2.5 4.457 4.457 0 0 1-2-1.5c4.23-.564 6.896-2.897 8-7 3.107-2.792 6.44-5.126 10-7-.12-2.705.88-3.372 3-2 3.32-1.488 5.82-3.821 7.5-7a25.807 25.807 0 0 1 7.5-2.5 229.955 229.955 0 0 1 7-12.5 32.553 32.553 0 0 1 10-4l5-4c.886-.825 1.219-1.825 1-3 5.691-2.019 10.024-5.686 13-11 3.522-2.201 5.855-5.201 7-9l10-4c.333-3 2-4.667 5-5v-3h4v-7a24.073 24.073 0 0 1 9-1.5c-1.112 2.108-.446 3.608 2 4.5z" /><path style="opacity:1" fill="#868686" d="M541.5 627.5a25.913 25.913 0 0 1-8 9c-1.274-.689-1.274-1.523 0-2.5-2.327-2.142-3.993-4.642-5-7.5h-4v-4h-4v-8h-8v-4h-4v4h-8v-6l-8-2v3c-1.459.067-2.792-.266-4-1v-3h4a8.43 8.43 0 0 1 .5-4 801.392 801.392 0 0 1 11-15 11.333 11.333 0 0 0 1.5 3.5 45.603 45.603 0 0 0 11 3.5c1.281 2.1 2.948 3.766 5 5 .929 1.189 1.262 2.522 1 4 4 0 6 2 6 6a42.945 42.945 0 0 1 12 3c.061 2.55 1.394 4.05 4 4.5-1.467 1.962-2.967 4.462-4.5 7.5-.844 1.963-.344 3.296 1.5 4z" /><path style="opacity:1" fill="#7b7a7a" d="M208.5 628.5a163.576 163.576 0 0 1-21 22c-.624-.417-.957-1.084-1-2 1.254-1.834 1.921-3.834 2-6h4v-12h-4v-8h-8v-4h-8v-4h-4v-4h-4v-4c-2.948.277-5.781-.056-8.5-1l-11 11a4.934 4.934 0 0 1-.5-3 60.95 60.95 0 0 1 9-12c-.03.997.47 1.664 1.5 2a343.784 343.784 0 0 0 16.5-20c.825-.886 1.825-1.219 3-1-.269-1.929.231-3.595 1.5-5 1.892 1.117 2.725 2.784 2.5 5h6v3h4c.667-4 1.333-4 2 0 4.857.934 7.523 3.934 8 9h4c-.262 1.478.071 2.811 1 4 2.54 1.799 4.54 4.133 6 7 2.785.559 5.118 1.892 7 4a151.696 151.696 0 0 0-10 17.5c.544.717 1.211 1.217 2 1.5z" /><path style="opacity:1" fill="#6e6b6c" d="M580.5 579.5v8c-4.53 3.855-7.863 8.522-10 14-.44-2.344-1.44-4.344-3-6l7-10a25.658 25.658 0 0 1 6-6z" /><path style="opacity:1" fill="#adacac" d="M734.5 542.5a2091.772 2091.772 0 0 1 14.5 85c2.255 13.367 8.422 24.367 18.5 33-1.665 2.112-3.665 2.778-6 2-1.696 6.935-1.029 13.601 2 20a3.647 3.647 0 0 1-1 1.5 114.74 114.74 0 0 0 17 11.5c-.457.798-1.124 1.131-2 1-8.373-3.196-15.54-8.196-21.5-15-9.859-13.734-15.859-29.067-18-46a8725.047 8725.047 0 0 0-9.5-57c.802-1.452 1.302-3.118 1.5-5 .414.457.914.791 1.5 1a130.373 130.373 0 0 0 1.5-16 25.807 25.807 0 0 1 2.5-7.5c-1.423-.045-2.423-1.211-3-3.5 1.45-1.35 2.117-3.016 2-5z" /><path style="opacity:1" fill="#7d7d7d" d="M533.5 636.5a55.546 55.546 0 0 1-13 12 98 98 0 0 0-2.5-19c-.198 1.882-.698 3.548-1.5 5a2.428 2.428 0 0 0-.5-2 463.491 463.491 0 0 1-6 17c-2.936 1.593-6.102 2.593-9.5 3a451.46 451.46 0 0 1-45-2 15.418 15.418 0 0 1-7 1c-.027 1.699-.694 3.033-2 4-1.679-.215-2.679.452-3 2-.838-.342-1.172-1.008-1-2a59.708 59.708 0 0 1 7-7c.283.789.783 1.456 1.5 2 2.468-.604 4.468-1.938 6-4a335.288 335.288 0 0 0 27-33 4.934 4.934 0 0 0 .5-3c1.88.271 3.213-.396 4-2 1.208.734 2.541 1.067 4 1v-3l8 2v6h8v-4h4v4h8v8h4v4h4c1.007 2.858 2.673 5.358 5 7.5-1.274.977-1.274 1.811 0 2.5z" /><path style="opacity:1" fill="#6f6f6f" d="M187.5 650.5v1a229.41 229.41 0 0 1-20 16c-2.217-.869-4.55-1.202-7-1v-8h-4v-8h-4v-4h-4v-8h-8v-6c-6.761.432-10.095 4.099-10 11-3.114.591-5.614 2.258-7.5 5a67.081 67.081 0 0 0-11 15 10.94 10.94 0 0 1-4.5 3c-.886.825-1.219 1.825-1 3-5.638 3.536-10.638 8.036-15 13.5-5.208 1.768-9.542 4.768-13 9-5.138.067-8.805 2.4-11 7 2.551.002 4.551.836 6 2.5a574.584 574.584 0 0 1-43 1l34-8.5c19.094-9.089 35.26-21.922 48.5-38.5a1781.994 1781.994 0 0 0 31.5-42 4.934 4.934 0 0 0 .5 3l11-11c2.719.944 5.552 1.277 8.5 1v4h4v4h4v4h8v4h8v8h4v12h-4c-.079 2.166-.746 4.166-2 6 .043.916.376 1.583 1 2z" /><path style="opacity:1" fill="#666" d="M167.5 667.5c-8.326 7.17-17.66 12.837-28 17-1.371-1.759-2.371-3.759-3-6a16.873 16.873 0 0 0-8-1v-3h-4v-4h-6c.219-1.175-.114-2.175-1-3a15.39 15.39 0 0 1-6 3c-1.494-.209-2.661-.876-3.5-2-.383.556-.883.889-1.5 1-.219-1.175.114-2.175 1-3a10.94 10.94 0 0 0 4.5-3 67.081 67.081 0 0 1 11-15c1.886-2.742 4.386-4.409 7.5-5-.095-6.901 3.239-10.568 10-11v6h8v8h4v4h4v8h4v8c2.45-.202 4.783.131 7 1z" /><path style="opacity:1" fill="#231f20" d="M567.5 595.5c1.56 1.656 2.56 3.656 3 6a205.837 205.837 0 0 1 3 20c-.617.111-1.117.444-1.5 1l-1-4a181.73 181.73 0 0 0 2 30 109.708 109.708 0 0 1 5 20 6.547 6.547 0 0 0 3 3 220.816 220.816 0 0 0 8.5 18 3873.38 3873.38 0 0 0 18 13c-2.64-.454-4.973-1.621-7-3.5a72.367 72.367 0 0 0-12-.5 73.314 73.314 0 0 0-1-12 573.53 573.53 0 0 1-47-2v-6c-8.007.166-16.007 0-24-.5 1.865-2.588 2.698-5.422 2.5-8.5l-1 1a4.934 4.934 0 0 1-.5-3 58.311 58.311 0 0 0 3-19 55.546 55.546 0 0 0 13-12 25.913 25.913 0 0 0 8-9 133.492 133.492 0 0 0 20-24 35.061 35.061 0 0 0 6-8z" /><path style="opacity:1" fill="#dbdada" d="M580.5 587.5a5791.085 5791.085 0 0 1 8.5 47c8.82 25.333 26.653 36.999 53.5 35a2.428 2.428 0 0 1 2 .5c-4.138-.218-5.472 1.448-4 5-2.897 1.715-4.231 4.215-4 7.5h-4a9.86 9.86 0 0 1-1 6 4.457 4.457 0 0 1-1.5-2 12.795 12.795 0 0 0-3 6 8.43 8.43 0 0 1-.5-4h-6a70.87 70.87 0 0 0 3 7.5c-1.931-.815-4.098-1.315-6.5-1.5-1.385.014-2.551.348-3.5 1-10.815-4.311-18.981-11.645-24.5-22-7.963-16.524-13.13-33.857-15.5-52a205.837 205.837 0 0 0-3-20c2.137-5.478 5.47-10.145 10-14z" /><path style="opacity:1" fill="#979596" d="M831.5 680.5c-.656-1.122-.989-2.455-1-4a67.796 67.796 0 0 1 3-9.5c-.796-2.74-.796-5.573 0-8.5l-.5-4c-3.694 5.562-4.861 5.229-3.5-1 4.192-7.412 6.859-15.412 8-24 4.82 17.778 2.82 34.778-6 51z" /><path style="opacity:1" fill="#696768" d="M500.5 652.5c-.719 2.388-2.385 3.888-5 4.5a182.476 182.476 0 0 1-49-1.5c1.306-.967 1.973-2.301 2-4 2.42.208 4.753-.126 7-1a451.46 451.46 0 0 0 45 2z" /><path style="opacity:1" fill="#999898" d="M429.5 671.5c-.838-.342-1.172-1.008-1-2 1.56-1.629 1.227-2.796-1-3.5 1.426-2.711 1.092-5.211-1-7.5.346-1.196.846-1.196 1.5 0 .715-3.49 2.548-6.156 5.5-8 .929 1.189 1.262 2.522 1 4 5.04 2.856 9.707 6.356 14 10.5 3.741 2.519 7.741 4.353 12 5.5a4.934 4.934 0 0 0 .5 3 113.015 113.015 0 0 1 11.5 17.5c-.387 2.261-1.721 3.594-4 4l1 1c-14.78-2.077-26.613-9.244-35.5-21.5a8.43 8.43 0 0 1-.5-4c-1.599-.268-2.932.066-4 1z" /><path style="opacity:1" fill="#252022" d="M415.5 653.5c1.812 6 3.812 12 6 18a417.893 417.893 0 0 0-22 13.5 123.3 123.3 0 0 1-24 9.5h-3v-4a970.02 970.02 0 0 1-60-1c2.234-1.946 4.901-3.113 8-3.5 2.546-4.775 6.546-7.275 12-7.5v4h4v-4h8v-4h4v-4h4v-8h8v-4h4v20h16v-8h8v-8h4v-4h4v-4h8v-8h4v-4h4v12c1.291.237 2.291-.096 3-1z" /><path style="opacity:1" fill="#575555" d="M516.5 634.5c-2.628 17.955-12.628 29.289-30 34-16.253 3.465-30.586-.201-43-11 .321-1.548 1.321-2.215 3-2a182.476 182.476 0 0 0 49 1.5c2.615-.612 4.281-2.112 5-4.5 3.398-.407 6.564-1.407 9.5-3a463.491 463.491 0 0 0 6-17c.464.594.631 1.261.5 2z" /><path style="opacity:1" fill="#c6c6c6" d="M520.5 648.5a58.311 58.311 0 0 1-3 19c-2.661 8.983-7.661 16.316-15 22-1.365-2.091-2.032-4.424-2-7h-4a16.994 16.994 0 0 0-2-6.5 27.07 27.07 0 0 1 2-4.5 15.69 15.69 0 0 0-4-2c-3.273 1.085-6.606 1.252-10 .5 1.558-.21 2.891-.71 4-1.5 17.372-4.711 27.372-16.045 30-34 .802-1.452 1.302-3.118 1.5-5a98 98 0 0 1 2.5 19z" /><path style="opacity:1" fill="#1b1819" d="M573.5 621.5c2.37 18.143 7.537 35.476 15.5 52 5.519 10.355 13.685 17.689 24.5 22 17.368 6.877 33.701 4.877 49-6 .438-.065.772.101 1 .5a169.536 169.536 0 0 1-7.5 11.5l-1-1c-4.621 3.395-9.788 5.228-15.5 5.5 3.691.42 7.358.92 11 1.5a29.753 29.753 0 0 0-2 7h-4v-4c-1.992-.172-3.658.495-5 2a18.924 18.924 0 0 0-5-3l2-2a468.35 468.35 0 0 0-16-2 61.39 61.39 0 0 1-13-3 3873.38 3873.38 0 0 1-18-13 220.816 220.816 0 0 1-8.5-18 6.547 6.547 0 0 1-3-3 109.708 109.708 0 0 0-5-20 181.73 181.73 0 0 1-2-30l1 4c.383-.556.883-.889 1.5-1z" /><path style="opacity:1" fill="#9b9999" d="M767.5 660.5c10.751 7.555 22.751 10.555 36 9a4.934 4.934 0 0 1 3 .5l-1 1c-3.637 1.428-7.971 2.428-13 3 1.607 1.049 2.273 2.549 2 4.5a9.108 9.108 0 0 0-5 1c-.915 2.418-2.415 4.418-4.5 6-.986 3.242-.152 5.908 2.5 8-4.313 2.474-3.98 3.974 1 4.5a4.934 4.934 0 0 1-3 .5c-2.995.206-5.662-.46-8-2 .876.131 1.543-.202 2-1a114.74 114.74 0 0 1-17-11.5 3.647 3.647 0 0 0 1-1.5c-3.029-6.399-3.696-13.065-2-20 2.335.778 4.335.112 6-2z" /><path style="opacity:1" fill="#c9c8c8" d="M662.5 689.5c-15.299 10.877-31.632 12.877-49 6 .949-.652 2.115-.986 3.5-1 2.402.185 4.569.685 6.5 1.5a70.87 70.87 0 0 1-3-7.5h6a8.43 8.43 0 0 0 .5 4 12.795 12.795 0 0 1 3-6 4.457 4.457 0 0 0 1.5 2 9.86 9.86 0 0 0 1-6h4c-.231-3.285 1.103-5.785 4-7.5-1.472-3.552-.138-5.218 4-5a2.428 2.428 0 0 0-2-.5c14.243-3.072 24.076-11.405 29.5-25a102.227 102.227 0 0 1 4-15c6.082 22.559 1.582 42.559-13.5 60z" /><path style="opacity:1" fill="#878686" d="M829.5 653.5c-1.361 6.229-.194 6.562 3.5 1l.5 4c-.796 2.927-.796 5.76 0 8.5a67.796 67.796 0 0 0-3 9.5c.011 1.545.344 2.878 1 4-6.9 10.613-16.566 16.946-29 19-5.858.322-11.525-.011-17-1a4.934 4.934 0 0 0 3-.5c-4.98-.526-5.313-2.026-1-4.5-2.652-2.092-3.486-4.758-2.5-8 2.085-1.582 3.585-3.582 4.5-6a9.108 9.108 0 0 1 5-1c.273-1.951-.393-3.451-2-4.5 5.029-.572 9.363-1.572 13-3l1-1a4.934 4.934 0 0 0-3-.5c10.535-2.269 19.201-7.602 26-16z" /><path style="opacity:1" fill="#aeacad" d="M420.5 582.5a914.787 914.787 0 0 0 9.5 54c2.229 7.841 6.396 14.174 12.5 19-.172.992.162 1.658 1 2 12.414 10.799 26.747 14.465 43 11-1.109.79-2.442 1.29-4 1.5 3.394.752 6.727.585 10-.5a15.69 15.69 0 0 1 4 2 27.07 27.07 0 0 0-2 4.5 16.994 16.994 0 0 1 2 6.5h4c-.032 2.576.635 4.909 2 7a208.311 208.311 0 0 1-5 4.5c-4.947 2.308-9.947 4.141-15 5.5-23.779 1.947-41.446-7.387-53-28 1.068-.934 2.401-1.268 4-1a8.43 8.43 0 0 0 .5 4c8.887 12.256 20.72 19.423 35.5 21.5l-1-1c2.279-.406 3.613-1.739 4-4a113.015 113.015 0 0 0-11.5-17.5 4.934 4.934 0 0 1-.5-3c-4.259-1.147-8.259-2.981-12-5.5-4.293-4.144-8.96-7.644-14-10.5.262-1.478-.071-2.811-1-4-2.952 1.844-4.785 4.51-5.5 8-.654-1.196-1.154-1.196-1.5 0 2.092 2.289 2.426 4.789 1 7.5 2.227.704 2.56 1.871 1 3.5-6.137-11.184-10.137-23.184-12-36a1055.058 1055.058 0 0 0-6-36c-.236-2.726.597-5.059 2.5-7 2.301-3.006 4.801-5.672 7.5-8z" /><path style="opacity:1" fill="#646464" d="M421.5 673.5a125.788 125.788 0 0 0 15 21 205.01 205.01 0 0 1-52 8c2.805-.819 5.805-1.319 9-1.5-1-1.667-2.333-3-4-4 7.194-6.175 15.194-11.175 24-15a35.063 35.063 0 0 1 7.5-6.5 2.428 2.428 0 0 0 .5-2z" /><path style="opacity:1" fill="#5e5e5e" d="M139.5 684.5c-20.607 10.526-42.607 16.192-66 17-1.449-1.664-3.449-2.498-6-2.5 2.195-4.6 5.862-6.933 11-7 3.458-4.232 7.792-7.232 13-9 4.362-5.464 9.362-9.964 15-13.5.617-.111 1.117-.444 1.5-1 .839 1.124 2.006 1.791 3.5 2a15.39 15.39 0 0 0 6-3c.886.825 1.219 1.825 1 3h6v4h4v3c2.747-.313 5.414.02 8 1 .629 2.241 1.629 4.241 3 6z" /><path style="opacity:1" fill="#2c2829" d="M312.5 689.5a970.02 970.02 0 0 0 60 1v4h3c-10.267 3.589-20.934 5.922-32 7 1.189.929 2.522 1.262 4 1 .221 1.235.888 2.235 2 3l-2.5 1a290.968 290.968 0 0 0-42.5 0 820.391 820.391 0 0 1-17.5-4 36.362 36.362 0 0 0-9.5 3c-3.14-.589-6.14-1.256-9-2 10.751-.418 20.751-3.251 30-8.5 5.732.559 10.398-1.274 14-5.5z" /><path style="opacity:1" fill="#7a7979" d="M421.5 671.5v2a2.428 2.428 0 0 1-.5 2 35.063 35.063 0 0 0-7.5 6.5c-8.806 3.825-16.806 8.825-24 15 1.667 1 3 2.333 4 4-3.195.181-6.195.681-9 1.5h-37c-1.478.262-2.811-.071-4-1 11.066-1.078 21.733-3.411 32-7a123.3 123.3 0 0 0 24-9.5 417.893 417.893 0 0 1 22-13.5z" /><path style="opacity:1" fill="#1b191a" d="M416.5 633.5c1.863 12.816 5.863 24.816 12 36-.172.992.162 1.658 1 2 11.554 20.613 29.221 29.947 53 28 2.331-.002 4.331.831 6 2.5-.498 1.158-1.331 1.991-2.5 2.5-8.391 1.978-16.891 2.478-25.5 1.5a99.341 99.341 0 0 0-20-6.5c-19.009 6.629-38.342 8.129-58 4.5.916-.278 1.582-.778 2-1.5a205.01 205.01 0 0 0 52-8 125.788 125.788 0 0 1-15-21v-2c-2.188-6-4.188-12-6-18-1.767-6.475-2.767-13.142-3-20h4z" /><path style="opacity:1" fill="#211e1e" d="M407.5 590.5a24.614 24.614 0 0 1 3 7 1055.058 1055.058 0 0 1 6 36h-4c.233 6.858 1.233 13.525 3 20-.709.904-1.709 1.237-3 1v-12h-4v4h-4v8h-8v4h-4v4h-4v8h-8v8h-16v-20h-4v4h-8v8h-4v4h-4v4h-8v4h-4v-4c-5.454.225-9.454 2.725-12 7.5-3.099.387-5.766 1.554-8 3.5-3.602 4.226-8.268 6.059-14 5.5-9.249 5.249-19.249 8.082-30 8.5a27.085 27.085 0 0 0-11 3c-.929 1.189-1.262 2.522-1 4h4c-.262-1.478.071-2.811 1-4 1.583 2.49 2.583 5.157 3 8a444.083 444.083 0 0 0-59 2l-2-2c-2.023 1.673-4.356 2.34-7 2v-4h-32v3a217.288 217.288 0 0 0-27 3c-2.871-.118-5.538-.784-8-2-1.509 2.415-3.176 2.581-5 .5l-8-.5c-3.09.022-5.757.688-8 2h-10c-.667-5.333-1.333-5.333-2 0a84.9 84.9 0 0 1-13-.5c-.837-1.011-1.17-2.178-1-3.5a378.618 378.618 0 0 0-38-2v-6h-14v-4c14.353.203 28.686-.13 43-1 23.393-.808 45.393-6.474 66-17 10.34-4.163 19.674-9.83 28-17a229.41 229.41 0 0 0 20-16c.767.672 1.434 1.505 2 2.5l-16 16a37.138 37.138 0 0 0-9 7.5 81.524 81.524 0 0 1-11 5l-2 4a3.647 3.647 0 0 1-1.5-1 47.276 47.276 0 0 1-9.5 6.5 592.692 592.692 0 0 1-32 11.5l4 3a131.629 131.629 0 0 0 22 4l2-8h4v4c6.692-.165 13.359.168 20 1l8-2a79.066 79.066 0 0 0 10 2l18-1.5-6-1 14-1c-7.085-.149-13.419-.649-19-1.5a469.375 469.375 0 0 0 77-4c36.288-6.811 67.955-22.644 95-47.5a454.345 454.345 0 0 0 50-60.5z" /><path style="opacity:1" fill="#262222" d="M517.5 667.5a4.934 4.934 0 0 0 .5 3l1-1c.198 3.078-.635 5.912-2.5 8.5 7.993.5 15.993.666 24 .5v6a573.53 573.53 0 0 0 47 2 73.314 73.314 0 0 1 1 12 72.367 72.367 0 0 1 12 .5c2.027 1.879 4.36 3.046 7 3.5a61.39 61.39 0 0 0 13 3c-1.983 2.616-2.983 5.616-3 9 14.897.283 29.897.95 45 2v-4c10.053-.177 20.053.49 30 2a73.926 73.926 0 0 0 12-2v4a911.687 911.687 0 0 1 60 6v-4h24v32h8v16c3-.333 4.333 1 4 4h-4v12h16v16h-4c.262 1.478-.071 2.811-1 4-1.231-1.151-1.231-2.317 0-3.5a4.934 4.934 0 0 0-3-.5v16h-8v-16h-4c-.667 5.333-1.333 5.333-2 0h-10v-32a84.902 84.902 0 0 0-13 .5c.837 1.011 1.17 2.178 1 3.5h-4v-27h-16v7h-16v8h-16v8h-16v64h8a64.873 64.873 0 0 0 1 16c1.614-7.898 2.614-7.898 3 0h28v16h-8v8h-32v-8h-16v-40h-16v-8h8v-16h-8v-4a9.86 9.86 0 0 1-6-1 35.519 35.519 0 0 1 14-3v-8h8v-8h-32v8h-16v-16a36.875 36.875 0 0 0-12 1c-2.49 1.583-5.157 2.583-8 3v4h-8v4h-20v-3h-14a29.753 29.753 0 0 0-2 7h-16v8h-16v4h-12v4c-1.322.17-2.489-.163-3.5-1a24.935 24.935 0 0 1-.5-7h-64v4h-16v-4h-16v8h-16v-8c-16.009 0-32.009.334-48 1v7h-8v-8h-8v-4h-16v-4h-16v4h-6v-4h-6v-4h-52v-4h-32v-8h-16v8h-16v-4h-6a38.469 38.469 0 0 1-2-12h-24v-8h-20c-.667 5.333-1.333 5.333-2 0h-10v-16h-8v-8h-8v-8c2.243-1.312 4.91-1.978 8-2l8 .5c1.824 2.081 3.491 1.915 5-.5 2.462 1.216 5.129 1.882 8 2a217.288 217.288 0 0 1 27-3v-3h32v4c2.644.34 4.977-.327 7-2l2 2a444.083 444.083 0 0 1 59-2c-.417-2.843-1.417-5.51-3-8-.929 1.189-1.262 2.522-1 4h-4c-.262-1.478.071-2.811 1-4a27.085 27.085 0 0 1 11-3c2.86.744 5.86 1.411 9 2a36.362 36.362 0 0 1 9.5-3 820.391 820.391 0 0 0 17.5 4 290.968 290.968 0 0 1 42.5 0l2.5-1c-1.112-.765-1.779-1.765-2-3h37c-.418.722-1.084 1.222-2 1.5 19.658 3.629 38.991 2.129 58-4.5a99.341 99.341 0 0 1 20 6.5c8.609.978 17.109.478 25.5-1.5 1.169-.509 2.002-1.342 2.5-2.5-1.669-1.669-3.669-2.502-6-2.5 5.053-1.359 10.053-3.192 15-5.5a208.311 208.311 0 0 0 5-4.5c7.339-5.684 12.339-13.017 15-22z" /><path style="opacity:1" fill="#2c2828" d="M316.5 712.5a4099.133 4099.133 0 0 0 134 2c25.683-.014 51.349-.347 77-1a112.234 112.234 0 0 0 29 1.5l-4-1a55.582 55.582 0 0 0 9-1.5c4.234 1.641 8.734 1.974 13.5 1a306.903 306.903 0 0 0 33.5 2.5c10.129 4.273 20.629 5.773 31.5 4.5 2.879-.451 4.712.715 5.5 3.5 2.31.497 4.643.663 7 .5v18h-16v4h-12v4h-4v4h-4v4h-44v4a68.159 68.159 0 0 0-16 3 144.841 144.841 0 0 1-24 1v4h-24v4c-29.013.756-58.013 1.09-87 1l-18-2a264.697 264.697 0 0 1-39 0v-3h-28v-4h-36v-4h-8v-3a407.946 407.946 0 0 0-18-1v4h-10v-4h-12v-4h-4v-4h-12v-4h-6v4h-10v-4c-2.222.322-4.056-.345-5.5-2a4.457 4.457 0 0 1-1.5 2c-1.558-5.194-2.558-5.194-3 0h-6v-4h-4v-4h-12v-12h-16a9.86 9.86 0 0 1 1-6c2.61.616 5.277.949 8 1 7.553-.058 14.887-1.058 22-3l2 2c5.049-2.798 10.383-3.465 16-2 3.033-1.844 6.366-2.844 10-3 1.544.29 2.877.956 4 2a1322.232 1322.232 0 0 0 81-5z" /><path style="opacity:1" fill="#322e2e" d="M292.5 715.5c77.334-.167 154.667 0 232 .5a824.1 824.1 0 0 0 92 5.5v5h-4v4h-4a85.378 85.378 0 0 1-3 10c-1.867-2.729-2.867-2.396-3 1a284.932 284.932 0 0 1-38 2v3a203.549 203.549 0 0 0-20 2l-16 6-32 5a134.081 134.081 0 0 0-20-1v3a38.133 38.133 0 0 0-12 2 112.31 112.31 0 0 0-28 0 1569.516 1569.516 0 0 1-61-4 43.385 43.385 0 0 0-8 2 48.466 48.466 0 0 0-15-3v-3l-40-5v-3a68.967 68.967 0 0 1-18-2 40.445 40.445 0 0 1-10 2v-3c-1.992.172-3.658-.495-5-2-.929 1.189-1.262 2.522-1 4h-4v4h-6v-4h-4v-5a18.453 18.453 0 0 0-6 .5l4 1a30.334 30.334 0 0 1-10-.5v-4l-12-3c10.667-1.333 10.667-2.667 0-4-1.505-1.342-2.172-3.008-2-5-6.298.577-12.298-.423-18-3l8-1c3.2.101 6.2.768 9 2a22.725 22.725 0 0 1 7-3c16.027-1.012 32.027-2.012 48-3v-3z" /><path style="opacity:1" fill="#383434" d="M396.5 718.5c-9.339-.166-18.673 0-28 .5-2.865.183-5.531.683-8 1.5h-8a595.537 595.537 0 0 0-34 2 9.86 9.86 0 0 1-1 6l-2-2c-1.333 1-1.333 2 0 3 5.509 2.289 11.176 2.622 17 1v4c1.992-.172 3.658.495 5 2 1.785-1.163 3.785-1.83 6-2a140.235 140.235 0 0 1 16 4c2.669-.681 5.335-.348 8 1 .886.825 1.219 1.825 1 3 18.679-.151 37.345.182 56 1v3h52v-3c6.87.114 12.203 1.114 16 3v-3l8-1v-4a9.108 9.108 0 0 1 5 1 580.384 580.384 0 0 1 23-6c1.796-.641 3.296-1.641 4.5-3a3.943 3.943 0 0 0 2 1 38.892 38.892 0 0 1 9.5-2v-6a378.437 378.437 0 0 0-44-4.5c-29.998-.5-59.998-.667-90-.5 9.449-1.542 19.116-2.208 29-2 24.332.564 48.665 1.064 73 1.5a3308.848 3308.848 0 0 0 56 4.5v8a73.314 73.314 0 0 1-12 1l-2 6a103.273 103.273 0 0 1-14 2v3h-20v3c-3.525-.285-6.858.381-10 2a10.305 10.305 0 0 1-3-1 8067.787 8067.787 0 0 0-14 6l-2-2a1012.7 1012.7 0 0 0-27 5 112.31 112.31 0 0 0-28 0 580.52 580.52 0 0 1-48-4c-1.505-1.342-2.172-3.008-2-5-3.617-.017-6.95.983-10 3a36.875 36.875 0 0 1-12 1v-3a153.836 153.836 0 0 0-20-2v-3h-10c-.061-2.55-1.394-4.05-4-4.5a180.951 180.951 0 0 0-30-1.5v-4a57.95 57.95 0 0 1-14-4l-6-4c-2.472 1.492-5.139 2.158-8 2v-4c36.086-1.4 72.086-3.4 108-6 5.508.453 10.842 1.12 16 2z" /><path style="opacity:1" fill="#3d3a3a" d="M396.5 718.5h14c30.002-.167 60.002 0 90 .5a378.437 378.437 0 0 1 44 4.5v6c-3.24.268-6.406.934-9.5 2a3.943 3.943 0 0 1-2-1c-1.204 1.359-2.704 2.359-4.5 3a580.384 580.384 0 0 0-23 6 9.108 9.108 0 0 0-5-1v4l-8 1v3c-3.797-1.886-9.13-2.886-16-3v3h-52v-3a1078.996 1078.996 0 0 0-56-1c.219-1.175-.114-2.175-1-3-2.665-1.348-5.331-1.681-8-1a140.235 140.235 0 0 0-16-4c-2.215.17-4.215.837-6 2-1.342-1.505-3.008-2.172-5-2v-4c-5.824 1.622-11.491 1.289-17-1-1.333-1-1.333-2 0-3l2 2a9.86 9.86 0 0 0 1-6 595.537 595.537 0 0 1 34-2c-1.418 1.808-3.418 2.475-6 2a13.116 13.116 0 0 0 1 7c2.411 1.169 4.911 1.169 7.5 0a81.166 81.166 0 0 1 13.5 6l16 2c35.944.666 71.944.999 108 1-.172-1.992.495-3.658 2-5a405.214 405.214 0 0 1 16-3.5c1.473-.71 2.14-1.876 2-3.5a72.367 72.367 0 0 0 12-.5l-2-1a185.772 185.772 0 0 1-24-2.5 48.932 48.932 0 0 1-8 1 2227.567 2227.567 0 0 0-130-3c2.469-.817 5.135-1.317 8-1.5 9.327-.5 18.661-.666 28-.5z" /><path style="opacity:1" fill="#434142" d="M352.5 720.5h8c43.365-.265 86.699.735 130 3a48.932 48.932 0 0 0 8-1 185.772 185.772 0 0 0 24 2.5l2 1a72.367 72.367 0 0 1-12 .5c.14 1.624-.527 2.79-2 3.5a405.214 405.214 0 0 0-16 3.5c-1.505 1.342-2.172 3.008-2 5a5838.386 5838.386 0 0 1-108-1l-16-2a81.166 81.166 0 0 0-13.5-6c-2.589 1.169-5.089 1.169-7.5 0a13.116 13.116 0 0 1-1-7c2.582.475 4.582-.192 6-2z" /></svg>