<!DOCTYPE svg PUBLIC "-//W3C//DTD SVG 1.1//EN" "http://www.w3.org/Graphics/SVG/1.1/DTD/svg11.dtd"[]><svg xmlns="http://www.w3.org/2000/svg" version="1.1" width="160" height="160" style="shape-rendering:geometricPrecision; text-rendering:geometricPrecision; image-rendering:optimizeQuality; fill-rule:evenodd; clip-rule:evenodd" xmlns:xlink="http://www.w3.org/1999/xlink" viewBox="0 0 1024 1024"><g><path style="opacity:1" fill="#0b0a0a" d="M 952.5,949.5 C 950.725,952.211 948.391,954.211 945.5,955.5C 655.833,955.667 366.166,955.5 76.5,955C 75.4734,954.487 74.4734,953.987 73.5,953.5C 72.1667,951.5 70.5,949.833 68.5,948.5C 67.5016,658.873 67.1683,369.206 67.5,79.5C 68.69,77.1307 70.3567,75.1307 72.5,73.5C 78.098,71.3112 83.9313,70.3112 90,70.5C 369.886,71.6061 649.886,71.6061 930,70.5C 936.022,70.2284 941.855,71.0617 947.5,73C 950.106,74.9384 951.939,77.4384 953,80.5C 953.667,368.833 953.667,657.167 953,945.5C 951.702,946.946 951.535,948.279 952.5,949.5 Z" /></g><g><path style="opacity:1" fill="#020201" d="M 78.5,69.5 C 367.861,69.169 657.194,69.5023 946.5,70.5C 948.475,72.137 950.475,73.8036 952.5,75.5C 953.787,77.6365 954.621,79.9699 955,82.5C 955.5,369.5 955.667,656.5 955.5,943.5C 954.799,945.588 953.799,947.588 952.5,949.5C 951.535,948.279 951.702,946.946 953,945.5C 953.667,657.167 953.667,368.833 953,80.5C 951.939,77.4384 950.106,74.9384 947.5,73C 941.855,71.0617 936.022,70.2284 930,70.5C 649.886,71.6061 369.886,71.6061 90,70.5C 83.9313,70.3112 78.098,71.3112 72.5,73.5C 74.249,71.744 76.249,70.4106 78.5,69.5 Z" /></g><g><path style="opacity:1" fill="#fdfdfc" d="M 956.5,941.5 C 956.657,942.873 956.49,944.207 956,945.5C 955.536,944.906 955.369,944.239 955.5,943.5C 955.667,656.5 955.5,369.5 955,82.5C 954.621,79.9699 953.787,77.6365 952.5,75.5C 952.81,74.2617 953.31,74.2617 954,75.5C 954.667,76.8333 955.333,78.1667 956,79.5C 956.5,366.833 956.667,654.166 956.5,941.5 Z" /></g><g><path style="opacity:1" fill="#d9d8d7" d="M 67.5,79.5 C 67.1683,369.206 67.5016,658.873 68.5,948.5C 67.0337,947.653 66.2004,946.32 66,944.5C 65.5,657.167 65.3333,369.834 65.5,82.5C 65.8642,80.555 66.5308,79.555 67.5,79.5 Z" /></g><g><path style="opacity:1" fill="#020202" d="M 82.5,85.5 C 368.167,85.3333 653.834,85.5 939.5,86C 940.666,370.097 940.833,654.264 940,938.5C 901,939.167 862,939.833 823,940.5C 576.297,940.118 329.797,939.784 83.5,939.5C 82.5,654.834 82.1667,370.167 82.5,85.5 Z" /></g><g><path style="opacity:1" fill="#eceae9" d="M 83.5,86.5 C 368.5,86.5 653.5,86.5 938.5,86.5C 938.5,370.5 938.5,654.5 938.5,938.5C 653.5,938.5 368.5,938.5 83.5,938.5C 83.5,654.5 83.5,370.5 83.5,86.5 Z" /></g><g><path style="opacity:1" fill="#eeebe7" d="M -0.5,-0.5 C 340.833,-0.5 682.167,-0.5 1023.5,-0.5C 1023.5,162.833 1023.5,326.167 1023.5,489.5C 1022.08,489.291 1020.74,488.791 1019.5,488C 1020.7,487.346 1020.7,486.846 1019.5,486.5C 1018.83,486.833 1018.17,487.167 1017.5,487.5C 1016.16,485.995 1014.49,485.328 1012.5,485.5C 1012.72,486.675 1012.39,487.675 1011.5,488.5C 1011.89,487.282 1011.22,486.448 1009.5,486C 1010.17,485.667 1010.83,485.333 1011.5,485C 1010.1,483.731 1008.43,483.231 1006.5,483.5C 1006.64,481.876 1005.97,480.71 1004.5,480C 1005.5,479.167 1006.5,478.333 1007.5,477.5C 1005.49,476.907 1003.16,476.074 1000.5,475C 1001.83,474.667 1003.17,474.333 1004.5,474C 1001.83,473 1001.83,472 1004.5,471C 1000.79,469.823 997.452,468.657 994.5,467.5C 994.167,467.833 993.833,468.167 993.5,468.5C 994.167,469.167 994.833,469.833 995.5,470.5C 994.289,471.72 994.289,472.887 995.5,474C 994.448,475.119 993.281,475.619 992,475.5C 991.696,477.441 990.863,479.107 989.5,480.5C 992.127,482.249 992.127,483.916 989.5,485.5C 987.587,484.627 985.753,483.627 984,482.5C 983.667,483.167 983.333,483.833 983,484.5C 977.997,480.72 972.497,477.886 966.5,476C 966.957,475.586 967.291,475.086 967.5,474.5C 966.013,470.784 963.68,469.951 960.5,472C 962.271,472.535 962.604,473.369 961.5,474.5C 960.201,473.91 959.368,472.91 959,471.5C 958.667,471.833 958.333,472.167 958,472.5C 957.833,629.001 957.333,785.334 956.5,941.5C 956.667,654.166 956.5,366.833 956,79.5C 955.333,78.1667 954.667,76.8333 954,75.5C 953.31,74.2617 952.81,74.2617 952.5,75.5C 950.475,73.8036 948.475,72.137 946.5,70.5C 946.938,70.5654 947.272,70.3988 947.5,70C 946.167,69.3333 944.833,68.6667 943.5,68C 655.5,67.3333 367.5,67.3333 79.5,68C 78.8333,68.3333 78.1667,68.6667 77.5,69C 77.7284,69.3988 78.0618,69.5654 78.5,69.5C 76.249,70.4106 74.249,71.744 72.5,73.5C 70.3567,75.1307 68.69,77.1307 67.5,79.5C 66.5308,79.555 65.8642,80.555 65.5,82.5C 64.8333,202.334 64.1667,322.334 63.5,442.5C 61.2777,441.222 58.9443,440.222 56.5,439.5C 53.0473,441.735 52.714,440.901 55.5,437C 55.3552,436.228 55.0219,435.561 54.5,435C 56.1667,434.667 57.8333,434.333 59.5,434C 57.5,433 55.5,432 53.5,431C 54.4506,430.282 54.6172,429.449 54,428.5C 51.2702,428.845 48.4369,429.011 45.5,429C 47.8361,430.27 47.8361,431.77 45.5,433.5C 43.9222,432.36 42.2555,431.86 40.5,432C 40.7259,434.269 41.0592,436.769 41.5,439.5C 36.8232,439.393 32.4898,438.226 28.5,436C 28.8333,435.667 29.1667,435.333 29.5,435C 27.7922,433.938 27.1255,432.771 27.5,431.5C 25.5466,435.412 23.7132,435.412 22,431.5C 21.6667,432.167 21.3333,432.833 21,433.5C 20.5,432.333 19.6667,431.5 18.5,431C 19.3402,429.334 18.8402,429.167 17,430.5C 15.0073,428.594 15.5073,427.427 18.5,427C 17.552,426.517 16.552,426.351 15.5,426.5C 15.5,425.167 15.5,423.833 15.5,422.5C 12.6515,423.657 10.1515,423.324 8,421.5C 7.75803,423.138 6.92469,424.638 5.5,426C 8.02735,430.35 7.52735,430.516 4,426.5C -0.601117,428.004 -0.43445,429.338 4.5,430.5C 4.33333,430.833 4.16667,431.167 4,431.5C 2.64387,430.62 1.14387,430.286 -0.5,430.5C -0.5,286.833 -0.5,143.167 -0.5,-0.5 Z" /></g><g><path style="opacity:1" fill="#e3ded8" d="M 937.5,89.5 C 653.833,89.5 370.167,89.5 86.5,89.5C 86.8308,112.673 86.4975,135.673 85.5,158.5C 85.5,135.167 85.5,111.833 85.5,88.5C 369.667,88.1669 653.667,88.5002 937.5,89.5 Z" /></g><g><path style="opacity:1" fill="#f2f1ef" d="M 946.5,70.5 C 657.194,69.5023 367.861,69.169 78.5,69.5C 78.0618,69.5654 77.7284,69.3988 77.5,69C 78.1667,68.6667 78.8333,68.3333 79.5,68C 367.5,67.3333 655.5,67.3333 943.5,68C 944.833,68.6667 946.167,69.3333 947.5,70C 947.272,70.3988 946.938,70.5654 946.5,70.5 Z" /></g><g><path style="opacity:1" fill="#edeae6" d="M 937.5,89.5 C 937.5,210.167 937.5,330.833 937.5,451.5C 935.473,451.338 933.473,451.505 931.5,452C 929.743,454.039 927.576,455.539 925,456.5C 922.385,455.689 919.552,455.689 916.5,456.5C 916.264,455.753 915.93,454.92 915.5,454C 912.357,453.441 909.357,452.774 906.5,452C 909.736,454.868 913.236,457.368 917,459.5C 918.065,457.604 918.898,457.437 919.5,459C 919.095,459.945 918.428,460.612 917.5,461C 920.464,461.84 920.797,462.84 918.5,464C 919.5,464.833 920.5,465.667 921.5,466.5C 919.93,466.694 918.43,466.694 917,466.5C 915.543,464.342 913.71,462.509 911.5,461C 911.833,460.667 912.167,460.333 912.5,460C 910.754,459.529 909.087,458.862 907.5,458C 907.957,457.586 908.291,457.086 908.5,456.5C 906.833,455.5 905.5,454.167 904.5,452.5C 903.522,452.977 902.689,453.643 902,454.5C 900.559,453.13 898.892,452.13 897,451.5C 895.333,451.833 893.667,452.167 892,452.5C 890.54,449.79 888.54,449.124 886,450.5C 883.887,448.729 884.053,447.229 886.5,446C 885.833,445.333 885.167,444.667 884.5,444C 886.653,442.372 888.987,441.039 891.5,440C 888.044,439.82 884.711,439.153 881.5,438C 880.594,436.301 880.261,434.467 880.5,432.5C 879.127,432.657 877.793,432.49 876.5,432C 877.451,431.282 877.617,430.449 877,429.5C 875.295,428.237 873.628,427.903 872,428.5C 871.492,426.096 870.325,425.429 868.5,426.5C 867.571,425.311 867.238,423.978 867.5,422.5C 866.022,422.762 864.689,422.429 863.5,421.5C 864.698,421.06 865.865,420.727 867,420.5C 869.614,423.74 872.781,425.073 876.5,424.5C 875.726,423.289 874.893,423.289 874,424.5C 873.517,423.552 873.351,422.552 873.5,421.5C 877.234,421.556 880.734,421.889 884,422.5C 884.333,421.5 884.667,420.5 885,419.5C 887.801,422.967 891.301,423.967 895.5,422.5C 893.876,421.131 893.376,419.464 894,417.5C 895.085,419.657 896.251,419.824 897.5,418C 893.191,415.518 888.858,413.185 884.5,411C 885.5,410.5 886.5,410 887.5,409.5C 888.96,411.422 890.627,412.089 892.5,411.5C 893.646,410.855 894.646,410.022 895.5,409C 892.749,408.892 890.082,408.059 887.5,406.5C 891.35,404.041 890.684,402.874 885.5,403C 884.5,402 883.5,401 882.5,400C 883.337,398.989 883.67,397.822 883.5,396.5C 881.774,396.185 880.107,396.019 878.5,396C 882.036,398.633 881.369,400.633 876.5,402C 877.536,403.617 878.703,403.784 880,402.5C 880.601,405.206 882.101,407.206 884.5,408.5C 881.414,410.042 878.747,409.542 876.5,407C 879.742,406.717 880.076,405.883 877.5,404.5C 874.807,406.996 873.141,406.33 872.5,402.5C 871.022,402.762 869.689,402.429 868.5,401.5C 869.325,400.614 870.325,400.281 871.5,400.5C 871.649,399.448 871.483,398.448 871,397.5C 867.542,398.435 864.042,398.602 860.5,398C 861.672,398.419 862.672,399.085 863.5,400C 860.795,399.987 858.295,399.154 856,397.5C 855.5,397.667 855,397.833 854.5,398C 856.615,398.424 857.448,399.591 857,401.5C 854.796,399.983 852.462,398.65 850,397.5C 849.626,396.584 849.126,395.75 848.5,395C 849.667,394.5 850.5,393.667 851,392.5C 852.973,393.64 854.807,394.973 856.5,396.5C 860.459,395.598 864.459,395.598 868.5,396.5C 868.657,395.127 868.49,393.793 868,392.5C 867.043,394.709 865.876,394.543 864.5,392C 867.191,392.054 869.024,390.887 870,388.5C 870.667,389.833 871.333,389.833 872,388.5C 872.034,390.18 872.201,391.68 872.5,393C 876.803,395.447 880.47,394.78 883.5,391C 882.5,390.167 881.5,389.333 880.5,388.5C 880.833,388.167 881.167,387.833 881.5,387.5C 883.179,388.782 885.013,389.782 887,390.5C 887.5,390 888,389.5 888.5,389C 886.253,387.227 884.086,385.394 882,383.5C 878.61,387.078 874.943,387.411 871,384.5C 867.526,385.928 867.026,385.428 869.5,383C 867.567,382.749 865.734,382.249 864,381.5C 862.852,386.303 861.686,385.97 860.5,380.5C 856.392,378.469 853.225,379.469 851,383.5C 848.967,381.65 848.967,380.984 851,381.5C 851.374,380.584 851.874,379.75 852.5,379C 850.193,378.663 848.36,379.496 847,381.5C 845.291,378.884 843.124,377.884 840.5,378.5C 839.167,379.167 839.167,379.833 840.5,380.5C 841.609,379.41 842.609,379.41 843.5,380.5C 842.975,381.192 842.308,381.692 841.5,382C 846.55,382.228 849.55,384.728 850.5,389.5C 847.72,389.945 845.053,389.945 842.5,389.5C 839.953,392.261 837.286,391.928 834.5,388.5C 829.823,387.425 828.823,387.425 831.5,388.5C 831.34,390.199 831.506,391.866 832,393.5C 832.333,392.833 832.667,392.167 833,391.5C 833.667,392.833 834.333,392.833 835,391.5C 836.075,393.83 837.575,395.163 839.5,395.5C 837.276,396.78 835.276,396.447 833.5,394.5C 831.298,395.78 829.132,395.78 827,394.5C 826.517,395.448 826.351,396.448 826.5,397.5C 832.93,397.167 838.597,397.5 843.5,398.5C 830.167,398.5 816.833,398.5 803.5,398.5C 800.652,429.841 783.652,443.008 752.5,438C 737.964,434.467 728.131,425.634 723,411.5C 716.93,391.266 714.93,370.6 717,349.5C 717.873,336.006 721.54,323.339 728,311.5C 739.472,296.448 754.639,290.615 773.5,294C 786.699,295.842 795.532,303.009 800,315.5C 802.063,321.916 803.563,328.416 804.5,335C 817.153,335.899 829.82,336.399 842.5,336.5C 843.485,311.269 834.819,290.102 816.5,273C 800.71,261.684 783.043,256.517 763.5,257.5C 718.796,258.027 690.963,280.027 680,323.5C 672.971,357.26 674.471,390.593 684.5,423.5C 684.631,424.239 684.464,424.906 684,425.5C 681.934,420.637 680.268,415.637 679,410.5C 678.085,411.328 677.419,412.328 677,413.5C 674.448,413.869 671.781,413.869 669,413.5C 669,416.167 669,418.833 669,421.5C 668.25,422.126 667.416,422.626 666.5,423C 671.144,429.166 670.477,430.333 664.5,426.5C 662.519,427.105 662.185,428.105 663.5,429.5C 662.667,429.833 661.833,430.167 661,430.5C 657.726,428.102 654.559,428.102 651.5,430.5C 650.548,428.955 650.215,427.288 650.5,425.5C 642.008,426.345 641.674,427.845 649.5,430C 648.289,430.893 648.289,431.726 649.5,432.5C 650.82,434.27 652.32,434.603 654,433.5C 657.459,436.23 657.126,436.896 653,435.5C 650.176,436.833 650.343,438.333 653.5,440C 652.975,440.692 652.308,441.192 651.5,441.5C 650.549,440.674 649.549,440.508 648.5,441C 648.063,443.217 648.063,445.551 648.5,448C 646.671,448.273 645.171,449.107 644,450.5C 643.213,449.289 642.546,448.289 642,447.5C 640.607,448.615 639.107,449.115 637.5,449C 637.167,448.667 636.833,448.333 636.5,448C 639.001,446.582 638.668,445.582 635.5,445C 639.825,443.355 640.158,441.855 636.5,440.5C 636.646,442.942 635.813,443.609 634,442.5C 631.844,445.538 629.511,445.872 627,443.5C 625.534,445.325 623.701,445.825 621.5,445C 622.167,444.667 622.833,444.333 623.5,444C 622.54,442.581 621.707,441.081 621,439.5C 619.175,438.897 617.341,438.23 615.5,437.5C 614.266,435.448 612.6,433.781 610.5,432.5C 606.802,435.328 606.135,434.995 608.5,431.5C 607.078,430.453 605.578,430.453 604,431.5C 602.346,429.737 600.513,429.404 598.5,430.5C 597.833,429.833 597.167,429.167 596.5,428.5C 596.167,429.167 595.833,429.833 595.5,430.5C 591.728,429.565 590.728,427.898 592.5,425.5C 594.621,426.35 596.788,427.35 599,428.5C 604.355,427.061 604.522,425.728 599.5,424.5C 598.914,424.709 598.414,425.043 598,425.5C 595.547,423.965 593.047,422.298 590.5,420.5C 589.707,421.355 590.04,422.189 591.5,423C 588.486,423.128 585.486,423.128 582.5,423C 585.167,423.667 585.167,424.333 582.5,425C 584.207,425.195 585.874,425.195 587.5,425C 590.239,429.825 589.739,430.325 586,426.5C 583.745,427.042 581.912,428.209 580.5,430C 583.028,430.669 583.028,431.502 580.5,432.5C 578.762,428.457 576.095,427.623 572.5,430C 574.847,430.712 576.847,431.879 578.5,433.5C 576.993,434.739 575.826,434.405 575,432.5C 571.818,433.906 568.818,435.572 566,437.5C 565.667,435.953 566.167,434.62 567.5,433.5C 567.023,432.522 566.357,431.689 565.5,431C 565.833,430.667 566.167,430.333 566.5,430C 564.833,429.667 563.167,429.333 561.5,429C 562.517,427.951 562.684,426.784 562,425.5C 559.984,426.955 559.151,428.955 559.5,431.5C 561.842,431.504 563.842,432.337 565.5,434C 563.251,434.863 561.418,434.363 560,432.5C 559.28,434.112 559.446,435.612 560.5,437C 560,437.5 559.5,438 559,438.5C 558.667,431.5 558.333,424.5 558,417.5C 557.826,435.074 557.326,452.574 556.5,470C 542.994,470.827 529.66,470.66 516.5,469.5C 516.167,399.998 516.501,330.665 517.5,261.5C 541.5,260.833 565.5,260.167 589.5,259.5C 569.337,258.668 549.004,258.168 528.5,258C 527.874,257.25 527.374,256.416 527,255.5C 525.009,257.592 523.009,257.258 521,254.5C 520.667,255.167 520.333,255.833 520,256.5C 519.333,255.167 518.667,255.167 518,256.5C 515.641,253.876 515.975,253.209 519,254.5C 519.677,252.311 520.844,251.978 522.5,253.5C 523.517,250.972 524.684,250.972 526,253.5C 526.483,252.552 526.649,251.552 526.5,250.5C 527.5,250.5 528.5,250.5 529.5,250.5C 529.657,249.127 529.49,247.793 529,246.5C 527.512,247.196 526.012,246.862 524.5,245.5C 525.025,244.808 525.692,244.308 526.5,244C 525.027,243.29 524.36,242.124 524.5,240.5C 526.199,240.66 527.866,240.494 529.5,240C 529.043,239.586 528.709,239.086 528.5,238.5C 536.081,237.316 536.414,238.482 529.5,242C 530.593,243.365 531.926,243.699 533.5,243C 533.167,242.667 532.833,242.333 532.5,242C 534.359,241.316 536.026,240.316 537.5,239C 536.027,238.29 535.36,237.124 535.5,235.5C 533.897,235.688 532.563,235.188 531.5,234C 532.784,233.316 533.951,233.483 535,234.5C 535.688,233.668 535.521,233.002 534.5,232.5C 532.265,231.248 529.931,230.748 527.5,231C 530.965,231.934 531.298,233.434 528.5,235.5C 527.481,234.313 526.314,233.313 525,232.5C 524.689,233.742 525.189,234.742 526.5,235.5C 526.167,235.833 525.833,236.167 525.5,236.5C 524.167,235.167 522.833,233.833 521.5,232.5C 519.73,233.82 519.397,235.32 520.5,237C 517.725,237.778 515.225,237.278 513,235.5C 512.5,235.833 512,236.167 511.5,236.5C 515.481,237.494 515.481,238.494 511.5,239.5C 510.833,239.167 510.167,238.833 509.5,238.5C 507.151,239.557 505.151,241.057 503.5,243C 504.449,243.617 505.282,243.451 506,242.5C 506.684,243.784 506.517,244.951 505.5,246C 502.745,248.425 499.745,249.425 496.5,249C 497.009,251.57 498.009,253.903 499.5,256C 495.485,258.107 495.818,258.773 500.5,258C 501,257.5 501.5,257 502,256.5C 503.73,256.509 505.563,256.842 507.5,257.5C 506.833,258.167 506.167,258.833 505.5,259.5C 507.819,260.987 509.985,262.654 512,264.5C 512.777,267.429 512.61,270.263 511.5,273C 512.624,273.249 513.624,273.749 514.5,274.5C 514.333,274.833 514.167,275.167 514,275.5C 510.657,275.352 508.657,273.685 508,270.5C 507.25,269.874 506.416,269.374 505.5,269C 507.5,268.333 509.5,267.667 511.5,267C 509.9,265.185 507.9,264.018 505.5,263.5C 504.169,264.592 503.336,265.926 503,267.5C 502.667,266.833 502.333,266.167 502,265.5C 501.5,266.667 500.667,267.5 499.5,268C 500.76,269.814 500.76,271.647 499.5,273.5C 498.304,273.154 498.304,272.654 499.5,272C 497.718,271.186 496.218,270.019 495,268.5C 494.682,270.061 493.849,271.228 492.5,272C 494.167,272.333 495.833,272.667 497.5,273C 496.54,274.419 495.707,275.919 495,277.5C 494.085,276.672 493.419,275.672 493,274.5C 491.026,274.647 489.026,274.981 487,275.5C 486.544,274.256 487.044,273.423 488.5,273C 486.812,270.175 485.979,267.009 486,263.5C 485.838,318.208 485.338,371.541 484.5,423.5C 484.667,370.166 484.5,316.832 484,263.5C 471.415,261.531 458.582,260.864 445.5,261.5C 445.667,313.834 445.5,366.168 445,418.5C 443.072,434.706 434.239,440.872 418.5,437C 414.942,435.108 412.442,432.275 411,428.5C 409.415,422.239 408.249,415.906 407.5,409.5C 395.85,410.269 384.183,410.602 372.5,410.5C 372.215,424.352 375.215,437.352 381.5,449.5C 380.504,449.586 379.671,449.252 379,448.5C 377.472,445.583 376.139,442.583 375,439.5C 373.589,441.65 372.755,443.984 372.5,446.5C 369.612,446.78 368.112,445.447 368,442.5C 367.667,443.167 367.333,443.833 367,444.5C 364.838,444.06 362.671,443.727 360.5,443.5C 359.261,445.007 359.595,446.174 361.5,447C 359.82,447.347 358.82,448.347 358.5,450C 359.422,453.522 360.422,457.022 361.5,460.5C 361.457,461.416 361.124,462.083 360.5,462.5C 340.678,395.545 321.011,328.545 301.5,261.5C 285.153,261.167 268.82,261.501 252.5,262.5C 238.829,309.179 225.162,355.846 211.5,402.5C 210.482,398.87 208.649,398.537 206,401.5C 205.667,401.167 205.333,400.833 205,400.5C 204.641,403.544 203.974,403.878 203,401.5C 199.146,401.49 195.313,401.823 191.5,402.5C 191.5,401.5 191.5,400.5 191.5,399.5C 188.538,399.883 187.538,398.883 188.5,396.5C 189.5,397.167 190.5,397.833 191.5,398.5C 192.532,396.96 193.865,396.46 195.5,397C 195.167,397.333 194.833,397.667 194.5,398C 197.058,400.321 199.725,400.654 202.5,399C 201.667,398.167 200.833,397.333 200,396.5C 196.801,397.236 196.635,396.403 199.5,394C 196.833,393 196.833,392 199.5,391C 198.549,390.282 198.383,389.449 199,388.5C 201.447,389.406 203.947,390.239 206.5,391C 205.289,391.893 205.289,392.726 206.5,393.5C 207.262,392.372 207.929,391.205 208.5,390C 207.151,389.228 206.318,388.061 206,386.5C 205.577,387.956 204.744,388.456 203.5,388C 203.833,387.667 204.167,387.333 204.5,387C 202.508,386.426 201.008,385.259 200,383.5C 199.275,385.158 198.108,385.658 196.5,385C 198.657,383.088 200.991,381.421 203.5,380C 200.993,377.515 199.493,378.015 199,381.5C 198.333,380.167 197.667,378.833 197,377.5C 196.683,379.301 196.016,379.634 195,378.5C 194.5,379 194,379.5 193.5,380C 196.621,383.941 195.955,385.108 191.5,383.5C 191.657,384.873 191.49,386.207 191,387.5C 190.385,385.884 189.385,384.551 188,383.5C 186.951,385.107 185.451,385.773 183.5,385.5C 183.02,380.347 180.353,378.514 175.5,380C 174.299,379.097 173.465,377.931 173,376.5C 173.046,378.313 172.88,379.979 172.5,381.5C 171.549,380.674 170.549,380.508 169.5,381C 168.167,381.667 168.167,382.333 169.5,383C 167.77,384.852 166.604,384.686 166,382.5C 165.667,383.167 165.333,383.833 165,384.5C 163.274,383.424 161.441,383.257 159.5,384C 168.16,385.253 168.494,387.087 160.5,389.5C 160.649,388.448 160.483,387.448 160,386.5C 159.577,387.956 158.744,388.456 157.5,388C 158.337,386.989 158.67,385.822 158.5,384.5C 156.328,385.801 153.995,386.801 151.5,387.5C 151.646,385.058 150.813,384.391 149,385.5C 147.951,383.893 146.451,383.227 144.5,383.5C 144.657,382.127 144.49,380.793 144,379.5C 143.667,379.833 143.333,380.167 143,380.5C 141.341,379.183 140.174,377.517 139.5,375.5C 138.277,374.386 136.944,374.219 135.5,375C 136.5,375.333 137.5,375.667 138.5,376C 137.483,377.049 137.316,378.216 138,379.5C 139.833,380.667 141.667,381.833 143.5,383C 141.833,383.333 140.167,383.667 138.5,384C 140.138,385.801 141.972,385.968 144,384.5C 148.672,385.89 148.505,386.557 143.5,386.5C 143.67,387.822 143.337,388.989 142.5,390C 144.158,391.83 146.158,393.164 148.5,394C 145.139,393.992 141.972,393.159 139,391.5C 135.961,393.073 133.461,392.407 131.5,389.5C 129.32,391.09 126.987,392.424 124.5,393.5C 127.109,394.76 126.943,395.76 124,396.5C 122.739,396.241 121.739,395.574 121,394.5C 118.519,395.022 116.186,395.022 114,394.5C 110.481,391.658 110.647,390.658 114.5,391.5C 115.932,391.267 116.432,390.6 116,389.5C 115.667,389.833 115.333,390.167 115,390.5C 112.219,388.46 109.219,386.793 106,385.5C 105.25,386.126 104.416,386.626 103.5,387C 105.402,387.199 106.902,388.033 108,389.5C 109.131,388.396 109.965,388.729 110.5,390.5C 109.624,391.251 108.624,391.751 107.5,392C 108.766,392.309 109.933,392.809 111,393.5C 112.601,398.315 115.434,401.315 119.5,402.5C 116.806,405.185 113.806,407.185 110.5,408.5C 109.106,408.379 107.772,408.046 106.5,407.5C 105.289,406.726 105.289,405.893 106.5,405C 103.947,404.239 101.447,403.406 99,402.5C 97.647,403.685 96.4803,405.019 95.5,406.5C 97.6114,407.848 99.4447,407.515 101,405.5C 101.507,406.996 101.007,408.163 99.5,409C 102.906,409.603 103.239,410.769 100.5,412.5C 99.0715,411.065 97.4048,410.065 95.5,409.5C 94.3527,409.818 93.5194,410.484 93,411.5C 91.8989,409.606 90.5655,408.939 89,409.5C 88.3076,410.025 87.8076,410.692 87.5,411.5C 89.0851,413.087 90.7518,413.92 92.5,414C 90.8333,414.833 89.1667,415.667 87.5,416.5C 86.8333,330.668 86.1667,245.001 85.5,159.5C 85.5,159.167 85.5,158.833 85.5,158.5C 86.4975,135.673 86.8308,112.673 86.5,89.5C 370.167,89.5 653.833,89.5 937.5,89.5 Z" /></g><g><path style="opacity:1" fill="#0a0a0a" d="M 843.5,398.5 C 842.646,421.591 833.98,441.091 817.5,457C 805.906,465.646 792.906,470.979 778.5,473C 755.862,476.482 734.529,472.816 714.5,462C 700.529,452.204 690.529,439.37 684.5,423.5C 674.471,390.593 672.971,357.26 680,323.5C 690.963,280.027 718.796,258.027 763.5,257.5C 783.043,256.517 800.71,261.684 816.5,273C 834.819,290.102 843.485,311.269 842.5,336.5C 829.82,336.399 817.153,335.899 804.5,335C 803.563,328.416 802.063,321.916 800,315.5C 795.532,303.009 786.699,295.842 773.5,294C 754.639,290.615 739.472,296.448 728,311.5C 721.54,323.339 717.873,336.006 717,349.5C 714.93,370.6 716.93,391.266 723,411.5C 728.131,425.634 737.964,434.467 752.5,438C 783.652,443.008 800.652,429.841 803.5,398.5C 816.833,398.5 830.167,398.5 843.5,398.5 Z" /></g><g><path style="opacity:1" fill="#fefefd" d="M 589.5,259.5 C 565.5,260.167 541.5,260.833 517.5,261.5C 516.501,330.665 516.167,399.998 516.5,469.5C 515.335,400.001 515.168,330.335 516,260.5C 540.425,259.506 564.925,259.172 589.5,259.5 Z" /></g><g><path style="opacity:1" fill="#0a0a0a" d="M 517.5,261.5 C 543.169,261.333 568.835,261.5 594.5,262C 624.401,265.576 643.567,281.743 652,310.5C 655.744,329.963 653.411,348.629 645,366.5C 634.037,384.095 618.203,394.595 597.5,398C 583.865,399.284 570.199,399.784 556.5,399.5C 556.667,422.502 556.5,445.502 556,468.5C 543.246,469.489 530.413,469.822 517.5,469.5C 517.5,400.167 517.5,330.833 517.5,261.5 Z" /></g><g><path style="opacity:1" fill="#edeae6" d="M 556.5,295.5 C 567.172,295.333 577.839,295.5 588.5,296C 602.899,299.066 611.066,307.899 613,322.5C 616.18,337.937 611.68,350.437 599.5,360C 595.768,362.133 591.768,363.466 587.5,364C 577.172,364.5 566.839,364.666 556.5,364.5C 556.5,341.5 556.5,318.5 556.5,295.5 Z" /></g><g><path style="opacity:1" fill="#ece8e4" d="M 85.5,159.5 C 86.1667,245.001 86.8333,330.668 87.5,416.5C 89.1667,415.667 90.8333,414.833 92.5,414C 90.7518,413.92 89.0851,413.087 87.5,411.5C 87.8076,410.692 88.3076,410.025 89,409.5C 90.5655,408.939 91.8989,409.606 93,411.5C 93.5194,410.484 94.3527,409.818 95.5,409.5C 97.4048,410.065 99.0715,411.065 100.5,412.5C 103.239,410.769 102.906,409.603 99.5,409C 101.007,408.163 101.507,406.996 101,405.5C 99.4447,407.515 97.6114,407.848 95.5,406.5C 96.4803,405.019 97.647,403.685 99,402.5C 101.447,403.406 103.947,404.239 106.5,405C 105.289,405.893 105.289,406.726 106.5,407.5C 107.772,408.046 109.106,408.379 110.5,408.5C 113.806,407.185 116.806,405.185 119.5,402.5C 115.434,401.315 112.601,398.315 111,393.5C 109.933,392.809 108.766,392.309 107.5,392C 108.624,391.751 109.624,391.251 110.5,390.5C 109.965,388.729 109.131,388.396 108,389.5C 106.902,388.033 105.402,387.199 103.5,387C 104.416,386.626 105.25,386.126 106,385.5C 109.219,386.793 112.219,388.46 115,390.5C 115.333,390.167 115.667,389.833 116,389.5C 116.432,390.6 115.932,391.267 114.5,391.5C 110.647,390.658 110.481,391.658 114,394.5C 116.186,395.022 118.519,395.022 121,394.5C 121.739,395.574 122.739,396.241 124,396.5C 126.943,395.76 127.109,394.76 124.5,393.5C 126.987,392.424 129.32,391.09 131.5,389.5C 133.461,392.407 135.961,393.073 139,391.5C 141.972,393.159 145.139,393.992 148.5,394C 146.158,393.164 144.158,391.83 142.5,390C 143.337,388.989 143.67,387.822 143.5,386.5C 148.505,386.557 148.672,385.89 144,384.5C 141.972,385.968 140.138,385.801 138.5,384C 140.167,383.667 141.833,383.333 143.5,383C 141.667,381.833 139.833,380.667 138,379.5C 137.316,378.216 137.483,377.049 138.5,376C 137.5,375.667 136.5,375.333 135.5,375C 136.944,374.219 138.277,374.386 139.5,375.5C 140.174,377.517 141.341,379.183 143,380.5C 143.333,380.167 143.667,379.833 144,379.5C 144.49,380.793 144.657,382.127 144.5,383.5C 146.451,383.227 147.951,383.893 149,385.5C 150.813,384.391 151.646,385.058 151.5,387.5C 153.995,386.801 156.328,385.801 158.5,384.5C 158.67,385.822 158.337,386.989 157.5,388C 158.744,388.456 159.577,387.956 160,386.5C 160.483,387.448 160.649,388.448 160.5,389.5C 168.494,387.087 168.16,385.253 159.5,384C 161.441,383.257 163.274,383.424 165,384.5C 165.333,383.833 165.667,383.167 166,382.5C 166.604,384.686 167.77,384.852 169.5,383C 168.167,382.333 168.167,381.667 169.5,381C 170.549,380.508 171.549,380.674 172.5,381.5C 172.88,379.979 173.046,378.313 173,376.5C 173.465,377.931 174.299,379.097 175.5,380C 180.353,378.514 183.02,380.347 183.5,385.5C 185.451,385.773 186.951,385.107 188,383.5C 189.385,384.551 190.385,385.884 191,387.5C 191.49,386.207 191.657,384.873 191.5,383.5C 195.955,385.108 196.621,383.941 193.5,380C 194,379.5 194.5,379 195,378.5C 196.016,379.634 196.683,379.301 197,377.5C 197.667,378.833 198.333,380.167 199,381.5C 199.493,378.015 200.993,377.515 203.5,380C 200.991,381.421 198.657,383.088 196.5,385C 198.108,385.658 199.275,385.158 200,383.5C 201.008,385.259 202.508,386.426 204.5,387C 204.167,387.333 203.833,387.667 203.5,388C 204.744,388.456 205.577,387.956 206,386.5C 206.318,388.061 207.151,389.228 208.5,390C 207.929,391.205 207.262,392.372 206.5,393.5C 205.289,392.726 205.289,391.893 206.5,391C 203.947,390.239 201.447,389.406 199,388.5C 198.383,389.449 198.549,390.282 199.5,391C 196.833,392 196.833,393 199.5,394C 196.635,396.403 196.801,397.236 200,396.5C 200.833,397.333 201.667,398.167 202.5,399C 199.725,400.654 197.058,400.321 194.5,398C 194.833,397.667 195.167,397.333 195.5,397C 193.865,396.46 192.532,396.96 191.5,398.5C 190.5,397.833 189.5,397.167 188.5,396.5C 187.538,398.883 188.538,399.883 191.5,399.5C 191.5,400.5 191.5,401.5 191.5,402.5C 195.313,401.823 199.146,401.49 203,401.5C 203.974,403.878 204.641,403.544 205,400.5C 205.333,400.833 205.667,401.167 206,401.5C 208.649,398.537 210.482,398.87 211.5,402.5C 205.171,424.488 198.838,446.488 192.5,468.5C 205.154,469.666 217.82,469.833 230.5,469C 235.198,454.708 239.198,440.208 242.5,425.5C 264.836,425.333 287.169,425.5 309.5,426C 314.2,440.299 318.2,454.799 321.5,469.5C 335.183,469.833 348.85,469.499 362.5,468.5C 361.628,466.55 360.961,464.55 360.5,462.5C 361.124,462.083 361.457,461.416 361.5,460.5C 360.422,457.022 359.422,453.522 358.5,450C 358.82,448.347 359.82,447.347 361.5,447C 359.595,446.174 359.261,445.007 360.5,443.5C 362.671,443.727 364.838,444.06 367,444.5C 367.333,443.833 367.667,443.167 368,442.5C 368.112,445.447 369.612,446.78 372.5,446.5C 372.755,443.984 373.589,441.65 375,439.5C 376.139,442.583 377.472,445.583 379,448.5C 379.671,449.252 380.504,449.586 381.5,449.5C 389.919,462.559 401.919,470.393 417.5,473C 454.462,475.887 476.795,459.387 484.5,423.5C 485.338,371.541 485.838,318.208 486,263.5C 485.979,267.009 486.812,270.175 488.5,273C 487.044,273.423 486.544,274.256 487,275.5C 489.026,274.981 491.026,274.647 493,274.5C 493.419,275.672 494.085,276.672 495,277.5C 495.707,275.919 496.54,274.419 497.5,273C 495.833,272.667 494.167,272.333 492.5,272C 493.849,271.228 494.682,270.061 495,268.5C 496.218,270.019 497.718,271.186 499.5,272C 498.304,272.654 498.304,273.154 499.5,273.5C 500.76,271.647 500.76,269.814 499.5,268C 500.667,267.5 501.5,266.667 502,265.5C 502.333,266.167 502.667,266.833 503,267.5C 503.336,265.926 504.169,264.592 505.5,263.5C 507.9,264.018 509.9,265.185 511.5,267C 509.5,267.667 507.5,268.333 505.5,269C 506.416,269.374 507.25,269.874 508,270.5C 508.657,273.685 510.657,275.352 514,275.5C 514.167,275.167 514.333,274.833 514.5,274.5C 513.624,273.749 512.624,273.249 511.5,273C 512.61,270.263 512.777,267.429 512,264.5C 509.985,262.654 507.819,260.987 505.5,259.5C 506.167,258.833 506.833,258.167 507.5,257.5C 505.563,256.842 503.73,256.509 502,256.5C 501.5,257 501,257.5 500.5,258C 495.818,258.773 495.485,258.107 499.5,256C 498.009,253.903 497.009,251.57 496.5,249C 499.745,249.425 502.745,248.425 505.5,246C 506.517,244.951 506.684,243.784 506,242.5C 505.282,243.451 504.449,243.617 503.5,243C 505.151,241.057 507.151,239.557 509.5,238.5C 510.167,238.833 510.833,239.167 511.5,239.5C 515.481,238.494 515.481,237.494 511.5,236.5C 512,236.167 512.5,235.833 513,235.5C 515.225,237.278 517.725,237.778 520.5,237C 519.397,235.32 519.73,233.82 521.5,232.5C 522.833,233.833 524.167,235.167 525.5,236.5C 525.833,236.167 526.167,235.833 526.5,235.5C 525.189,234.742 524.689,233.742 525,232.5C 526.314,233.313 527.481,234.313 528.5,235.5C 531.298,233.434 530.965,231.934 527.5,231C 529.931,230.748 532.265,231.248 534.5,232.5C 535.521,233.002 535.688,233.668 535,234.5C 533.951,233.483 532.784,233.316 531.5,234C 532.563,235.188 533.897,235.688 535.5,235.5C 535.36,237.124 536.027,238.29 537.5,239C 536.026,240.316 534.359,241.316 532.5,242C 532.833,242.333 533.167,242.667 533.5,243C 531.926,243.699 530.593,243.365 529.5,242C 536.414,238.482 536.081,237.316 528.5,238.5C 528.709,239.086 529.043,239.586 529.5,240C 527.866,240.494 526.199,240.66 524.5,240.5C 524.36,242.124 525.027,243.29 526.5,244C 525.692,244.308 525.025,244.808 524.5,245.5C 526.012,246.862 527.512,247.196 529,246.5C 529.49,247.793 529.657,249.127 529.5,250.5C 528.5,250.5 527.5,250.5 526.5,250.5C 526.649,251.552 526.483,252.552 526,253.5C 524.684,250.972 523.517,250.972 522.5,253.5C 520.844,251.978 519.677,252.311 519,254.5C 515.975,253.209 515.641,253.876 518,256.5C 518.667,255.167 519.333,255.167 520,256.5C 520.333,255.833 520.667,255.167 521,254.5C 523.009,257.258 525.009,257.592 527,255.5C 527.374,256.416 527.874,257.25 528.5,258C 549.004,258.168 569.337,258.668 589.5,259.5C 564.925,259.172 540.425,259.506 516,260.5C 515.168,330.335 515.335,400.001 516.5,469.5C 529.66,470.66 542.994,470.827 556.5,470C 557.326,452.574 557.826,435.074 558,417.5C 558.333,424.5 558.667,431.5 559,438.5C 559.5,438 560,437.5 560.5,437C 559.446,435.612 559.28,434.112 560,432.5C 561.418,434.363 563.251,434.863 565.5,434C 563.842,432.337 561.842,431.504 559.5,431.5C 559.151,428.955 559.984,426.955 562,425.5C 562.684,426.784 562.517,427.951 561.5,429C 563.167,429.333 564.833,429.667 566.5,430C 566.167,430.333 565.833,430.667 565.5,431C 566.357,431.689 567.023,432.522 567.5,433.5C 566.167,434.62 565.667,435.953 566,437.5C 568.818,435.572 571.818,433.906 575,432.5C 575.826,434.405 576.993,434.739 578.5,433.5C 576.847,431.879 574.847,430.712 572.5,430C 576.095,427.623 578.762,428.457 580.5,432.5C 583.028,431.502 583.028,430.669 580.5,430C 581.912,428.209 583.745,427.042 586,426.5C 589.739,430.325 590.239,429.825 587.5,425C 585.874,425.195 584.207,425.195 582.5,425C 585.167,424.333 585.167,423.667 582.5,423C 585.486,423.128 588.486,423.128 591.5,423C 590.04,422.189 589.707,421.355 590.5,420.5C 593.047,422.298 595.547,423.965 598,425.5C 598.414,425.043 598.914,424.709 599.5,424.5C 604.522,425.728 604.355,427.061 599,428.5C 596.788,427.35 594.621,426.35 592.5,425.5C 590.728,427.898 591.728,429.565 595.5,430.5C 595.833,429.833 596.167,429.167 596.5,428.5C 597.167,429.167 597.833,429.833 598.5,430.5C 600.513,429.404 602.346,429.737 604,431.5C 605.578,430.453 607.078,430.453 608.5,431.5C 606.135,434.995 606.802,435.328 610.5,432.5C 612.6,433.781 614.266,435.448 615.5,437.5C 617.341,438.23 619.175,438.897 621,439.5C 621.707,441.081 622.54,442.581 623.5,444C 622.833,444.333 622.167,444.667 621.5,445C 623.701,445.825 625.534,445.325 627,443.5C 629.511,445.872 631.844,445.538 634,442.5C 635.813,443.609 636.646,442.942 636.5,440.5C 640.158,441.855 639.825,443.355 635.5,445C 638.668,445.582 639.001,446.582 636.5,448C 636.833,448.333 637.167,448.667 637.5,449C 639.107,449.115 640.607,448.615 642,447.5C 642.546,448.289 643.213,449.289 644,450.5C 645.171,449.107 646.671,448.273 648.5,448C 648.063,445.551 648.063,443.217 648.5,441C 649.549,440.508 650.549,440.674 651.5,441.5C 652.308,441.192 652.975,440.692 653.5,440C 650.343,438.333 650.176,436.833 653,435.5C 657.126,436.896 657.459,436.23 654,433.5C 652.32,434.603 650.82,434.27 649.5,432.5C 648.289,431.726 648.289,430.893 649.5,430C 641.674,427.845 642.008,426.345 650.5,425.5C 650.215,427.288 650.548,428.955 651.5,430.5C 654.559,428.102 657.726,428.102 661,430.5C 661.833,430.167 662.667,429.833 663.5,429.5C 662.185,428.105 662.519,427.105 664.5,426.5C 670.477,430.333 671.144,429.166 666.5,423C 667.416,422.626 668.25,422.126 669,421.5C 669,418.833 669,416.167 669,413.5C 671.781,413.869 674.448,413.869 677,413.5C 677.419,412.328 678.085,411.328 679,410.5C 680.268,415.637 681.934,420.637 684,425.5C 684.464,424.906 684.631,424.239 684.5,423.5C 690.529,439.37 700.529,452.204 714.5,462C 734.529,472.816 755.862,476.482 778.5,473C 792.906,470.979 805.906,465.646 817.5,457C 833.98,441.091 842.646,421.591 843.5,398.5C 838.597,397.5 832.93,397.167 826.5,397.5C 826.351,396.448 826.517,395.448 827,394.5C 829.132,395.78 831.298,395.78 833.5,394.5C 835.276,396.447 837.276,396.78 839.5,395.5C 837.575,395.163 836.075,393.83 835,391.5C 834.333,392.833 833.667,392.833 833,391.5C 832.667,392.167 832.333,392.833 832,393.5C 831.506,391.866 831.34,390.199 831.5,388.5C 828.823,387.425 829.823,387.425 834.5,388.5C 837.286,391.928 839.953,392.261 842.5,389.5C 845.053,389.945 847.72,389.945 850.5,389.5C 849.55,384.728 846.55,382.228 841.5,382C 842.308,381.692 842.975,381.192 843.5,380.5C 842.609,379.41 841.609,379.41 840.5,380.5C 839.167,379.833 839.167,379.167 840.5,378.5C 843.124,377.884 845.291,378.884 847,381.5C 848.36,379.496 850.193,378.663 852.5,379C 851.874,379.75 851.374,380.584 851,381.5C 848.967,380.984 848.967,381.65 851,383.5C 853.225,379.469 856.392,378.469 860.5,380.5C 861.686,385.97 862.852,386.303 864,381.5C 865.734,382.249 867.567,382.749 869.5,383C 867.026,385.428 867.526,385.928 871,384.5C 874.943,387.411 878.61,387.078 882,383.5C 884.086,385.394 886.253,387.227 888.5,389C 888,389.5 887.5,390 887,390.5C 885.013,389.782 883.179,388.782 881.5,387.5C 881.167,387.833 880.833,388.167 880.5,388.5C 881.5,389.333 882.5,390.167 883.5,391C 880.47,394.78 876.803,395.447 872.5,393C 872.201,391.68 872.034,390.18 872,388.5C 871.333,389.833 870.667,389.833 870,388.5C 869.024,390.887 867.191,392.054 864.5,392C 865.876,394.543 867.043,394.709 868,392.5C 868.49,393.793 868.657,395.127 868.5,396.5C 864.459,395.598 860.459,395.598 856.5,396.5C 854.807,394.973 852.973,393.64 851,392.5C 850.5,393.667 849.667,394.5 848.5,395C 849.126,395.75 849.626,396.584 850,397.5C 852.462,398.65 854.796,399.983 857,401.5C 857.448,399.591 856.615,398.424 854.5,398C 855,397.833 855.5,397.667 856,397.5C 858.295,399.154 860.795,399.987 863.5,400C 862.672,399.085 861.672,398.419 860.5,398C 864.042,398.602 867.542,398.435 871,397.5C 871.483,398.448 871.649,399.448 871.5,400.5C 870.325,400.281 869.325,400.614 868.5,401.5C 869.689,402.429 871.022,402.762 872.5,402.5C 873.141,406.33 874.807,406.996 877.5,404.5C 880.076,405.883 879.742,406.717 876.5,407C 878.747,409.542 881.414,410.042 884.5,408.5C 882.101,407.206 880.601,405.206 880,402.5C 878.703,403.784 877.536,403.617 876.5,402C 881.369,400.633 882.036,398.633 878.5,396C 880.107,396.019 881.774,396.185 883.5,396.5C 883.67,397.822 883.337,398.989 882.5,400C 883.5,401 884.5,402 885.5,403C 890.684,402.874 891.35,404.041 887.5,406.5C 890.082,408.059 892.749,408.892 895.5,409C 894.646,410.022 893.646,410.855 892.5,411.5C 890.627,412.089 888.96,411.422 887.5,409.5C 886.5,410 885.5,410.5 884.5,411C 888.858,413.185 893.191,415.518 897.5,418C 896.251,419.824 895.085,419.657 894,417.5C 893.376,419.464 893.876,421.131 895.5,422.5C 891.301,423.967 887.801,422.967 885,419.5C 884.667,420.5 884.333,421.5 884,422.5C 880.734,421.889 877.234,421.556 873.5,421.5C 873.351,422.552 873.517,423.552 874,424.5C 874.893,423.289 875.726,423.289 876.5,424.5C 872.781,425.073 869.614,423.74 867,420.5C 865.865,420.727 864.698,421.06 863.5,421.5C 864.689,422.429 866.022,422.762 867.5,422.5C 867.238,423.978 867.571,425.311 868.5,426.5C 870.325,425.429 871.492,426.096 872,428.5C 873.628,427.903 875.295,428.237 877,429.5C 877.617,430.449 877.451,431.282 876.5,432C 877.793,432.49 879.127,432.657 880.5,432.5C 880.261,434.467 880.594,436.301 881.5,438C 884.711,439.153 888.044,439.82 891.5,440C 888.987,441.039 886.653,442.372 884.5,444C 885.167,444.667 885.833,445.333 886.5,446C 884.053,447.229 883.887,448.729 886,450.5C 888.54,449.124 890.54,449.79 892,452.5C 893.667,452.167 895.333,451.833 897,451.5C 898.892,452.13 900.559,453.13 902,454.5C 902.689,453.643 903.522,452.977 904.5,452.5C 905.5,454.167 906.833,455.5 908.5,456.5C 908.291,457.086 907.957,457.586 907.5,458C 909.087,458.862 910.754,459.529 912.5,460C 912.167,460.333 911.833,460.667 911.5,461C 913.71,462.509 915.543,464.342 917,466.5C 918.43,466.694 919.93,466.694 921.5,466.5C 920.5,465.667 919.5,464.833 918.5,464C 920.797,462.84 920.464,461.84 917.5,461C 918.428,460.612 919.095,459.945 919.5,459C 918.898,457.437 918.065,457.604 917,459.5C 913.236,457.368 909.736,454.868 906.5,452C 909.357,452.774 912.357,453.441 915.5,454C 915.93,454.92 916.264,455.753 916.5,456.5C 919.552,455.689 922.385,455.689 925,456.5C 927.576,455.539 929.743,454.039 931.5,452C 933.473,451.505 935.473,451.338 937.5,451.5C 937.5,613.167 937.5,774.833 937.5,936.5C 653.5,936.5 369.5,936.5 85.5,936.5C 85.5,677.5 85.5,418.5 85.5,159.5 Z" /></g><g><path style="opacity:1" fill="#090a0a" d="M 484.5,423.5 C 476.795,459.387 454.462,475.887 417.5,473C 401.919,470.393 389.919,462.559 381.5,449.5C 375.215,437.352 372.215,424.352 372.5,410.5C 384.183,410.602 395.85,410.269 407.5,409.5C 408.249,415.906 409.415,422.239 411,428.5C 412.442,432.275 414.942,435.108 418.5,437C 434.239,440.872 443.072,434.706 445,418.5C 445.5,366.168 445.667,313.834 445.5,261.5C 458.582,260.864 471.415,261.531 484,263.5C 484.5,316.832 484.667,370.166 484.5,423.5 Z" /></g><g><path style="opacity:1" fill="#0a0a0a" d="M 360.5,462.5 C 360.961,464.55 361.628,466.55 362.5,468.5C 348.85,469.499 335.183,469.833 321.5,469.5C 318.2,454.799 314.2,440.299 309.5,426C 287.169,425.5 264.836,425.333 242.5,425.5C 239.198,440.208 235.198,454.708 230.5,469C 217.82,469.833 205.154,469.666 192.5,468.5C 198.838,446.488 205.171,424.488 211.5,402.5C 225.162,355.846 238.829,309.179 252.5,262.5C 268.82,261.501 285.153,261.167 301.5,261.5C 321.011,328.545 340.678,395.545 360.5,462.5 Z" /></g><g><path style="opacity:1" fill="#edeae6" d="M 275.5,302.5 C 276.586,302.62 277.253,303.287 277.5,304.5C 285.169,332.511 292.836,360.511 300.5,388.5C 284.5,389.833 268.5,389.833 252.5,388.5C 260.483,359.901 268.15,331.234 275.5,302.5 Z" /></g><g><path style="opacity:1" fill="#ebe8e4" d="M 65.5,82.5 C 65.3333,369.834 65.5,657.167 66,944.5C 66.2004,946.32 67.0337,947.653 68.5,948.5C 70.5,949.833 72.1667,951.5 73.5,953.5C 72.2617,953.81 72.2617,954.31 73.5,955C 74.8333,955.667 76.1667,956.333 77.5,957C 366.5,957.667 655.5,957.667 944.5,957C 945.167,956.667 945.833,956.333 946.5,956C 946.272,955.601 945.938,955.435 945.5,955.5C 948.391,954.211 950.725,952.211 952.5,949.5C 953.799,947.588 954.799,945.588 955.5,943.5C 955.369,944.239 955.536,944.906 956,945.5C 956.49,944.207 956.657,942.873 956.5,941.5C 957.333,785.334 957.833,629.001 958,472.5C 958.333,472.167 958.667,471.833 959,471.5C 959.368,472.91 960.201,473.91 961.5,474.5C 962.604,473.369 962.271,472.535 960.5,472C 963.68,469.951 966.013,470.784 967.5,474.5C 967.291,475.086 966.957,475.586 966.5,476C 972.497,477.886 977.997,480.72 983,484.5C 983.333,483.833 983.667,483.167 984,482.5C 985.753,483.627 987.587,484.627 989.5,485.5C 992.127,483.916 992.127,482.249 989.5,480.5C 990.863,479.107 991.696,477.441 992,475.5C 993.281,475.619 994.448,475.119 995.5,474C 994.289,472.887 994.289,471.72 995.5,470.5C 994.833,469.833 994.167,469.167 993.5,468.5C 993.833,468.167 994.167,467.833 994.5,467.5C 997.452,468.657 1000.79,469.823 1004.5,471C 1001.83,472 1001.83,473 1004.5,474C 1003.17,474.333 1001.83,474.667 1000.5,475C 1003.16,476.074 1005.49,476.907 1007.5,477.5C 1006.5,478.333 1005.5,479.167 1004.5,480C 1005.97,480.71 1006.64,481.876 1006.5,483.5C 1008.43,483.231 1010.1,483.731 1011.5,485C 1010.83,485.333 1010.17,485.667 1009.5,486C 1011.22,486.448 1011.89,487.282 1011.5,488.5C 1012.39,487.675 1012.72,486.675 1012.5,485.5C 1014.49,485.328 1016.16,485.995 1017.5,487.5C 1018.17,487.167 1018.83,486.833 1019.5,486.5C 1020.7,486.846 1020.7,487.346 1019.5,488C 1020.74,488.791 1022.08,489.291 1023.5,489.5C 1023.5,667.5 1023.5,845.5 1023.5,1023.5C 682.167,1023.5 340.833,1023.5 -0.5,1023.5C -0.5,825.833 -0.5,628.167 -0.5,430.5C 1.14387,430.286 2.64387,430.62 4,431.5C 4.16667,431.167 4.33333,430.833 4.5,430.5C -0.43445,429.338 -0.601117,428.004 4,426.5C 7.52735,430.516 8.02735,430.35 5.5,426C 6.92469,424.638 7.75803,423.138 8,421.5C 10.1515,423.324 12.6515,423.657 15.5,422.5C 15.5,423.833 15.5,425.167 15.5,426.5C 16.552,426.351 17.552,426.517 18.5,427C 15.5073,427.427 15.0073,428.594 17,430.5C 18.8402,429.167 19.3402,429.334 18.5,431C 19.6667,431.5 20.5,432.333 21,433.5C 21.3333,432.833 21.6667,432.167 22,431.5C 23.7132,435.412 25.5466,435.412 27.5,431.5C 27.1255,432.771 27.7922,433.938 29.5,435C 29.1667,435.333 28.8333,435.667 28.5,436C 32.4898,438.226 36.8232,439.393 41.5,439.5C 41.0592,436.769 40.7259,434.269 40.5,432C 42.2555,431.86 43.9222,432.36 45.5,433.5C 47.8361,431.77 47.8361,430.27 45.5,429C 48.4369,429.011 51.2702,428.845 54,428.5C 54.6172,429.449 54.4506,430.282 53.5,431C 55.5,432 57.5,433 59.5,434C 57.8333,434.333 56.1667,434.667 54.5,435C 55.0219,435.561 55.3552,436.228 55.5,437C 52.714,440.901 53.0473,441.735 56.5,439.5C 58.9443,440.222 61.2777,441.222 63.5,442.5C 64.1667,322.334 64.8333,202.334 65.5,82.5 Z" /></g><g><path style="opacity:1" fill="#0c0c0c" d="M 506.5,570.5 C 519.456,570.118 526.456,576.452 527.5,589.5C 524.167,589.5 520.833,589.5 517.5,589.5C 517.653,583.156 514.653,579.989 508.5,580C 501.582,583.508 498.915,589.175 500.5,597C 499.43,604.409 501.43,610.742 506.5,616C 513.602,617.239 517.602,614.239 518.5,607C 521.146,606.503 523.813,606.336 526.5,606.5C 526.511,621.977 518.844,628.143 503.5,625C 496.321,621.817 492.154,616.317 491,608.5C 490.333,601.5 490.333,594.5 491,587.5C 493.256,579.081 498.423,573.415 506.5,570.5 Z" /></g><g><path style="opacity:1" fill="#0f0f0e" d="M 597.5,571.5 C 611.172,570.588 619.005,576.922 621,590.5C 621.972,599.306 621.306,607.973 619,616.5C 612.599,627.522 603.766,630.022 592.5,624C 587.424,619.682 584.591,614.182 584,607.5C 582.934,599.006 583.601,590.672 586,582.5C 588.92,577.806 592.753,574.139 597.5,571.5 Z" /></g><g><path style="opacity:1" fill="#0b0b0b" d="M 254.5,572.5 C 268.136,570.967 275.469,576.967 276.5,590.5C 273.5,590.5 270.5,590.5 267.5,590.5C 266.95,581.138 262.617,578.971 254.5,584C 252.959,585.579 251.792,587.413 251,589.5C 250.333,596.5 250.333,603.5 251,610.5C 254.011,620.296 259.344,621.963 267,615.5C 267.497,613.19 267.663,610.857 267.5,608.5C 270.833,608.5 274.167,608.5 277.5,608.5C 277.249,620.418 271.249,627.418 259.5,629.5C 248.783,627.616 242.617,621.283 241,610.5C 240.333,603.5 240.333,596.5 241,589.5C 242.411,581.268 246.911,575.601 254.5,572.5 Z" /></g><g><path style="opacity:1" fill="#0c0c0c" d="M 303.5,571.5 C 305.467,571.261 307.301,571.594 309,572.5C 314.177,590.027 319.343,607.527 324.5,625C 321.318,626.739 317.984,626.905 314.5,625.5C 313.03,621.952 312.03,618.285 311.5,614.5C 306.821,614.334 302.155,614.501 297.5,615C 295.494,617.841 294.161,621.008 293.5,624.5C 290.572,625.484 287.572,625.817 284.5,625.5C 288.648,607.739 293.648,590.239 299.5,573C 301.058,572.79 302.391,572.29 303.5,571.5 Z" /></g><g><path style="opacity:1" fill="#090909" d="M 471.5,572.5 C 474.5,572.5 477.5,572.5 480.5,572.5C 480.5,590.167 480.5,607.833 480.5,625.5C 477.5,625.5 474.5,625.5 471.5,625.5C 471.5,607.833 471.5,590.167 471.5,572.5 Z" /></g><g><path style="opacity:1" fill="#0c0c0c" d="M 630.5,572.5 C 633.833,572.5 637.167,572.5 640.5,572.5C 640.333,585.504 640.5,598.504 641,611.5C 644.289,619.911 648.622,620.578 654,613.5C 654.5,599.837 654.667,586.171 654.5,572.5C 657.833,572.5 661.167,572.5 664.5,572.5C 664.916,587.55 664.416,602.55 663,617.5C 660.254,624.463 655.087,627.796 647.5,627.5C 640.337,627.498 635.504,624.165 633,617.5C 631.97,613.227 631.303,608.894 631,604.5C 630.5,593.839 630.333,583.172 630.5,572.5 Z" /></g><g><path style="opacity:1" fill="#0c0c0c" d="M 774.5,572.5 C 778.351,571.971 781.851,572.638 785,574.5C 789.505,591.852 794.005,609.186 798.5,626.5C 795.482,626.665 792.482,626.498 789.5,626C 787.993,622.31 786.993,618.476 786.5,614.5C 781.456,614.173 776.456,614.506 771.5,615.5C 770.091,618.727 769.091,622.06 768.5,625.5C 765.5,625.5 762.5,625.5 759.5,625.5C 763.896,607.649 768.896,589.982 774.5,572.5 Z" /></g><g><path style="opacity:1" fill="#0c0c0c" d="M 209.5,572.5 C 213.351,571.971 216.851,572.638 220,574.5C 224.976,591.404 229.476,608.404 233.5,625.5C 230.167,625.5 226.833,625.5 223.5,625.5C 223.249,621.751 222.583,618.085 221.5,614.5C 216.456,614.173 211.456,614.506 206.5,615.5C 205.292,619.122 204.292,622.789 203.5,626.5C 200.5,626.5 197.5,626.5 194.5,626.5C 198.013,611.116 201.846,595.783 206,580.5C 206.696,577.562 207.862,574.896 209.5,572.5 Z" /></g><g><path style="opacity:1" fill="#0a0a09" d="M 332.5,572.5 C 362.377,569.901 373.21,583.235 365,612.5C 362.534,619.961 357.368,624.128 349.5,625C 343.843,625.499 338.176,625.666 332.5,625.5C 332.5,607.833 332.5,590.167 332.5,572.5 Z" /></g><g><path style="opacity:1" fill="#0b0b0b" d="M 675.5,572.5 C 681.842,572.334 688.175,572.5 694.5,573C 705.776,576.38 709.61,583.88 706,595.5C 705.009,599.488 702.842,602.655 699.5,605C 702.892,611.941 705.559,619.107 707.5,626.5C 703.894,626.789 700.394,626.456 697,625.5C 694.202,618.911 691.702,612.245 689.5,605.5C 687.833,605.5 686.167,605.5 684.5,605.5C 684.5,612.5 684.5,619.5 684.5,626.5C 681.5,626.5 678.5,626.5 675.5,626.5C 675.5,608.5 675.5,590.5 675.5,572.5 Z" /></g><g><path style="opacity:1" fill="#0a0a0a" d="M 727.5,594.5 C 727.631,593.624 727.298,592.957 726.5,592.5C 725.501,603.48 725.168,614.48 725.5,625.5C 722.833,625.5 720.167,625.5 717.5,625.5C 717.5,607.833 717.5,590.167 717.5,572.5C 721.226,572.177 724.893,572.511 728.5,573.5C 733.35,583.864 738.183,594.197 743,604.5C 743.5,593.839 743.667,583.172 743.5,572.5C 746.167,572.5 748.833,572.5 751.5,572.5C 751.697,590.182 751.363,607.849 750.5,625.5C 747.223,625.784 744.057,625.451 741,624.5C 736.76,614.355 732.26,604.355 727.5,594.5 Z" /></g><g><path style="opacity:1" fill="#111010" d="M 404.5,578.5 C 403.596,579.209 403.263,580.209 403.5,581.5C 398.305,581.179 393.305,581.513 388.5,582.5C 386.57,586.373 385.903,590.706 386.5,595.5C 392.161,595.093 397.828,594.76 403.5,594.5C 403.223,597.448 403.556,600.281 404.5,603C 398.511,603.699 392.511,604.199 386.5,604.5C 386.5,608.5 386.5,612.5 386.5,616.5C 392.5,616.5 398.5,616.5 404.5,616.5C 404.665,619.85 404.498,623.183 404,626.5C 395,625.833 386,625.167 377,624.5C 375.994,607.098 376.494,589.764 378.5,572.5C 387.167,572.5 395.833,572.5 404.5,572.5C 404.5,574.5 404.5,576.5 404.5,578.5 Z" /></g><g><path style="opacity:1" fill="#0d0c0c" d="M 416.5,572.5 C 420.519,572.646 424.519,572.979 428.5,573.5C 431.341,585.196 434.341,596.863 437.5,608.5C 440.657,596.872 443.657,585.205 446.5,573.5C 450.783,572.508 455.116,572.174 459.5,572.5C 459.5,590.5 459.5,608.5 459.5,626.5C 456.5,626.5 453.5,626.5 450.5,626.5C 450.667,614.162 450.5,601.829 450,589.5C 446.047,601.645 442.88,613.978 440.5,626.5C 438.167,626.5 435.833,626.5 433.5,626.5C 430.803,614.046 427.637,601.713 424,589.5C 423.5,601.829 423.333,614.162 423.5,626.5C 420.833,626.5 418.167,626.5 415.5,626.5C 415.181,608.423 415.514,590.423 416.5,572.5 Z" /></g><g><path style="opacity:1" fill="#0a0909" d="M 564.5,573.5 C 567.5,573.5 570.5,573.5 573.5,573.5C 573.667,587.504 573.5,601.504 573,615.5C 572.434,620.397 569.934,623.897 565.5,626C 560.463,626.663 555.463,626.496 550.5,625.5C 550.5,622.833 550.5,620.167 550.5,617.5C 553.493,618.135 556.493,618.301 559.5,618C 561.815,616.891 563.315,615.057 564,612.5C 564.5,599.504 564.667,586.504 564.5,573.5 Z" /></g><g><path style="opacity:1" fill="#161616" d="M 807.5,572.5 C 810.833,572.5 814.167,572.5 817.5,572.5C 817.5,587.5 817.5,602.5 817.5,617.5C 822.167,617.5 826.833,617.5 831.5,617.5C 831.5,620.167 831.5,622.833 831.5,625.5C 823.5,625.5 815.5,625.5 807.5,625.5C 807.5,607.833 807.5,590.167 807.5,572.5 Z" /></g><g><path style="opacity:1" fill="#464441" d="M 404.5,578.5 C 404.5,579.833 404.5,581.167 404.5,582.5C 399.167,582.5 393.833,582.5 388.5,582.5C 393.305,581.513 398.305,581.179 403.5,581.5C 403.263,580.209 403.596,579.209 404.5,578.5 Z" /></g><g><path style="opacity:1" fill="#e9e6e3" d="M 341.5,581.5 C 352.654,581.832 357.654,587.665 356.5,599C 358.291,611.005 353.291,616.839 341.5,616.5C 341.5,604.833 341.5,593.167 341.5,581.5 Z" /></g><g><path style="opacity:1" fill="#edeae6" d="M 598.5,581.5 C 603.742,580.271 607.575,581.937 610,586.5C 610.667,594.833 610.667,603.167 610,611.5C 606.476,617.63 601.976,618.63 596.5,614.5C 595.066,612.78 594.233,610.78 594,608.5C 593.333,601.833 593.333,595.167 594,588.5C 594.904,585.767 596.404,583.433 598.5,581.5 Z" /></g><g><path style="opacity:1" fill="#e8e6e2" d="M 684.5,581.5 C 695.848,580.682 699.181,585.515 694.5,596C 691.312,597.316 687.978,597.816 684.5,597.5C 684.5,592.167 684.5,586.833 684.5,581.5 Z" /></g><g><path style="opacity:1" fill="#eeece9" d="M 778.5,587.5 C 780.534,592.608 782.201,597.942 783.5,603.5C 780.572,604.484 777.572,604.817 774.5,604.5C 775.99,598.874 777.323,593.208 778.5,587.5 Z" /></g><g><path style="opacity:1" fill="#edebe9" d="M 302.5,588.5 C 303.586,588.62 304.253,589.287 304.5,590.5C 305.762,595.051 307.095,599.551 308.5,604C 305.518,604.498 302.518,604.665 299.5,604.5C 300.756,599.218 301.756,593.885 302.5,588.5 Z" /></g><g><path style="opacity:1" fill="#eceae7" d="M 212.5,588.5 C 215.232,593.744 216.899,599.411 217.5,605.5C 214.428,605.817 211.428,605.484 208.5,604.5C 210.149,599.238 211.482,593.904 212.5,588.5 Z" /></g><g><path style="opacity:1" fill="#949390" d="M 727.5,594.5 C 726.833,604.833 726.167,615.167 725.5,625.5C 725.168,614.48 725.501,603.48 726.5,592.5C 727.298,592.957 727.631,593.624 727.5,594.5 Z" /></g><g><path style="opacity:1" fill="#0a0a0a" d="M 414.5,671.5 C 417.5,671.5 420.5,671.5 423.5,671.5C 423.734,689.518 423.4,707.518 422.5,725.5C 419.552,725.777 416.719,725.444 414,724.5C 414.398,706.859 414.564,689.193 414.5,671.5 Z" /></g><g><path style="opacity:1" fill="#0a0a0a" d="M 575.5,671.5 C 579.106,671.211 582.606,671.544 586,672.5C 588.229,678.623 590.729,684.623 593.5,690.5C 596.59,684.652 599.423,678.652 602,672.5C 605.057,671.549 608.223,671.216 611.5,671.5C 607.679,681.791 603.179,691.791 598,701.5C 597.5,709.493 597.334,717.493 597.5,725.5C 594.5,725.5 591.5,725.5 588.5,725.5C 588.666,717.16 588.5,708.827 588,700.5C 583.264,691.034 579.098,681.367 575.5,671.5 Z" /></g><g><path style="opacity:1" fill="#0b0b0b" d="M 652.5,671.5 C 666.78,669.78 673.78,676.113 673.5,690.5C 670.5,690.5 667.5,690.5 664.5,690.5C 665.505,682.67 662.172,679.504 654.5,681C 648.992,685.648 646.659,691.648 647.5,699C 647.172,704.518 648.338,709.685 651,714.5C 659.725,720.23 664.559,717.896 665.5,707.5C 668.5,707.5 671.5,707.5 674.5,707.5C 674.296,722.874 666.629,729.374 651.5,727C 643.733,723.309 639.567,717.142 639,708.5C 638.333,701.833 638.333,695.167 639,688.5C 640.681,680.412 645.181,674.745 652.5,671.5 Z" /></g><g><path style="opacity:1" fill="#0b0b0b" d="M 239.5,670.5 C 251.133,669.299 258.633,674.299 262,685.5C 262.899,695.893 262.566,706.227 261,716.5C 256.061,726.157 248.228,729.657 237.5,727C 230.973,723.459 227.14,717.959 226,710.5C 225.333,702.167 225.333,693.833 226,685.5C 228.263,678.407 232.763,673.407 239.5,670.5 Z" /></g><g><path style="opacity:1" fill="#101010" d="M 330.5,671.5 C 337.906,671.152 345.239,671.652 352.5,673C 360.915,677.348 363.748,684.181 361,693.5C 360.444,698.389 357.944,701.889 353.5,704C 348.915,705.225 344.248,705.725 339.5,705.5C 339.5,712.167 339.5,718.833 339.5,725.5C 336.5,725.5 333.5,725.5 330.5,725.5C 329.303,707.438 329.303,689.438 330.5,671.5 Z" /></g><g><path style="opacity:1" fill="#0c0c0c" d="M 503.5,671.5 C 507.167,671.5 510.833,671.5 514.5,671.5C 518.961,689.55 523.627,707.55 528.5,725.5C 525.428,725.817 522.428,725.484 519.5,724.5C 518.573,721.287 517.573,718.12 516.5,715C 511.249,714.196 506.082,714.363 501,715.5C 499.722,718.721 498.889,722.054 498.5,725.5C 495.5,725.5 492.5,725.5 489.5,725.5C 493.853,707.421 498.52,689.421 503.5,671.5 Z" /></g><g><path style="opacity:1" fill="#0c0c0c" d="M 537.5,671.5 C 544.508,671.334 551.508,671.5 558.5,672C 562.667,673.5 565.5,676.333 567,680.5C 568.081,687.054 567.414,693.388 565,699.5C 563.365,700.726 561.865,702.059 560.5,703.5C 563.695,710.418 566.695,717.418 569.5,724.5C 566.216,725.657 562.882,725.824 559.5,725C 556.282,718.682 553.448,712.182 551,705.5C 549.644,704.62 548.144,704.286 546.5,704.5C 546.5,711.5 546.5,718.5 546.5,725.5C 543.5,725.5 540.5,725.5 537.5,725.5C 537.5,707.5 537.5,689.5 537.5,671.5 Z" /></g><g><path style="opacity:1" fill="#0d0c0c" d="M 696.5,671.5 C 700.351,670.971 703.851,671.638 707,673.5C 712.15,690.77 716.984,708.103 721.5,725.5C 718.428,725.817 715.428,725.484 712.5,724.5C 711.346,721.548 710.346,718.548 709.5,715.5C 704.198,714.337 698.864,714.171 693.5,715C 692.188,718.051 691.188,721.217 690.5,724.5C 687.572,725.484 684.572,725.817 681.5,725.5C 686.098,707.376 691.098,689.376 696.5,671.5 Z" /></g><g><path style="opacity:1" fill="#141313" d="M 275.5,671.5 C 284.5,671.5 293.5,671.5 302.5,671.5C 302.5,674.833 302.5,678.167 302.5,681.5C 296.491,681.334 290.491,681.501 284.5,682C 283.533,686.401 283.2,690.901 283.5,695.5C 289.509,695.334 295.509,695.501 301.5,696C 300.556,698.719 300.223,701.552 300.5,704.5C 294.833,704.5 289.167,704.5 283.5,704.5C 283.5,711.5 283.5,718.5 283.5,725.5C 280.167,725.5 276.833,725.5 273.5,725.5C 273.005,707.392 273.672,689.392 275.5,671.5 Z" /></g><g><path style="opacity:1" fill="#0e0d0d" d="M 373.5,671.5 C 379.842,671.334 386.175,671.5 392.5,672C 398,673.5 401.5,677 403,682.5C 405.502,691.462 403.002,698.462 395.5,703.5C 399.072,710.638 402.072,717.971 404.5,725.5C 400.894,725.789 397.394,725.456 394,724.5C 391,718.329 388.5,711.996 386.5,705.5C 385.167,705.5 383.833,705.5 382.5,705.5C 382.5,712.167 382.5,718.833 382.5,725.5C 379.167,725.5 375.833,725.5 372.5,725.5C 372.181,707.423 372.514,689.423 373.5,671.5 Z" /></g><g><path style="opacity:1" fill="#0c0c0c" d="M 471.5,708.5 C 471.666,701.492 471.5,694.492 471,687.5C 469.961,688.244 469.461,689.244 469.5,690.5C 467.139,701.609 464.306,712.609 461,723.5C 458.753,725.155 456.42,725.488 454,724.5C 450.687,712.58 447.687,700.58 445,688.5C 444.5,700.829 444.333,713.162 444.5,725.5C 441.833,725.5 439.167,725.5 436.5,725.5C 436.5,707.5 436.5,689.5 436.5,671.5C 440.5,671.5 444.5,671.5 448.5,671.5C 451.819,683.776 454.986,696.11 458,708.5C 460.999,696.505 463.999,684.505 467,672.5C 471.401,671.533 475.901,671.2 480.5,671.5C 480.5,689.5 480.5,707.5 480.5,725.5C 477.5,725.5 474.5,725.5 471.5,725.5C 471.5,719.833 471.5,714.167 471.5,708.5 Z" /></g><g><path style="opacity:1" fill="#121111" d="M 730.5,671.5 C 736.509,671.334 742.509,671.501 748.5,672C 756.611,673.371 760.611,678.204 760.5,686.5C 760.938,693.602 758.605,699.435 753.5,704C 756.865,710.932 759.532,718.098 761.5,725.5C 758.482,725.665 755.482,725.498 752.5,725C 748.933,718.699 745.766,712.199 743,705.5C 741.989,704.663 740.822,704.33 739.5,704.5C 739.5,711.167 739.5,717.833 739.5,724.5C 736.167,724.5 732.833,724.5 729.5,724.5C 729.181,706.757 729.514,689.09 730.5,671.5 Z" /></g><g><path style="opacity:1" fill="#100f0f" d="M 772.5,672.5 C 781.167,672.5 789.833,672.5 798.5,672.5C 798.5,675.167 798.5,677.833 798.5,680.5C 792.824,680.334 787.157,680.501 781.5,681C 780.533,685.401 780.2,689.901 780.5,694.5C 786.5,694.5 792.5,694.5 798.5,694.5C 798.5,697.5 798.5,700.5 798.5,703.5C 792.833,703.5 787.167,703.5 781.5,703.5C 781.5,707.833 781.5,712.167 781.5,716.5C 787.176,716.334 792.843,716.501 798.5,717C 799.451,720.057 799.784,723.223 799.5,726.5C 790.134,726.721 780.801,726.387 771.5,725.5C 771.237,707.81 771.57,690.143 772.5,672.5 Z" /></g><g><path style="opacity:1" fill="#e6e3e0" d="M 240.5,681.5 C 247.413,679.918 251.58,682.584 253,689.5C 253.667,696.167 253.667,702.833 253,709.5C 251.091,715.739 246.925,718.239 240.5,717C 237.16,714.328 235.326,710.828 235,706.5C 233.644,698.471 234.644,690.805 238,683.5C 238.995,682.934 239.828,682.267 240.5,681.5 Z" /></g><g><path style="opacity:1" fill="#ece9e6" d="M 339.5,680.5 C 349.329,678.828 353.162,682.828 351,692.5C 348.468,696.907 344.635,698.574 339.5,697.5C 339.5,691.833 339.5,686.167 339.5,680.5 Z" /></g><g><path style="opacity:1" fill="#eceae6" d="M 546.5,680.5 C 558.764,679.596 561.764,684.429 555.5,695C 552.518,695.498 549.518,695.665 546.5,695.5C 546.5,690.5 546.5,685.5 546.5,680.5 Z" /></g><g><path style="opacity:1" fill="#edeae7" d="M 739.5,680.5 C 748.889,679.387 752.389,683.387 750,692.5C 749.535,693.931 748.701,695.097 747.5,696C 744.854,696.497 742.187,696.664 739.5,696.5C 739.5,691.167 739.5,685.833 739.5,680.5 Z" /></g><g><path style="opacity:1" fill="#e9e6e3" d="M 381.5,680.5 C 393.665,679.851 396.998,684.851 391.5,695.5C 388.242,696.417 384.909,696.751 381.5,696.5C 381.5,691.167 381.5,685.833 381.5,680.5 Z" /></g><g><path style="opacity:1" fill="#e3e1df" d="M 700.5,687.5 C 703.142,692.771 704.809,698.437 705.5,704.5C 702.428,704.817 699.428,704.484 696.5,703.5C 697.962,698.188 699.295,692.855 700.5,687.5 Z" /></g><g><path style="opacity:1" fill="#949390" d="M 471.5,708.5 C 470.833,702.5 470.167,696.5 469.5,690.5C 469.461,689.244 469.961,688.244 471,687.5C 471.5,694.492 471.666,701.492 471.5,708.5 Z" /></g><g><path style="opacity:1" fill="#e9e7e4" d="M 507.5,686.5 C 508.586,686.62 509.253,687.287 509.5,688.5C 510.679,693.549 512.012,698.549 513.5,703.5C 510.572,704.484 507.572,704.817 504.5,704.5C 505.243,698.454 506.243,692.454 507.5,686.5 Z" /></g><g><path style="opacity:1" fill="#d6d4d3" d="M 73.5,953.5 C 74.4734,953.987 75.4734,954.487 76.5,955C 366.166,955.5 655.833,955.667 945.5,955.5C 945.938,955.435 946.272,955.601 946.5,956C 945.833,956.333 945.167,956.667 944.5,957C 655.5,957.667 366.5,957.667 77.5,957C 76.1667,956.333 74.8333,955.667 73.5,955C 72.2617,954.31 72.2617,953.81 73.5,953.5 Z" /></g></svg>