<!DOCTYPE svg PUBLIC "-//W3C//DTD SVG 1.1//EN" "http://www.w3.org/Graphics/SVG/1.1/DTD/svg11.dtd"[]><svg xmlns="http://www.w3.org/2000/svg" version="1.1" width="160" height="160" style="shape-rendering:geometricPrecision; text-rendering:geometricPrecision; image-rendering:optimizeQuality; fill-rule:evenodd; clip-rule:evenodd" xmlns:xlink="http://www.w3.org/1999/xlink" viewBox="0 0 579 579"><g><path style="opacity:1" fill="#030001" d="M -0.5,-0.5 C 192.5,-0.5 385.5,-0.5 578.5,-0.5C 578.5,70.5 578.5,141.5 578.5,212.5C 493.5,212.5 408.5,212.5 323.5,212.5C 323.263,213.791 323.596,214.791 324.5,215.5C 334.369,246.44 344.036,277.44 353.5,308.5C 329.684,310.164 305.684,311.164 281.5,311.5C 275.104,328.356 269.104,345.356 263.5,362.5C 262.957,362.56 262.624,362.893 262.5,363.5C 272.993,364.823 283.326,364.823 293.5,363.5C 296.624,353.225 299.624,342.891 302.5,332.5C 322.167,331.167 341.833,331.167 361.5,332.5C 364.838,342.846 368.171,353.179 371.5,363.5C 382.007,364.823 392.674,364.823 403.5,363.5C 403.376,362.893 403.043,362.56 402.5,362.5C 388.56,319.68 374.227,277.014 359.5,234.5C 392.996,233.502 426.663,233.168 460.5,233.5C 460.5,276.833 460.5,320.167 460.5,363.5C 470.833,363.5 481.167,363.5 491.5,363.5C 492.499,320.337 492.832,277.003 492.5,233.5C 521.167,233.5 549.833,233.5 578.5,233.5C 578.5,348.5 578.5,463.5 578.5,578.5C 385.5,578.5 192.5,578.5 -0.5,578.5C -0.5,513.5 -0.5,448.5 -0.5,383.5C 4.93467,384.476 10.268,385.976 15.5,388C 22.5,388.667 29.5,388.667 36.5,388C 46.7493,386.082 52.5826,379.916 54,369.5C 54.5,326.168 54.6667,282.835 54.5,239.5C 36.1667,239.5 17.8333,239.5 -0.5,239.5C -0.5,159.5 -0.5,79.5 -0.5,-0.5 Z" /></g><g><path style="opacity:1" fill="#a42435" d="M 341.5,300.5 C 319.5,301.167 297.5,301.833 275.5,302.5C 266.932,325.325 258.598,348.325 250.5,371.5C 249.957,371.56 249.624,371.893 249.5,372.5C 258,372.833 266.5,373.167 275,373.5C 283.861,373.498 292.361,372.831 300.5,371.5C 302.958,361.165 305.958,350.998 309.5,341C 324.5,340.333 339.5,340.333 354.5,341C 358.219,351.373 361.552,361.873 364.5,372.5C 381.513,372.833 398.513,372.499 415.5,371.5C 400.927,328.613 386.26,285.779 371.5,243C 398.165,242.5 424.831,242.333 451.5,242.5C 451.5,285.833 451.5,329.167 451.5,372.5C 467.833,372.5 484.167,372.5 500.5,372.5C 501.499,329.337 501.832,286.003 501.5,242.5C 523.833,242.5 546.167,242.5 568.5,242.5C 568.5,351.167 568.5,459.833 568.5,568.5C 381.833,568.5 195.167,568.5 8.5,568.5C 8.5,518.167 8.5,467.833 8.5,417.5C 21.4741,418.59 34.4741,418.756 47.5,418C 66.6767,416.846 80.8434,408.012 90,391.5C 92.5182,386.463 93.8515,381.13 94,375.5C 94.5,320.501 94.6667,265.501 94.5,210.5C 65.8333,210.5 37.1667,210.5 8.5,210.5C 8.5,143.167 8.5,75.8333 8.5,8.5C 195.5,8.5 382.5,8.5 569.5,8.5C 569.5,73.5 569.5,138.5 569.5,203.5C 483.5,203.5 397.5,203.5 311.5,203.5C 321.5,235.833 331.5,268.167 341.5,300.5 Z" /></g><g><path style="opacity:1" fill="#080606" d="M 171.5,203.5 C 211.506,203.167 251.506,203.5 291.5,204.5C 287.26,217.054 282.927,229.554 278.5,242C 244.167,242.333 209.833,242.667 175.5,243C 166.719,244.109 162.886,248.942 164,257.5C 164.75,258.126 165.584,258.626 166.5,259C 182.29,262.531 197.956,266.531 213.5,271C 240.724,280.599 252.224,299.766 248,328.5C 242.202,351.631 227.702,366.131 204.5,372C 172.363,379.569 141.53,376.069 112,361.5C 111.5,346.504 111.333,331.504 111.5,316.5C 115.514,316.334 119.514,316.501 123.5,317C 143.273,334.037 165.94,340.037 191.5,335C 200.202,329.242 200.535,323.242 192.5,317C 177.178,312.669 161.845,308.336 146.5,304C 120.68,293.205 109.846,274.038 114,246.5C 120.875,227.293 134.041,214.46 153.5,208C 159.581,206.29 165.581,204.79 171.5,203.5 Z" /></g><g><path style="opacity:1" fill="#dec7ca" d="M 578.5,212.5 C 578.5,212.833 578.5,213.167 578.5,213.5C 493.493,212.836 408.827,213.503 324.5,215.5C 323.596,214.791 323.263,213.791 323.5,212.5C 408.5,212.5 493.5,212.5 578.5,212.5 Z" /></g><g><path style="opacity:1" fill="#fdfdfd" d="M 168.5,213.5 C 205.168,213.333 241.835,213.5 278.5,214C 275.999,220.003 273.999,226.169 272.5,232.5C 241.165,232.333 209.832,232.5 178.5,233C 170.724,234.253 163.891,237.42 158,242.5C 151.62,250.822 152.12,258.655 159.5,266C 176.429,270.816 193.429,275.483 210.5,280C 236.481,290.223 244.981,308.723 236,335.5C 230.443,346.724 221.943,354.89 210.5,360C 180.427,369.812 150.927,368.312 122,355.5C 121.333,346.167 121.333,336.833 122,327.5C 142.542,344.094 165.708,349.594 191.5,344C 195.327,342.254 198.993,340.254 202.5,338C 211.544,324.282 208.544,313.949 193.5,307C 180.833,303.667 168.167,300.333 155.5,297C 123.115,285.835 114.615,265.002 130,234.5C 140.674,223.415 153.507,216.415 168.5,213.5 Z" /></g><g><path style="opacity:1" fill="#fefdfd" d="M 578.5,213.5 C 578.5,219.833 578.5,226.167 578.5,232.5C 549.5,232.5 520.5,232.5 491.5,232.5C 491.5,276.167 491.5,319.833 491.5,363.5C 481.167,363.5 470.833,363.5 460.5,363.5C 460.5,320.167 460.5,276.833 460.5,233.5C 426.664,232.17 392.664,232.17 358.5,233.5C 358.624,234.107 358.957,234.44 359.5,234.5C 374.227,277.014 388.56,319.68 402.5,362.5C 392.347,363.494 382.014,363.828 371.5,363.5C 368.171,353.179 364.838,342.846 361.5,332.5C 341.833,331.167 322.167,331.167 302.5,332.5C 299.624,342.891 296.624,353.225 293.5,363.5C 283.319,363.827 273.319,363.494 263.5,362.5C 269.104,345.356 275.104,328.356 281.5,311.5C 305.833,311.5 330.167,311.5 354.5,311.5C 354.737,310.209 354.404,309.209 353.5,308.5C 344.036,277.44 334.369,246.44 324.5,215.5C 408.827,213.503 493.493,212.836 578.5,213.5 Z" /></g><g><path style="opacity:1" fill="#ab8c90" d="M 460.5,233.5 C 426.663,233.168 392.996,233.502 359.5,234.5C 358.957,234.44 358.624,234.107 358.5,233.5C 392.664,232.17 426.664,232.17 460.5,233.5 Z" /></g><g><path style="opacity:1" fill="#584245" d="M 578.5,232.5 C 578.5,232.833 578.5,233.167 578.5,233.5C 549.833,233.5 521.167,233.5 492.5,233.5C 492.832,277.003 492.499,320.337 491.5,363.5C 491.5,319.833 491.5,276.167 491.5,232.5C 520.5,232.5 549.5,232.5 578.5,232.5 Z" /></g><g><path style="opacity:1" fill="#fefefe" d="M -0.5,239.5 C 17.8333,239.5 36.1667,239.5 54.5,239.5C 54.6667,282.835 54.5,326.168 54,369.5C 52.5826,379.916 46.7493,386.082 36.5,388C 29.5,388.667 22.5,388.667 15.5,388C 10.268,385.976 4.93467,384.476 -0.5,383.5C -0.5,335.5 -0.5,287.5 -0.5,239.5 Z" /></g><g><path style="opacity:1" fill="#731925" d="M 568.5,568.5 C 568.5,459.833 568.5,351.167 568.5,242.5C 546.167,242.5 523.833,242.5 501.5,242.5C 501.832,286.003 501.499,329.337 500.5,372.5C 500.5,328.833 500.5,285.167 500.5,241.5C 523.5,241.5 546.5,241.5 569.5,241.5C 569.833,350.668 569.499,459.668 568.5,568.5 Z" /></g><g><path style="opacity:1" fill="#5c131d" d="M 341.5,300.5 C 342.043,300.56 342.376,300.893 342.5,301.5C 320.177,302.5 297.843,302.833 275.5,302.5C 297.5,301.833 319.5,301.167 341.5,300.5 Z" /></g><g><path style="opacity:1" fill="#7a5d61" d="M 353.5,308.5 C 354.404,309.209 354.737,310.209 354.5,311.5C 330.167,311.5 305.833,311.5 281.5,311.5C 305.684,311.164 329.684,310.164 353.5,308.5 Z" /></g><g><path style="opacity:1" fill="#71565a" d="M 263.5,362.5 C 273.319,363.494 283.319,363.827 293.5,363.5C 283.326,364.823 272.993,364.823 262.5,363.5C 262.624,362.893 262.957,362.56 263.5,362.5 Z" /></g><g><path style="opacity:1" fill="#72565a" d="M 402.5,362.5 C 403.043,362.56 403.376,362.893 403.5,363.5C 392.674,364.823 382.007,364.823 371.5,363.5C 382.014,363.828 392.347,363.494 402.5,362.5 Z" /></g><g><path style="opacity:1" fill="#651620" d="M 250.5,371.5 C 267.069,372.824 283.735,372.824 300.5,371.5C 292.361,372.831 283.861,373.498 275,373.5C 266.5,373.167 258,372.833 249.5,372.5C 249.624,371.893 249.957,371.56 250.5,371.5 Z" /></g></svg>